<svg xmlns="http://www.w3.org/2000/svg" xmlns:xlink="http://www.w3.org/1999/xlink" fill="none" version="1.1" width="1230" height="1117" viewBox="0 0 1230 1117"><defs><linearGradient x1="1" y1="0.976190447807312" x2="0.9432672645255575" y2="0.4160903340937982" id="master_svg0_441_8346"><stop offset="0%" stop-color="#70BFFC" stop-opacity="1"/><stop offset="100%" stop-color="#248EFF" stop-opacity="1"/></linearGradient><linearGradient x1="1.093421459197998" y1="0.14084236323833466" x2="0.22741110137964077" y2="1.0058313240985863" id="master_svg1_441_00814"><stop offset="0%" stop-color="#9ED3FF" stop-opacity="1"/><stop offset="100%" stop-color="#008DFF" stop-opacity="1"/></linearGradient><linearGradient x1="0.9371286034584045" y1="0" x2="0.23211453011726707" y2="1.023566032668041" id="master_svg2_441_01590"><stop offset="0%" stop-color="#8E89FF" stop-opacity="1"/><stop offset="99.28571581840515%" stop-color="#3666D6" stop-opacity="1"/></linearGradient><linearGradient x1="1" y1="0.9670329689979553" x2="0.8513646479288141" y2="0.33543365978786305" id="master_svg3_441_03278"><stop offset="0%" stop-color="#6861FF" stop-opacity="1"/><stop offset="100%" stop-color="#32D8D8" stop-opacity="1"/></linearGradient><linearGradient x1="1" y1="0.2975577712059021" x2="0.10893280604077485" y2="1.0519015654125576" id="master_svg4_443_1587"><stop offset="0%" stop-color="#56EDFD" stop-opacity="1"/><stop offset="100%" stop-color="#0094FF" stop-opacity="1"/></linearGradient><linearGradient x1="0" y1="0.9752992987632751" x2="0.8727738712862598" y2="0.055298679213959034" id="master_svg5_441_9816"><stop offset="0%" stop-color="#1A9199" stop-opacity="1"/><stop offset="100%" stop-color="#6FBFFC" stop-opacity="1"/></linearGradient></defs><g><g><g><path d="M312.566,490.572L492.202,310.774C518.672,284.281,563.971,303.021,563.971,340.465L563.971,1083.27C563.971,1113.23,527.732,1128.22,506.556,1107.03L29.5004,629.543C-9.84467,590.163,-9.83184,526.363,29.5291,486.998L506.565,9.9175C527.745,-11.2644,563.971,3.73076,563.971,33.6798L563.971,101.648C563.971,110.549,560.439,119.086,554.15,125.388L122.485,557.916L400.968,836.648C418.173,853.869,447.617,841.688,447.617,817.349L447.617,520.095L360.045,606.996C338.827,628.05,302.732,613.027,302.732,583.141L302.732,514.325C302.732,505.417,306.269,496.874,312.566,490.572Z" fill-rule="evenodd" fill="url(#master_svg0_441_8346)" fill-opacity="1"/></g><g><path d="M302.73211669921875,623.5045090332031C302.73211669921875,638.4475090332031,320.77961669921876,645.9595090332032,331.38841669921874,635.4325090332031L447.61711669921874,520.0945090332032Q516.5831166992187,453.63450903320313,548.0111166992187,468.18650903320315Q557.8181166992188,472.7275090332031,563.9701166992188,485.15750903320316L563.9701166992188,340.46530903320314C563.9701166992188,303.02080903320314,518.6721166992188,284.2806090332031,492.2021166992188,310.7743090332031L312.56559669921876,490.57150903320314C306.26890669921875,496.87450903320314,302.73211669921875,505.41750903320315,302.73211669921875,514.3245090332032L302.73211669921875,623.5045090332031Z" fill="url(#master_svg1_441_00814)" fill-opacity="1"/></g><g><path d="M90.13273420410157,427.083188438952Q55.24983420410156,462.02518843895194,122.48503420410157,557.915188438952L554.1499342041016,125.38718843895197C560.4389342041015,119.08618843895196,563.9709342041016,110.54918843895197,563.9709342041016,101.64818843895196L563.9709342041016,33.76398843895197C563.9709342041016,3.8030884389519692,527.7209342041016,-11.18661156104803,506.5479342041016,10.019118438951969L90.15673420410157,427.059188438952L90.13273420410157,427.083188438952Z" fill="url(#master_svg2_441_01590)" fill-opacity="1"/></g></g><g transform="matrix(-1,0,0,-1,2460,2234)"><g><path d="M1542.566,1607.5720000000001L1722.202,1427.774C1748.672,1401.281,1793.971,1420.021,1793.971,1457.465L1793.971,2200.27C1793.971,2230.23,1757.732,2245.2200000000003,1736.556,2224.0299999999997L1259.5004,1746.5430000000001C1220.15533,1707.163,1220.16816,1643.363,1259.5291,1603.998L1736.565,1126.9175C1757.745,1105.7356,1793.971,1120.73076,1793.971,1150.6798L1793.971,1218.648C1793.971,1227.549,1790.4389999999999,1236.086,1784.15,1242.388L1352.485,1674.9160000000002L1630.968,1953.6480000000001C1648.173,1970.8690000000001,1677.617,1958.688,1677.617,1934.3490000000002L1677.617,1637.095L1590.045,1723.996C1568.827,1745.05,1532.732,1730.027,1532.732,1700.141L1532.732,1631.325C1532.732,1622.417,1536.269,1613.874,1542.566,1607.5720000000001Z" fill-rule="evenodd" fill="url(#master_svg3_441_03278)" fill-opacity="1"/></g><g><path d="M1532.7321166992188,1740.5045090332032C1532.7321166992188,1755.447509033203,1550.7796166992186,1762.9595090332032,1561.3884166992189,1752.4325090332031L1677.6171166992187,1637.0945090332032Q1746.5831166992189,1570.6345090332031,1778.0111166992187,1585.186509033203Q1787.8181166992188,1589.7275090332032,1793.9701166992188,1602.157509033203L1793.9701166992188,1457.465309033203C1793.9701166992188,1420.020809033203,1748.6721166992188,1401.280609033203,1722.2021166992188,1427.774309033203L1542.5655966992188,1607.571509033203C1536.2689066992189,1613.8745090332031,1532.7321166992188,1622.417509033203,1532.7321166992188,1631.3245090332032L1532.7321166992188,1740.5045090332032Z" fill="url(#master_svg4_443_1587)" fill-opacity="1"/></g><g><path d="M1320.1327342041016,1544.083188438952Q1285.2498342041015,1579.025188438952,1352.4850342041016,1674.915188438952L1784.1499342041016,1242.3871884389519C1790.4389342041015,1236.086188438952,1793.9709342041015,1227.549188438952,1793.9709342041015,1218.648188438952L1793.9709342041015,1150.7639884389519C1793.9709342041015,1120.803088438952,1757.7209342041015,1105.813388438952,1736.5479342041017,1127.0191184389519L1320.1567342041017,1544.0591884389519L1320.1327342041016,1544.083188438952Z" fill="url(#master_svg5_441_9816)" fill-opacity="1"/></g></g></g></svg>