<svg xmlns="http://www.w3.org/2000/svg" viewBox="0 0 134.49 134.49"><path d="M134.49 67.25A67.25 67.25 0 1167.25 0a67.23 67.23 0 0167.24 67.25" fill="#f3f3f2"/><path fill="#f1caae" d="M64.47 103.16zm2.4-13.01c8.11-6.21 11-10.25 12.24-11a17.94 17.94 0 01-.69-4.23c-4 3.34-5.73 4.49-11 4.31-5.69.19-7.28-1.15-12-5.14l-.07-.09a19 19 0 01-.72 5.14c1.23.75 4.13 4.79 12.24 11.01z"/><path d="M61.56 121.66c.31-2 .61-4 .9-5.91v-.11c.93-6 1.7-10.86 2-12.48a1.17 1.17 0 01-.36-.34.6.6 0 01-.09-.13c-.16-.36-.32-.69-.48-1 0-.06-.07-.13-.1-.2a16.73 16.73 0 01-2-4.43c0-.15 0-.3-.07-.46a4 4 0 00-1 2.65c.33 3.56-10.83-9.56-10.65-14.6a38.55 38.55 0 01-4 1.9 219.52 219.52 0 0015.85 35.11zm-37.93-27.6h-.09.05s.03.01.04 0zM73.3 99.2a4 4 0 00-1-2.64c0 .16 0 .31-.06.46A7.17 7.17 0 0172 98a27.91 27.91 0 01-1.71 3.52l-.11.21c-.16.31-.32.65-.48 1a1 1 0 01-.09.13 1.1 1.1 0 01-.37.34c.29 1.6 1.06 6.35 2 12.32a2.34 2.34 0 000 .26c.23 1.54.48 3.15.73 4.81a208.85 208.85 0 0015.5-34.21A37.69 37.69 0 0184 84.7c0 5.12-11 18.03-10.7 14.5zm36.4-5.09a5.22 5.22 0 01.63.11l-.73-.28s.08.06.1.17z" fill="#9d9d9d"/><path d="M23.6 94.09h-.05a4.67 4.67 0 00-.84.15c-3 .81-5.08 8.11-6.94 16.26a67.51 67.51 0 0016.1 13.93 33.36 33.36 0 00-.42-4.63c-1.13-6.25-8.79-24.87-7.85-25.71zm94.03 17.67c-2-8.62-4-16.67-7.21-17.52h-.09a5.22 5.22 0 00-.63-.11c.39 1.91-6.82 19.65-7.91 25.69a34.76 34.76 0 00-.44 5.4" fill="#959494"/><path d="M71.29 119.06h-1.65v-3.73h1.58v.15c-.92-6-1.69-10.72-2-12.32l-.1.07a1.29 1.29 0 01-.28.08v.09H68l-.89.06h-.56l-.88-.06h-.86v-.09a1.2 1.2 0 01-.27-.08l-.11-.07c-.29 1.62-1.06 6.44-2 12.48v-.31h1.59v3.73h-1.56v-3.31c-.29 1.87-.59 3.86-.9 5.91 0-.34.1-.69.15-1v1.28l.75 1.25v-2.62h1.65v3.73h-1c.57.91 1.14 1.78 1.7 2.58v-1.09h1.69v2.82c.25-.29.5-.6.75-.91v-1.91h1.42c.34-.48.68-1 1-1.49v-3.73h1.65v1.22l.73-1.22c-.25-1.66-.5-3.27-.73-4.81zm-1.65-13.74c.15.91.33 2 .53 3.3h-.53zm0 4.79h.77c.18 1.16.38 2.4.58 3.73h-1.35zm-3.14-5.22v3.73h-1.65v-3.73zm-2.39 9h-1.36c.21-1.33.4-2.57.59-3.73h.77zm0-5.22h-.54l.54-3.31zm2.39 15.66h-1.65v-3.73h1.65zm0-5.22h-1.65v-3.73h1.65zm0-5.22h-1.65v-3.73h1.65zm2.39 10.44h-1.64v-3.73h1.64zm0-5.22h-1.64v-3.73h1.64zm0-5.22h-1.64v-3.73h1.64zm0-5.22h-1.64v-3.73h1.64z" fill="#f0f0f0"/><path d="M63.53 101.69zm-2.12-5.14zm10.86.51A7.17 7.17 0 0172 98a7.17 7.17 0 00.27-.94zm.07-.5zm-2.13 5.14zm-5.63 1.53a1.2 1.2 0 00.27.08v-3.64h1.65v3.73h-.79l.88.06h.56l.89-.06h-.79v-3.73h1.64v3.64a1.29 1.29 0 00.28-.08l.1-.07a1.1 1.1 0 00.37-.34v-3.15h1.64c-.29.57-.62 1.16-1 1.82A27.91 27.91 0 0072 98v-1.85c-.23-.29-.48-.57-.74-.86v2.89h-1.62v-3.73h.82c-.55-.52-1.11-1-1.63-1.49h-1.58v-1.5a3.56 3.56 0 01-.38-.47 2.79 2.79 0 01-.37.47V93h-1.59c-.52.47-1.08 1-1.62 1.49h.82v3.73h-1.65v-2.93c-.27.28-.52.57-.75.86V98a7.13 7.13 0 01-.23-.91 16.73 16.73 0 002 4.43c-.34-.65-.67-1.25-1-1.82h1.64v3.15a1.17 1.17 0 00.36.34zm2.67-8.78h1.64v3.73h-1.64zm-2.4 0h1.65v3.73h-1.65z" fill="#fff"/><path fill="#040000" d="M66.5 99.67h-1.65v3.73h1.65v-3.73zm-1.65 5.22h1.65v3.73h-1.65zm0-10.44h1.65v3.73h-1.65zm0 15.66h1.65v3.73h-1.65zm0 15.66v1.09c.49.7 1 1.35 1.45 2l.2-.23v-2.82zm0-5.22h1.65v3.73h-1.65zm0-5.22h1.65v3.73h-1.65zm-3.29 6.33l.15.26v-1.28c-.05.36-.1.68-.15 1.02zm.9-23.48h1.65v-3.73h-.82c-.29.28-.56.56-.83.84zm-.75-2.03l-.3.4c0 .16 0 .31.07.46a7.13 7.13 0 00.23.91zm2.4 3.52h-1.64c.29.57.62 1.17 1 1.82 0 .07.07.14.1.2.16.32.32.65.48 1a.6.6 0 00.09.13zm0 20.88h-1.65v2.62q.34.57.69 1.11h1zm0-1.49v-3.73h-1.59v3.73zm0-10.44v-3.31l-.54 3.31zm-1.36 5.22h1.36v-3.73h-.77c-.19 1.16-.34 2.4-.59 3.73zm6.89 6.71v3.73c.53-.8 1.06-1.63 1.6-2.51v-1.22zm0-5.22v3.73h1.65v-3.32a2.34 2.34 0 010-.26v-.15zM66.5 91.46c-.4.43-1 .94-1.59 1.5h1.59zM68.83 93c-.63-.56-1.19-1.07-1.58-1.5V93zm-1.58 17.11h1.65v3.73h-1.65zm0 10.44h1.65v3.73h-1.65zm0-5.22h1.65v3.73h-1.65zm1.64-15.66h-1.64v3.73h1.64v-3.73zm-1.64 5.22h1.65v3.73h-1.65zm0 22.79c.47-.6.94-1.23 1.42-1.91h-1.42zm0-33.23h1.65v3.73h-1.65zm2.39 10.87v3.3h.53c-.17-1.27-.38-2.39-.53-3.3zm0-5.65v3.15a1 1 0 00.09-.13c.16-.36.32-.68.48-1l.11-.21c.34-.66.67-1.25 1-1.82zM72 98a7.17 7.17 0 00.24-.91c0-.15 0-.3.06-.46-.1-.13-.2-.27-.31-.4V98zm-2.36.18h1.65v-2.89l-.83-.84h-.82zm.77 11.93h-.77v3.73H71c-.21-1.33-.41-2.57-.59-3.73z"/><path d="M60.45 99.2a4 4 0 011-2.65l.3-.4c.23-.29.48-.58.75-.86s.54-.56.83-.84c.54-.52 1.1-1 1.62-1.49s1.19-1.07 1.59-1.5a2.79 2.79 0 00.37-.47 3.56 3.56 0 00.38.47c.39.43 1 .94 1.58 1.5s1.08 1 1.63 1.49l.83.84c.26.29.51.57.74.86.11.13.21.27.31.4a4 4 0 011 2.64C73 102.73 84 89.82 84 84.7v-.36c-.09-.72-2.2-1.82-4.15-5.11-.15-.26-.36-.27-.68-.08-1.23.75-4.13 4.79-12.24 11-8.11-6.22-11-10.26-12.24-11-.31-.19-.53-.18-.68.08-2 3.29-4.05 4.39-4.14 5.11a2.17 2.17 0 000 .26c-.25 5.04 10.91 18.16 10.58 14.6z" fill="#838384"/><path d="M62.49 132.11a13.73 13.73 0 003.81-3.29c-.47-.61-1-1.26-1.45-2s-1.13-1.67-1.7-2.58q-.34-.54-.69-1.11l-.75-1.25-.15-.26A219.52 219.52 0 0145.81 86.5c-.49-1.25-21 7-22.17 7.56-.94.84 6.72 19.46 7.85 25.71a33.36 33.36 0 01.42 4.63A66.72 66.72 0 0062 134.27c.15-1.27.3-2.06.49-2.16z" fill="#282629"/><path d="M101.35 125.2a34.76 34.76 0 01.44-5.4c1.09-6 8.3-23.78 7.91-25.69 0-.08 0-.15-.09-.17-1.17-.52-21.69-8.84-22.13-7.56A208.85 208.85 0 0172 120.55l-.73 1.22c-.54.88-1.07 1.71-1.6 2.51-.34.51-.68 1-1 1.49-.48.68-1 1.31-1.42 1.91-.25.31-.5.62-.75.91l-.2.23a13.73 13.73 0 01-3.81 3.29c-.19.1-.34.89-.47 2.16 1.73.13 3.47.22 5.23.22a66.88 66.88 0 0034.1-9.29" fill="#1a1a1b"/><path d="M67.41 79.23c5.28.18 7-1 11-4.31l1-.83c4.93-4.19 2.44-12.94 5.44-12.39s6.29-7.44 4.18-9.45c-1-.09-1.87.88-2.66 2.2-.89 1.49-.54 3.79-1.42 3.74-1.19-4-.93-7.62-.69-11.81C76 48.8 67.47 50.06 60.59 45c-1.41-1-2.77-2.4-4.91-2.36-2.47 0-3.46 1.5-3.11 3.87.17 1.19.25 2.8.32 3.5A10.07 10.07 0 0151 56.1c-.37.38-1.27 2-1.8 2.09s-.14-2.47-1.62-4.69c-1.16-1.75-1.7-1.37-1.7-1.37C43.56 54 47 62.25 50 61.7s.55 8.1 5.37 12.31l.08.08c4.68 3.99 6.27 5.33 11.96 5.14z" fill="#f9d2b5"/><path d="M47.61 53.5c1.48 2.22 1.18 4.8 1.62 4.69s1.43-1.71 1.8-2.09a10.07 10.07 0 001.86-6.1c-.07-.7-.15-2.31-.32-3.5-.35-2.37.64-3.83 3.11-3.87 2.14 0 3.5 1.32 4.91 2.36 6.88 5.05 15.4 3.79 23.66 1.37-.24 4.19-.5 7.78.69 11.81.88.05.53-2.25 1.42-3.74.79-1.32 1.63-2.29 2.66-2.2a2.87 2.87 0 01.38.08c2.46-5.22 2.72-13.7.29-18.93s-6.3-7.68-10.14-12c.35 1.18-1.24 2.95-2.75 3.08-1.26.12-3.35-.56-4.61-.71-6.36-.77-10-1.06-15.18.77a19.36 19.36 0 00-7.22 4.22 19.88 19.88 0 00-5.18 10.65 26.75 26.75 0 00-.19 6.38c.12 1.14.81 5.36 1.49 6.38 0-.02.54-.4 1.7 1.35z" fill="#554c44"/></svg>
