<svg xmlns="http://www.w3.org/2000/svg" viewBox="0 0 500 500"><g id="freepik--background-complete--inject-2"><path d="M71,378.37a21.42,21.42,0,0,1,13.27-1.61c2.41.4,4.92,1.12,6.56,2.93s2,5,.06,6.54a6.23,6.23,0,0,1-4.13,1c-3.51,0-7.4-.66-10.2,1.45-1.6,1.21-2.67,3.21-4.58,3.8a4.51,4.51,0,0,1-5-2.21,7.7,7.7,0,0,1-.56-5.7A8.69,8.69,0,0,1,71,378.37Z" style="fill:#ebebeb"></path><path d="M61.72,360.52c2.47,3.53,7.27,2.36,9.49.21s3.17-5.27,4-8.25c2-6.79,3.93-13.92,2.47-20.84A11.51,11.51,0,0,0,75,326a6.06,6.06,0,0,0-5.73-1.91c-2.42.64-3.92,3-5,5.26a49.7,49.7,0,0,0-4.91,21.33c0,3.43.39,7,2.33,9.87" style="fill:#ebebeb"></path><path d="M54.94,365.58c2.68-3.18,3.19-7.82,2-11.81a22.88,22.88,0,0,0-7-10.14,37.77,37.77,0,0,0-12.52-7.39,13.53,13.53,0,0,0-5.64-.95,5.89,5.89,0,0,0-4.72,2.86c-1.32,2.51-.06,5.56,1.31,8.05a96.09,96.09,0,0,0,8.22,12.52c2.47,3.18,5.29,6.31,9,7.75s7.66,1.26,9.65-1.34" style="fill:#ebebeb"></path><path d="M61.55,413.7a7.74,7.74,0,0,0,.23-1.6c.11-1.17.25-2.63.42-4.37a62.38,62.38,0,0,1,1-6.41,47.67,47.67,0,0,1,2.33-7.57,27.92,27.92,0,0,1,3.86-6.85,14.38,14.38,0,0,1,4.89-4.06,13.4,13.4,0,0,1,4.11-1.28,7.4,7.4,0,0,0,1.6-.24,8.22,8.22,0,0,0-1.63,0,12.39,12.39,0,0,0-4.29,1.12,14.32,14.32,0,0,0-5.15,4.09,27.15,27.15,0,0,0-4,7,46.69,46.69,0,0,0-2.31,7.69,52.24,52.24,0,0,0-.85,6.5c-.14,1.85-.2,3.36-.22,4.39A8.51,8.51,0,0,0,61.55,413.7Z" style="fill:#e0e0e0"></path><path d="M61.85,410.34a2.75,2.75,0,0,0,0-.75c0-.55,0-1.26,0-2.12,0-1.85,0-4.52.1-7.81.16-6.59.73-13.69,1.82-23.69,1-9.41,2.44-20.36,3.91-27.48.31-1.61.63-3.07.93-4.35s.53-2.38.76-3.27.37-1.52.5-2.06a3.93,3.93,0,0,0,.13-.74,3.75,3.75,0,0,0-.26.7l-.62,2c-.27.88-.55,2-.87,3.25s-.69,2.72-1,4.34a238.19,238.19,0,0,0-4.1,25.49c-1.1,10-1.6,19.15-1.64,25.76,0,3.3,0,6,.11,7.83.06.86.1,1.56.13,2.12A3.58,3.58,0,0,0,61.85,410.34Z" style="fill:#e0e0e0"></path><path d="M61.9,392.73a14.48,14.48,0,0,0,0-2.22c-.08-1.42-.28-3.49-.68-6a79,79,0,0,0-2-8.77,72.55,72.55,0,0,0-3.67-10.37A55.3,55.3,0,0,0,44.82,348.6a26.25,26.25,0,0,0-2.54-2.35c-.38-.33-.73-.66-1.08-.92l-1-.68a13.82,13.82,0,0,0-1.87-1.19,63.91,63.91,0,0,1,6.13,5.46A58.31,58.31,0,0,1,55,365.62a80.41,80.41,0,0,1,3.69,10.28,88.46,88.46,0,0,1,2.08,8.68c.46,2.5.73,4.54.89,5.95A13.27,13.27,0,0,0,61.9,392.73Z" style="fill:#e0e0e0"></path><polygon points="43.7 421.11 45.47 445.28 76.52 445.28 78.28 421.11 43.7 421.11" style="fill:#ebebeb"></polygon><rect x="40.71" y="411.59" width="41.28" height="9.53" style="fill:#ebebeb"></rect><polygon points="40.71 444.36 40.71 447 42.65 447 81.3 447 81.3 444.36 40.71 444.36" style="fill:#e0e0e0"></polygon><polygon points="44.55 451.35 42.65 446.7 79.82 446.7 77.61 451.35 44.55 451.35" style="fill:#e0e0e0"></polygon><path d="M77.7,429s0,.08-.14.22l-.47.62-1.8,2.31-.08.11-.08-.11L70.68,426h.26c-1.32,1.88-2.79,4-4.38,6.2l-.13.19-.16-.18-5.18-6.17h.3l-.29.36-4.64,5.82-.15.19-.15-.2L51.79,426H52l-5.39,6.14-.1.11-.07-.12-1.69-2.84c-.17-.31-.32-.56-.43-.75a1.84,1.84,0,0,1-.13-.27s.07.07.18.24.28.43.48.72l1.77,2.79-.17,0c1.38-1.62,3.18-3.73,5.31-6.21l.13-.16.12.17L56.47,432h-.3l4.63-5.83.28-.36.15-.18.15.18L66.56,432l-.29,0,4.41-6.17.13-.18.13.18L75.29,432h-.16L77,429.78l.51-.58A1.83,1.83,0,0,1,77.7,429Z" style="fill:#f5f5f5"></path><path d="M78.71,421c0,.11-7.78.2-17.37.2S44,421.06,44,421s7.78-.19,17.38-.19S78.71,420.85,78.71,421Z" style="fill:#f5f5f5"></path><rect x="171.63" y="369.18" width="149.88" height="25.26" style="fill:#e0e0e0"></rect><path d="M286.39,341a8.38,8.38,0,0,1,10.27-4.26A7.88,7.88,0,0,1,311,335.64a5.47,5.47,0,0,1,5.51,8.29" style="fill:#e0e0e0"></path><path d="M302.81,364.93h0a19.45,19.45,0,0,1-19.45-19.45v-4.55h38.9v4.55A19.45,19.45,0,0,1,302.81,364.93Z" style="fill:#f5f5f5"></path><polygon points="268.78 364.93 257.84 364.93 253.8 344.18 273 344.18 268.78 364.93" style="fill:#e0e0e0"></polygon><rect x="159.76" y="364.93" width="172.22" height="8.51" style="fill:#e0e0e0"></rect><polygon points="189.63 364.93 178.69 364.93 174.65 344.18 193.85 344.18 189.63 364.93" style="fill:#ebebeb"></polygon><polygon points="259.88 364.93 248.94 364.93 244.9 344.18 264.1 344.18 259.88 364.93" style="fill:#f5f5f5"></polygon><path d="M206.33,364.93V321.85a6,6,0,0,1,6-6h.24v-10h7.71v9.74h0a6,6,0,0,1,6,6v43.32Z" style="fill:#e0e0e0"></path><rect x="167.08" y="373.43" width="4.56" height="77.96" transform="translate(338.71 824.83) rotate(180)" style="fill:#e0e0e0"></rect><rect x="321.52" y="373.43" width="4.4" height="77.96" style="fill:#e0e0e0"></rect><path d="M251,383.57a4.09,4.09,0,1,1-4.09-4.08A4.09,4.09,0,0,1,251,383.57Z" style="fill:#f5f5f5"></path><path d="M330.43,373.43c0,.29-38.07.52-85,.52s-85-.23-85-.52,38.06-.52,85-.52S330.43,373.15,330.43,373.43Z" style="fill:#ebebeb"></path><rect x="26.05" y="88.69" width="95.75" height="138.78" style="fill:#e0e0e0"></rect><rect x="21.26" y="88.69" width="95.75" height="138.78" style="fill:#f5f5f5"></rect><rect x="33.15" y="103.72" width="71.95" height="108.72" style="fill:#fff"></rect><path d="M105.11,212.43s0-.18,0-.53,0-.87,0-1.54c0-1.36,0-3.37,0-6,0-5.21,0-12.81-.06-22.4,0-19.17-.07-46.32-.12-78.28l.24.23-71.95,0h0l.26-.26c0,41,0,78.82,0,108.71l-.21-.2,52.38.11,14.47,0,3.79,0,1.32,0-1.27,0-3.76,0-14.42.05-52.51.11H33v-.21c0-29.89,0-67.7-.06-108.71v-.26h.27l72,0h.24v.24c0,32-.09,59.23-.12,78.44,0,9.57,0,17.14-.06,22.34,0,2.58,0,4.56,0,5.92,0,.66,0,1.16,0,1.51S105.11,212.43,105.11,212.43Z" style="fill:#e0e0e0"></path><path d="M117.27,88.69a16,16,0,0,1-1.7,2.47c-1.12,1.49-2.69,3.52-4.5,5.7s-3.48,4.13-4.73,5.5a15.67,15.67,0,0,1-2.11,2.15,20.25,20.25,0,0,1,1.83-2.39c1.29-1.55,2.86-3.47,4.61-5.59s3.32-4,4.61-5.59A16.75,16.75,0,0,1,117.27,88.69Z" style="fill:#e0e0e0"></path><path d="M105.47,212.08A89.64,89.64,0,0,0,118,227.78" style="fill:#fff"></path><path d="M118,227.78a14.2,14.2,0,0,1-2.18-2,70.08,70.08,0,0,1-4.74-5.34c-1.74-2.18-3.18-4.25-4.17-5.79a14.72,14.72,0,0,1-1.46-2.58,19.82,19.82,0,0,1,1.77,2.37c1.06,1.48,2.54,3.51,4.27,5.68s3.38,4.05,4.6,5.41A18.52,18.52,0,0,1,118,227.78Z" style="fill:#e0e0e0"></path><path d="M21.24,227.36l12.54-15.48" style="fill:#fff"></path><path d="M33.78,211.88a92.46,92.46,0,0,1-6.06,7.9,93.78,93.78,0,0,1-6.48,7.58,97.71,97.71,0,0,1,6.07-7.91A95.83,95.83,0,0,1,33.78,211.88Z" style="fill:#e0e0e0"></path><path d="M21.26,88.69A84.64,84.64,0,0,1,27.34,96a85,85,0,0,1,5.68,7.6,88.12,88.12,0,0,1-6.08-7.28A85.78,85.78,0,0,1,21.26,88.69Z" style="fill:#e0e0e0"></path><rect x="58.6" y="125.79" width="24.09" height="68.41" style="fill:#e0e0e0"></rect><polygon points="485.48 79.83 485.48 153.22 380.08 153.22 376.28 80.35 485.48 79.83" style="fill:#e0e0e0"></polygon><rect x="392.62" y="64" width="72.72" height="105.41" transform="translate(312.28 545.69) rotate(-90)" style="fill:#fff"></rect><path d="M482.19,153.57H375.78V79.85H482.19Zm-105.41-1H481.19V80.85H376.78Z" style="fill:#e0e0e0"></path><rect x="387.7" y="89.38" width="82.57" height="54.65" style="fill:#fff"></rect><path d="M470.27,89.38l-.41,0h-1.17l-4.54,0-17,.06-59.44.12.23-.24c0,16.7,0,35.2,0,54.65h0l-.26-.26,82.57.06-.21.2c.05-16.63.09-30.27.11-39.76,0-4.75,0-8.46.05-11,0-1.25,0-2.22,0-2.89s0-1,0-1,0,.32,0,1,0,1.61,0,2.85c0,2.53,0,6.22.05,11,0,9.53.06,23.21.11,39.89v.21h-.21l-82.57,0h-.27V144h0c0-19.45,0-37.95,0-54.65v-.24h.24l59.59.12,17,.06,4.48,0,1.15,0Z" style="fill:#e0e0e0"></path><path d="M376.28,80.14a9.68,9.68,0,0,1,1.81,1.18c1.08.77,2.55,1.88,4.13,3.15s3,2.47,4,3.37a9.22,9.22,0,0,1,1.51,1.54,72.67,72.67,0,0,1-5.8-4.51A56.83,56.83,0,0,1,376.28,80.14Z" style="fill:#e0e0e0"></path><path d="M481.69,80.35a52.76,52.76,0,0,1-5.55,4.72,51.6,51.6,0,0,1-5.87,4.31,50.22,50.22,0,0,1,5.55-4.72A48.78,48.78,0,0,1,481.69,80.35Z" style="fill:#e0e0e0"></path><path d="M481.6,153.08l-11.75-9.53" style="fill:#fff"></path><path d="M469.85,143.55a56,56,0,0,1,6,4.56,54.3,54.3,0,0,1,5.71,5,56,56,0,0,1-6-4.56A55.59,55.59,0,0,1,469.85,143.55Z" style="fill:#e0e0e0"></path><path d="M376.28,153.07a48.4,48.4,0,0,1,5.49-4.67,50.59,50.59,0,0,1,5.81-4.27,49.63,49.63,0,0,1-5.49,4.67A50.59,50.59,0,0,1,376.28,153.07Z" style="fill:#e0e0e0"></path><rect x="421.29" y="89.58" width="18.3" height="51.96" transform="translate(314.88 546) rotate(-90)" style="fill:#e0e0e0"></rect><rect x="231.77" y="61.36" width="130.02" height="215.22" style="fill:#e0e0e0"></rect><rect x="227.44" y="61.36" width="130.02" height="215.22" style="fill:#ebebeb"></rect><rect x="232.98" y="65.72" width="118.95" height="206.49" style="fill:#fafafa"></rect><rect x="255.62" y="92.55" width="73.14" height="152.83" style="fill:#ebebeb"></rect><path d="M255.62,191.3c-.17-14.28,12.67-28.21,26.81-30.21,6.74-1,13.9.39,20.2-2.19,11.24-4.61,14.82-19.55,26.14-24l.51,110.46H255.62Z" style="fill:#e0e0e0"></path></g><g id="freepik--Floor--inject-2"><path d="M471.55,451.35c0,.15-99.2.26-221.54.26s-221.56-.11-221.56-.26,99.18-.26,221.56-.26S471.55,451.21,471.55,451.35Z" style="fill:#263238"></path></g><g id="freepik--Couple--inject-2"><path d="M269.42,179.28s-35.6-35.47-38.28-38a5.71,5.71,0,0,0-1.06-.76l-5.41-5.59s-7.52-.48-7.92-.48c-2.39,0-1,2.26-1,2.26-1.79.64.13,2.68.13,2.68-2.17,1.15-.13,2.93-.13,2.93a1.51,1.51,0,0,0-.44,2.64l5.7,2.93V148l1.17.46,4.95,2.55.24-.29c2,2.94,22.55,32.38,27.38,38.27,5.09,6.21,28.47,20,28.47,20l9.68-18.54Z" style="fill:#ffbe9d"></path><path d="M214.63,126.25l-1.88-18.56,9.9-1,1.88,18.57a5,5,0,0,1-3.7,5.29l2.59,25.56c2.29-.19,4.06-.18,4.08.06s-2.09.7-4.74,1-4.81.27-4.83,0,1.7-.61,4-.87l-2.59-25.56A5,5,0,0,1,214.63,126.25Z" style="fill:#e0e0e0"></path><path d="M227.41,137.78l-8.62-3.91a3,3,0,0,0,.23,2.68,6.9,6.9,0,0,0,1.92,2,19.31,19.31,0,0,1,2.17,1.75,6.09,6.09,0,0,0,.52,5.24,4,4,0,0,0,4.77,1.5" style="fill:#ffbe9d"></path><path d="M223,116.35a2.66,2.66,0,0,0-2.53,1.14,5.56,5.56,0,0,1-2.18,1.92,5.65,5.65,0,0,1-2,.07c-.66,0-.8-.3-1.31.13,0,0,.43,6.53,1.3,8.29,1.29,2.61,6.83,2.29,7.39-1.39C224,124.37,223,116.35,223,116.35Z" style="fill:currentColor"></path><path d="M226.64,137.43a14.28,14.28,0,0,1-2.28-.86c-1.42-.59-3.4-1.45-5.7-2.47l.34-.17a4.05,4.05,0,0,0,1.06,3.35,9,9,0,0,0,1.85,1.59c.33.23.67.42,1,.68a1.53,1.53,0,0,1,.45.52,1.25,1.25,0,0,1,.12.68c-.05.43-.16.75-.2,1.08a5.54,5.54,0,0,0,0,1,5.78,5.78,0,0,0,.36,1.74,6.11,6.11,0,0,0,1.41,2.18c.45.44.75.63.72.67a2.41,2.41,0,0,1-.85-.52,5.63,5.63,0,0,1-1.62-2.19,6,6,0,0,1-.45-1.85,6.4,6.4,0,0,1,0-1.07c0-.37.15-.75.18-1.07.11-.63-.71-1-1.38-1.42a9.3,9.3,0,0,1-2-1.67,4.49,4.49,0,0,1-1.14-3.8l.07-.3.27.13c2.29,1,4.24,2,5.62,2.64A14.78,14.78,0,0,1,226.64,137.43Z" style="fill:#eb996e"></path><path d="M217.68,146s.16.14.45.11a.68.68,0,0,0,.6-.86c-.08-.55-.64-1-1.32-1.41l-2.19-1.53.29-.41a11.43,11.43,0,0,0,1.68,1,9.57,9.57,0,0,0,1.59.57c.48.11.88-.23.71-.53s-.65-.65-1-1l-1-.86a12.62,12.62,0,0,1-1.84-1.78,11.52,11.52,0,0,1,2.07,1.5l1,.81.56.45a2,2,0,0,1,.58.64.83.83,0,0,1-.24,1,1.24,1.24,0,0,1-1,.22,8.64,8.64,0,0,1-1.73-.6,10.5,10.5,0,0,1-1.76-1l.3-.41,2.16,1.58a7.41,7.41,0,0,1,.91.75,1.73,1.73,0,0,1,.47,1,1,1,0,0,1-.28.86.88.88,0,0,1-.64.23C217.75,146.28,217.66,146,217.68,146Z" style="fill:#eb996e"></path><path d="M218.6,141.89c0-.08.43-.2.83-.62a.67.67,0,0,0,0-.85,5.68,5.68,0,0,0-1-.95,13.32,13.32,0,0,1-2.67-2.65,13.88,13.88,0,0,1,3,2.25,4.81,4.81,0,0,1,1.06,1.1,1.18,1.18,0,0,1,.17.75.94.94,0,0,1-.31.6,1.57,1.57,0,0,1-.78.37C218.72,141.93,218.61,141.93,218.6,141.89Z" style="fill:#eb996e"></path><path d="M218.89,139.75c0-.07.43,0,.78-.38a1.49,1.49,0,0,0-.3-1.88,12.19,12.19,0,0,1-2.12-2.64,10.49,10.49,0,0,1,2.53,2.31,2.45,2.45,0,0,1,.58,1.32,1.35,1.35,0,0,1-.43,1.15,1,1,0,0,1-.77.26C219,139.86,218.88,139.78,218.89,139.75Z" style="fill:#eb996e"></path><path d="M282.57,233.72c.68-2.09,9.51.31,10.28.46s1-1,.3-1c-1-.14-11.47-1.87-10.82-3.92.36-1.14,2.34-.31,2.34-.31s9.68,2.33,10,1.35-5.36-2.56-7.3-2.95-2.51-1.45-1.63-2.16c.59-.48,6.56.58,8.46,1s7.12,1.71,5.07-1-2.61-5.58-2.22-6.46a1.07,1.07,0,0,1,2,.38,12.45,12.45,0,0,0,1.51,3.08,8.08,8.08,0,0,0,1.86,2.09c.83.66,1.56,1.19,2.2,1.62,4.73.45,22.2.42,34-3.38,2.83-.91,15.44-23.63,15.44-23.63h0L369.32,209l-10.6,18.57c-9.52,20.71-57.53,11.76-57.53,11.76v0a104.16,104.16,0,0,1-11-.08c-5-.53-5-1-4.84-1.56.43-1.55,8.91.59,7.35-.93S282.05,235.32,282.57,233.72Z" style="fill:#eb996e"></path><path d="M340.22,225.06l14.91-11.16-4.22-8.45a44.38,44.38,0,0,0-6.75-10.65,23.92,23.92,0,0,0-13.83-7.06c-3.76-.59-7.39-.81-7.39-.81l-16.18,1.26c-3.71.22-8.74.12-8.74.12l-18.1-6.83-9.26,22.18,18,8.64a30,30,0,0,0-.82,6.95,16.56,16.56,0,0,0,4.66,10l.07.06,5,26.74,39-3.4-2.48-11,2.66-21.29Z" style="fill:#263238"></path><path d="M294.42,232.16a4.08,4.08,0,0,1-.78-.69,18.13,18.13,0,0,1-1.81-2.2,20.46,20.46,0,0,1-2.75-18,17.85,17.85,0,0,1,1.07-2.63,3.38,3.38,0,0,1,.54-.89c.09,0-.62,1.35-1.26,3.63a21.47,21.47,0,0,0,2.71,17.66C293.43,231.05,294.49,232.09,294.42,232.16Z" style="fill:#455a64"></path><path d="M325.45,231.52a2.14,2.14,0,0,1-.73.23,11.59,11.59,0,0,1-2.09.24,14.36,14.36,0,0,1-12-5.88,11.57,11.57,0,0,1-1.09-1.8,1.85,1.85,0,0,1-.27-.72c.08,0,.56.94,1.65,2.29a15.28,15.28,0,0,0,11.75,5.74C324.37,231.65,325.44,231.43,325.45,231.52Z" style="fill:#455a64"></path><path d="M335.19,189.16c0,.06-.5.09-1.34.35a8.23,8.23,0,0,0-3.13,1.92,10.33,10.33,0,0,0-2.76,4.66,13.93,13.93,0,0,0,0,6.67,27.88,27.88,0,0,0,2.43,6.33c.95,1.87,1.91,3.51,2.68,4.91s1.34,2.56,1.71,3.37a6.24,6.24,0,0,1,.49,1.3,7.54,7.54,0,0,1-.68-1.21c-.41-.78-1-1.91-1.84-3.28s-1.8-3-2.79-4.87a26.35,26.35,0,0,1-2.5-6.44,13.91,13.91,0,0,1,0-6.91,10.52,10.52,0,0,1,3-4.8,7.83,7.83,0,0,1,3.34-1.84,5.24,5.24,0,0,1,1-.16A1.2,1.2,0,0,1,335.19,189.16Z" style="fill:#455a64"></path><path d="M309.3,249.41c0,.06-.43-.06-1-.42a5.77,5.77,0,0,1-1.76-1.86,6,6,0,0,1-.82-2.44c-.06-.66,0-1.06.1-1.06a13.47,13.47,0,0,0,1.17,3.23A14.51,14.51,0,0,0,309.3,249.41Z" style="fill:#455a64"></path><path d="M308.56,249.32a3.78,3.78,0,0,1-2.41-.81c-1.21-.78-1.84-1.79-1.73-1.87s.88.71,2,1.43S308.6,249.17,308.56,249.32Z" style="fill:#455a64"></path><path d="M308.64,393.24c-.41,1.6-9.85,54.52-9.85,54.52l-14.45-1.08,2.64-54Z" style="fill:#ffbe9d"></path><path d="M283.9,447.51,284,446l15.4.32-.09,5-.95,0c-4.24.14-21.56.43-24.37-.42C270.81,450,283.9,447.51,283.9,447.51Z" style="fill:currentColor"></path><g style="opacity:0.30000000000000004"><path d="M293.7,451.11a4.92,4.92,0,0,1,2-3,5.47,5.47,0,0,1,3.61-1l-.09,4Z"></path></g><g style="opacity:0.30000000000000004"><path d="M277.5,448.94s-4.6,1.14-4,1.85,18.06,1,25.8.54l0-.32-20.43-.21S278.39,449,277.5,448.94Z"></path></g><path d="M299.48,451l-.26,0-.76,0-2.79.06c-2.36,0-5.61,0-9.21,0s-6.85-.19-9.2-.31l-2.79-.15-.75-.06-.26,0h.26l.76,0,2.79.1c2.35.09,5.6.19,9.2.26s6.84.07,9.2.07h3.55Z" style="fill:#263238"></path><path d="M278.81,451a6.14,6.14,0,0,0-.49-1.24,5.88,5.88,0,0,0-.93-1,2,2,0,0,1,1.09.92A1.78,1.78,0,0,1,278.81,451Z" style="fill:#263238"></path><path d="M283.38,449s-.25-.22-.47-.56-.35-.62-.31-.64.26.22.47.55S283.43,448.94,283.38,449Z" style="fill:#263238"></path><path d="M284.64,448.38s-.27-.12-.53-.34-.44-.44-.41-.47.27.11.53.34S284.68,448.35,284.64,448.38Z" style="fill:#263238"></path><path d="M285.46,447.05a2,2,0,0,1-.81.08,1.86,1.86,0,0,1-.8-.09,1.77,1.77,0,0,1,.8-.08A1.89,1.89,0,0,1,285.46,447.05Z" style="fill:#263238"></path><path d="M285.75,446.11a1.67,1.67,0,0,1-.9.22,1.7,1.7,0,0,1-.92-.13,5.6,5.6,0,0,1,.91,0A4.35,4.35,0,0,1,285.75,446.11Z" style="fill:#263238"></path><path d="M282.89,447.72a3.12,3.12,0,0,1-1,0,6.29,6.29,0,0,1-1.05-.23,3.18,3.18,0,0,1-.59-.24.5.5,0,0,1-.24-.29.35.35,0,0,1,.16-.37,1.89,1.89,0,0,1,2.22.54,1.58,1.58,0,0,1,.31.61.6.6,0,0,1,0,.25,2.72,2.72,0,0,0-.43-.79,1.85,1.85,0,0,0-.83-.52,1.66,1.66,0,0,0-1.18.05c-.16.11-.1.28.07.38a3.35,3.35,0,0,0,.55.23,7.55,7.55,0,0,0,1,.26C282.52,447.68,282.89,447.69,282.89,447.72Z" style="fill:#263238"></path><path d="M282.64,447.76a.8.8,0,0,1-.1-.64,1.4,1.4,0,0,1,.28-.67,1,1,0,0,1,.83-.45.37.37,0,0,1,.3.43,1.19,1.19,0,0,1-.18.41,2.59,2.59,0,0,1-.48.54,1.3,1.3,0,0,1-.57.36s.2-.16.48-.44a3.07,3.07,0,0,0,.42-.54c.14-.2.24-.54,0-.59a.91.91,0,0,0-.66.38,1.41,1.41,0,0,0-.29.59A2.45,2.45,0,0,0,282.64,447.76Z" style="fill:#263238"></path><path d="M299.26,447.1s-.44-.05-1.14,0a5.09,5.09,0,0,0-2.49.9,4.67,4.67,0,0,0-1.59,2,10.26,10.26,0,0,0-.31,1s0-.1,0-.29a3.6,3.6,0,0,1,.19-.76,4.4,4.4,0,0,1,1.6-2.1A4.8,4.8,0,0,1,299,447,1.06,1.06,0,0,1,299.26,447.1Z" style="fill:#263238"></path><path d="M291.8,449.69a9.38,9.38,0,0,1-2.24.16,9.84,9.84,0,0,1-2.24-.2s1,0,2.24,0S291.8,449.64,291.8,449.69Z" style="fill:#263238"></path><path d="M294.81,449.74s-.09.19-.2.41-.16.4-.22.39-.07-.22.06-.47S294.78,449.7,294.81,449.74Z" style="fill:#263238"></path><path d="M296,448.45s-.07.18-.23.33-.32.23-.36.2.07-.18.23-.33S295.93,448.41,296,448.45Z" style="fill:#263238"></path><path d="M297.6,447.88c0,.05-.21,0-.44.11s-.39.18-.43.15.09-.23.38-.31S297.62,447.84,297.6,447.88Z" style="fill:#263238"></path><path d="M298.76,447.62s-.07.11-.2.16-.24,0-.26,0,.07-.12.2-.17S298.75,447.57,298.76,447.62Z" style="fill:#263238"></path><path d="M345.42,388.82c.07,1.65,6.08,53.19,6.08,53.19l-14.15,3.13-13.05-52.5Z" style="fill:#ffbe9d"></path><path d="M336.71,446.51l-.32-1.48,15-3.36,1.11,4.89-.92.27c-4.08,1.14-20.83,5.55-23.77,5.39C324.58,452,336.71,446.51,336.71,446.51Z" style="fill:currentColor"></path><g style="opacity:0.30000000000000004"><path d="M347.09,447.68a4.9,4.9,0,0,1,1.25-3.4,5.45,5.45,0,0,1,3.27-1.8l.87,3.89Z"></path></g><g style="opacity:0.30000000000000004"><path d="M330.83,449.42s-4.19,2.2-3.49,2.76,17.8-3.3,25.2-5.62l-.1-.3-19.89,4.66S331.71,449.26,330.83,449.42Z"></path></g><path d="M352.68,446.2l-.26.08-.73.21-2.69.72c-2.28.6-5.44,1.38-8.95,2.18s-6.7,1.45-9,1.89l-2.74.51-.75.13-.26,0,.25-.07.75-.16,2.73-.56c2.3-.47,5.49-1.15,9-1.94s6.67-1.56,9-2.13l2.71-.67.74-.17A.91.91,0,0,1,352.68,446.2Z" style="fill:#263238"></path><path d="M332.6,451.13a5.61,5.61,0,0,0-.77-1.09,5.84,5.84,0,0,0-1.15-.76,2,2,0,0,1,1.28.64A1.78,1.78,0,0,1,332.6,451.13Z" style="fill:#263238"></path><path d="M336.55,448.05s-.3-.16-.59-.43-.49-.52-.45-.55.3.16.59.43S336.59,448,336.55,448.05Z" style="fill:#263238"></path><path d="M337.63,447.18s-.29-.05-.6-.21-.53-.32-.5-.36.29.05.6.21S337.66,447.14,337.63,447.18Z" style="fill:#263238"></path><path d="M338.11,445.69a1.84,1.84,0,0,1-.76.27,1.9,1.9,0,0,1-.8.1,2.24,2.24,0,0,1,.76-.27A2.11,2.11,0,0,1,338.11,445.69Z" style="fill:#263238"></path><path d="M338.17,444.71a1.68,1.68,0,0,1-.82.43,1.64,1.64,0,0,1-.93.09,5.89,5.89,0,0,1,.88-.26A4.16,4.16,0,0,1,338.17,444.71Z" style="fill:#263238"></path><path d="M335.78,447a3.24,3.24,0,0,1-1,.21,5.32,5.32,0,0,1-1.07,0,3,3,0,0,1-.64-.09.54.54,0,0,1-.3-.22.33.33,0,0,1,.07-.39,1.89,1.89,0,0,1,2.28,0,1.63,1.63,0,0,1,.45.53.5.5,0,0,1,.08.24,2.66,2.66,0,0,0-.61-.67,1.8,1.8,0,0,0-.93-.31,1.64,1.64,0,0,0-1.13.33c-.13.14,0,.3.16.35a2.8,2.8,0,0,0,.59.09,6.16,6.16,0,0,0,1,0C335.41,447,335.77,446.92,335.78,447Z" style="fill:#263238"></path><path d="M335.54,447.05a.88.88,0,0,1-.25-.59,1.49,1.49,0,0,1,.12-.72,1,1,0,0,1,.7-.64.37.37,0,0,1,.39.35,1,1,0,0,1-.08.44,2.73,2.73,0,0,1-.33.64,1.62,1.62,0,0,1-.47.49s.15-.21.35-.55a2.64,2.64,0,0,0,.29-.63c.09-.22.1-.58-.15-.56s-.44.31-.55.52a1.65,1.65,0,0,0-.14.64A3,3,0,0,0,335.54,447.05Z" style="fill:#263238"></path><path d="M351.53,442.46a11,11,0,0,0-1.1.28,5.2,5.2,0,0,0-2.21,1.47,4.72,4.72,0,0,0-1.07,2.32c-.09.65,0,1.06-.06,1.06a.7.7,0,0,1-.06-.28,3.29,3.29,0,0,1,0-.79,4.42,4.42,0,0,1,1.06-2.42,5,5,0,0,1,2.31-1.47,3.92,3.92,0,0,1,.83-.17C351.42,442.44,351.53,442.44,351.53,442.46Z" style="fill:#263238"></path><path d="M344.9,446.74a8.41,8.41,0,0,1-2.14.7,8.8,8.8,0,0,1-2.22.33s1-.21,2.18-.5S344.88,446.7,344.9,446.74Z" style="fill:#263238"></path><path d="M347.83,446.08c.05,0,0,.21-.09.44s-.06.43-.12.44-.12-.21-.06-.47S347.79,446.05,347.83,446.08Z" style="fill:#263238"></path><path d="M348.65,444.55c.05,0,0,.19-.14.37s-.26.31-.3.28,0-.19.15-.37S348.61,444.52,348.65,444.55Z" style="fill:#263238"></path><path d="M350.11,443.61c0,.05-.2.09-.41.21s-.33.27-.38.24,0-.24.29-.39S350.11,443.56,350.11,443.61Z" style="fill:#263238"></path><path d="M351.17,443.08s0,.13-.16.2-.22.1-.25.06,0-.13.15-.2S351.14,443,351.17,443.08Z" style="fill:#263238"></path><path d="M302.59,141.58a6.17,6.17,0,0,0-7.46-.7,9.09,9.09,0,0,0-4,6.73c-.21,1.68-.09,3.47-.92,4.94s-2.7,2.42-3.93,3.76a6.63,6.63,0,0,0-.86,7.57c.73,1.29,1.95,2.56,1.61,4s-2.22,2.07-3.32,3.2c-1.62,1.66-1.36,4.35-.88,6.63a3.64,3.64,0,0,0,1.46,2.66,4.11,4.11,0,0,0,2.46.13c5.22-.73,10.5.37,15.76.66s11-.44,14.82-4" style="fill:#263238"></path><path d="M322,151.67l.51,42.36a9.59,9.59,0,0,1-9.59,9.4h0a9.59,9.59,0,0,1-9.59-9.59V180.31s-6.75-1.12-8.15-9.93c-.7-4.38-.48-11.57-.11-17.44.34-5.28,3.8-11.93,10.84-11.91C305.92,141,321.29,139.92,322,151.67Z" style="fill:#ffbe9d"></path><path d="M296.63,159a1.11,1.11,0,0,0,1.08,1.14,1.08,1.08,0,0,0,1.17-1,1.13,1.13,0,0,0-1.09-1.14A1.08,1.08,0,0,0,296.63,159Z" style="fill:#263238"></path><path d="M296.39,157.78c.14.15,1-.49,2.21-.48s2.1.61,2.24.46-.08-.33-.47-.61a3.07,3.07,0,0,0-3.55,0C296.44,157.45,296.32,157.72,296.39,157.78Z" style="fill:#263238"></path><path d="M308.38,159a1.13,1.13,0,0,0,1.09,1.14,1.08,1.08,0,0,0,1.17-1,1.13,1.13,0,0,0-1.09-1.14A1.09,1.09,0,0,0,308.38,159Z" style="fill:#263238"></path><path d="M308.34,157.78c.14.15,1-.48,2.21-.48s2.11.61,2.24.46-.07-.33-.46-.61a3.09,3.09,0,0,0-3.56,0C308.4,157.45,308.27,157.72,308.34,157.78Z" style="fill:#263238"></path><path d="M304.18,166.92a7.76,7.76,0,0,0-2-.35c-.31,0-.61-.1-.66-.31a1.62,1.62,0,0,1,.21-.92c.29-.75.59-1.54.92-2.36a42.1,42.1,0,0,0,2.06-6.19,40.58,40.58,0,0,0-2.56,6c-.3.83-.6,1.62-.88,2.37a1.85,1.85,0,0,0-.16,1.22.8.8,0,0,0,.51.46,2.21,2.21,0,0,0,.53.07A7.54,7.54,0,0,0,304.18,166.92Z" style="fill:#263238"></path><path d="M303.34,180.31a22.42,22.42,0,0,0,11.8-3.15s-2.86,6.06-11.68,5.23Z" style="fill:#eb996e"></path><path d="M304.7,171.1a1.13,1.13,0,0,1,.05-1.21,1.08,1.08,0,0,1,1.14-.39.94.94,0,0,1,.64-1,1.36,1.36,0,0,1,1.2.21,1.85,1.85,0,0,1,.61,2.17,2,2,0,0,1-1.94,1.21,2.25,2.25,0,0,1-1.9-1.33" style="fill:#eb996e"></path><path d="M307.76,167.76c-.2,0-.2,1.31-1.33,2.25s-2.53.79-2.54,1,.31.25.9.27a3.32,3.32,0,0,0,2.13-.74,2.89,2.89,0,0,0,1-1.88C308,168.08,307.85,167.76,307.76,167.76Z" style="fill:#263238"></path><path d="M307.28,155.65c.12.33,1.33.18,2.76.35s2.58.56,2.77.26c.08-.14-.12-.45-.58-.77A4.87,4.87,0,0,0,308,155C307.49,155.24,307.23,155.5,307.28,155.65Z" style="fill:#263238"></path><path d="M296.55,155.43c.22.28,1.06,0,2.06,0s1.86.19,2.06-.1-.05-.42-.42-.68a2.79,2.79,0,0,0-1.67-.45,2.86,2.86,0,0,0-1.65.55C296.58,155,296.46,155.3,296.55,155.43Z" style="fill:#263238"></path><path d="M315.72,167.76c-.07,1.17-.07,2.19-.05,3.07a7.88,7.88,0,0,0,4.08,6.73,14.23,14.23,0,0,0,6.09,1.93,18.51,18.51,0,0,0,6.82-1.36q5.65-2,11.12-4.43a2,2,0,0,0,1.28-2.95l-1.53-5a11.47,11.47,0,0,0-1.12-2.79,3.87,3.87,0,0,0-2.3-1.83c-.8-.2-1.66-.05-2.44-.33a3.27,3.27,0,0,1-1.77-1.89,15.15,15.15,0,0,1-.66-2.57c-.42-1.87-1.3-3.83-3-4.62-1-.45-2.13-.46-3.13-.87a6.71,6.71,0,0,1-3.13-3.22,43.51,43.51,0,0,0-2.11-4.07,5.88,5.88,0,0,0-2.59-2.2,9.17,9.17,0,0,0-1.8-1.32c-2.92-1.61-6.44-1.5-9.76-1.35s-10.6-2.92-11.07,5.61a2.7,2.7,0,0,1,4.31.37,4.92,4.92,0,0,1,.72,3.67c-.25,1.43-.43,3,.35,4.25a4.25,4.25,0,0,0,3.91,1.69,12.7,12.7,0,0,0,4.24-1.37s1.08,5.58,4.79,6.93Z" style="fill:#263238"></path><path d="M340.25,175.08a2.16,2.16,0,0,0,.55-.33,1.81,1.81,0,0,0,.43-1.67,2.69,2.69,0,0,0-2-1.8c-1.07-.38-2.46-.33-3.84-1a3.82,3.82,0,0,1-1.64-1.73,7.94,7.94,0,0,1-.68-2.45c-.22-1.72-.07-3.63-1-5.27a4.08,4.08,0,0,0-2.13-1.75,11.63,11.63,0,0,0-2.95-.63,16,16,0,0,1-3.21-.56,5,5,0,0,1-2.83-1.92,6.2,6.2,0,0,1-.74-3.32,6.93,6.93,0,0,0-.49-3,2.72,2.72,0,0,0-2.34-1.38,9.22,9.22,0,0,0-2.86.33,11.21,11.21,0,0,1-2.85.41,3.51,3.51,0,0,1-2.58-1,4.11,4.11,0,0,1-1-2.38c-.1-.81-.12-1.57-.21-2.29a4.76,4.76,0,0,0-.58-1.91,3.36,3.36,0,0,0-1.28-1.21,3.65,3.65,0,0,0-2.79-.29,4.41,4.41,0,0,0-1.62.89c-.32.27-.46.45-.48.44s0-.06.09-.15a2.7,2.7,0,0,1,.32-.37,4.27,4.27,0,0,1,1.63-1,3.84,3.84,0,0,1,3,.22,3.7,3.7,0,0,1,1.42,1.29,5,5,0,0,1,.66,2c.11.74.14,1.51.25,2.29a3.69,3.69,0,0,0,.91,2.13,3.1,3.1,0,0,0,2.27.84,11.53,11.53,0,0,0,2.73-.42,9.67,9.67,0,0,1,3-.37,3.23,3.23,0,0,1,2.75,1.64c1,2.09.06,4.5,1.22,6.31a4.48,4.48,0,0,0,2.54,1.71,17.15,17.15,0,0,0,3.11.54,12,12,0,0,1,3.09.68,4.53,4.53,0,0,1,2.35,2c1,1.83.79,3.8,1,5.45s.79,3.26,2.06,3.92,2.64.65,3.76,1.06a2.91,2.91,0,0,1,2.15,2,1.9,1.9,0,0,1-.56,1.79A.88.88,0,0,1,340.25,175.08Z" style="fill:#455a64"></path><path d="M287.68,180.91s-.16-.07-.44-.25a4.69,4.69,0,0,1-1-1.08,5.26,5.26,0,0,1-.82-2.18,5.18,5.18,0,0,1,.47-3.06,10.17,10.17,0,0,1,2.54-2.72,4,4,0,0,0,1.11-1.57,2.77,2.77,0,0,0-.09-2c-.52-1.34-1.66-2.46-2.47-3.93a6,6,0,0,1-.35-5.06,4.47,4.47,0,0,1,1.77-2,7.61,7.61,0,0,0,1.88-1.48,7.82,7.82,0,0,0,1.48-4.2c.16-1.46.12-2.89.3-4.22a9.11,9.11,0,0,1,1.08-3.58,4.69,4.69,0,0,1,2.33-2,3.1,3.1,0,0,1,2.33,0,2.45,2.45,0,0,1,1.12,1,1.08,1.08,0,0,1,.2.47,2.81,2.81,0,0,0-1.4-1.24,2.92,2.92,0,0,0-2.15.06,4.41,4.41,0,0,0-2.11,2,8.56,8.56,0,0,0-1,3.44c-.15,1.3-.1,2.71-.25,4.22a8.3,8.3,0,0,1-1.57,4.48,8.06,8.06,0,0,1-2,1.58,3.87,3.87,0,0,0-1.58,1.75,5.53,5.53,0,0,0,.32,4.62c.74,1.37,1.91,2.52,2.47,4a3.32,3.32,0,0,1,.08,2.28,4.42,4.42,0,0,1-1.26,1.74,10.1,10.1,0,0,0-2.51,2.57,5,5,0,0,0-.5,2.85,5.24,5.24,0,0,0,.7,2.11A6.08,6.08,0,0,0,287.68,180.91Z" style="fill:#455a64"></path><path d="M327,145.94a.56.56,0,0,1,.08-.4,1.13,1.13,0,0,1,1.06-.51,2.39,2.39,0,0,1,1.54,1,4.85,4.85,0,0,1,1,2.24,2.79,2.79,0,0,1-1.1,2.76,4.12,4.12,0,0,1-3.4.47,5.76,5.76,0,0,1-3.1-2.15,6.9,6.9,0,0,1-1.21-3.87,30.24,30.24,0,0,0-.23-3.91,4.69,4.69,0,0,0-1.65-3,3.92,3.92,0,0,0-3-.5,19,19,0,0,0-2.73.87,9.32,9.32,0,0,1-2.37.59,4.65,4.65,0,0,1-1.84-.22,2.84,2.84,0,0,1-1-.59.91.91,0,0,1-.26-.31,4.47,4.47,0,0,0,1.33.71,4.52,4.52,0,0,0,1.74.12,9.6,9.6,0,0,0,2.27-.64,16.69,16.69,0,0,1,2.78-.95,4.3,4.3,0,0,1,3.38.53,5.09,5.09,0,0,1,1.88,3.29,29.24,29.24,0,0,1,.25,4,6.52,6.52,0,0,0,1.1,3.6,5.38,5.38,0,0,0,2.82,2,3.7,3.7,0,0,0,3-.37,2.39,2.39,0,0,0,1-2.35,4.66,4.66,0,0,0-.89-2.11,2.26,2.26,0,0,0-1.33-1,1.06,1.06,0,0,0-.95.36C327,145.79,327.05,145.94,327,145.94Z" style="fill:#263238"></path><path d="M311.89,162.19a.26.26,0,0,1-.34.15.25.25,0,0,1-.13-.34.25.25,0,0,1,.33-.14A.25.25,0,0,1,311.89,162.19Z" style="fill:#263238"></path><path d="M422.19,213.37c-1.45-1.65-8.63,4-9.27,4.47s-1.3-.48-.7-.84c.87-.52,9.82-6.22,8.41-7.86-.77-.91-2.27.64-2.27.64s-8,5.95-8.62,5.16,3.92-4.46,5.55-5.58,1.73-2.33.65-2.63c-.74-.21-5.8,3.11-7.39,4.26s-5.87,4.37-5.05,1.06.2-6.16-.5-6.81-1.87.08-1.67,1.12a12.55,12.55,0,0,1-.18,3.44,8,8,0,0,1-.89,2.64c-.5.94-1,1.71-1.38,2.36-4.18,2.28-17.28,8.85-29.67,10a9.84,9.84,0,0,1-8.39-2.81l-6.57-7.83-12.68,9.65s3.95,4.91,9.45,11.54c14.39,17.35,56.27-9.48,56.27-9.48l0,0a101.21,101.21,0,0,0,10.06-4.4c4.44-2.47,4.22-2.87,3.84-3.33-1-1.26-8,4.05-7.13,2S423.29,214.64,422.19,213.37Z" style="fill:#ffbe9d"></path><path d="M193.25,88.13a20.3,20.3,0,0,1,2.39,2.42c1.42,1.54,3.34,3.71,5.4,6.16s3.87,4.73,5.15,6.39a20.56,20.56,0,0,1,2,2.78,24.44,24.44,0,0,1-2.25-2.55l-5.25-6.28-5.29-6.26A22.36,22.36,0,0,1,193.25,88.13Z" style="fill:#263238"></path><path d="M210.28,91.3a30.68,30.68,0,0,1,.28,5.7,32.11,32.11,0,0,1-.24,5.71A30.68,30.68,0,0,1,210,97,32.11,32.11,0,0,1,210.28,91.3Z" style="fill:#263238"></path><path d="M223,98.67c.09.11-.76,1-1.91,2a8.1,8.1,0,0,1-2.26,1.64c-.1-.11.76-1,1.91-2A7.8,7.8,0,0,1,223,98.67Z" style="fill:#263238"></path><path d="M363.18,390.89s-6.18,12-22.33,6.19c0,0-15.8,8.58-30.91-1,0,0-19.57,2.63-30.22-2.52l13.69-118.1,4-24.39,37.93-4.43s9.84,7.44,16.2,42.85c5.06,28.14,8.25,69.84,8.25,69.84Z" style="fill:currentColor"></path><path d="M320.81,248.29c.15,0,2.5,34,5.26,75.87s4.88,75.9,4.73,75.91-2.49-34-5.25-75.88S320.67,248.3,320.81,248.29Z" style="fill:#fff"></path><path d="M330.33,247.18a1.69,1.69,0,0,1,.05.39c0,.28.06.66.11,1.14.08,1,.19,2.51.34,4.4l1.26,16.2c1.1,13.67,2.77,32.55,4.88,53.37s4.24,39.66,5.79,53.29c.77,6.8,1.4,12.3,1.84,16.14.2,1.89.36,3.36.47,4.4l.12,1.14c0,.26,0,.39,0,.39a1.74,1.74,0,0,1-.08-.38c0-.29-.09-.66-.16-1.14-.14-1-.33-2.5-.58-4.38-.47-3.84-1.15-9.34-2-16.12-1.64-13.62-3.82-32.45-5.94-53.29s-3.74-39.71-4.74-53.39c-.5-6.84-.87-12.38-1.09-16.21-.11-1.89-.19-3.38-.25-4.41,0-.49,0-.87-.05-1.15A1.91,1.91,0,0,1,330.33,247.18Z" style="fill:#fff"></path><path d="M358.41,394.89a2.91,2.91,0,0,1-.05-.38c0-.28-.06-.66-.1-1.14-.07-1-.18-2.49-.32-4.37-.29-3.83-.7-9.31-1.21-16.08-1.08-13.56-2.77-32.3-5.64-52.87-1.47-10.28-3.13-20-4.82-28.87-.9-4.41-1.71-8.61-2.62-12.5-.44-1.95-.86-3.84-1.27-5.65s-.87-3.53-1.28-5.19c-.78-3.31-1.62-6.27-2.31-8.88-.36-1.3-.68-2.52-1-3.64s-.62-2.12-.89-3l-1.22-4.2c-.13-.47-.23-.83-.3-1.1a1.88,1.88,0,0,1-.09-.38,2.3,2.3,0,0,1,.14.36c.08.27.2.63.35,1.08l1.32,4.19.93,3,1,3.63c.72,2.61,1.59,5.57,2.39,8.87.42,1.66.85,3.39,1.31,5.19s.85,3.69,1.3,5.64c.93,3.9,1.75,8.1,2.67,12.51,1.72,8.84,3.39,18.6,4.86,28.89,2.88,20.58,4.51,39.34,5.5,52.92.49,6.79.83,12.28,1,16.09.1,1.88.17,3.35.23,4.38,0,.48,0,.85,0,1.14A1.83,1.83,0,0,1,358.41,394.89Z" style="fill:#fff"></path><path d="M312.54,249.26a1.76,1.76,0,0,1,0,.38c0,.27,0,.64.05,1.11,0,1,.07,2.45.13,4.29.1,3.73.19,9.13.24,15.79.1,13.34-.1,31.76-.67,52.1S311,361.68,310.49,375c-.27,6.64-.49,12-.64,15.78-.08,1.84-.15,3.28-.19,4.29,0,.47-.05.84-.07,1.11a1.42,1.42,0,0,1,0,.38,2.21,2.21,0,0,1,0-.38c0-.28,0-.65,0-1.12,0-1,.06-2.45.1-4.29.11-3.75.27-9.14.47-15.78.43-13.33,1.1-31.74,1.68-52.08s.83-38.74.82-52.08c0-6.66,0-12.06-.08-15.78,0-1.84,0-3.29,0-4.3,0-.47,0-.84,0-1.11A1.52,1.52,0,0,1,312.54,249.26Z" style="fill:#fff"></path><path d="M297.4,396.11a1.59,1.59,0,0,1,0-.38c0-.28,0-.64,0-1.11,0-1,0-2.44,0-4.26,0-3.71,0-9.07.07-15.69.16-13.24.67-31.54,1.81-51.71s2.68-38.42,4-51.6c.66-6.59,1.24-11.92,1.69-15.59l.51-4.24.15-1.1a2.41,2.41,0,0,1,.07-.37,2.17,2.17,0,0,1,0,.38c0,.28-.05.64-.09,1.11l-.42,4.24c-.38,3.68-.91,9-1.52,15.6-1.24,13.19-2.72,31.42-3.86,51.6s-1.71,38.45-2,51.69c-.13,6.62-.21,12-.24,15.68,0,1.82,0,3.26-.06,4.26,0,.47,0,.83,0,1.11A1.88,1.88,0,0,1,297.4,396.11Z" style="fill:#fff"></path><path d="M298.9,250.85a2.58,2.58,0,0,1,0,.37c0,.27-.05.64-.08,1.09-.09,1-.22,2.4-.38,4.2-.33,3.64-.84,8.91-1.5,15.41-1.33,13-3.3,31-5.66,50.78s-4.65,37.74-6.33,50.7c-.86,6.46-1.55,11.7-2,15.35-.25,1.79-.44,3.19-.58,4.17-.07.46-.12.82-.17,1.09a2.08,2.08,0,0,1-.07.36,2.07,2.07,0,0,1,0-.37l.12-1.09c.11-1,.27-2.39.48-4.18.44-3.66,1.08-8.9,1.87-15.37,1.58-13,3.77-30.93,6.18-50.72s4.39-37.76,5.81-50.76c.7-6.47,1.27-11.73,1.67-15.39.2-1.8.36-3.2.47-4.19.06-.45.1-.81.14-1.08A1.74,1.74,0,0,1,298.9,250.85Z" style="fill:#fff"></path><g style="opacity:0.30000000000000004"><path d="M312.65,295.88c-3.5,30.58-7.37,60.66-7.71,91.43,0,2.34,0,4.84,1.31,6.78s4.41,2.82,6,1.1c1.14-1.23,1-3.13.84-4.8-3.4-31.42-2.73-63-.44-94.51"></path></g><g style="opacity:0.30000000000000004"><path d="M340.85,397.08c-1-21.17-1.44-45.07-3.35-66.77,5,18.14,6.47,36.28,11.49,54.42.6,2.16,1.94,5.67,1.76,7.91s-.88,4.43-2.9,5.4-7.31,0-7-1"></path></g><path d="M404.9,147.67l-3.19,37-18.53-1.48c-.12-2.16,0-10.53,0-10.53s-7.71-1.2-7.81-8.91c-.05-3.74.49-11.48,1-18.45a14.27,14.27,0,0,1,15.05-13.09h0A14.27,14.27,0,0,1,404.9,147.67Z" style="fill:#eb996e"></path><path d="M383.2,172.54a17.88,17.88,0,0,0,10.05-2.86s-2.37,5.55-10.07,4.86Z" style="fill:#d1734a"></path><path d="M378.35,150.42a1.11,1.11,0,0,0,1.06,1.11,1.06,1.06,0,0,0,1.14-1,1.11,1.11,0,0,0-1.06-1.11A1.06,1.06,0,0,0,378.35,150.42Z" style="fill:#263238"></path><path d="M378.11,149.18c.14.14,1-.47,2.16-.47s2.05.59,2.18.45-.08-.32-.46-.6a3.07,3.07,0,0,0-1.74-.54,3,3,0,0,0-1.72.56C378.17,148.85,378,149.11,378.11,149.18Z" style="fill:#263238"></path><path d="M390,150.69a1.11,1.11,0,0,0,1.06,1.12,1.06,1.06,0,0,0,1.14-1,1.1,1.1,0,0,0-1.06-1.11A1.06,1.06,0,0,0,390,150.69Z" style="fill:#263238"></path><path d="M389.75,149.4c.14.14,1-.47,2.16-.47s2,.59,2.18.45-.07-.32-.45-.6a3.1,3.1,0,0,0-1.75-.54,3,3,0,0,0-1.72.56C389.81,149.08,389.69,149.34,389.75,149.4Z" style="fill:#263238"></path><path d="M385.46,158.18a8.65,8.65,0,0,0-1.93-.34c-.3,0-.59-.09-.64-.3a1.61,1.61,0,0,1,.2-.9c.29-.73.59-1.5.9-2.3a40.75,40.75,0,0,0,2-6,38,38,0,0,0-2.49,5.84c-.3.81-.59,1.58-.86,2.32a1.8,1.8,0,0,0-.16,1.19.8.8,0,0,0,.5.44,2.13,2.13,0,0,0,.52.07A7.2,7.2,0,0,0,385.46,158.18Z" style="fill:#263238"></path><path d="M388.94,159c-.19,0-.19,1.28-1.29,2.19s-2.47.77-2.48.95.3.25.88.27a3.23,3.23,0,0,0,2.07-.72,2.78,2.78,0,0,0,1-1.84C389.17,159.31,389,159,388.94,159Z" style="fill:#263238"></path><path d="M389.45,144.76c.12.32,1.3.17,2.69.33s2.51.55,2.7.26c.08-.14-.12-.44-.57-.75a4.51,4.51,0,0,0-2-.7,4.44,4.44,0,0,0-2.1.25C389.65,144.35,389.4,144.6,389.45,144.76Z" style="fill:#263238"></path><path d="M378.55,145.75c.2.27,1,0,2,0s1.81.18,2-.1,0-.41-.41-.66a2.7,2.7,0,0,0-1.63-.45,2.84,2.84,0,0,0-1.6.55C378.57,145.34,378.45,145.62,378.55,145.75Z" style="fill:#263238"></path><path d="M396.53,139.21l0,0a6,6,0,0,1,2.25,3.92l0,.15c.31,2.2.25,4.44.57,6.63a10.06,10.06,0,0,0,2.71,6c.67.62,1.85,1,2.4.32a1.84,1.84,0,0,0,.27-1c.41-5.31,1.86-10,1.85-15.57a4.67,4.67,0,0,0-1.94-3.81c-1.16-.83-2.58-1.69-3.87-1.08s-3,3-4,4.05" style="fill:#263238"></path><path d="M402.3,151.15c.13-.05,5.29-1.56,5.12,3.71s-5.42,4-5.42,3.86S402.3,151.15,402.3,151.15Z" style="fill:#eb996e"></path><path d="M403.67,156.78s.09.06.24.14a.92.92,0,0,0,.69,0,2.25,2.25,0,0,0,1.11-2,3,3,0,0,0-.21-1.32,1.07,1.07,0,0,0-.67-.73.47.47,0,0,0-.55.24c-.07.14,0,.25-.07.25s-.11-.09-.06-.3a.55.55,0,0,1,.22-.33.7.7,0,0,1,.51-.12,1.31,1.31,0,0,1,.93.85,3.11,3.11,0,0,1,.27,1.48,2.37,2.37,0,0,1-1.41,2.23,1,1,0,0,1-.84-.16C403.68,156.9,403.65,156.78,403.67,156.78Z" style="fill:#d1734a"></path><path d="M401,135.56c1.29-2.11-2.26-5.13-4.86-5.95s-6,.44-8.62,1.3c-1.63.55-3.26,1.3-5,1.23a11.9,11.9,0,0,1-3.34-.85,8.38,8.38,0,0,0-3.37-.67,3.18,3.18,0,0,0-2.77,1.76,2,2,0,0,0,1.33,2.69,2.59,2.59,0,1,0-.69,4.8c-.75-.57-1.9.37-1.81,1.3a2.76,2.76,0,0,0,1.81,2,9.86,9.86,0,0,0,7-.11c2.28-.77,4.39-2,6.64-2.78s6-2.3,8.3-1.5c1.66.59,2.82,2.6,3.76,2.15a3.22,3.22,0,0,0,1.67-2.37,9.46,9.46,0,0,0-.1-3" style="fill:#263238"></path><path d="M373.76,134.93c.05,0,.28.39.84,1a7.26,7.26,0,0,0,2.93,1.89,6.7,6.7,0,0,0,5-.21c1.79-.8,3.32-2.41,5.09-3.92a10.93,10.93,0,0,1,5.92-2.85,6.12,6.12,0,0,1,5,1.75A4.6,4.6,0,0,1,399.8,136a3.24,3.24,0,0,1-.22,1,1.46,1.46,0,0,1-.17.31,8.76,8.76,0,0,0,.19-1.28,4.54,4.54,0,0,0-1.26-3.15,5.74,5.74,0,0,0-4.72-1.52,10.67,10.67,0,0,0-5.64,2.77c-1.73,1.48-3.31,3.13-5.23,4a7.15,7.15,0,0,1-8.3-2,4.29,4.29,0,0,1-.55-.82A1.35,1.35,0,0,1,373.76,134.93Z" style="fill:#455a64"></path><path d="M403.64,150.92s-.23-.14-.43-.56a3.51,3.51,0,0,1-.26-1.91c.12-1.7,1.62-3.52,1.81-5.86a5.34,5.34,0,0,0-.58-3.15,4.05,4.05,0,0,0-2-1.69,3.4,3.4,0,0,0-1.76-.24c-.43.07-.65.16-.67.12s.18-.18.63-.32a3.3,3.3,0,0,1,1.92.09,4.31,4.31,0,0,1,2.25,1.8,5.61,5.61,0,0,1,.69,3.43,9.78,9.78,0,0,1-1,3.33,10.09,10.09,0,0,0-.95,2.54A4.09,4.09,0,0,0,403.64,150.92Z" style="fill:#455a64"></path><path d="M373.92,446.73l-.05-10,18.65-.22.24,14.57-1.15.09c-5.15.35-26.19,1.4-29.64.4C358.11,450.5,373.92,446.73,373.92,446.73Z" style="fill:currentColor"></path><g style="opacity:0.4"><path d="M386,451.05a6.45,6.45,0,0,1,2.34-4,6.23,6.23,0,0,1,4.34-1.41l.07,5.21Z"></path></g><g style="opacity:0.4"><path d="M366.2,448.85s-5.54,1.67-4.83,2.57,22,.64,31.39-.3l0-.42-24.85.53S367.29,448.88,366.2,448.85Z"></path></g><path d="M393,450.69l-.32,0-.92.06-3.39.19c-2.86.14-6.82.28-11.19.34s-8.34,0-11.21,0l-3.39-.09-.92-.05-.32,0h1.24l3.4,0c2.86,0,6.82,0,11.19,0s8.33-.18,11.19-.28l3.39-.12.93,0Z" style="fill:#263238"></path><path d="M367.89,451.52a7.67,7.67,0,0,0-.65-1.61,6.82,6.82,0,0,0-1.18-1.28,2.45,2.45,0,0,1,1.37,1.16A2.51,2.51,0,0,1,367.89,451.52Z" style="fill:#263238"></path><path d="M373.36,448.66c-.05,0-.32-.29-.6-.71s-.46-.8-.41-.83.32.28.6.7S373.41,448.62,373.36,448.66Z" style="fill:#263238"></path><path d="M374.86,447.84c0,.05-.34-.15-.66-.43s-.56-.56-.52-.6.34.14.67.43S374.9,447.79,374.86,447.84Z" style="fill:#263238"></path><path d="M375.79,446.07a2.23,2.23,0,0,1-1,.13,2.33,2.33,0,0,1-1-.09,2.3,2.3,0,0,1,1-.13C375.35,446,375.79,446,375.79,446.07Z" style="fill:#263238"></path><path d="M376.1,444.82a1.87,1.87,0,0,1-1.08.33,1.83,1.83,0,0,1-1.12-.14,7.1,7.1,0,0,1,1.1-.09A6,6,0,0,1,376.1,444.82Z" style="fill:#263238"></path><path d="M372.71,447a3.8,3.8,0,0,1-1.2,0,6.46,6.46,0,0,1-1.28-.26,3.64,3.64,0,0,1-.74-.29.66.66,0,0,1-.3-.37.46.46,0,0,1,.18-.48,2.19,2.19,0,0,1,2.72.61,2.08,2.08,0,0,1,.4.79.61.61,0,0,1,0,.32,3.41,3.41,0,0,0-.56-1,2.06,2.06,0,0,0-1-.65,1.87,1.87,0,0,0-1.43.11c-.19.15-.11.37.1.49a3.36,3.36,0,0,0,.68.28,8.61,8.61,0,0,0,1.24.31C372.25,447,372.71,447,372.71,447Z" style="fill:#263238"></path><path d="M372.4,447.1a1.16,1.16,0,0,1-.15-.83,2,2,0,0,1,.31-.88,1.19,1.19,0,0,1,1-.62.47.47,0,0,1,.38.54,1.24,1.24,0,0,1-.2.54,3.84,3.84,0,0,1-.55.74,1.85,1.85,0,0,1-.68.49s.23-.22.56-.6a4,4,0,0,0,.49-.73c.16-.25.27-.71,0-.76s-.61.28-.79.52a2,2,0,0,0-.32.78A4,4,0,0,0,372.4,447.1Z" style="fill:#263238"></path><path d="M392.57,445.59s-.53,0-1.37.06a5.83,5.83,0,0,0-4.84,4c-.28.8-.3,1.34-.34,1.34a1.25,1.25,0,0,1,0-.38,4.62,4.62,0,0,1,.19-1,5.69,5.69,0,0,1,5-4.07,4.73,4.73,0,0,1,1,0C392.45,445.54,392.58,445.57,392.57,445.59Z" style="fill:#263238"></path><path d="M390.54,437.85a66.8,66.8,0,0,1,.2,7.66,29.92,29.92,0,0,1-.21-3.83A32.34,32.34,0,0,1,390.54,437.85Z" style="fill:#263238"></path><path d="M383.62,449.26a10.23,10.23,0,0,1-2.72.31,11,11,0,0,1-2.73-.18c0-.07,1.23,0,2.73-.05S383.62,449.2,383.62,449.26Z" style="fill:#263238"></path><path d="M387.28,449.21c.05.05-.1.26-.22.54s-.18.53-.25.53-.1-.29.05-.62S387.24,449.17,387.28,449.21Z" style="fill:#263238"></path><path d="M388.64,447.48s-.08.24-.27.44-.38.32-.42.28.07-.24.26-.44S388.59,447.44,388.64,447.48Z" style="fill:#263238"></path><path d="M390.6,446.67c0,.06-.26.07-.53.17s-.47.24-.52.2.1-.3.44-.42S390.62,446.61,390.6,446.67Z" style="fill:#263238"></path><path d="M392,446.28c0,.06-.09.16-.24.22s-.3.07-.32,0,.08-.16.24-.22S392,446.23,392,446.28Z" style="fill:#263238"></path><path d="M429.1,448l-1.49-9.84L446,435.24l2.35,14.38-1.13.26c-5,1.09-25.71,5.18-29.27,4.69C414,454,429.1,448,429.1,448Z" style="fill:currentColor"></path><g style="opacity:0.4"><path d="M441.68,450.54a6.42,6.42,0,0,1,1.72-4.3,6.25,6.25,0,0,1,4.1-2l.82,5.14Z"></path></g><g style="opacity:0.4"><path d="M421.77,451.22s-5.24,2.46-4.41,3.25,21.87-2.55,31-4.85l-.09-.4-24.51,4.12S422.85,451.1,421.77,451.22Z"></path></g><path d="M448.57,449.16a1.31,1.31,0,0,1-.31.09l-.9.2-3.33.67c-2.81.56-6.7,1.27-11,2s-8.25,1.23-11.09,1.58l-3.37.4-.92.09-.32,0,.31-.06.92-.14,3.36-.46c2.84-.4,6.75-1,11.07-1.65s8.22-1.38,11-1.89l3.34-.61.91-.16A1.92,1.92,0,0,1,448.57,449.16Z" style="fill:#263238"></path><path d="M423.83,453.62a8.2,8.2,0,0,0-.88-1.5,8.45,8.45,0,0,0-1.35-1.1,2.58,2.58,0,0,1,1.52,1A2.48,2.48,0,0,1,423.83,453.62Z" style="fill:#263238"></path><path d="M428.83,450c-.05,0-.36-.24-.7-.62s-.57-.72-.52-.76.36.23.69.61S428.87,450,428.83,450Z" style="fill:#263238"></path><path d="M430.19,449s-.35-.09-.72-.33-.63-.47-.59-.52.35.1.72.33S430.23,448.92,430.19,449Z" style="fill:#263238"></path><path d="M430.86,447.08a2.18,2.18,0,0,1-.94.28,2.21,2.21,0,0,1-1,.05,2.25,2.25,0,0,1,.94-.27A2.14,2.14,0,0,1,430.86,447.08Z" style="fill:#263238"></path><path d="M431,445.8a2.74,2.74,0,0,1-2.16.52,5.55,5.55,0,0,1,1.08-.25A7.19,7.19,0,0,1,431,445.8Z" style="fill:#263238"></path><path d="M427.94,448.49a3.32,3.32,0,0,1-1.18.18,6.19,6.19,0,0,1-1.31-.08,2.87,2.87,0,0,1-.76-.18.69.69,0,0,1-.36-.32.48.48,0,0,1,.11-.5,2.18,2.18,0,0,1,2.78.21,2.08,2.08,0,0,1,.52.73.67.67,0,0,1,.08.31,3.54,3.54,0,0,0-.7-.92,2.19,2.19,0,0,0-1.12-.5,1.81,1.81,0,0,0-1.39.32c-.17.17-.06.38.17.47a3.36,3.36,0,0,0,.71.18,7.71,7.71,0,0,0,1.27.12C427.49,448.53,427.94,448.45,427.94,448.49Z" style="fill:#263238"></path><path d="M427.65,448.6a1.17,1.17,0,0,1-.27-.8,1.92,1.92,0,0,1,.19-.92,1.19,1.19,0,0,1,.88-.76.48.48,0,0,1,.46.49,1.4,1.4,0,0,1-.12.56,4,4,0,0,1-.44.81c-.32.42-.59.6-.61.58s.21-.25.47-.67a4.47,4.47,0,0,0,.39-.79c.12-.28.16-.75-.15-.75s-.55.36-.7.62a2.12,2.12,0,0,0-.21.83A5.14,5.14,0,0,0,427.65,448.6Z" style="fill:#263238"></path><path d="M447.39,444.18s-.53,0-1.35.26a6.18,6.18,0,0,0-2.78,1.7,6,6,0,0,0-1.43,2.92c-.16.83-.1,1.37-.14,1.37s-.05-.13-.06-.37a4.8,4.8,0,0,1,0-1,5.68,5.68,0,0,1,4.33-4.74,5.37,5.37,0,0,1,1-.14C447.26,444.15,447.39,444.16,447.39,444.18Z" style="fill:#263238"></path><path d="M444.26,436.81a34,34,0,0,1,.76,3.76,30.6,30.6,0,0,1,.54,3.8,33.34,33.34,0,0,1-.76-3.76A32.45,32.45,0,0,1,444.26,436.81Z" style="fill:#263238"></path><path d="M439.07,449.11a10.19,10.19,0,0,1-2.65.7,10.67,10.67,0,0,1-2.73.21c0-.06,1.21-.18,2.69-.43S439.05,449.05,439.07,449.11Z" style="fill:#263238"></path><path d="M442.68,448.53c.05,0-.06.27-.14.57s-.1.55-.17.56-.14-.28,0-.62S442.63,448.49,442.68,448.53Z" style="fill:#263238"></path><path d="M443.77,446.62c.05,0,0,.25-.2.47s-.33.38-.38.34,0-.24.2-.47S443.72,446.59,443.77,446.62Z" style="fill:#263238"></path><path d="M445.6,445.54c0,.06-.25.1-.51.24s-.43.31-.48.28.06-.32.38-.48S445.61,445.48,445.6,445.54Z" style="fill:#263238"></path><path d="M446.92,445c0,.06-.06.17-.2.25s-.28.11-.32.05.06-.16.21-.24S446.89,444.9,446.92,445Z" style="fill:#263238"></path><polygon points="419.54 267.13 449.82 443.34 425.94 446.24 392.03 289.06 394.86 443.98 371.99 443.98 362.95 265.58 419.54 267.13" style="fill:#263238"></polygon><path d="M453.68,215.1l-7.91-46.32h-.11l3-10.29a1.51,1.51,0,0,0-2.22-1.5s.12-2.71-2.21-1.93c0,0-.16-2.79-1.85-1.94,0,0-.69-2.57-2.33-.83-.27.29-5.12,6.07-5.12,6.07l.63,10.85h0l.08,1.34v.05h0l2.09,35.91-7.34-7.84-13.19,13.4,16.44,13.84a12.23,12.23,0,0,0,20-10.82Z" style="fill:#eb996e"></path><path d="M440.15,144.24l-8-16.87-9,4.24,8,16.88a5,5,0,0,0,5.9,2.63l11,23.23c-2.06,1-3.56,1.94-3.46,2.16s2.15-.49,4.56-1.62,4.26-2.25,4.14-2.49-1.77.36-3.86,1.3l-11-23.23A5,5,0,0,0,440.15,144.24Z" style="fill:#e0e0e0"></path><path d="M427.92,140.05a2.68,2.68,0,0,1,2.76-.33,3.65,3.65,0,0,0,4.58-.43c.55-.37.53-.68,1.19-.56,0,0,3,5.81,3.16,7.76.24,2.9-4.67,5.49-7.06,2.62C431.17,147.45,427.92,140.05,427.92,140.05Z" style="fill:currentColor"></path><path d="M443.29,167.77a5.83,5.83,0,0,0-2.59-6.06,2,2,0,0,1-.8-.66,1.76,1.76,0,0,1,0-1.2,10,10,0,0,0,.22-3.52,4.19,4.19,0,0,0-1.79-2.94l-2.86,8.16" style="fill:#eb996e"></path><path d="M435.44,161.55a15.28,15.28,0,0,1,.66-2.35c.47-1.46,1.15-3.52,2-5.89l.09-.29.27.16a4.46,4.46,0,0,1,2,3.44,9.53,9.53,0,0,1-.14,2.58c-.13.81-.46,1.62.07,2,.25.19.6.38.9.6a5.47,5.47,0,0,1,.78.73,6,6,0,0,1,1,1.61,5.61,5.61,0,0,1,.47,2.68,2.29,2.29,0,0,1-.21,1,7.38,7.38,0,0,1,0-1,6,6,0,0,0-.6-2.52,5.81,5.81,0,0,0-1-1.46,6,6,0,0,0-.75-.66c-.27-.2-.58-.34-.92-.6a1.24,1.24,0,0,1-.41-.56,1.6,1.6,0,0,1-.07-.68c0-.43.15-.8.21-1.2a9,9,0,0,0,.12-2.44,4,4,0,0,0-1.7-3.07l.36-.13c-.84,2.37-1.59,4.4-2.14,5.83A12.79,12.79,0,0,1,435.44,161.55Z" style="fill:#d1734a"></path><path d="M447.85,161s.13.2-.08.5a1,1,0,0,1-.55.32,1,1,0,0,1-.81-.29,1.51,1.51,0,0,1-.44-.92,3.9,3.9,0,0,1,0-1.13c0-.38.07-.78.11-1.19,0-.21,0-.42.05-.64l0-.33V157s.07-.19.16-.21a.25.25,0,0,1,.21,0,.28.28,0,0,1,.14.23v0h0a15.08,15.08,0,0,1-.46,2,3.75,3.75,0,0,1-.83,1.59,1,1,0,0,1-1,.25.9.9,0,0,1-.59-.79c0-1.08.13-1.91.19-2.68a11.65,11.65,0,0,1,.33-2.42,11.61,11.61,0,0,1,0,2.44c0,.73-.1,1.69-.08,2.6,0,.21.12.34.25.37a.52.52,0,0,0,.5-.15,3.61,3.61,0,0,0,.68-1.36c.19-.65.34-1.3.46-1.9l.09,0s.08.07.12.06,0-.09,0-.05.1,0,.22,0,0,0,0,0v.14l0,.17,0,.33-.06.65c0,.42-.1.82-.16,1.2a2,2,0,0,0,.22,1.76.65.65,0,0,0,1,.08C447.84,161.18,447.81,161,447.85,161Z" style="fill:#d1734a"></path><path d="M440.05,153c0,.88.09,1.77.13,2.65a4.77,4.77,0,0,0,.21,1.36,1.53,1.53,0,0,0,.9,1,1,1,0,0,0,1.18-.44" style="fill:#eb996e"></path><path d="M442.47,157.53s0,.13-.08.29a1,1,0,0,1-.73.38,1.33,1.33,0,0,1-1.12-.48,2.39,2.39,0,0,1-.56-1.33,10.21,10.21,0,0,1,.07-3.42,12,12,0,0,1,.45,3.35c.07.88.63,1.52,1.15,1.52S442.41,157.49,442.47,157.53Z" style="fill:#d1734a"></path><path d="M444.22,158.8s-.06.11-.22.23a1.74,1.74,0,0,1-.81.31,1,1,0,0,1-.65-.19,1.17,1.17,0,0,1-.42-.64,4.91,4.91,0,0,1-.07-1.53,13.17,13.17,0,0,1,.45-3.73,14.17,14.17,0,0,1,.07,3.76,5.71,5.71,0,0,0,0,1.38.67.67,0,0,0,.61.58C443.77,159,444.19,158.71,444.22,158.8Z" style="fill:#d1734a"></path><path d="M440.56,213.54a18.17,18.17,0,0,1-2.85-7.27,35.79,35.79,0,0,1,1.43,3.64A34.54,34.54,0,0,1,440.56,213.54Z" style="fill:#d1734a"></path><path d="M384.07,131.65s14.09-19.57,16.17-17.61c1.92,1.8,3.06,21.93,3.06,21.93S389.11,137.39,384.07,131.65Z" style="fill:#455a64"></path><path d="M390.49,124.09c-.28.08-.5.78-.28,1.22a.91.91,0,0,0,1.26.33.94.94,0,0,0,.23-1.3,1,1,0,0,0-1.32-.18" style="fill:#fafafa"></path><path d="M394.41,131.93c-.27.07-.5.77-.28,1.21a.91.91,0,0,0,1.27.33.94.94,0,0,0,.22-1.3,1,1,0,0,0-1.32-.17" style="fill:#fafafa"></path><path d="M399,126.48c-.28.08-.5.78-.28,1.22a.91.91,0,0,0,1.26.33.94.94,0,0,0,.23-1.3,1,1,0,0,0-1.32-.18" style="fill:#fafafa"></path><path d="M398.94,115.57c-.27.07-.5.77-.28,1.21a.92.92,0,0,0,1.27.33,1,1,0,0,0,.22-1.3,1,1,0,0,0-1.32-.18" style="fill:#fafafa"></path><path d="M394.68,119.63c-.27.07-.5.77-.28,1.21a.92.92,0,0,0,1.27.33,1,1,0,0,0,.22-1.3,1,1,0,0,0-1.32-.18" style="fill:#fafafa"></path><path d="M389.29,131.62c-.17,0-.31.49-.17.77a.58.58,0,0,0,.8.21.59.59,0,0,0,.14-.82.62.62,0,0,0-.83-.12" style="fill:#fafafa"></path><path d="M399.39,133c-.18,0-.32.49-.18.76a.58.58,0,0,0,.8.21.59.59,0,0,0,.14-.82.61.61,0,0,0-.83-.11" style="fill:#fafafa"></path><path d="M387.9,128.41c-.17.05-.32.49-.18.77a.58.58,0,0,0,.8.21.59.59,0,0,0,.14-.82.62.62,0,0,0-.83-.12" style="fill:#fafafa"></path><path d="M394.39,126.9c-.17,0-.31.49-.17.77a.58.58,0,0,0,.8.21.6.6,0,0,0,.14-.82.62.62,0,0,0-.84-.12" style="fill:#fafafa"></path><path d="M399.4,121.64c-.17,0-.32.49-.18.77a.57.57,0,0,0,.8.2.59.59,0,0,0,.14-.82.61.61,0,0,0-.83-.11" style="fill:#fafafa"></path><path d="M416.32,211.67l1.18,27.21,4.36,31h-59s-.13-7.32.41-17.5c.75-14.3,1.47-34.73,1.47-34.73l-2.7,5.2a100.45,100.45,0,0,1-7.7-8.82l.83-.71-6.19-12,11.26-12.73a32.81,32.81,0,0,1,10.51-8c2.07-1,2.86-1,7.52-1.66,2.19-.3,3.85-.44,4.93-.58a31.78,31.78,0,0,0,19.13,0h0c.75,0,1.47.09,2.18.17l4.68,1.09A27.67,27.67,0,0,1,423.28,188l12.49,13.66L422.33,216.6Z" style="fill:currentColor"></path><path d="M364.61,226.74a29.05,29.05,0,0,0,.38-4.11c.16-2.53.4-6,.71-9.89s.67-7.36.92-9.89a27.4,27.4,0,0,0,.29-4.1,24.26,24.26,0,0,0-.76,4.05c-.37,2.52-.78,6-1.1,9.88s-.48,7.39-.53,9.93A23,23,0,0,0,364.61,226.74Z" style="fill:#263238"></path><path d="M426.55,191.57a2.07,2.07,0,0,1-.49.54,3.46,3.46,0,0,1-2,.75,9.28,9.28,0,0,1-3.29-.5,39.21,39.21,0,0,1-4-1.71,13.25,13.25,0,0,0-5-1.23,18.44,18.44,0,0,0-5.91.9,42.85,42.85,0,0,0-6.15,2.57c-2.07,1-4.2,2.2-6.47,3.19a25.54,25.54,0,0,1-7,2.06,13.72,13.72,0,0,1-6.72-.77,24.94,24.94,0,0,1-5.32-3c-1.55-1.11-3-2.19-4.29-3.09a20.16,20.16,0,0,0-3.79-2.08,10.14,10.14,0,0,0-3.16-.72,13.25,13.25,0,0,0-2.78.22,7,7,0,0,1,2.79-.42,9.87,9.87,0,0,1,3.25.65,19.61,19.61,0,0,1,3.89,2.05c1.37.88,2.79,1.95,4.34,3a24.26,24.26,0,0,0,5.24,2.93,13.25,13.25,0,0,0,6.49.71,25.22,25.22,0,0,0,6.81-2c2.25-1,4.37-2.13,6.46-3.17a40.23,40.23,0,0,1,6.23-2.57,18.17,18.17,0,0,1,6.06-.88,13.35,13.35,0,0,1,5.17,1.32,37.35,37.35,0,0,0,4,1.77,9.05,9.05,0,0,0,3.19.57A3.33,3.33,0,0,0,426,192C426.37,191.75,426.53,191.55,426.55,191.57Z" style="fill:#fff"></path><path d="M431.16,196.72a2.18,2.18,0,0,1-.28.83,4.22,4.22,0,0,1-1.82,1.72,8.27,8.27,0,0,1-3.88.83,17.34,17.34,0,0,0-5.14.44,16.84,16.84,0,0,0-5.42,3.07A62.6,62.6,0,0,1,408.8,208a16.8,16.8,0,0,1-16.2.58c-2.66-1.38-4.9-3.28-7.52-4.15a20.71,20.71,0,0,0-7.84-.8c-2.55.13-5,.39-7.28.39a24.19,24.19,0,0,1-14.55-4.9,21.12,21.12,0,0,1-1.89-1.63,5.91,5.91,0,0,1-.6-.64,6.46,6.46,0,0,1,.67.56c.43.37,1.07.91,1.94,1.55a24.87,24.87,0,0,0,8.21,3.86,23.66,23.66,0,0,0,6.22.76c2.27,0,4.68-.28,7.25-.43a20.91,20.91,0,0,1,8,.8c2.73.91,5,2.83,7.59,4.16a16.33,16.33,0,0,0,15.71-.52,65.94,65.94,0,0,0,5.81-4.32,16.75,16.75,0,0,1,5.58-3.08,17.75,17.75,0,0,1,5.24-.39,8.22,8.22,0,0,0,3.79-.71,4.26,4.26,0,0,0,1.82-1.59C431.07,197,431.13,196.71,431.16,196.72Z" style="fill:#fff"></path><path d="M416.19,219.71a2.64,2.64,0,0,1-.45.33c-.31.2-.76.49-1.35.85a47.91,47.91,0,0,1-5.19,2.78,20.88,20.88,0,0,1-8.47,2.1,15.48,15.48,0,0,1-5.12-.87,35.56,35.56,0,0,1-5.05-2.31c-1.67-.89-3.28-1.79-4.9-2.5a27,27,0,0,0-4.83-1.6,27.89,27.89,0,0,0-8.58-.62,28.85,28.85,0,0,0-5.72,1.07c-1.33.38-2,.67-2.06.62a2.61,2.61,0,0,1,.5-.24c.34-.15.83-.36,1.49-.58a26.48,26.48,0,0,1,5.76-1.24,27.38,27.38,0,0,1,13.64,2.12c1.65.72,3.28,1.62,4.94,2.51a35.94,35.94,0,0,0,5,2.28,14.88,14.88,0,0,0,5,.88,21.28,21.28,0,0,0,8.32-1.95c2.27-1,4-2,5.23-2.63l1.4-.76A2.05,2.05,0,0,1,416.19,219.71Z" style="fill:#fff"></path><path d="M417.79,241s-.75-.21-2.11-.47a14.82,14.82,0,0,0-5.84.16c-2.45.47-5.3,1.31-8.5,2.2a50.71,50.71,0,0,1-5.08,1.14,37.7,37.7,0,0,1-5.6.44c-7.73,0-14.46-2.18-19.18-3.78-2.37-.82-4.26-1.55-5.56-2.06l-1.5-.61a2.25,2.25,0,0,1-.5-.24,2.06,2.06,0,0,1,.54.14l1.53.52c1.32.45,3.23,1.13,5.61,1.9,4.74,1.51,11.44,3.61,19.06,3.61a37.86,37.86,0,0,0,5.51-.42,51.46,51.46,0,0,0,5.05-1.11c3.19-.86,6.08-1.66,8.55-2.09a14.27,14.27,0,0,1,6,0,15.84,15.84,0,0,1,1.55.45A2.06,2.06,0,0,1,417.79,241Z" style="fill:#fff"></path><path d="M418.92,256.22a2.1,2.1,0,0,1-.6,0l-.72,0c-.29,0-.62-.08-1-.13a19.06,19.06,0,0,1-5.92-2.17c-2.37-1.19-5-3-8.39-3.89a13.53,13.53,0,0,0-5.37-.3,22.72,22.72,0,0,0-5.58,1.69c-3.69,1.6-7.06,3.58-10.46,4.62a27.93,27.93,0,0,1-9.25,1.44,24,24,0,0,1-6.24-1c-.71-.21-1.26-.39-1.62-.54a3.78,3.78,0,0,1-.55-.24c0-.06.79.23,2.22.59a26.21,26.21,0,0,0,6.19.78,28.66,28.66,0,0,0,9.1-1.54c3.33-1,6.67-3,10.41-4.64a22.78,22.78,0,0,1,5.71-1.71,13.9,13.9,0,0,1,5.56.33c3.46,1,6.11,2.82,8.44,4a20.15,20.15,0,0,0,5.79,2.29l1,.18.72.07A4,4,0,0,1,418.92,256.22Z" style="fill:#fff"></path><path d="M420.39,266.27a2.3,2.3,0,0,1-.34.52,6.24,6.24,0,0,1-1.27,1.23,10.05,10.05,0,0,1-6.22,1.67c-2.8,0-5.92-1.24-9.24-2.6a28.66,28.66,0,0,0-5.33-1.72l-1.45-.26c-.48-.09-1-.09-1.48-.14a25.75,25.75,0,0,0-3.05-.06,79.47,79.47,0,0,0-11.55,1.74,61,61,0,0,1-9.52,1.34,23.83,23.83,0,0,1-6.45-.62c-.73-.21-1.29-.42-1.67-.55a2.19,2.19,0,0,1-.57-.23,2.74,2.74,0,0,1,.6.13l1.69.46a26.21,26.21,0,0,0,6.39.44,64.19,64.19,0,0,0,9.43-1.44A75,75,0,0,1,392,264.39a26.77,26.77,0,0,1,3.11.06c.51.05,1,.06,1.51.15l1.48.27a28.83,28.83,0,0,1,5.41,1.77c3.32,1.39,6.35,2.63,9.07,2.69a10.05,10.05,0,0,0,6.09-1.48A9.8,9.8,0,0,0,420.39,266.27Z" style="fill:#fff"></path><g style="opacity:0.30000000000000004"><path d="M415.24,203s-4.35,19.9-3,26.49,7,25.17,7,25.17l-2-14.44-.86-20.71Z"></path></g><path d="M415.35,202.11a11.6,11.6,0,0,0-.15,2.83c0,1.74.11,4.15.31,6.81s.46,5.05.71,6.78a11.06,11.06,0,0,0,.56,2.77,12.45,12.45,0,0,0-.1-2.82c-.15-2-.32-4.27-.51-6.78s-.35-4.79-.5-6.78A12.64,12.64,0,0,0,415.35,202.11Z" style="fill:#263238"></path><g style="opacity:0.30000000000000004"><path d="M366,203.22a30.82,30.82,0,0,1-3.64,7.08c-1.39,2.26-2.65,4.17-3.15,6.78s.92,3.95,2.82,5.81c1.52-2.93,2.81-5.32,2.81-5.32.14-3.7.67-10.34,1.29-14.35"></path></g></g><g id="freepik--Character--inject-2"><path d="M133.37,446.73l0-10-18.66-.22-.23,14.57,1.15.09c5.15.35,26.19,1.4,29.64.4C149.18,450.5,133.37,446.73,133.37,446.73Z" style="fill:currentColor"></path><g style="opacity:0.4"><path d="M121.29,451.05a6.4,6.4,0,0,0-2.33-4,6.26,6.26,0,0,0-4.34-1.41l-.07,5.21Z"></path></g><g style="opacity:0.4"><path d="M141.09,448.85s5.53,1.67,4.83,2.57-22,.64-31.39-.3l0-.42,24.85.53S140,448.88,141.09,448.85Z"></path></g><path d="M114.27,450.69l.32,0,.92.06,3.39.19c2.86.14,6.82.28,11.19.34s8.34,0,11.2,0l3.4-.09.92-.05.32,0h-1.24l-3.4,0c-2.86,0-6.82,0-11.19,0s-8.33-.18-11.19-.28l-3.4-.12-.92,0Z" style="fill:#263238"></path><path d="M139.4,451.52a7.67,7.67,0,0,1,.65-1.61,6.82,6.82,0,0,1,1.18-1.28,3,3,0,0,0-1.83,2.89Z" style="fill:#263238"></path><path d="M133.93,448.66s.32-.29.6-.71.46-.8.4-.83-.32.28-.59.7S133.88,448.62,133.93,448.66Z" style="fill:#263238"></path><path d="M132.43,447.84c0,.05.34-.15.66-.43s.56-.56.52-.6-.34.14-.67.43S132.39,447.79,132.43,447.84Z" style="fill:#263238"></path><path d="M131.5,446.07a2.19,2.19,0,0,0,1,.13,2.33,2.33,0,0,0,1-.09,2.3,2.3,0,0,0-1-.13C131.93,446,131.5,446,131.5,446.07Z" style="fill:#263238"></path><path d="M131.18,444.82a1.92,1.92,0,0,0,1.09.33,1.83,1.83,0,0,0,1.12-.14,7.1,7.1,0,0,0-1.1-.09A6.09,6.09,0,0,0,131.18,444.82Z" style="fill:#263238"></path><path d="M134.58,447a3.8,3.8,0,0,0,1.2,0,6.46,6.46,0,0,0,1.28-.26,3.64,3.64,0,0,0,.74-.29.66.66,0,0,0,.3-.37.46.46,0,0,0-.18-.48,2.18,2.18,0,0,0-2.72.61,2.3,2.3,0,0,0-.41.79.66.66,0,0,0,0,.32,3.41,3.41,0,0,1,.56-1,2.06,2.06,0,0,1,1-.65,1.87,1.87,0,0,1,1.43.11c.19.15.11.37-.1.49a3.36,3.36,0,0,1-.68.28,8.61,8.61,0,0,1-1.24.31C135,447,134.58,447,134.58,447Z" style="fill:#263238"></path><path d="M134.89,447.1a1.16,1.16,0,0,0,.15-.83,2,2,0,0,0-.31-.88,1.2,1.2,0,0,0-1-.62.47.47,0,0,0-.37.54,1.24,1.24,0,0,0,.2.54,3.84,3.84,0,0,0,.55.74,1.76,1.76,0,0,0,.68.49s-.23-.22-.56-.6a4,4,0,0,1-.49-.73c-.16-.25-.27-.71,0-.76s.6.28.78.52a1.85,1.85,0,0,1,.33.78A4,4,0,0,1,134.89,447.1Z" style="fill:#263238"></path><path d="M114.72,445.59s.53,0,1.37.06a5.87,5.87,0,0,1,4.84,4c.27.8.29,1.34.34,1.34a1.25,1.25,0,0,0,0-.38,4.62,4.62,0,0,0-.19-1,5.71,5.71,0,0,0-1.85-2.8,5.79,5.79,0,0,0-3.12-1.27,4.73,4.73,0,0,0-1,0C114.84,445.54,114.71,445.57,114.72,445.59Z" style="fill:#263238"></path><path d="M116.75,437.85a66.8,66.8,0,0,0-.2,7.66,29.92,29.92,0,0,0,.21-3.83A32.34,32.34,0,0,0,116.75,437.85Z" style="fill:#263238"></path><path d="M123.66,449.26a10.44,10.44,0,0,0,2.73.31,11,11,0,0,0,2.73-.18c0-.07-1.23,0-2.73-.05S123.67,449.2,123.66,449.26Z" style="fill:#263238"></path><path d="M120,449.21c-.05.05.09.26.22.54s.18.53.25.53.1-.29,0-.62S120.05,449.17,120,449.21Z" style="fill:#263238"></path><path d="M118.65,447.48s.07.24.27.44.38.32.42.28-.07-.24-.26-.44S118.7,447.44,118.65,447.48Z" style="fill:#263238"></path><path d="M116.69,446.67c0,.06.26.07.53.17s.47.24.52.2-.1-.3-.44-.42S116.67,446.61,116.69,446.67Z" style="fill:#263238"></path><path d="M115.29,446.28c0,.06.08.16.24.22s.3.07.32,0-.08-.16-.24-.22S115.31,446.23,115.29,446.28Z" style="fill:#263238"></path><path d="M77.16,447.84l1.5-9.85-18.43-2.92-2.35,14.38,1.13.25c5.05,1.09,25.71,5.19,29.27,4.7C92.26,453.85,77.16,447.84,77.16,447.84Z" style="fill:currentColor"></path><g style="opacity:0.4"><path d="M64.59,450.37a6.5,6.5,0,0,0-1.73-4.31,6.3,6.3,0,0,0-4.09-2l-.83,5.15Z"></path></g><g style="opacity:0.4"><path d="M84.49,451.05s5.24,2.45,4.41,3.25-21.87-2.56-31-4.85L58,449l24.51,4.12S83.41,450.92,84.49,451.05Z"></path></g><path d="M57.69,449l.31.09.9.2,3.33.68c2.81.55,6.71,1.26,11,1.95s8.24,1.24,11.08,1.59l3.38.39.91.09.33,0-.32-.06-.91-.13-3.36-.47c-2.84-.39-6.76-1-11.08-1.65s-8.21-1.38-11-1.89l-3.34-.61L58,449Z" style="fill:#263238"></path><path d="M82.44,453.45a7,7,0,0,1,.88-1.5,7.44,7.44,0,0,1,1.34-1.1,3,3,0,0,0-2.22,2.6Z" style="fill:#263238"></path><path d="M77.44,449.82s.36-.23.69-.61.57-.72.53-.77-.36.24-.7.62S77.39,449.78,77.44,449.82Z" style="fill:#263238"></path><path d="M76.07,448.8c0,.05.36-.1.72-.33s.63-.47.6-.52-.36.09-.72.33S76,448.74,76.07,448.8Z" style="fill:#263238"></path><path d="M75.41,446.91c0,.06.41.18.94.27a2.31,2.31,0,0,0,1,.06c0-.07-.41-.19-.94-.28A2.21,2.21,0,0,0,75.41,446.91Z" style="fill:#263238"></path><path d="M75.28,445.63a1.84,1.84,0,0,0,1,.48,1.87,1.87,0,0,0,1.13,0,6.25,6.25,0,0,0-1.08-.25A5.3,5.3,0,0,0,75.28,445.63Z" style="fill:#263238"></path><path d="M78.32,448.32a3.63,3.63,0,0,0,1.18.18,7.83,7.83,0,0,0,1.31-.08,4.22,4.22,0,0,0,.77-.18.64.64,0,0,0,.35-.32.5.5,0,0,0-.1-.51,2.21,2.21,0,0,0-2.79.21,2.11,2.11,0,0,0-.51.73c-.08.19-.1.31-.08.31a3.19,3.19,0,0,1,.7-.92,2.2,2.2,0,0,1,1.11-.5,1.89,1.89,0,0,1,1.4.33c.16.16.06.37-.17.47a3.5,3.5,0,0,1-.71.17,8,8,0,0,1-1.27.13C78.78,448.35,78.32,448.28,78.32,448.32Z" style="fill:#263238"></path><path d="M78.62,448.42a1.22,1.22,0,0,0,.26-.8,1.87,1.87,0,0,0-.18-.91,1.21,1.21,0,0,0-.89-.77.49.49,0,0,0-.45.49,1.36,1.36,0,0,0,.11.56,3.38,3.38,0,0,0,.45.81c.31.42.58.61.6.59s-.2-.25-.47-.68a4.17,4.17,0,0,1-.38-.79c-.12-.28-.16-.74.14-.75s.56.36.7.63a1.78,1.78,0,0,1,.21.82A4.21,4.21,0,0,1,78.62,448.42Z" style="fill:#263238"></path><path d="M58.87,444c0,.05.54,0,1.35.27A6,6,0,0,1,63,446a6,6,0,0,1,1.44,2.91c.15.84.1,1.37.14,1.38a1.31,1.31,0,0,0,.06-.38,4.84,4.84,0,0,0,0-1,5.64,5.64,0,0,0-4.33-4.75,4.46,4.46,0,0,0-1-.13A1.12,1.12,0,0,0,58.87,444Z" style="fill:#263238"></path><path d="M62,436.64a65.85,65.85,0,0,0-1.3,7.56,34,34,0,0,0,.76-3.76A33.07,33.07,0,0,0,62,436.64Z" style="fill:#263238"></path><path d="M67.19,448.94a11.31,11.31,0,0,0,2.65.69,10.47,10.47,0,0,0,2.73.22c0-.07-1.21-.19-2.69-.44S67.21,448.88,67.19,448.94Z" style="fill:#263238"></path><path d="M63.58,448.36s.06.27.14.56.11.55.17.56.14-.28,0-.62S63.63,448.32,63.58,448.36Z" style="fill:#263238"></path><path d="M62.49,446.45c-.05,0,0,.24.2.47s.33.37.38.34,0-.25-.2-.47S62.54,446.41,62.49,446.45Z" style="fill:#263238"></path><path d="M60.67,445.36c0,.07.25.1.5.24s.43.32.48.28,0-.31-.37-.48S60.66,445.3,60.67,445.36Z" style="fill:#263238"></path><path d="M59.34,444.78c0,.05.06.16.2.25s.29.1.32.05-.06-.17-.2-.25S59.37,444.72,59.34,444.78Z" style="fill:#263238"></path><polygon points="87.57 267.13 57.29 443.34 81.17 446.24 115.08 289.06 112.25 443.98 135.12 443.98 144.16 265.58 87.57 267.13" style="fill:#263238"></polygon><path d="M211.36,175.48s2-1.78-.13-2.93c0,0,1.91-2,.13-2.68,0,0,1.38-2.28-1-2.26-.4,0-7.92.47-7.92.47l-8.51,8.8-18.69,25.64-27.65-9.34L144,217.47l26.63,7a11.86,11.86,0,0,0,13.52-6l17.19-33.12,10.48-7.18A1.51,1.51,0,0,0,211.36,175.48Z" style="fill:#ffbe9d"></path><path d="M214.53,150.91l3.11-18.39-9.81-1.66-3.11,18.39a5,5,0,0,0,3.33,5.53l-4.28,25.33c-2.27-.34-4-.44-4.08-.21s2.05.83,4.67,1.28,4.78.59,4.82.33-1.66-.72-3.91-1.14L209.56,155A5,5,0,0,0,214.53,150.91Z" style="fill:#e0e0e0"></path><path d="M199.69,171l8.63-3.91a3,3,0,0,1-.23,2.68,7.07,7.07,0,0,1-1.93,2A18.25,18.25,0,0,0,204,173.5a6.07,6.07,0,0,1-.52,5.23,4,4,0,0,1-4.77,1.51" style="fill:#ffbe9d"></path><path d="M206.89,140.48a2.67,2.67,0,0,1,2.45,1.31,3.65,3.65,0,0,0,4,2.26c.66,0,.82-.25,1.29.22,0,0-.86,6.49-1.84,8.18-1.47,2.52-7,1.83-7.29-1.88C205.32,148.41,206.89,140.48,206.89,140.48Z" style="fill:currentColor"></path><path d="M200.47,170.63a13.62,13.62,0,0,1,2.15-1.14c1.38-.67,3.34-1.59,5.62-2.64l.28-.13.07.3a4.55,4.55,0,0,1-1.14,3.8,9.87,9.87,0,0,1-2,1.67c-.68.47-1.49.79-1.39,1.42,0,.31.14.7.18,1.07a5.48,5.48,0,0,1,0,1.07,6,6,0,0,1-.46,1.85,5.63,5.63,0,0,1-1.61,2.19,2.25,2.25,0,0,1-.86.51s.28-.23.72-.66a6,6,0,0,0,1.41-2.18,6.09,6.09,0,0,0,.37-1.74,5.54,5.54,0,0,0,0-1c0-.33-.15-.65-.2-1.09a1.19,1.19,0,0,1,.12-.68,1.69,1.69,0,0,1,.44-.51c.35-.27.68-.45,1-.68a9.06,9.06,0,0,0,1.86-1.59,4.06,4.06,0,0,0,1-3.35l.35.17c-2.3,1-4.29,1.88-5.7,2.47A14.28,14.28,0,0,1,200.47,170.63Z" style="fill:#eb996e"></path><path d="M209.42,179.23s-.06.25-.45.28a.81.81,0,0,1-.63-.22,1,1,0,0,1-.28-.86,1.64,1.64,0,0,1,.47-1,6.73,6.73,0,0,1,.91-.75l2.16-1.58.29.41a9.75,9.75,0,0,1-1.76,1.05,8.55,8.55,0,0,1-1.72.6,1.28,1.28,0,0,1-1-.22.84.84,0,0,1-.24-1,2,2,0,0,1,.57-.63l.56-.46,1-.8a11.76,11.76,0,0,1,2.08-1.5,13.33,13.33,0,0,1-1.84,1.78l-1,.85c-.32.31-.81.63-1,1s.24.64.72.52a7.75,7.75,0,0,0,1.58-.57,10.14,10.14,0,0,0,1.68-1l.3.41-2.2,1.53c-.68.44-1.24.86-1.31,1.4a.69.69,0,0,0,.59.87C209.27,179.37,209.4,179.2,209.42,179.23Z" style="fill:#eb996e"></path><path d="M208.51,175.09s-.13,0-.32,0a1.53,1.53,0,0,1-.78-.37,1,1,0,0,1-.32-.6,1.25,1.25,0,0,1,.18-.75,4.81,4.81,0,0,1,1.06-1.1,13.62,13.62,0,0,1,3-2.25,14,14,0,0,1-2.67,2.65,5.34,5.34,0,0,0-1,1,.67.67,0,0,0,0,.85C208.07,174.89,208.55,175,208.51,175.09Z" style="fill:#eb996e"></path><path d="M208.21,173s-.06.11-.26.14a1,1,0,0,1-.78-.26,1.34,1.34,0,0,1-.42-1.15,2.45,2.45,0,0,1,.58-1.32,10.5,10.5,0,0,1,2.52-2.31,11.94,11.94,0,0,1-2.11,2.64,1.49,1.49,0,0,0-.31,1.88C207.79,173,208.2,172.88,208.21,173Z" style="fill:#eb996e"></path><path d="M67.2,171.05,70.11,129l.08,0,.13-.7c.36-.67.82-1.45,1.38-2.33a8,8,0,0,1,1.84-2,15.47,15.47,0,0,1,2.57-1.68l.21-.07a1,1,0,0,0,.39-.2,1,1,0,0,0-.1-1.84c-.83-.27-3.23.42-5.53,2.31l-.11.09c-2.38,1.85-1.28-2.72-.91-4.39s1.29-6.89.86-7.39c-.62-.75-1.56-.2-1.89,1.47s-1.69,6.64-2.57,6.43,1.15-8.7,1.15-8.7.73-1.75-.27-2c-1.82-.52-3.29,8.64-3.41,9.52-.08.61-1,.4-.92-.24s2.21-8.42.37-9c-1.41-.42-1.28,7.52-2.61,8.91s.52-6-.85-6.38c-.5-.13-.9-.15-1.35,4.26a96.5,96.5,0,0,0,0,10.4h0l0,1h0s-12.65,49.26-9.58,56S87.1,204.12,87.1,204.12l7.47-21.57Z" style="fill:#ffbe9d"></path><path d="M202.15,117.45a37.54,37.54,0,0,1-6.16-1.1,37.11,37.11,0,0,1-6.05-1.62,38.28,38.28,0,0,1,6.16,1.11A38.14,38.14,0,0,1,202.15,117.45Z" style="fill:#263238"></path><path d="M202.53,125.12a12.38,12.38,0,0,1-3.14,1.69A12.18,12.18,0,0,1,196,128a12.38,12.38,0,0,1,3.14-1.69A12.59,12.59,0,0,1,202.53,125.12Z" style="fill:#263238"></path><path d="M116.56,130.41a30.69,30.69,0,0,0-8.28-.3,10.36,10.36,0,0,0-7.09,3.9c-1,1.4-1.52,3.13-2.75,4.32-1.53,1.48-4.14,2.19-4.5,4.29s2.06,3.9,2.13,6.08a7.14,7.14,0,0,1-1.3,3.47c-.6,1.1-1.09,2.44-.54,3.57.44.91,1.45,1.41,2,2.26.85,1.3.45,3,.82,4.55.55,2.21,2.79,3.68,5,4a17.53,17.53,0,0,0,6.77-.68" style="fill:#263238"></path><path d="M118.73,131.16a13.55,13.55,0,0,1,5.58-.83,4.9,4.9,0,0,1,4.21,3.29c.28,1.14,0,2.47.78,3.36s2.48.93,3.42,1.84c2,2-1.07,6,.94,8,.54.53,1.33.73,1.91,1.22a2.89,2.89,0,0,1,.47,3.54,4.41,4.41,0,0,1-3.18,2,9.77,9.77,0,0,1-3.83-.35A17.6,17.6,0,0,1,118.44,146c-2.33-3.69-2.65-8.77-.17-12.37" style="fill:#263238"></path><path d="M102.83,147.37l3.19,37,18.53-1.48c.11-2.16,0-10.53,0-10.53s7.71-1.2,7.8-8.91c.05-3.74-.49-11.48-1.05-18.45a14.26,14.26,0,0,0-15-13.09h0A14.26,14.26,0,0,0,102.83,147.37Z" style="fill:#ffbe9d"></path><path d="M124.52,172.24a18,18,0,0,1-10-2.86s2.38,5.55,10.07,4.85Z" style="fill:#eb996e"></path><path d="M129.37,150.12a1.1,1.1,0,0,1-1.06,1.11,1.06,1.06,0,0,1-1.13-1,1.1,1.1,0,0,1,1.06-1.11A1.05,1.05,0,0,1,129.37,150.12Z" style="fill:#263238"></path><path d="M129.61,148.88c-.13.14-1-.48-2.15-.47s-2.06.59-2.18.45.07-.33.45-.6a3,3,0,0,1,1.75-.54,2.91,2.91,0,0,1,1.71.55C129.56,148.55,129.68,148.81,129.61,148.88Z" style="fill:#263238"></path><path d="M117.77,150.39a1.1,1.1,0,0,1-1.06,1.11,1,1,0,0,1-1.13-1,1.1,1.1,0,0,1,1.06-1.11A1.05,1.05,0,0,1,117.77,150.39Z" style="fill:#263238"></path><path d="M118,149.1c-.14.14-1-.48-2.16-.47s-2,.59-2.18.45.08-.32.46-.6a3,3,0,0,1,3.46,0C117.91,148.77,118,149,118,149.1Z" style="fill:#263238"></path><path d="M122.27,157.88a8.31,8.31,0,0,1,1.92-.34c.3,0,.59-.1.64-.3a1.52,1.52,0,0,0-.2-.9l-.89-2.3a37.64,37.64,0,0,1-2-6,40.91,40.91,0,0,1,2.49,5.85c.29.81.58,1.58.85,2.32a1.74,1.74,0,0,1,.16,1.19.75.75,0,0,1-.5.44,2,2,0,0,1-.51.07A7.71,7.71,0,0,1,122.27,157.88Z" style="fill:#263238"></path><path d="M118.78,158.7c.19,0,.2,1.28,1.3,2.19s2.47.77,2.48,1-.31.25-.89.27a3.23,3.23,0,0,1-2.07-.73,2.74,2.74,0,0,1-1-1.83C118.55,159,118.69,158.7,118.78,158.7Z" style="fill:#263238"></path><path d="M118.27,144.46c-.11.32-1.29.17-2.68.33s-2.52.55-2.7.26.11-.44.56-.75a4.51,4.51,0,0,1,2-.7,4.63,4.63,0,0,1,2.11.24C118.07,144.05,118.33,144.3,118.27,144.46Z" style="fill:#263238"></path><path d="M129.18,145.45c-.21.27-1,0-2,0s-1.81.18-2-.1,0-.41.41-.67a2.91,2.91,0,0,1,3.23.1C129.16,145,129.27,145.32,129.18,145.45Z" style="fill:#263238"></path><path d="M105.43,153.15c-.14-.06-5.3-1.57-5.13,3.7s5.42,4,5.43,3.87S105.43,153.15,105.43,153.15Z" style="fill:#ffbe9d"></path><path d="M104.05,158.77s-.09.07-.24.14a.9.9,0,0,1-.68,0,2.24,2.24,0,0,1-1.12-2,3.18,3.18,0,0,1,.21-1.33,1.06,1.06,0,0,1,.67-.72.46.46,0,0,1,.55.23.93.93,0,0,1,.07.26s.12-.09.07-.31a.62.62,0,0,0-.22-.32.68.68,0,0,0-.51-.12,1.31,1.31,0,0,0-.94.85,3.21,3.21,0,0,0-.27,1.48,2.37,2.37,0,0,0,1.41,2.23,1,1,0,0,0,.84-.17C104.05,158.9,104.07,158.78,104.05,158.77Z" style="fill:#eb996e"></path><path d="M121.2,131.73a8.25,8.25,0,0,0-2.44-1.8,7.59,7.59,0,0,0-3.4-.65,19.1,19.1,0,0,0-6.91,1.35,9.15,9.15,0,0,0-5,4.79c-.68,1.72-.71,3.74-1.88,5.16-.95,1.16-2.57,1.82-3,3.24-.83,2.52,2.65,5,1.86,7.49a3.93,3.93,0,0,0-.39,1.35,1.47,1.47,0,0,0,1.06,1.18,4.25,4.25,0,0,0,1.67.07c2-.18,4.34-.68,5-2.55s-.63-3.82.34-5.36c.85-1.33,2.53-1,3.81-1.92a7.75,7.75,0,0,0,1.45-1.35,11,11,0,0,0,2.58-.74,4.5,4.5,0,0,0,2.38-2.26c.48-1.14.33-2.54,1.12-3.49s2.51-1.3,2.82-2.55A1.82,1.82,0,0,0,121.2,131.73Z" style="fill:#263238"></path><path d="M118.49,129.27S101.76,111.92,100,114.15c-1.65,2.06.09,22.14.09,22.14S114.32,135.68,118.49,129.27Z" style="fill:currentColor"></path><path d="M111.06,122.71c.28,0,.61.7.45,1.17a.91.91,0,0,1-1.2.5.94.94,0,0,1-.41-1.25,1,1,0,0,1,1.28-.36" style="fill:#fafafa"></path><path d="M108.29,131c.28,0,.61.69.45,1.16a.91.91,0,0,1-1.2.51,1,1,0,0,1-.41-1.26,1,1,0,0,1,1.28-.36" style="fill:#fafafa"></path><path d="M103,126.29c.28,0,.61.69.45,1.16a.92.92,0,0,1-1.21.51,1,1,0,0,1-.4-1.26,1,1,0,0,1,1.28-.36" style="fill:#fafafa"></path><path d="M101.48,115.48c.28,0,.61.69.45,1.16a.92.92,0,0,1-1.21.51,1,1,0,0,1-.4-1.26,1,1,0,0,1,1.28-.36" style="fill:#fafafa"></path><path d="M106.28,118.89c.28,0,.6.69.44,1.16a.91.91,0,0,1-1.2.51,1,1,0,0,1-.41-1.26,1,1,0,0,1,1.28-.36" style="fill:#fafafa"></path><path d="M113.32,130c.17,0,.38.44.28.74a.58.58,0,0,1-.76.32.59.59,0,0,1-.26-.79.61.61,0,0,1,.81-.23" style="fill:#fafafa"></path><path d="M103.52,132.75c.17,0,.38.44.28.74a.58.58,0,0,1-.76.32.59.59,0,0,1-.26-.79.61.61,0,0,1,.81-.23" style="fill:#fafafa"></path><path d="M114.24,126.62c.18,0,.38.44.28.73a.56.56,0,0,1-.76.32.59.59,0,0,1-.25-.79.62.62,0,0,1,.81-.23" style="fill:#fafafa"></path><path d="M107.6,126.05c.17,0,.38.44.28.73a.57.57,0,0,1-.76.32.59.59,0,0,1-.26-.79.62.62,0,0,1,.81-.23" style="fill:#fafafa"></path><path d="M101.89,121.55c.18,0,.38.44.29.74a.56.56,0,1,1-1-.47.6.6,0,0,1,.81-.23" style="fill:#fafafa"></path><path d="M124.85,172.39a1.7,1.7,0,0,1-.47.15,8.87,8.87,0,0,1-1.4.25,11.44,11.44,0,0,1-5.15-.66c-4.23-1.45-8.84-6.1-11.41-12.32a32,32,0,0,1-2.08-9.2,65.54,65.54,0,0,1-.22-7.69c.06-2.19.17-3.95.25-5.17,0-.56.08-1,.11-1.4a2,2,0,0,1,.08-.49,1.56,1.56,0,0,1,0,.49c0,.38,0,.85,0,1.41,0,1.22-.07,3-.08,5.16a71.81,71.81,0,0,0,.33,7.64,32.48,32.48,0,0,0,2.08,9.05c2.52,6.1,7,10.69,11.06,12.18a12.15,12.15,0,0,0,5,.8C124.18,172.52,124.84,172.33,124.85,172.39Z" style="fill:#455a64"></path><path d="M91.11,213l-5.54,58.25h59.78c.15-6.19-2.62-52.23-2.62-52.23l12,2.66,11.66-25-19.11-9.43c-8.72-4.25-10.59-5.9-18-6.92-2.19-.3-3.85-.44-4.93-.58a31.7,31.7,0,0,1-19.13,0h0c-.75,0-1.47.09-2.18.17l-16.35-3.72L73.5,172.73l-8.38,26.52Z" style="fill:currentColor"></path><path d="M92.2,202.14a11.32,11.32,0,0,1,0,2.84c-.08,1.74-.28,4.14-.59,6.79s-.67,5-1,6.75a11.22,11.22,0,0,1-.68,2.75,13.54,13.54,0,0,1,.22-2.82c.23-2,.5-4.26.8-6.76s.55-4.76.77-6.75A13.3,13.3,0,0,1,92.2,202.14Z" style="fill:#263238"></path><path d="M142.82,228a29,29,0,0,1-.38-4.1c-.16-2.54-.39-6-.71-9.9s-.66-7.35-.91-9.88a28.65,28.65,0,0,1-.3-4.11,23.31,23.31,0,0,1,.76,4c.37,2.52.79,6,1.11,9.88s.47,7.39.52,9.94A22.85,22.85,0,0,1,142.82,228Z" style="fill:#263238"></path><path d="M141.71,226.19a5,5,0,0,1-.85-.43l-2.34-1.35-8.35-4.93h.22l-14.51,8h0l-.14.08-.12-.08-12.6-8h.23l-9.6,5.06L90.92,226a7.19,7.19,0,0,1-1,.45,5.31,5.31,0,0,1,.91-.57l2.65-1.5L103,219.1l.11-.06.11.07c3.69,2.31,8,5,12.63,7.91h-.24l14.55-7.89.11-.06.1.06,8.26,5.09,2.28,1.44A5.3,5.3,0,0,1,141.71,226.19Z" style="fill:#fff"></path><path d="M141.06,232.39a5.78,5.78,0,0,1-.85-.44l-2.35-1.34-8.34-4.93h.21l-14.5,8h0l-.14.07-.13-.08-12.59-8h.23L93,230.76l-2.7,1.39a6.36,6.36,0,0,1-1,.45,7,7,0,0,1,.92-.58l2.65-1.49,9.51-5.23.12-.07.11.07,12.63,7.91H115l14.55-7.89.11-.06.1.07,8.25,5.08,2.29,1.45A5.3,5.3,0,0,1,141.06,232.39Z" style="fill:#fff"></path><path d="M146.43,219.82a2.33,2.33,0,0,1-.21-.68l-.45-1.93c-.37-1.77-.87-4.12-1.45-6.89l0-.18.17-.07,8-3.58,4.34-1.92-.15.26c-.45-3.92-.83-7.33-1.07-9.75q-.17-1.71-.27-2.85a5,5,0,0,1,0-1,4.34,4.34,0,0,1,.21,1c.11.75.25,1.7.42,2.83.33,2.41.77,5.81,1.25,9.73l0,.18-.18.08L152.61,207l-8,3.52.14-.26c.51,2.79.94,5.15,1.27,6.93.13.78.23,1.42.32,2A2.82,2.82,0,0,1,146.43,219.82Z" style="fill:#fff"></path><path d="M81,174.8a3,3,0,0,1,.22.67l.51,1.92c.43,1.77,1,4.1,1.66,6.84l0,.18-.17.08-7.44,3.62-4.68,2.24.14-.24c.26,3.71.47,6.9.6,9.18,0,1.06.09,2,.13,2.66a5.08,5.08,0,0,1,0,1,3.76,3.76,0,0,1-.16-.95c-.07-.71-.16-1.59-.27-2.65-.22-2.27-.49-5.46-.79-9.16V190l.15-.08,4.67-2.26,7.47-3.56-.13.25c-.59-2.76-1.09-5.1-1.48-6.88-.15-.77-.27-1.41-.38-1.95A2.17,2.17,0,0,1,81,174.8Z" style="fill:#fff"></path></g><g id="freepik--Plant--inject-2"><path d="M219.58,418.19c-1.56,2.22-4.58,1.48-6,.13s-2-3.32-2.53-5.2c-1.23-4.27-2.47-8.76-1.56-13.12a7.35,7.35,0,0,1,1.68-3.57,3.79,3.79,0,0,1,3.61-1.2c1.52.4,2.47,1.89,3.15,3.31a31.39,31.39,0,0,1,3.1,13.43,10.94,10.94,0,0,1-1.47,6.22" style="fill:currentColor"></path><g style="opacity:0.2"><path d="M219.58,418.19c-1.56,2.22-4.58,1.48-6,.13s-2-3.32-2.53-5.2c-1.23-4.27-2.47-8.76-1.56-13.12a7.35,7.35,0,0,1,1.68-3.57,3.79,3.79,0,0,1,3.61-1.2c1.52.4,2.47,1.89,3.15,3.31a31.39,31.39,0,0,1,3.1,13.43,10.94,10.94,0,0,1-1.47,6.22"></path></g><path d="M213.75,429.43a13.51,13.51,0,0,0-8.35-1,6.93,6.93,0,0,0-4.13,1.85c-1,1.14-1.23,3.14-.05,4.12a4,4,0,0,0,2.61.66c2.21,0,4.66-.42,6.42.91,1,.76,1.68,2,2.88,2.4a2.86,2.86,0,0,0,3.14-1.4,4.89,4.89,0,0,0,.35-3.59A5.49,5.49,0,0,0,213.75,429.43Z" style="fill:currentColor"></path><path d="M223.85,421.37a8.07,8.07,0,0,1-1.26-7.43,14.35,14.35,0,0,1,4.4-6.39,23.75,23.75,0,0,1,7.89-4.65,8.32,8.32,0,0,1,3.54-.6,3.71,3.71,0,0,1,3,1.8c.83,1.58,0,3.5-.83,5.07a60.12,60.12,0,0,1-5.18,7.88c-1.55,2-3.33,4-5.69,4.88s-4.83.8-6.08-.84" style="fill:currentColor"></path><path d="M219.68,451.68a5.41,5.41,0,0,1-.14-1c-.07-.74-.16-1.66-.27-2.75a35.56,35.56,0,0,0-.62-4,31.66,31.66,0,0,0-1.46-4.77,17.63,17.63,0,0,0-2.44-4.31,9,9,0,0,0-3.07-2.56,8.57,8.57,0,0,0-2.6-.81,4.48,4.48,0,0,1-1-.14,4.24,4.24,0,0,1,1,0,7.82,7.82,0,0,1,2.7.71,9,9,0,0,1,3.25,2.58,17.1,17.1,0,0,1,2.52,4.39A29.31,29.31,0,0,1,219,443.8a33,33,0,0,1,.54,4.09c.08,1.17.12,2.11.13,2.77A4.29,4.29,0,0,1,219.68,451.68Z" style="fill:#263238"></path><path d="M219.49,449.56a2.42,2.42,0,0,1,0-.47v-1.34c0-1.16,0-2.84-.06-4.92-.1-4.15-.46-9.88-1.15-16.18s-1.62-12-2.46-16c-.2-1-.4-1.93-.59-2.74s-.33-1.5-.48-2.06-.23-1-.31-1.3a2,2,0,0,1-.08-.46,2.36,2.36,0,0,1,.16.44c.1.34.23.76.39,1.28s.35,1.25.55,2.05.43,1.71.65,2.73a149.36,149.36,0,0,1,2.58,16.05c.69,6.32,1,12.07,1,16.23,0,2.08,0,3.76-.07,4.93,0,.54-.06,1-.08,1.33A1.47,1.47,0,0,1,219.49,449.56Z" style="fill:#263238"></path><path d="M219.47,438.47a8.38,8.38,0,0,1,0-1.4c.06-.89.18-2.19.43-3.78a53.74,53.74,0,0,1,3.54-12.06,34.94,34.94,0,0,1,6.78-10.55,16.1,16.1,0,0,1,1.6-1.48c.24-.21.46-.42.68-.58l.62-.43a11.28,11.28,0,0,1,1.17-.75,43.31,43.31,0,0,0-3.86,3.44,36.64,36.64,0,0,0-6.6,10.52,53.28,53.28,0,0,0-2.33,6.47c-.6,2-1,3.89-1.31,5.47s-.45,2.86-.55,3.75A12.6,12.6,0,0,1,219.47,438.47Z" style="fill:#263238"></path></g><g id="freepik--Confetti--inject-2"><path d="M152.89,121.71l2.77,1.71s1.5-3.67,4.1-3.9,3.06,3,6.92-2.77l-1.12-2.53s-1.45,3.7-3.59,3.45S157,114.88,152.89,121.71Z" style="fill:currentColor"></path><path d="M39.88,266.93l1.76-2.75S38,262.62,37.81,260s3-3-2.65-7l-2.54,1.07s3.67,1.52,3.38,3.65S33.12,262.74,39.88,266.93Z" style="fill:currentColor"></path><path d="M386.17,53.57l3.26,0s-.61-3.92,1.49-5.46,4.16,1,4.5-5.94l-2.25-1.59s.66,3.92-1.3,4.81S386.13,45.62,386.17,53.57Z" style="fill:currentColor"></path><path d="M180.39,285.55l-3.16-.79s-.32,3.95-2.72,5-3.83-1.9-5.76,4.74l1.83,2.06s.26-4,2.38-4.37S178.58,293.29,180.39,285.55Z" style="fill:currentColor"></path><path d="M207,231.37l-.66-2.19s-2.49,1.23-4,.15-.23-3-4.93-1.76l-.58,1.85s2.48-1.27,3.49-.15S201.66,233.07,207,231.37Z" style="fill:#455a64"></path><path d="M69.17,66.49l-1.39-.77s-.65,1.82-1.9,2-1.57-1.37-3.31,1.51l.6,1.21s.62-1.84,1.67-1.77S67.35,69.92,69.17,66.49Z" style="fill:#455a64"></path><path d="M242.79,42.46l.72-2.6s-3.27-.35-4-2.36,1.65-3.13-3.81-4.86L233.9,34.1s3.28.3,3.57,2.07S236.41,40.8,242.79,42.46Z" style="fill:#455a64"></path><path d="M457.1,310.81l.72-2.6s-3.26-.35-4.05-2.36,1.65-3.13-3.81-4.86l-1.75,1.47s3.28.29,3.58,2.06S450.72,309.16,457.1,310.81Z" style="fill:#455a64"></path><path d="M472,191.08l-1.57.25s.61,1.83-.27,2.75-2.08-.13-1.68,3.22l1.21.58s-.64-1.83.24-2.42S472.67,194.9,472,191.08Z" style="fill:#455a64"></path><path d="M305.61,100.51l0-1.59s-1.91.27-2.65-.77.51-2-2.86-2.25L299.35,97s1.92-.29,2.33.67S301.73,100.46,305.61,100.51Z" style="fill:#e0e0e0"></path><path d="M136.74,43.67l-1.28,2.63s3.41,1,3.86,3.31-2.37,3,3.1,5.92l2.16-1.22s-3.44-1-3.41-2.89S143.21,46.68,136.74,43.67Z" style="fill:currentColor"></path><path d="M461.07,247.06l-2-2.58s-2.69,2.91-5.21,2.21-1.82-3.85-7.45.16l.16,2.76s2.66-3,4.57-2S454.86,252,461.07,247.06Z" style="fill:currentColor"></path></g></svg>