<?xml version="1.0" standalone="no"?><!DOCTYPE svg PUBLIC "-//W3C//DTD SVG 1.1//EN" "http://www.w3.org/Graphics/SVG/1.1/DTD/svg11.dtd"><svg t="1737021113160" class="icon" viewBox="0 0 1024 1024" version="1.1" xmlns="http://www.w3.org/2000/svg" p-id="11349" xmlns:xlink="http://www.w3.org/1999/xlink" width="200" height="200"><path d="M146.879977 0A52.335992 52.335992 0 0 0 95.999985 51.167992v921.647856a49.039992 49.039992 0 0 0 15.279998 35.791994A49.839992 49.839992 0 0 0 146.863977 1023.99984h746.287883a48.559992 48.559992 0 0 0 35.567995-15.359998A50.719992 50.719992 0 0 0 943.999853 972.815848V290.015955L655.679898 0H146.847977h0.016z" fill="#3662EC" p-id="11350"></path><path d="M943.999853 287.999955H706.84789A52.127992 52.127992 0 0 1 655.999898 237.199963V0l287.951955 287.999955H943.999853z" fill="#FFFFFF" fill-opacity=".7" p-id="11351"></path><path d="M172.223973 751.999883h45.823993v-78.335988h62.71999V751.999883h45.567993V561.279912h-45.567993v72.703989h-62.71999V561.279912h-45.823993V751.999883z m235.007963 0h45.823993v-152.575977h51.711992V561.279912h-148.991977v38.143994h51.455992V751.999883z m126.975981 0h40.959993v-65.27999c0-18.943997-3.583999-47.359993-5.887999-66.04799h1.024l15.359997 45.567993 25.855996 69.631989h25.087997l25.599996-69.631989 15.871997-45.567993h1.28c-2.56 18.687997-6.143999 47.103993-6.143999 66.04799V751.999883h41.727993V561.279912H665.279896l-29.183995 82.431987c-3.583999 11.007998-6.655999 23.039996-10.495999 34.559995h-1.28c-3.583999-11.519998-6.655999-23.551996-10.495998-34.559995l-30.207995-82.431987h-49.407992V751.999883z m224.511964 0h120.063982v-38.399994h-74.239989v-152.319977H758.719881V751.999883z" fill="#FFFFFF" p-id="11352"></path></svg>