<svg t="1642407389455" class="icon" viewBox="0 0 1024 1024" version="1.1" xmlns="http://www.w3.org/2000/svg" p-id="6501"
  width="200" height="200">
  <path
    d="M967.111111 281.6V910.222222c0 62.862222-50.915556 113.777778-113.777778 113.777778H170.666667c-62.862222 0-113.777778-50.915556-113.777778-113.777778V113.777778c0-62.862222 50.915556-113.777778 113.777778-113.777778h514.844444L967.111111 281.6z"
    fill="#C386F0" p-id="6502"></path>
  <path
    d="M284.444444 398.222222m42.666667 0l298.666667 0q42.666667 0 42.666666 42.666667l0 234.666667q0 42.666667-42.666666 42.666666l-298.666667 0q-42.666667 0-42.666667-42.666666l0-234.666667q0-42.666667 42.666667-42.666667Z"
    fill="#FFFFFF" p-id="6503"></path>
  <path
    d="M738.417778 457.841778a31.971556 31.971556 0 0 1 48.014222 27.676444v154.538667c0 24.632889-26.652444 40.021333-47.985778 27.704889L684.430222 636.586667V488.96z"
    fill="#FFFFFF" p-id="6504"></path>
  <path d="M685.511111 167.822222V0L967.111111 281.6H799.288889c-62.862222 0-113.777778-50.915556-113.777778-113.777778"
    fill="#A15FDE" p-id="6505"></path>
</svg>