<svg t="1642407407406" class="icon" viewBox="0 0 1024 1024" version="1.1" xmlns="http://www.w3.org/2000/svg" p-id="6649"
  width="200" height="200">
  <path
    d="M967.111111 281.6V910.222222c0 62.862222-50.915556 113.777778-113.777778 113.777778H170.666667c-62.862222 0-113.777778-50.915556-113.777778-113.777778V113.777778c0-62.862222 50.915556-113.777778 113.777778-113.777778h514.844444L967.111111 281.6z"
    fill="#FFC63A" p-id="6650"></path>
  <path d="M685.511111 167.822222V0L967.111111 281.6H799.288889c-62.862222 0-113.777778-50.915556-113.777778-113.777778"
    fill="#DD9F08" p-id="6651"></path>
  <path
    d="M436.565333 68.437333h68.437334V0h-68.437334zM505.002667 136.874667h68.437333V68.437333h-68.437333zM436.565333 205.312h68.437334V136.874667h-68.437334zM505.002667 273.749333h68.437333V205.312h-68.437333z"
    fill="#FFFFFF" p-id="6652"></path>
  <path d="M436.565333 342.158222h68.437334V273.720889h-68.437334zM505.002667 410.624h68.437333V342.186667h-68.437333z"
    fill="#FFFFFF" p-id="6653"></path>
  <path
    d="M436.565333 479.032889h68.437334v-68.437333h-68.437334zM505.002667 547.470222h68.437333v-68.437333h-68.437333zM470.784 762.225778h68.437333v-68.437334h-68.437333v68.437334z m-34.218667-136.874667v136.874667c0 18.915556 15.331556 34.218667 34.218667 34.218666h68.437333c18.915556 0 34.218667-15.303111 34.218667-34.218666v-136.874667h-136.874667z"
    fill="#FFFFFF" p-id="6654"></path>
</svg>