<?xml version="1.0" standalone="no"?><!DOCTYPE svg PUBLIC "-//W3C//DTD SVG 1.1//EN" "http://www.w3.org/Graphics/SVG/1.1/DTD/svg11.dtd"><svg t="1737021200495" class="icon" viewBox="0 0 1024 1024" version="1.1" xmlns="http://www.w3.org/2000/svg" p-id="16905" xmlns:xlink="http://www.w3.org/1999/xlink" width="200" height="200"><path d="M145.621959 0c-44.79888 0-79.998 36.81188-79.998 81.61076v860.77848c0 44.79888 35.19912 81.61076 79.998 81.61076h732.781681a81.969151 81.969151 0 0 0 81.61076-81.61076V324.80468L657.60916 0h-511.987201z" fill="#4BBFEB" p-id="16906"></path><path d="M657.60916 0v233.59416c0 25.59936 17.61236 92.79768 97.61036 92.79768h204.79488L657.60916 0z" fill="#FFFFFF" p-id="16907"></path><path d="M240.211595 652.886078c0-5.811055 0.691183-12.364491 2.099147-19.737107s3.839904-14.463638 7.347017-21.375465c4.81268-9.59976 10.137347-18.866728 16.050798-27.826505s11.954901-17.20277 18.149947-24.754581 12.39009-14.258844 18.610734-20.095497 12.108497-10.41894 17.689158-13.721257l-0.153596 0.153596c3.507112-2.201545 7.19342-4.505487 11.110122-6.911827s7.910202-4.607885 12.0061-6.604635 8.242994-3.660708 12.441289-4.940677 8.345391-1.945551 12.441289-1.945551c4.198295 0 8.191795 0.844779 12.0061 2.559936s7.116622 4.0191 9.98375 6.963026 5.094273 6.374241 6.758231 10.265343 2.483138 8.038199 2.483138 12.441289c0 3.097523-0.179196 5.529462-0.537586 7.270218s-0.895978 3.071923-1.638359 3.967901-1.689558 1.459164-2.841529 1.638359-2.483138 0.307192-3.967901 0.307193c-2.201545 0-3.916702-0.486388-5.171071-1.433565s-2.252744-2.099148-2.995125-3.455913-1.331167-2.841529-1.715157-4.505488-0.870378-3.148721-1.433564-4.505487-1.254369-2.508737-2.099148-3.455914-2.022349-1.433564-3.532712-1.433564c-3.9935 0-8.319792 0.895978-12.978875 2.687933s-9.394965 4.198295-14.258844 7.19342-9.702157 6.425439-14.540436 10.265344-9.471763 7.782205-13.874853 11.775705-8.473388 7.961401-12.236494 11.852504-6.963026 7.398215-9.676558 10.495737c-3.9935 5.094273-7.654209 10.265343-10.956527 15.513213s-6.143846 10.598135-8.550186 16.050798-4.249494 11.058924-5.555061 16.793181-1.945551 11.724507-1.945551 17.919552c0 4.81268 0.665583 9.010975 2.022349 12.594885s2.81593 6.707032 4.428689 9.292567c1.894353 2.995125 4.249494 5.068673 7.039824 6.220645s6.143846 1.715157 10.060549 1.715157c8.498988 0 16.357991-0.79358 23.551411-2.40634s14.105247-3.737507 20.709882-6.451039 13.055674-5.887853 19.353117-9.59976 12.79968-7.654209 19.506712-11.852503h3.891103c1.305567 0 2.636734 0.358391 3.9679 1.049573s2.559936 1.61276 3.60951 2.687933 1.894353 2.355141 2.559936 3.737507 0.972776 2.841529 0.972776 4.351891c0 3.302317-1.305567 6.579036-3.891103 9.830154s-5.913452 6.348641-9.98375 9.292568-8.626984 5.734257-13.721257 8.319792-10.137347 4.889478-15.078023 6.911827-9.574161 3.711907-13.874853 5.094273-7.756606 2.355141-10.342142 2.841529l-6.37424 1.433564a105.725357 105.725357 0 0 1-17.330767 2.40634c-3.916702 0.255994-8.80618 0.38399-14.694033 0.38399-3.60951 0-6.911827-0.563186-9.906952-1.715157s-5.683058-2.508737-8.0126-4.044699-4.351891-3.174321-5.99025-4.863878-2.969526-3.148721-3.967901-4.351891c-5.887853-6.911827-10.188545-13.695658-12.902077-20.40269s-4.121497-13.900452-4.121497-21.887453zM418.40874 682.120547c3.404715 1.20317 6.886228 2.611135 10.418939 4.198295s7.21902 3.123122 11.033324 4.582285 7.782205 2.662333 11.929302 3.686308 8.575786 1.510362 13.286068 1.510363c5.503862 0 11.058924-0.639984 16.639584-1.945552s11.084523-3.225519 16.434789-5.785455 10.470138-5.657459 15.385216-9.292568 9.394965-7.884603 13.490862-12.671683c4.505487-5.094273 8.242994-9.727757 11.238119-13.874853s5.427064-7.859004 7.270219-11.110122 3.174321-6.041449 3.9679-8.396591 1.20317-4.377491 1.20317-6.067048c0-2.508737-0.844779-4.684683-2.559936-6.527837s-3.967901-3.379116-6.835029-4.582285-6.067048-2.073548-9.676558-2.636734-7.347016-0.81918-11.238119-0.81918c-2.303942 0-4.991875 0.076798-8.089398 0.230395l-9.446164 0.460788-9.292567 0.38399a150.39624 150.39624 0 0 1-7.807805 0.153597c-3.302317 0-6.732632-0.38399-10.265343-1.126372s-7.014225-1.971151-10.41894-3.686308-6.553436-3.9935-9.446164-6.911827a35.403915 35.403915 0 0 1-8.831779-15.743607 24.626584 24.626584 0 0 1-0.742381-6.143846c0-2.40634 0.179196-4.684683 0.537586-6.835029s0.767981-4.223894 1.279968-6.220645c1.407965-4.991875 3.737507-10.086148 6.963026-15.231619s7.142221-10.162946 11.698908-15.078023 9.497363-9.650959 14.847628-14.258844 10.854129-8.934177 16.511588-12.978875 11.21252-7.705407 16.639584-10.956526 10.521337-6.01585 15.231619-8.319792c6.604635-3.19992 13.337267-5.529462 20.172296-6.963026s13.61886-2.175946 20.325891-2.175946c3.9935 0 7.807805 0.537587 11.391716 1.587161s6.78383 2.585535 9.522962 4.582285 4.915077 4.479888 6.527836 7.423815 2.40634 6.323042 2.40634 10.137346c0 2.201545-0.255994 4.044699-0.742381 5.555061s-1.151971 2.713532-1.945552 3.686308-1.663958 1.61276-2.636734 2.022349-1.919952 0.588785-2.918327 0.588786c-2.687933 0-5.171071-0.307192-7.423814-0.895978s-4.428689-1.279968-6.527837-2.022349-4.198295-1.459164-6.297443-2.099148-4.40309-0.972776-6.911827-0.972775c-7.398215 0-14.924427 1.484763-22.578635 4.428689s-15.103622 6.707032-22.348242 11.238119-14.105247 9.625359-20.556286 15.231619-12.236494 11.058924-17.330766 16.357991c-2.687933 2.79033-4.684683 5.60626-5.913453 8.39659s-1.868753 5.452664-1.868753 7.961401c0 3.711907 1.61276 6.604635 4.81268 8.703783s7.091023 3.148721 11.698907 3.148721c2.687933 0 5.759856-0.051199 9.138972-0.153596a796.140096 796.140096 0 0 0 20.761081-0.844779c3.353516-0.153596 6.323042-0.230394 8.934177-0.230394 6.195045 0 12.159696 0.870378 17.842753 2.636734s10.751731 4.326292 15.154822 7.731006 7.935802 7.628609 10.572535 12.671684 3.967901 10.828529 3.967901 17.330766c0 3.9935-0.588785 8.038199-1.791955 12.159696s-2.841529 8.217395-4.940677 12.364491-4.505487 8.242994-7.19342 12.287693-5.555061 8.0126-8.550186 11.929302c-5.401465 6.988625-11.417315 13.59326-18.073148 19.788305s-13.721257 11.59651-21.22187 16.204395-15.436414 8.242994-23.781805 10.956526-16.921177 4.044699-25.727357 4.044699a74.724532 74.724532 0 0 1-23.551411-4.121497c-3.891103-1.356766-7.577411-3.046324-11.033324-5.094273s-6.476638-4.377491-9.062174-6.963026-4.684683-5.478263-6.220644-8.626984-2.329542-6.579036-2.329542-10.265343c0-1.791955 0.281593-3.532712 0.81918-5.171071s1.868753-2.559936 4.070298-2.559936zM606.359241 682.120547c3.404715 1.20317 6.886228 2.611135 10.41894 4.198295s7.21902 3.123122 11.033324 4.582285 7.782205 2.662333 11.929301 3.686308 8.575786 1.510362 13.286068 1.510363c5.503862 0 11.058924-0.639984 16.639584-1.945552s11.084523-3.225519 16.434789-5.785455 10.470138-5.657459 15.385216-9.292568 9.394965-7.884603 13.490863-12.671683c4.505487-5.094273 8.242994-9.727757 11.238119-13.874853s5.427064-7.859004 7.270218-11.110122 3.174321-6.041449 3.967901-8.396591 1.20317-4.377491 1.20317-6.067048c0-2.508737-0.844779-4.684683-2.559936-6.527837s-3.967901-3.379116-6.83503-4.582285-6.067048-2.073548-9.676558-2.636734-7.347016-0.81918-11.238119-0.81918c-2.303942 0-4.991875 0.076798-8.089397 0.230395l-9.446164 0.460788-9.292568 0.38399a150.39624 150.39624 0 0 1-7.807805 0.153597c-3.302317 0-6.732632-0.38399-10.265343-1.126372s-7.014225-1.971151-10.41894-3.686308-6.553436-3.9935-9.446164-6.911827a35.403915 35.403915 0 0 1-8.831779-15.743607 24.626584 24.626584 0 0 1-0.742381-6.143846c0-2.40634 0.179196-4.684683 0.537586-6.835029s0.767981-4.223894 1.279968-6.220645c1.407965-4.991875 3.737507-10.086148 6.963026-15.231619s7.142221-10.162946 11.698908-15.078023 9.497363-9.650959 14.847629-14.258844 10.854129-8.934177 16.511587-12.978875 11.21252-7.705407 16.639584-10.956526 10.521337-6.01585 15.231619-8.319792c6.604635-3.19992 13.337267-5.529462 20.172296-6.963026s13.61886-2.175946 20.325892-2.175946c3.9935 0 7.807805 0.537587 11.391715 1.587161s6.78383 2.585535 9.522962 4.582285 4.915077 4.479888 6.527837 7.423815 2.40634 6.323042 2.406339 10.137346c0 2.201545-0.255994 4.044699-0.742381 5.555061s-1.151971 2.713532-1.945551 3.686308-1.663958 1.61276-2.636734 2.022349-1.919952 0.588785-2.918328 0.588786c-2.687933 0-5.171071-0.307192-7.423814-0.895978s-4.428689-1.279968-6.527837-2.022349-4.198295-1.459164-6.297442-2.099148-4.40309-0.972776-6.911827-0.972775c-7.398215 0-14.924427 1.484763-22.578636 4.428689s-15.103622 6.707032-22.348241 11.238119-14.105247 9.625359-20.556286 15.231619-12.236494 11.058924-17.330767 16.357991c-2.687933 2.79033-4.684683 5.60626-5.913452 8.39659s-1.868753 5.452664-1.868754 7.961401c0 3.711907 1.61276 6.604635 4.81268 8.703783s7.091023 3.148721 11.698908 3.148721c2.687933 0 5.759856-0.051199 9.138971-0.153596a796.140096 796.140096 0 0 0 20.761081-0.844779c3.353516-0.153596 6.323042-0.230394 8.934177-0.230394 6.195045 0 12.159696 0.870378 17.842754 2.636734s10.751731 4.326292 15.154821 7.731006 7.935802 7.628609 10.572536 12.671684 3.967901 10.828529 3.9679 17.330766c0 3.9935-0.588785 8.038199-1.791955 12.159696s-2.841529 8.217395-4.940676 12.364491-4.505487 8.242994-7.193421 12.287693-5.631859 7.987-8.626984 11.878103c-5.401465 6.988625-11.417315 13.59326-18.073148 19.788305s-13.721257 11.59651-21.221869 16.204395-15.436414 8.242994-23.781806 10.956526-16.921177 4.044699-25.727357 4.044699a74.724532 74.724532 0 0 1-23.551411-4.121497c-3.891103-1.356766-7.577411-3.046324-11.033324-5.094272s-6.476638-4.377491-9.062174-6.963026-4.684683-5.478263-6.220644-8.626985-2.329542-6.579036-2.329542-10.265343c0-1.791955 0.281593-3.532712 0.81918-5.171071s1.945551-2.508737 4.147096-2.508737z" fill="#FFFFFF" p-id="16908"></path></svg>