<svg t="1642407647664" class="icon" viewBox="0 0 1024 1024" version="1.1" xmlns="http://www.w3.org/2000/svg"
  p-id="19787" width="200" height="200">
  <path d="M847.872 240.128v688c0 26.56-21.408 48-48 48h-576c-26.56 0-48-21.44-48-48v-832c0-26.592 21.44-48 48-48h432z"
    fill="#E9EDED" p-id="19788"></path>
  <path d="M160 768.128v160c0 35.456 28.544 64 64 64h576c35.456 0 64-28.544 64-64v-160H160z" fill="#F05542"
    p-id="19789"></path>
  <path d="M847.872 240.128h-144c-26.56 0-48-21.44-48-48v-144" fill="#F05542" p-id="19790"></path>
  <path
    d="M432.736 384.064a16 16 0 0 0-10.976 4.8l-96.96 95.776a16 16 0 0 0-0.416 0.416 16 16 0 0 0 1.664 23.808l95.68 94.56a16 16 0 1 0 22.528-22.72l-85.568-84.576 85.568-84.48a16 16 0 0 0-11.52-27.584z m157.824 0a16 16 0 0 0-11.008 27.552l85.504 84.48-85.504 84.576a16 16 0 1 0 22.496 22.752l95.648-94.56a16 16 0 0 0 5.44-17.504 16 16 0 0 0-1.28-2.912 16 16 0 0 0-0.608-1.12 16 16 0 0 0-0.192-0.256 16 16 0 0 0-0.192-0.256 16 16 0 0 0-0.8-0.992 16 16 0 0 0-0.192-0.256 16 16 0 0 0-0.864-0.96 16 16 0 0 0-0.064 0l-0.64-0.544a16 16 0 0 0-0.48-0.512l-95.776-94.688a16 16 0 0 0-11.488-4.8z"
    fill="#F05542" p-id="19791"></path>
  <path
    d="M654.88 799.744a16 16 0 0 0-11.84 6.624L608 853.312l-35.136-46.944-0.128 0.064a16 16 0 0 0-13.056-6.368 16 16 0 0 0-15.744 16.192v127.68a16 16 0 1 0 32 0v-80.128l15.936 21.248a16 16 0 0 0 28.864 4.448l19.2-25.6v80.032a16 16 0 1 0 32 0v-126.816a16 16 0 0 0-15.424-17.376 16 16 0 0 0-1.632 0z m-383.136 0.32a16 16 0 0 0-15.744 16.192V943.936a16 16 0 1 0 32 0v-47.808h64v47.808a16 16 0 1 0 32 0v-61.312a16 16 0 0 0 0-5.12v-61.248a16 16 0 0 0-16.256-16.192 16 16 0 0 0-15.744 16.192v47.872H288v-47.872a16 16 0 0 0-16.256-16.192z m192 0a16 16 0 0 0-1.6 0.064H432a16 16 0 1 0 0 32h16v111.808a16 16 0 1 0 32 0v-111.808h16a16 16 0 1 0 0-32h-30.304a16 16 0 0 0-1.92-0.064z m255.936 0a16 16 0 0 0-15.744 16.192v126.496a16 16 0 0 0 0.64 5.824 16 16 0 0 0 0 0.064 16 16 0 0 0 0.096 0.416 16 16 0 0 0 0.448 1.12 16 16 0 0 0 0.864 1.824 16 16 0 0 0 0.64 0.992 16 16 0 0 0 0.192 0.32 16 16 0 0 0 0.736 0.96 16 16 0 0 0 0.832 0.864 16 16 0 0 0 0.352 0.416 16 16 0 0 0 0.832 0.704 16 16 0 0 0 0.448 0.384 16 16 0 0 0 0.352 0.32 16 16 0 0 0 1.12 0.736 16 16 0 0 0 2.464 1.248 16 16 0 0 0 0.864 0.32 16 16 0 0 0 5.376 0.864h63.552a16 16 0 1 0 0-32h-47.808v-111.872a16 16 0 0 0-16.256-16.192z"
    fill="#E9EDED" p-id="19792"></path>
</svg>