<svg t="1642407370336" class="icon" viewBox="0 0 1024 1024" version="1.1" xmlns="http://www.w3.org/2000/svg" p-id="6354"
  width="200" height="200">
  <path
    d="M952.888889 281.6V910.222222c0 62.862222-50.915556 113.777778-113.777778 113.777778H156.444444c-62.862222 0-113.777778-50.915556-113.777777-113.777778V113.777778c0-62.862222 50.915556-113.777778 113.777777-113.777778h514.844445L952.888889 281.6z"
    fill="#85BCFF" p-id="6355"></path>
  <path d="M676.664889 167.822222V0l281.6 281.6h-167.822222c-62.862222 0-113.777778-50.915556-113.777778-113.777778"
    fill="#529EE0" p-id="6356"></path>
  <path
    d="M685.824 363.804444a53.76 53.76 0 0 1 53.731556 53.731556v307.029333a53.76 53.76 0 0 1-53.731556 53.731556H309.76a53.731556 53.731556 0 0 1-53.731556-53.76V417.564444c0-29.667556 24.035556-53.731556 53.731556-53.731555H685.795556z m-72.903111 149.674667l-138.183111 146.545778-80.583111-62.805333-92.131556 94.208v31.402666c0 11.548444 10.325333 20.906667 23.04 20.906667h345.400889c12.714667 0 23.04-9.386667 23.04-20.906667v-125.610666l-80.583111-83.740445z m-227.896889-85.532444a32.085333 32.085333 0 1 0 0 64.142222 32.085333 32.085333 0 0 0 0-64.142222z"
    fill="#FFFFFF" p-id="6357"></path>
</svg>