<?xml version="1.0" standalone="no"?><!DOCTYPE svg PUBLIC "-//W3C//DTD SVG 1.1//EN" "http://www.w3.org/Graphics/SVG/1.1/DTD/svg11.dtd"><svg t="1737020719380" class="icon" viewBox="0 0 1024 1024" version="1.1" xmlns="http://www.w3.org/2000/svg" p-id="5937" xmlns:xlink="http://www.w3.org/1999/xlink" width="200" height="200"><path d="M153.6 0h514.5856L972.8 307.9424V921.6a102.4 102.4 0 0 1-102.4 102.4H153.6a102.4 102.4 0 0 1-102.4-102.4V102.4a102.4 102.4 0 0 1 102.4-102.4z" fill="#39AFD1" p-id="5938"></path><path d="M665.6 0l307.2 307.2h-204.8a102.4 102.4 0 0 1-102.4-102.4V0z" fill="#298099" p-id="5939"></path><path d="M639.1552 384h-62.2592l-70.528 228.224L435.84 384h-62.2592L307.2 715.9552h58.112l45.6192-232.3712 70.5536 224.0768h49.792l66.3808-224.0768 49.7664 232.3712h58.0864L639.1296 384h0.0256z" fill="#FFFFFF" p-id="5940"></path></svg>