<svg t="1642408119178" class="icon" viewBox="0 0 1024 1024" version="1.1" xmlns="http://www.w3.org/2000/svg"
  p-id="53519" width="200" height="200">
  <path
    d="M967.111111 281.6V910.222222c0 62.862222-50.915556 113.777778-113.777778 113.777778H170.666667c-62.862222 0-113.777778-50.915556-113.777778-113.777778V113.777778c0-62.862222 50.915556-113.777778 113.777778-113.777778h514.844444L967.111111 281.6z"
    fill="#BABABA" p-id="53520"></path>
  <path d="M685.511111 167.822222V0L967.111111 281.6H799.288889c-62.862222 0-113.777778-50.915556-113.777778-113.777778"
    fill="#979797" p-id="53521"></path>
  <path
    d="M733.667556 632.689778a111.104 111.104 0 0 1-110.819556 110.819555h-221.667556a111.132444 111.132444 0 0 1-110.848-110.819555 111.047111 111.047111 0 0 1 99.754667-110.279111A122.197333 122.197333 0 0 1 512 407.694222a122.197333 122.197333 0 0 1 121.912889 114.716445 111.160889 111.160889 0 0 1 99.754667 110.279111"
    fill="#FFFFFF" p-id="53522"></path>
</svg>