<svg t="1642407248989" class="icon" viewBox="0 0 1024 1024" version="1.1" xmlns="http://www.w3.org/2000/svg" p-id="5608"
  width="200" height="200">
  <path
    d="M967.111111 281.6V910.222222c0 62.577778-51.2 113.777778-113.777778 113.777778H170.666667c-62.577778 0-113.777778-51.2-113.777778-113.777778V113.777778c0-62.577778 51.2-113.777778 113.777778-113.777778h514.844444L967.111111 281.6z"
    fill="#D23B41" p-id="5609"></path>
  <path d="M685.511111 224.711111V0L967.111111 281.6H742.4c-31.288889 0-56.888889-25.6-56.888889-56.888889"
    fill="#9C171C" p-id="5610"></path>
  <path
    d="M680.277333 662.698667c-11.889778-1.194667-23.751111-3.640889-35.640889-9.728 10.666667-2.133333 20.110222-2.133333 30.776889-2.133334 23.751111 0 28.330667 5.774222 28.330667 9.443556-6.997333 2.417778-15.246222 3.356444-23.466667 2.417778z m-120.945777-15.530667c-25.884444 5.802667-54.556444 14.336-80.440889 23.779556v-2.446223l-2.446223 1.223111c13.084444-26.197333 25.002667-53.333333 35.640889-80.753777l0.938667 1.223111 1.194667-2.133334c13.112889 20.110222 29.866667 40.220444 47.530666 57.884445h-3.640889l1.223112 1.223111zM497.777778 417.450667c1.223111-1.223111 3.669333-1.223111 4.551111-1.223111h3.697778a96.739556 96.739556 0 0 1-1.251556 61.553777c-8.220444-18.915556-11.861333-40.220444-6.997333-60.330666zM352.142222 770.275556l-3.669333 1.223111a96.768 96.768 0 0 1 42.666667-34.417778c-9.443556 15.502222-22.556444 27.392-38.997334 33.194667z m324.494222-155.107556c-25.002667 0-49.664 3.669333-74.666666 8.248889a353.365333 353.365333 0 0 1-73.415111-94.776889c20.110222-66.417778 21.333333-111.217778 5.774222-132.551111a39.253333 39.253333 0 0 0-30.748445-15.502222c-15.246222-1.223111-29.582222 6.087111-36.579555 18.887111-21.333333 35.640889 9.443556 105.415111 23.779555 134.058666-16.782222 50.887111-36.864 99.328-63.089777 146.858667-112.412444 48.440889-114.858667 77.994667-114.858667 88.661333 0 13.084444 7.310222 26.197333 20.110222 32 4.864 3.640889 11.889778 4.835556 17.976889 4.835556 29.582222 0 64-33.194667 100.551111-98.389333 46.307556-18.887111 92.615111-34.133333 141.084445-44.8a153.941333 153.941333 0 0 0 87.722666 35.356444c20.110222 0 59.107556 0 59.107556-40.220444 1.223111-15.530667-6.997333-41.443556-62.748445-42.666667z"
    fill="#FFFFFF" p-id="5611"></path>
</svg>