<svg t="1642407502942" class="icon" viewBox="0 0 1024 1024" version="1.1" xmlns="http://www.w3.org/2000/svg" p-id="7293"
  width="200" height="200">
  <path
    d="M967.111111 281.6V910.222222c0 62.862222-50.915556 113.777778-113.777778 113.777778H170.666667c-62.862222 0-113.777778-50.915556-113.777778-113.777778V113.777778c0-62.862222 50.915556-113.777778 113.777778-113.777778h514.844444L967.111111 281.6z"
    fill="#A15FDE" p-id="7294"></path>
  <path d="M685.511111 196.266667V0L967.111111 281.6H770.844444a85.333333 85.333333 0 0 1-85.333333-85.333333"
    fill="#C386F0" p-id="7295"></path>
  <path
    d="M669.980444 426.268444v236.999112c0 26.254222-31.857778 47.587556-71.082666 47.587555-39.253333 0-70.741333-21.333333-70.741334-47.587555 0-26.282667 31.516444-47.587556 70.741334-47.587556 14.848 0 28.728889 3.100444 40.163555 8.334222v-165.916444l-205.767111 48.497778v211.057777c0 26.254222-32.142222 47.559111-71.992889 47.559111-39.850667 0-72.305778-21.333333-72.305777-47.559111 0-26.282667 32.426667-47.587556 72.305777-47.587555a96.711111 96.711111 0 0 1 41.102223 8.647111V474.168889c0-14.222222 9.870222-26.88 23.779555-29.980445l205.795556-47.900444a30.862222 30.862222 0 0 1 38.001777 29.980444"
    fill="#FFFFFF" p-id="7296"></path>
</svg>