<svg t="1642407349568" class="icon" viewBox="0 0 1024 1024" version="1.1" xmlns="http://www.w3.org/2000/svg" p-id="6204"
  width="200" height="200">
  <path
    d="M967.111111 281.6V910.222222c0 62.577778-51.2 113.777778-113.777778 113.777778H170.666667c-62.577778 0-113.777778-51.2-113.777778-113.777778V113.777778c0-62.577778 51.2-113.777778 113.777778-113.777778h514.844444L967.111111 281.6z"
    fill="#F16C41" p-id="6205"></path>
  <path d="M685.511111 224.711111V0L967.111111 281.6H742.4c-31.288889 0-56.888889-25.6-56.888889-56.888889"
    fill="#CD4B29" p-id="6206"></path>
  <path
    d="M525.880889 648.135111a88.32 88.32 0 0 1-68.750222-32.995555 87.04 87.04 0 0 1-19.626667-55.381334c0-21.048889 7.253333-40.248889 19.626667-55.381333a88.234667 88.234667 0 0 1 68.750222-32.995556 88.490667 88.490667 0 0 1 88.376889 88.376889 88.519111 88.519111 0 0 1-88.376889 88.376889m0-235.690667c-24.945778 0-48.327111 6.087111-68.750222 17.294223a143.075556 143.075556 0 0 0-58.88 56.945777v146.119112a143.132444 143.132444 0 0 0 58.88 56.974222c20.423111 11.178667 43.804444 17.265778 68.750222 17.265778a147.342222 147.342222 0 0 0 147.285333-147.285334 147.342222 147.342222 0 0 0-147.285333-147.342222"
    fill="#FFFFFF" p-id="6207"></path>
  <path d="M398.222222 824.888889h58.908445V412.444444H398.222222z" fill="#FFFFFF" p-id="6208"></path>
</svg>