<?xml version="1.0" standalone="no"?><!DOCTYPE svg PUBLIC "-//W3C//DTD SVG 1.1//EN" "http://www.w3.org/Graphics/SVG/1.1/DTD/svg11.dtd"><svg t="1737021248611" class="icon" viewBox="0 0 1024 1024" version="1.1" xmlns="http://www.w3.org/2000/svg" p-id="17925" xmlns:xlink="http://www.w3.org/1999/xlink" width="200" height="200"><path d="M145.621959 0c-44.79888 0-79.998 36.81188-79.998 81.61076v860.77848c0 44.79888 35.19912 81.61076 79.998 81.61076h732.781681a81.969151 81.969151 0 0 0 81.61076-81.61076V324.80468L657.60916 0h-511.987201z" fill="#25B39E" p-id="17926"></path><path d="M657.60916 0v233.59416c0 25.59936 17.61236 92.79768 97.61036 92.79768h204.79488L657.60916 0z" fill="#FFFFFF" p-id="17927"></path><path d="M339.511512 648.687783c1.61276 0 2.867128 0.614385 3.814305 1.868753s1.663958 2.764731 2.175945 4.582286 0.81918 3.737507 0.972776 5.862253 0.230394 4.044699 0.230394 5.862253v5.708658c2.099148 3.302317 4.78708 6.886228 8.0126 10.726132s6.963026 7.449414 11.18692 10.802929 8.78058 6.143846 13.721257 8.396591 10.214145 3.379116 15.820405 3.379115c5.99025 0 11.622109-1.407965 16.869978-4.198295s10.137347-6.527837 14.617235-11.18692 8.652584-9.98375 12.441289-15.974001 7.21902-12.236494 10.265343-18.661933 5.759856-12.876478 8.089398-19.276318 4.377491-12.287693 6.067048-17.689158 3.046324-10.086148 4.044699-14.02845 1.689558-6.681433 2.099147-8.166195c2.611135-10.598135 4.81268-20.761081 6.681433-30.437639s2.764731-19.250719 2.764731-28.645684c0-2.303942-0.691183-3.60951-2.099147-3.891103l-37.19587 10.495738a19.916302 19.916302 0 0 1-5.094273 0.895977c-3.788705 0-6.963026-1.20317-9.522962-3.60951s-3.814305-5.862253-3.814304-10.342141 0.435189-8.114997 1.279968-10.879728 2.201545-4.81268 4.044698-6.220645 4.275093-2.329542 7.270219-2.76473 6.655834-0.665583 10.956526-0.665584h2.099147c2.40634-0.511987 5.478263-1.20317 9.21577-2.099147s7.935802-1.919952 12.518087-3.071923l14.694033-3.737507 15.743606-4.044699c5.299068-1.356766 10.572536-2.662333 15.820404-3.967901a1637.283868 1637.283868 0 0 1 23.474614-5.631859l5.99025-1.279968a22.01545 22.01545 0 0 1 3.737506-0.588785c1.20317 0 2.303942 0.358391 3.302318 1.049574s1.817555 1.58716 2.483138 2.636734a14.514837 14.514837 0 0 1 2.175945 7.423814c0 2.995125-1.151971 5.60626-3.455913 7.807805s-5.19667 4.121497-8.703783 5.785455-7.321417 3.097523-11.468513 4.351891l-11.622109 3.532712c-3.60951 1.100772-6.681433 2.175946-9.21577 3.225519s-3.967901 2.227144-4.275093 3.532712c-0.511987 4.40309-0.998375 9.292568-1.510362 14.694033s-1.049574 10.546936-1.638359 15.462013c-0.204795 1.20317-0.614385 4.095898-1.279968 8.703783s-1.561561 10.188545-2.687933 16.79318-2.559936 13.823654-4.198295 21.682658-3.532712 15.564411-5.631859 23.167421c-2.303942 8.294193-5.324667 17.151571-9.062174 26.546536s-8.191795 18.559536-13.337266 27.442514-10.982125 17.228369-17.484363 24.984975-13.542061 14.130847-21.145072 19.122722a58.929727 58.929727 0 0 1-23.19302 8.089398 61.336067 61.336067 0 0 1-9.369366 0.742381c-5.19667 0-10.828529-0.691183-16.869978-2.099147s-12.134097-3.404715-18.226744-5.99025-11.9805-5.734257-17.61236-9.369366-10.674933-7.705407-15.078023-12.159696-7.910202-9.21577-10.495738-14.335642-3.891103-10.444539-3.891102-16.050799c0-4.300692 0.435189-8.0126 1.279968-11.110122s2.227144-5.60626 4.121497-7.500612 4.428689-3.302317 7.57741-4.198295 7.014225-1.484763 11.519712-1.484763zM536.0122 682.120547c3.404715 1.20317 6.886228 2.611135 10.418939 4.198295s7.21902 3.123122 11.033324 4.582285 7.782205 2.662333 11.929302 3.686308 8.575786 1.510362 13.286068 1.510363c5.503862 0 11.058924-0.639984 16.639584-1.945552s11.084523-3.225519 16.434789-5.785455 10.470138-5.657459 15.385216-9.292568 9.394965-7.884603 13.490862-12.671683c4.505487-5.094273 8.242994-9.727757 11.238119-13.874853s5.427064-7.859004 7.270219-11.110122 3.174321-6.041449 3.9679-8.396591 1.20317-4.377491 1.20317-6.067048c0-2.508737-0.844779-4.684683-2.559936-6.527837s-3.967901-3.379116-6.835029-4.582285-6.067048-2.073548-9.676558-2.636734-7.347016-0.81918-11.238119-0.81918c-2.303942 0-4.991875 0.076798-8.089398 0.230395l-9.446164 0.460788-9.292567 0.38399a150.39624 150.39624 0 0 1-7.807805 0.153597c-3.302317 0-6.732632-0.38399-10.265343-1.126372s-7.014225-1.971151-10.41894-3.686308-6.553436-3.9935-9.446164-6.911827a35.403915 35.403915 0 0 1-8.831779-15.743607 24.626584 24.626584 0 0 1-0.742381-6.143846c0-2.40634 0.179196-4.684683 0.537586-6.835029s0.767981-4.223894 1.279968-6.220645c1.407965-4.991875 3.737507-10.086148 6.963026-15.231619s7.142221-10.162946 11.698908-15.078023 9.497363-9.650959 14.847628-14.258844 10.854129-8.934177 16.511588-12.978875 11.21252-7.705407 16.639584-10.956526 10.521337-6.01585 15.231619-8.319792c6.604635-3.19992 13.337267-5.529462 20.172295-6.963026s13.61886-2.175946 20.325892-2.175946c3.9935 0 7.807805 0.537587 11.391716 1.587161s6.78383 2.585535 9.522961 4.582285 4.915077 4.479888 6.527837 7.423815 2.40634 6.323042 2.40634 10.137346c0 2.201545-0.255994 4.044699-0.742381 5.555061s-1.151971 2.713532-1.945552 3.686308-1.663958 1.61276-2.636734 2.022349-1.919952 0.588785-2.918327 0.588786c-2.687933 0-5.171071-0.307192-7.423814-0.895978s-4.428689-1.279968-6.527837-2.022349-4.198295-1.459164-6.297443-2.099148-4.40309-0.972776-6.911827-0.972775c-7.398215 0-14.924427 1.484763-22.578635 4.428689s-15.103622 6.707032-22.348242 11.238119-14.105247 9.625359-20.556286 15.231619-12.236494 11.058924-17.330766 16.357991c-2.687933 2.79033-4.684683 5.60626-5.913453 8.39659s-1.868753 5.452664-1.868753 7.961401c0 3.711907 1.61276 6.604635 4.81268 8.703783s7.091023 3.148721 11.698907 3.148721c2.687933 0 5.759856-0.051199 9.138972-0.153596a796.140096 796.140096 0 0 0 20.761081-0.844779c3.353516-0.153596 6.323042-0.230394 8.934176-0.230394 6.195045 0 12.159696 0.870378 17.842754 2.636734s10.751731 4.326292 15.154822 7.731006 7.935802 7.628609 10.572535 12.671684 3.967901 10.828529 3.967901 17.330766c0 3.9935-0.588785 8.038199-1.791955 12.159696s-2.841529 8.217395-4.940677 12.364491-4.505487 8.242994-7.19342 12.287693-5.555061 8.0126-8.550186 11.929302c-5.401465 6.988625-11.417315 13.59326-18.073148 19.788305s-13.721257 11.59651-21.22187 16.204395-15.436414 8.242994-23.781805 10.956526-16.921177 4.044699-25.727357 4.044699a74.724532 74.724532 0 0 1-23.551411-4.121497c-3.891103-1.356766-7.577411-3.046324-11.033324-5.094273s-6.476638-4.377491-9.062174-6.963026-4.684683-5.478263-6.220644-8.626984-2.329542-6.579036-2.329542-10.265343c0-1.791955 0.281593-3.532712 0.819179-5.171071s1.868753-2.559936 4.070299-2.559936z" fill="#FFFFFF" p-id="17928"></path></svg>