<svg t="1642407332637" class="icon" viewBox="0 0 1024 1024" version="1.1" xmlns="http://www.w3.org/2000/svg" p-id="6055"
  width="200" height="200">
  <path
    d="M967.111111 281.6V910.222222c0 62.577778-51.2 113.777778-113.777778 113.777778H170.666667c-62.577778 0-113.777778-51.2-113.777778-113.777778V113.777778c0-62.577778 51.2-113.777778 113.777778-113.777778h514.844444L967.111111 281.6z"
    fill="#62C558" p-id="6056"></path>
  <path d="M685.511111 224.711111V0L967.111111 281.6H742.4c-31.288889 0-56.888889-25.6-56.888889-56.888889"
    fill="#2A8121" p-id="6057"></path>
  <path
    d="M682.666667 724.024889L638.691556 768 341.333333 470.670222 385.308444 426.666667zM454.087111 611.128889l44.088889 44.088889L385.422222 768 341.333333 723.911111zM682.666667 470.755556l-113.066667 113.066666-44.088889-44.088889L638.577778 426.666667z"
    fill="#FFFFFF" p-id="6058"></path>
</svg>