<svg t="1642408007951" class="icon" viewBox="0 0 1024 1024" version="1.1" xmlns="http://www.w3.org/2000/svg"
  p-id="50023" width="200" height="200">
  <path d="M847.872 240.128v688c0 26.56-21.408 48-48 48h-576c-26.56 0-48-21.44-48-48v-832c0-26.592 21.44-48 48-48h432z"
    fill="#E9EDED" p-id="50024"></path>
  <path d="M160 768.128v160c0 35.456 28.544 64 64 64h576c35.456 0 64-28.544 64-64v-160H160z" fill="#25B39E"
    p-id="50025"></path>
  <path d="M847.872 240.128h-144c-26.56 0-48-21.44-48-48v-144" fill="#25B39E" p-id="50026"></path>
  <path
    d="M432.256 320.128c-35.2 0-64 28.8-64 64v32c0 18.016-14.016 32-32 32a16 16 0 0 0-3.2 0.256 16 16 0 0 0-12.384 11.232 16 16 0 0 0-0.352 1.504 16 16 0 0 0 0 0.064 16 16 0 0 0 15.936 18.944c17.984 0 32 13.984 32 32v32c0 35.2 28.8 64 64 64a16 16 0 1 0 0-32c-18.016 0-32-13.984-32-32v-32c0-19.136-8.736-36.256-22.208-48a63.68 63.68 0 0 0 22.208-48v-32c0-18.016 13.984-32 32-32a16 16 0 1 0 0-32z m157.856 0a16 16 0 0 0 1.632 32c18.016 0 32 13.984 32 32v32c0 19.168 8.736 36.224 22.208 48-13.44 11.744-22.208 28.864-22.208 48v32c0 18.016-13.984 32-32 32a16 16 0 1 0 0 32c35.2 0 64-28.8 64-64v-32c0-18.016 14.016-32 32-32a16 16 0 0 0 10.368-3.616 16 16 0 0 0 1.216-1.152 16 16 0 0 0-11.584-27.232c-17.984 0-32-13.984-32-32v-32c0-35.2-28.8-64-64-64a16 16 0 0 0-1.6 0zM512 367.936a32 32 0 0 0-32 32 32 32 0 0 0 32 32 32 32 0 0 0 32-32 32 32 0 0 0-32-32z m0 96a32 32 0 0 0-32 32 32 32 0 0 0 16.256 27.872l-14.4 28.864a16 16 0 1 0 28.64 14.272l24-48.256a32 32 0 0 0 9.44-21.504 16 16 0 0 0 0-0.192 32 32 0 0 0 0.064-1.056 32 32 0 0 0-32-32z"
    fill="#25B39E" p-id="50027"></path>
  <path
    d="M335.872 800a16 16 0 0 0-15.744 16.256V912c0 9.152-6.848 16-16 16a15.616 15.616 0 0 1-16-16 16 16 0 0 0-16.256-16.192 16 16 0 0 0-15.744 16.192c0 26.304 21.696 48 48 48 24.768 0 45.12-19.296 47.488-43.52a16 16 0 0 0 0.512-4.224v-96a16 16 0 0 0-16.256-16.256z m94.4 0.128a16 16 0 0 0-2.016 0.384c-24.64 1.92-44.384 22.528-44.384 47.616 0 25.28 20.096 46.08 44.992 47.68a16 16 0 0 0 3.008 0.32h32c9.152 0 16 6.848 16 16 0 9.152-6.848 16-16 16h-64a16 16 0 1 0 0 32h64a16 16 0 0 0 3.328-0.384 48.096 48.096 0 0 0 44.672-47.616c0-25.152-19.84-45.888-44.544-47.68a16 16 0 0 0-3.456-0.32h-30.88a16 16 0 0 0-1.12 0 15.616 15.616 0 0 1-16-16c0-9.152 6.848-16 16-16h64a16 16 0 1 0 0-32h-62.88a16 16 0 0 0-1.12 0 16 16 0 0 0-1.6 0z"
    fill="#E9EDED" p-id="50028"></path>
</svg>