<?xml version="1.0" standalone="no"?><!DOCTYPE svg PUBLIC "-//W3C//DTD SVG 1.1//EN" "http://www.w3.org/Graphics/SVG/1.1/DTD/svg11.dtd"><svg t="1627885889837" class="icon" viewBox="0 0 1024 1024" version="1.1" xmlns="http://www.w3.org/2000/svg" p-id="17560" xmlns:xlink="http://www.w3.org/1999/xlink" width="128" height="128"><defs><style type="text/css"></style></defs><path d="M0 139.636364a46.545455 46.545455 0 0 1 46.545455-46.545455h354.897454a51.2 51.2 0 0 1 47.057455 31.034182L473.6 182.679273 977.454545 182.690909a46.545455 46.545455 0 0 1 46.545455 46.545455v546.909091a46.545455 46.545455 0 0 1-46.545455 46.545454H46.545455a46.545455 46.545455 0 0 1-46.545455-46.545454V139.636364z" fill="#FFA000" p-id="17561"></path><path d="M0 276.945455m46.545455 0l930.90909 0q46.545455 0 46.545455 46.545454l0 558.545455q0 46.545455-46.545455 46.545454l-930.90909 0q-46.545455 0-46.545455-46.545454l0-558.545455q0-46.545455 46.545455-46.545454Z" fill="#FFCA28" p-id="17562"></path></svg>