<svg t="1642407662269" class="icon" viewBox="0 0 1024 1024" version="1.1" xmlns="http://www.w3.org/2000/svg"
  p-id="19932" width="200" height="200">
  <path d="M847.872 240.128v688c0 26.56-21.408 48-48 48h-576c-26.56 0-48-21.44-48-48v-832c0-26.592 21.44-48 48-48h432z"
    fill="#E9EDED" p-id="19933"></path>
  <path d="M160 768.128v160c0 35.456 28.544 64 64 64h576c35.456 0 64-28.544 64-64v-160H160z" fill="#4BBFEB"
    p-id="19934"></path>
  <path d="M847.872 240.128h-144c-26.56 0-48-21.44-48-48v-144" fill="#4BBFEB" p-id="19935"></path>
  <path
    d="M432.256 320.128c-35.2 0-64 28.8-64 64v32c0 18.016-14.016 32-32 32a16 16 0 0 0-15.936 12.992 16 16 0 0 0 0 0.064 16 16 0 0 0 4.736 14.56 16 16 0 0 0 2.496 1.92 16 16 0 0 0 4.448 1.92 16 16 0 0 0 3.136 0.48 16 16 0 0 0 1.12 0.064c17.984 0 32 13.984 32 32v32c0 35.2 28.8 64 64 64a16 16 0 1 0 0-32c-18.016 0-32-13.984-32-32v-32c0-19.136-8.736-36.256-22.208-48a63.68 63.68 0 0 0 22.208-48v-32c0-18.016 13.984-32 32-32a16 16 0 1 0 0-32z m157.856 0a16 16 0 0 0 1.632 32c18.016 0 32 13.984 32 32v32c0 19.168 8.736 36.224 22.208 48-13.44 11.744-22.208 28.864-22.208 48v32c0 18.016-13.984 32-32 32a16 16 0 1 0 0 32c35.2 0 64-28.8 64-64v-32c0-18.016 14.016-32 32-32a16 16 0 0 0 10.368-3.616 16 16 0 0 0 1.216-1.152 16 16 0 0 0-11.584-27.232c-17.984 0-32-13.984-32-32v-32c0-35.2-28.8-64-64-64a16 16 0 0 0-1.6 0z"
    fill="#4BBFEB" p-id="19936"></path>
  <path
    d="M334.496 800.128a16 16 0 0 0-3.36 0.672c-41.664 3.712-75.008 37.44-75.008 79.328 0 42.08 33.696 75.904 75.616 79.296a16 16 0 0 0 4.64 0.704h32a16 16 0 1 0 0-32h-29.824c-28.544 0-50.432-21.44-50.432-48s21.888-48 50.432-48h29.568a16 16 0 1 0 0-32h-32a16 16 0 0 0-1.6 0z m128 0a16 16 0 0 0-1.984 0.384c-24.64 1.92-44.384 22.528-44.384 47.616 0 25.28 20.064 46.08 44.992 47.68a16 16 0 0 0 3.008 0.32h32c9.152 0 16 6.848 16 16 0 9.152-6.848 16-16 16h-64a16 16 0 1 0 0 32h64a16 16 0 0 0 3.296-0.384 48.096 48.096 0 0 0 44.704-47.616c0-25.152-19.84-45.888-44.576-47.68a16 16 0 0 0-3.424-0.32h-32a15.616 15.616 0 0 1-16-16c0-9.152 6.848-16 16-16h64a16 16 0 1 0 0-32h-62.88a16 16 0 0 0-1.12 0 16 16 0 0 0-1.6 0z m159.744 0a16 16 0 0 0-1.984 0.384c-24.64 1.92-44.384 22.528-44.384 47.616 0 25.28 20.096 46.08 44.992 47.68a16 16 0 0 0 3.008 0.32h32c9.152 0 16 6.848 16 16 0 9.152-6.848 16-16 16h-64a16 16 0 1 0 0 32h64a16 16 0 0 0 3.328-0.384 48.096 48.096 0 0 0 44.672-47.616c0-25.152-19.84-45.888-44.544-47.68a16 16 0 0 0-3.456-0.32h-32a15.616 15.616 0 0 1-16-16c0-9.152 6.848-16 16-16h64a16 16 0 1 0 0-32h-62.88a16 16 0 0 0-1.12 0 16 16 0 0 0-1.6 0z"
    fill="#E9EDED" p-id="19937"></path>
</svg>