<svg xmlns="http://www.w3.org/2000/svg"><path d="M0 0h160v160H0V0z" fill="currentColor"/><path d="M94.322 51.888A69.12 69.12 0 0187.806 80.9a1.732 1.732 0 00.191 2.014c6.124 8.338 13.677 14.894 23.356 18.821a46.564 46.564 0 0017.273 3.414 29.101 29.101 0 003.364-.252 6.245 6.245 0 017.051 5.156 6.112 6.112 0 01-5.187 7.19 50.758 50.758 0 01-18.19-1.007c-15.964-3.686-28.2-12.84-37.709-25.88a2.165 2.165 0 00-2.246-1.098c-14.1 1.38-26.357 6.475-35.754 17.331a38.721 38.721 0 00-6.275 9.808 6.255 6.255 0 01-8.229 3.444 6.184 6.184 0 01-3.293-8.258 49.662 49.662 0 019.699-14.722c10.636-11.52 23.97-17.663 39.37-19.677a14.06 14.06 0 012.86-.342c1.622.14 2.197-.735 2.75-2.014a54.752 54.752 0 004.865-23.463 44.302 44.302 0 00-8.057-25.175 6.152 6.152 0 01-.655-6.506 6.043 6.043 0 015.318-3.564 6.386 6.386 0 015.7 3.02 53.98 53.98 0 017.222 14.38 59.734 59.734 0 013.092 18.368z" fill="#fff"/><path d="M47.257 119.468a6.04 6.04 0 011.36-3.907 38.165 38.165 0 0122.66-14.098 6.124 6.124 0 016.699 2.487 6.223 6.223 0 01-3.868 9.698 26.276 26.276 0 00-15.823 9.838 6.245 6.245 0 01-11.028-4.028v.01zm77.935-26.01a34.908 34.908 0 01-9.89-2.498 35.717 35.717 0 01-14.756-10.523 6.233 6.233 0 012.861-10 5.832 5.832 0 016.486 1.742 26.986 26.986 0 0016.628 8.912 6.042 6.042 0 015.036 5.58 6.253 6.253 0 01-4.32 6.504 6.588 6.588 0 01-2.045.282zM69.817 53.65a33.69 33.69 0 01-2.286 12.607 6.255 6.255 0 01-11.018 1.007 6.132 6.132 0 01-.655-5.438 26.178 26.178 0 00-.534-18.377 6.256 6.256 0 0111.572-4.753 40.515 40.515 0 012.921 14.954z" fill="#fff"/></svg>
