<svg t="1684652847211" class="icon" viewBox="0 0 1024 1024" version="1.1" xmlns="http://www.w3.org/2000/svg" p-id="2238" width="200" height="200"><path d="M0 0m372.363636 0l279.272728 0q372.363636 0 372.363636 372.363636l0 279.272728q0 372.363636-372.363636 372.363636l-279.272728 0q-372.363636 0-372.363636-372.363636l0-279.272728q0-372.363636 372.363636-372.363636Z" fill="#F7A647" p-id="2239"></path><path d="M232.727273 303.872C232.727273 290.327273 243.781818 279.272727 257.326545 279.272727h148.631273c5.620364 0 10.984727 2.292364 14.848 6.283637l50.897455 52.805818c1.186909 1.233455 2.210909 2.594909 3.037091 4.049454h259.874909c31.138909 0 56.657455 25.460364 56.657454 56.610909V688.058182c0 31.150545-25.518545 56.669091-56.657454 56.669091H289.396364C258.245818 744.727273 232.727273 719.208727 232.727273 688.058182V303.872zM726.702545 556.218182h-239.825454a10.216727 10.216727 0 0 0-10.205091 10.205091v25.390545c0 5.620364 4.584727 10.205091 10.205091 10.205091h239.825454a10.216727 10.216727 0 0 0 10.205091-10.205091v-25.390545a10.216727 10.216727 0 0 0-10.205091-10.205091z m-0.058181-87.691637h-239.825455a10.216727 10.216727 0 0 0-10.205091 10.205091h-0.069818v25.390546c0 5.632 4.573091 10.216727 10.205091 10.216727h239.895273a10.216727 10.216727 0 0 0 10.205091-10.216727V478.72a10.216727 10.216727 0 0 0-10.205091-10.205091z" fill="#FFFFFF" p-id="2240"></path></svg>