<svg width="32" height="32" viewBox="0 0 32 32"><g fill="none"><g clip-path="url(#svgIDa)"><path fill="url(#svgIDb)" d="M15.268 25.734a.91.91 0 0 1 .188-.555l1.211-1.855c.245-.316.256-.647.063-.993l-2.485-4.914c-.214-.386-.067-.592.086-.765c.45-.509 1.344-1.696 1.69-2.139l.633-.803c.225-.274.276-.65.153-.986c-.497-1.329-1.078-2.919-1.624-4.408c-.185-.504-.35-1.079-.735-1.438c-.74-.691-2.076-1.416-3.099-1.594C4.27 3.777 1.577 9.98 2.534 14.94c1.39 6.086 7.969 12.148 11.961 14.16c.45.226.75.06.75-.309l.024-3.058Z"/><path fill="url(#svgIDc)" d="M15.268 25.734a.91.91 0 0 1 .188-.555l1.211-1.855c.245-.316.256-.647.063-.993l-2.485-4.914c-.214-.386-.067-.592.086-.765c.45-.509 1.344-1.696 1.69-2.139l.633-.803c.225-.274.276-.65.153-.986c-.497-1.329-1.078-2.919-1.624-4.408c-.185-.504-.35-1.079-.735-1.438c-.74-.691-2.076-1.416-3.099-1.594C4.27 3.777 1.577 9.98 2.534 14.94c1.39 6.086 7.969 12.148 11.961 14.16c.45.226.75.06.75-.309l.024-3.058Z"/><path fill="url(#svgIDd)" d="M15.268 25.734a.91.91 0 0 1 .188-.555l1.211-1.855c.245-.316.256-.647.063-.993l-2.485-4.914c-.214-.386-.067-.592.086-.765c.45-.509 1.344-1.696 1.69-2.139l.633-.803c.225-.274.276-.65.153-.986c-.497-1.329-1.078-2.919-1.624-4.408c-.185-.504-.35-1.079-.735-1.438c-.74-.691-2.076-1.416-3.099-1.594C4.27 3.777 1.577 9.98 2.534 14.94c1.39 6.086 7.969 12.148 11.961 14.16c.45.226.75.06.75-.309l.024-3.058Z"/><path fill="url(#svgIDe)" d="M15.268 25.734a.91.91 0 0 1 .188-.555l1.211-1.855c.245-.316.256-.647.063-.993l-2.485-4.914c-.214-.386-.067-.592.086-.765c.45-.509 1.344-1.696 1.69-2.139l.633-.803c.225-.274.276-.65.153-.986c-.497-1.329-1.078-2.919-1.624-4.408c-.185-.504-.35-1.079-.735-1.438c-.74-.691-2.076-1.416-3.099-1.594C4.27 3.777 1.577 9.98 2.534 14.94c1.39 6.086 7.969 12.148 11.961 14.16c.45.226.75.06.75-.309l.024-3.058Z"/><path fill="url(#svgIDf)" d="M21.815 5.09c-1.64.283-3.489 1.394-4.428 2.377c0 0-.123.102-.123.254c0 .06.02.142.03.152l1.943 5.341a.657.657 0 0 1-.07.703c-.725.898-1.524 1.969-2.227 2.871c-.31.315-.341.681-.125 1.067l2.422 4.675c.196.355.117.594-.043.829l-1.554 2.37c-.135.173-.266.516-.266.731l-.027 2.524c0 .316.482.348.875.074c3.828-2.094 10.411-7.917 11.78-14.063c1.126-5.047-1.75-10.78-8.187-9.906Z"/><path fill="url(#svgIDg)" d="M21.815 5.09c-1.64.283-3.489 1.394-4.428 2.377c0 0-.123.102-.123.254c0 .06.02.142.03.152l1.943 5.341a.657.657 0 0 1-.07.703c-.725.898-1.524 1.969-2.227 2.871c-.31.315-.341.681-.125 1.067l2.422 4.675c.196.355.117.594-.043.829l-1.554 2.37c-.135.173-.266.516-.266.731l-.027 2.524c0 .316.482.348.875.074c3.828-2.094 10.411-7.917 11.78-14.063c1.126-5.047-1.75-10.78-8.187-9.906Z"/><path fill="url(#svgIDh)" d="M21.815 5.09c-1.64.283-3.489 1.394-4.428 2.377c0 0-.123.102-.123.254c0 .06.02.142.03.152l1.943 5.341a.657.657 0 0 1-.07.703c-.725.898-1.524 1.969-2.227 2.871c-.31.315-.341.681-.125 1.067l2.422 4.675c.196.355.117.594-.043.829l-1.554 2.37c-.135.173-.266.516-.266.731l-.027 2.524c0 .316.482.348.875.074c3.828-2.094 10.411-7.917 11.78-14.063c1.126-5.047-1.75-10.78-8.187-9.906Z"/><path fill="url(#svgIDi)" d="M21.815 5.09c-1.64.283-3.489 1.394-4.428 2.377c0 0-.123.102-.123.254c0 .06.02.142.03.152l1.943 5.341a.657.657 0 0 1-.07.703c-.725.898-1.524 1.969-2.227 2.871c-.31.315-.341.681-.125 1.067l2.422 4.675c.196.355.117.594-.043.829l-1.554 2.37c-.135.173-.266.516-.266.731l-.027 2.524c0 .316.482.348.875.074c3.828-2.094 10.411-7.917 11.78-14.063c1.126-5.047-1.75-10.78-8.187-9.906Z"/><g filter="url(#svgIDj)"><ellipse cx="24.453" cy="12.672" fill="url(#svgIDk)" rx="4.04" ry="5.171" transform="rotate(41.528 24.453 12.672)"/></g><g filter="url(#svgIDl)"><ellipse cx="12.11" cy="11.281" fill="url(#svgIDm)" rx="2.968" ry="4.662" transform="rotate(150.611 12.11 11.281)"/></g><g filter="url(#svgIDn)"><path stroke="url(#svgIDo)" stroke-linecap="round" stroke-width=".25" d="m16.41 22.606l-2.75-5.438"/></g><g filter="url(#svgIDp)"><path stroke="url(#svgIDq)" stroke-linecap="round" stroke-opacity=".75" stroke-width=".15" d="m13.815 16.511l2.688-3.313l-1.375-3.78"/></g></g><defs><radialGradient id="svgIDd" cx="0" cy="0" r="1" gradientTransform="rotate(-138.643 11.823 5.79) scale(23.9312 14.1578)" gradientUnits="userSpaceOnUse"><stop offset=".671" stop-color="#FF7AF2" stop-opacity="0"/><stop offset=".785" stop-color="#FF96D7"/></radialGradient><radialGradient id="svgIDe" cx="0" cy="0" r="1" gradientTransform="rotate(178.046 10.034 10.148) scale(25.1878 31.5353)" gradientUnits="userSpaceOnUse"><stop offset=".536" stop-color="#AB1F51" stop-opacity="0"/><stop offset=".814" stop-color="#AB1F51"/></radialGradient><radialGradient id="svgIDh" cx="0" cy="0" r="1" gradientTransform="matrix(39.74996 -6.5 3.74657 22.9117 2.972 16.136)" gradientUnits="userSpaceOnUse"><stop offset=".67" stop-color="#FF7AF2" stop-opacity="0"/><stop offset=".735" stop-color="#FF96D7"/></radialGradient><radialGradient id="svgIDi" cx="0" cy="0" r="1" gradientTransform="matrix(-16.37517 -20.43737 54.0988 -43.34597 25.66 24.948)" gradientUnits="userSpaceOnUse"><stop offset=".607" stop-color="#AB1F51" stop-opacity="0"/><stop offset=".814" stop-color="#AB1F51"/></radialGradient><radialGradient id="svgIDk" cx="0" cy="0" r="1" gradientTransform="rotate(99.933 9.313 14.79) scale(9.0832 29.5242)" gradientUnits="userSpaceOnUse"><stop stop-color="#EF6E9D"/><stop offset="1" stop-color="#EF6E9D" stop-opacity="0"/></radialGradient><radialGradient id="svgIDm" cx="0" cy="0" r="1" gradientTransform="rotate(96.854 2.12 10.142) scale(8.73812 23.3563)" gradientUnits="userSpaceOnUse"><stop offset=".229" stop-color="#EC5A8F"/><stop offset="1" stop-color="#EC5A8F" stop-opacity="0"/></radialGradient><linearGradient id="svgIDb" x1="9.765" x2="9.765" y1="29.266" y2="5.164" gradientUnits="userSpaceOnUse"><stop offset=".026" stop-color="#EC008C"/><stop offset=".198" stop-color="#FF1F50"/><stop offset=".536" stop-color="#FF2868"/><stop offset="1" stop-color="#EC008C"/></linearGradient><linearGradient id="svgIDc" x1="17.784" x2="14.329" y1="14.744" y2="14.744" gradientUnits="userSpaceOnUse"><stop stop-color="#C6162A"/><stop offset="1" stop-color="#C6162A" stop-opacity="0"/></linearGradient><linearGradient id="svgIDf" x1="23.302" x2="23.302" y1="29.26" y2="5.156" gradientUnits="userSpaceOnUse"><stop stop-color="#FF2657"/><stop offset=".444" stop-color="#FF2F67"/><stop offset="1" stop-color="#EC008C"/></linearGradient><linearGradient id="svgIDg" x1="16.284" x2="19.097" y1="14.728" y2="14.728" gradientUnits="userSpaceOnUse"><stop stop-color="#C01567"/><stop offset="1" stop-color="#C01567" stop-opacity="0"/></linearGradient><linearGradient id="svgIDo" x1="14.597" x2="12.803" y1="19.262" y2="16.218" gradientUnits="userSpaceOnUse"><stop stop-color="#FF757B"/><stop offset="1" stop-color="#FF757B" stop-opacity="0"/></linearGradient><linearGradient id="svgIDq" x1="15.675" x2="13.659" y1="14.573" y2="9.039" gradientUnits="userSpaceOnUse"><stop stop-color="#FF989D"/><stop offset="1" stop-color="#FF989D" stop-opacity="0"/></linearGradient><filter id="svgIDj" width="15.144" height="15.416" x="16.881" y="4.964" filterUnits="userSpaceOnUse"><feFlood flood-opacity="0" result="BackgroundImageFix"/><feBlend in="SourceGraphic" in2="BackgroundImageFix" result="shape"/><feGaussianBlur result="effect1_foregroundBlur_7133_6142" stdDeviation="1.5"/></filter><filter id="svgIDl" width="12.906" height="14.633" x="5.657" y="3.965" filterUnits="userSpaceOnUse"><feFlood flood-opacity="0" result="BackgroundImageFix"/><feBlend in="SourceGraphic" in2="BackgroundImageFix" result="shape"/><feGaussianBlur result="effect1_foregroundBlur_7133_6142" stdDeviation="1.5"/></filter><filter id="svgIDn" width="3.7" height="6.388" x="13.184" y="16.693" filterUnits="userSpaceOnUse"><feFlood flood-opacity="0" result="BackgroundImageFix"/><feBlend in="SourceGraphic" in2="BackgroundImageFix" result="shape"/><feGaussianBlur result="effect1_foregroundBlur_7133_6142" stdDeviation=".175"/></filter><filter id="svgIDp" width="3.547" height="7.944" x="13.39" y="8.992" filterUnits="userSpaceOnUse"><feFlood flood-opacity="0" result="BackgroundImageFix"/><feBlend in="SourceGraphic" in2="BackgroundImageFix" result="shape"/><feGaussianBlur result="effect1_foregroundBlur_7133_6142" stdDeviation=".175"/></filter><clipPath id="svgIDa"><path fill="#fff" d="M0 0h32v32H0z"/></clipPath></defs></g></svg>