<svg xmlns="http://www.w3.org/2000/svg" viewBox="0 0 500 500"><ellipse cx="250" cy="378.78" rx="230.68" ry="112.11" fill="#f5f5f5"/><g fill="#e6e6e6"><path d="M152.14 433.48a2 2 0 01-2-1.63l-.45-2.42a24.58 24.58 0 01-3.07-.75h-.07l-4.26 2a2.47 2.47 0 01-1 .21 2.42 2.42 0 01-1.21-.31l-4.24-2.45a1.68 1.68 0 01-.15-2.88l2.57-1.84a9.54 9.54 0 01-.64-1l-5.41-.34a1.94 1.94 0 01-1.81-1.93V417a1.94 1.94 0 011.82-1.93l5.4-.34a9.54 9.54 0 01.64-1l-2.57-1.84a1.74 1.74 0 01-.74-1.48 1.71 1.71 0 01.89-1.4l4.24-2.45a2.42 2.42 0 011.21-.31 2.31 2.31 0 011 .21l4.26 2h.05a26.67 26.67 0 013.11-.77l.45-2.41a2.05 2.05 0 012-1.64h6.24a2 2 0 012 1.64l.46 2.41a26.48 26.48 0 013.07.76h.07l4.26-2a2.31 2.31 0 011-.21 2.42 2.42 0 011.21.31l4.24 2.45a1.71 1.71 0 01.89 1.4 1.76 1.76 0 01-.74 1.48l-2.57 1.84a9.54 9.54 0 01.64 1l5.4.34a1.94 1.94 0 011.82 1.93v3.16a1.94 1.94 0 01-1.82 1.93l-5.4.34a9.54 9.54 0 01-.64 1l2.57 1.84a1.76 1.76 0 01.74 1.48 1.72 1.72 0 01-.89 1.4l-4.24 2.45a2.42 2.42 0 01-1.21.31 2.47 2.47 0 01-1-.21l-4.26-2a26 26 0 01-3.1.76l-.46 2.42a2 2 0 01-2 1.63zm3.12-19.39a13.16 13.16 0 00-6.48 1.53c-1.45.84-2.28 1.91-2.28 2.95s.83 2.11 2.28 2.95a14.49 14.49 0 0013 0c1.45-.84 2.28-1.91 2.28-2.95s-.83-2.11-2.28-2.95a13.16 13.16 0 00-6.52-1.53zM200.64 405.59a2.25 2.25 0 01-1.6-.7l-1.69-1.77h-2.49l-1.8 1.89a2 2 0 01-1.46.58 2.5 2.5 0 01-.54-.07l-4.2-1a1.84 1.84 0 01-1.24-1 1.6 1.6 0 010-1.37l.67-1.32c-.36-.2-.7-.41-1-.63l-4 .66a1.39 1.39 0 01-.3 0 2.14 2.14 0 01-1.69-.89l-1.59-2.21a1.84 1.84 0 01-.35-1 1.62 1.62 0 011.14-1.57l3.06-1a.66.66 0 010-.14l-2.95-.94a1.71 1.71 0 01-1.26-1.5v-.11a1.53 1.53 0 01.3-.92l1.73-2.42a2 2 0 011.63-.77 2 2 0 01.35 0l3.91.66c.28-.19.59-.38.91-.56l.12-.07-.62-1.23a1.62 1.62 0 01-.19-.69v-.32a1.65 1.65 0 011.25-1.41l4.39-1a1.49 1.49 0 01.43-.05 2.22 2.22 0 011.59.7l1.7 1.77h2.48l1.8-1.89a2 2 0 011.46-.58 1.88 1.88 0 01.53.07l4.21 1a1.71 1.71 0 011.38 1.63 1.41 1.41 0 01-.15.69l-.68 1.35.14.08a10.26 10.26 0 01.88.55l4-.66a1.36 1.36 0 01.29 0 2.17 2.17 0 011.7.88l1.59 2.22a1.73 1.73 0 01.35 1v.3a1.62 1.62 0 01-1.1 1.3l-3.08 1v.14l3 .93a1.72 1.72 0 011 2.53c-.51.79-1.1 1.53-1.64 2.29l-.09.13a2 2 0 01-1.63.77h-.36l-3.9-.65c-.33.22-.67.43-1 .63l.62 1.23a1.67 1.67 0 010 1.51 1.63 1.63 0 01-1.13.91l-4.36 1.05a2.06 2.06 0 01-.52-.01zM190 395a3.29 3.29 0 00.83.84 4.32 4.32 0 00.5.33 7.8 7.8 0 002.12.81 11.25 11.25 0 002.62.3 9.87 9.87 0 004.73-1.1 5.65 5.65 0 00.51-.33 3.16 3.16 0 00.76-.74 1.35 1.35 0 00.13-1.6l-.08-.12-.1-.15-.11-.13a6.51 6.51 0 00-3.11-1.56 11.32 11.32 0 00-2.62-.3c-2.62 0-5.09.89-6 2.17a1.37 1.37 0 00-.23 1.38v.11l.11.19zM257.82 424.33l35.88-20.72a1.17 1.17 0 000-2.22l-8.8-5.08a4.28 4.28 0 00-3.85 0L245.18 417a1.17 1.17 0 000 2.22l4.39 2.54-45 26c-1.06.61-.61.82-.12 1.11s.87.54 1.93-.07l45-26 2.59 1.5a4.28 4.28 0 003.85.03zM244.29 384.57a16.13 16.13 0 01-8-1.95c-.25-.15-.49-.3-.72-.46l-1.32-.93 11.29-1.66 1-2.13-3.05-1.79-10.76 1.58.35-1a7 7 0 013.31-3.56 16.27 16.27 0 017.9-1.88 18.75 18.75 0 013.62.35l36.81-21.25a4.43 4.43 0 01-.31-3 6.67 6.67 0 013.42-4 16.34 16.34 0 017.91-1.88 16.14 16.14 0 018 2c.26.15.49.3.72.46l1.33.93-11.29 1.65-1 2.14 3.05 1.78 10.76-1.57-.35 1a7 7 0 01-3.31 3.55 16.27 16.27 0 01-7.9 1.88 18.83 18.83 0 01-3.62-.34l-36.81 21.25a4.35 4.35 0 01.31 3 6.64 6.64 0 01-3.42 3.95 16.17 16.17 0 01-7.92 1.88z"/><ellipse cx="387.02" cy="400.95" rx="57.04" ry="32.93"/><path d="M143.07 320.2l62.06 35.83 57.88-33.53-62.06-35.82-57.88 33.52zM119.51 407l83.68-48.31-73.22-42.27-83.67 48.31L119.51 407z"/></g><path fill="currentColor" d="M205.12 353.37l-58.75-33.93v-2.56l54-31.18 58.75 33.92v2.57l-54 31.18z"/><path fill="currentColor" d="M146.37 316.88l58.75 33.92 54-31.18-58.75-33.92-54 31.18z"/><path opacity=".15" d="M146.37 316.88l58.75 33.92 54-31.18-58.75-33.92-54 31.18z"/><path d="M219.68 331a4.34 4.34 0 003.94 0 1.2 1.2 0 000-2.27 4.34 4.34 0 00-3.94 0 1.2 1.2 0 000 2.27z" fill="#37474f"/><path opacity=".3" d="M205.12 350.8v2.57l-58.75-33.93v-2.56l58.75 33.92z"/><path d="M128.34 115.9l65.46 37.79a4.85 4.85 0 012.19 3.79v198.81a4.85 4.85 0 01-2.19 3.8L123 401a4.83 4.83 0 01-4.38 0l-65.46-37.83a4.83 4.83 0 01-2.16-3.79V160.57a4.85 4.85 0 012.19-3.8L124 115.9a4.83 4.83 0 014.34 0z" fill="currentColor"/><path d="M51 160.56v198.82a4.87 4.87 0 002.19 3.79L118.62 401a4.36 4.36 0 002.19.53V197.62a4.49 4.49 0 01-2.19-.53L53.16 159.3l-.6-.5-.78-.64a4.57 4.57 0 00-.78 2.4z" fill="currentColor"/><path d="M51 160.56v198.82a4.87 4.87 0 002.19 3.79L118.62 401a4.36 4.36 0 002.19.53V197.62a4.49 4.49 0 01-2.19-.53L53.16 159.3l-.6-.5-.78-.64a4.57 4.57 0 00-.78 2.4z" opacity=".3"/><path d="M53.16 156.77L124 115.9a4.81 4.81 0 014.37 0l65.46 37.79a1.34 1.34 0 010 2.53L123 197.1a4.89 4.89 0 01-4.38 0l-65.46-37.8a1.34 1.34 0 010-2.53z" fill="currentColor"/><path d="M53.16 156.77L124 115.9a4.81 4.81 0 014.37 0l65.46 37.79a1.34 1.34 0 010 2.53L123 197.1a4.89 4.89 0 01-4.38 0l-65.46-37.8a1.34 1.34 0 010-2.53z" opacity=".15"/><path fill="#455a64" d="M188.13 291.62l-58.75 33.92v62.35l58.75-33.92v-62.35z"/><path d="M159.26 336.16a.62.62 0 00-.61.06L134.75 350a1.79 1.79 0 00-.61.64l-1.6-.93a1.77 1.77 0 01.6-.64l23.4-13.45a1.85 1.85 0 011.71 0z" fill="#263238"/><path d="M133.89 351.46v26.77c0 .55.39.77.86.5l23.9-13.73a1.9 1.9 0 00.86-1.48v-26.8c0-.55-.39-.77-.86-.5L134.75 350a1.89 1.89 0 00-.86 1.46z" fill="#37474f"/><path d="M134.12 378.78l-1-.57a1.89 1.89 0 01-.85-1.48v-26.2a1.7 1.7 0 01.25-.85l1.6.93a1.81 1.81 0 00-.25.85v26.77a.65.65 0 00.25.55z" fill="#263238"/><path d="M135.8 376.32a.46.46 0 01-.2-.05.51.51 0 01-.22-.46V352a1.34 1.34 0 01.61-1l21.31-12.25a.5.5 0 01.51 0 .51.51 0 01.22.46V363a1.32 1.32 0 01-.6 1.05l-21.31 12.25a.64.64 0 01-.32.02zm21.8-37.44a.41.41 0 00-.18.05l-21.32 12.26a1.08 1.08 0 00-.48.83v23.79c0 .12 0 .21.09.24a.26.26 0 00.26 0l21.31-12.25a1.08 1.08 0 00.48-.83v-23.83c0-.12 0-.21-.09-.24a.12.12 0 00-.07-.02z" fill="currentColor"/><path d="M137.48 373.19a.21.21 0 01-.12 0 .26.26 0 01-.13-.25v-20.22a.72.72 0 01.29-.5l18.21-10.49a.28.28 0 01.29 0 .29.29 0 01.13.26v20.22a.64.64 0 01-.29.51l-18.19 10.45a.32.32 0 01-.19.02zm0-.24zm18.4-31l-18.22 10.5a.5.5 0 00-.16.28V373l18.18-10.45a.39.39 0 00.17-.29v-20.22a.06.06 0 00.04-.11zM138.71 346.89a.25.25 0 01-.24-.25v-5.7a.24.24 0 11.48 0v5.7a.25.25 0 01-.24.25zM142.7 344.6a.24.24 0 01-.24-.24v-5.71a.24.24 0 01.24-.24.24.24 0 01.24.24v5.71a.24.24 0 01-.24.24zM146.69 342.31a.24.24 0 01-.25-.24v-5.7a.25.25 0 01.49 0v5.7a.24.24 0 01-.24.24zM150.67 340a.24.24 0 01-.24-.24v-5.71a.25.25 0 01.49 0v5.71a.25.25 0 01-.25.24zM154.66 337.74a.24.24 0 01-.24-.24v-5.7a.24.24 0 01.24-.24.23.23 0 01.24.24v5.7a.23.23 0 01-.24.24z" fill="currentColor"/><path d="M159.26 315.1a.6.6 0 00-.61.06l-23.9 13.75a1.84 1.84 0 00-.61.63l-1.6-.92a1.69 1.69 0 01.6-.64l23.4-13.46a1.91 1.91 0 011.71 0z" fill="#263238"/><path d="M133.89 330.39v13.5c0 .55.39.77.86.5l23.9-13.75a1.9 1.9 0 00.86-1.48v-13.51c0-.54-.39-.76-.86-.49l-23.9 13.75a1.88 1.88 0 00-.86 1.48z" fill="#37474f"/><path d="M134.12 344.44l-1-.57a1.89 1.89 0 01-.85-1.48v-12.93a1.7 1.7 0 01.25-.84l1.6.92a1.84 1.84 0 00-.25.85v13.51a.64.64 0 00.25.54z" fill="#263238"/><path d="M135.8 342a.46.46 0 01-.2-.05.51.51 0 01-.22-.46V331a1.34 1.34 0 01.61-1l21.31-12.26a.46.46 0 01.73.43v10.51a1.32 1.32 0 01-.6 1.05l-21.31 12.25a.64.64 0 01-.32.02zm21.8-24.17a.32.32 0 00-.18.06l-21.32 12.24a1.08 1.08 0 00-.48.83v10.51c0 .12 0 .21.09.24a.26.26 0 00.26 0l21.31-12.25a1.08 1.08 0 00.48-.83v-10.55a.29.29 0 00-.09-.25z" fill="currentColor"/><path d="M137.48 338.86a.21.21 0 01-.12 0 .26.26 0 01-.13-.25v-6.91a.76.76 0 01.29-.51l18.21-10.49a.3.3 0 01.29 0 .27.27 0 01.13.25v7a.64.64 0 01-.29.51l-18.19 10.45a.33.33 0 01-.19-.05zm0-.25zm18.4-17.75l-18.22 10.49a.56.56 0 00-.16.29v6.95l18.18-10.45a.39.39 0 00.17-.29v-7s.04.02.04.01zM164.09 312.35a3.14 3.14 0 00-1.42 2.45c0 .9.64 1.26 1.42.81a3.14 3.14 0 001.41-2.44c0-.9-.64-1.27-1.41-.82zM164.09 336.35a3.14 3.14 0 00-1.42 2.45c0 .9.64 1.26 1.42.81a3.14 3.14 0 001.41-2.44c0-.9-.64-1.27-1.41-.82zM164.09 342.81a3.12 3.12 0 00-1.42 2.44c0 .9.64 1.26 1.42.81a3.12 3.12 0 001.41-2.44c0-.9-.64-1.26-1.41-.81zM164.09 349.26a3.14 3.14 0 00-1.42 2.45c0 .89.64 1.26 1.42.81a3.14 3.14 0 001.41-2.44c0-.9-.64-1.27-1.41-.82zM164.09 355.72a3.12 3.12 0 00-1.42 2.44c0 .9.64 1.26 1.42.81a3.14 3.14 0 001.41-2.44c0-.9-.64-1.26-1.41-.81zM164.09 318.18a3.14 3.14 0 00-1.42 2.45c0 .9.64 1.26 1.42.81a3.14 3.14 0 001.41-2.44c0-.9-.64-1.27-1.41-.82zM164.09 324a3.14 3.14 0 00-1.42 2.45c0 .9.64 1.26 1.42.81a3.14 3.14 0 001.41-2.44c0-.89-.64-1.26-1.41-.82z" fill="currentColor"/><path d="M179.52 315.4l-.14-1.31a.14.14 0 00-.18-.13 2.94 2.94 0 01-.65.07.3.3 0 00-.26.13l-.29.43 1.54.88a.14.14 0 01-.02-.07zm1.11-9.18a3 3 0 010 .31 5 5 0 01-2.28 4l-.28.15c.14 1.22 1.1 1.67 2.26 1a5 5 0 002.28-3.95c.02-1.4-.85-2-1.98-1.51zm4.94-1.16l-1.55-.9-.23.47a.33.33 0 000 .29 3 3 0 01.27.6.14.14 0 00.2.09l1.2-.53a.12.12 0 01.1 0zm-3-3.42l-.87-.51h-.13l-.71 1.07-.9-.52-.65-.38h-.07l-.93.54-.42.24h-.05v.06a.41.41 0 000 .08l-.13 1.51a.17.17 0 010 .05.11.11 0 010 .05.61.61 0 01-.11.18 8.13 8.13 0 00-.76.79.14.14 0 01-.11.07.26.26 0 01-.15 0l-.87-.3h-.2l-.41.71-.43.75-.15.26a.21.21 0 000 .13.23.23 0 00.07.13l.7.6.05.07a.23.23 0 010 .11.19.19 0 010 .08 8.41 8.41 0 00-.32 1.05.51.51 0 01-.08.17l-.09.1-1.23.86s-.06.06-.09.1a.34.34 0 000 .17v1.56a.12.12 0 000 .1l1.57.9-.57 1.15a.18.18 0 00.07.23l1.9 1.1h.08a.46.46 0 01-.07-.07.2.2 0 010-.17l.8-1.61a.14.14 0 000-.07.29.29 0 000-.22 3.29 3.29 0 01-.26-.6.14.14 0 00-.2-.09l-.61.27-.6.27a.09.09 0 01-.1 0 .1.1 0 01-.05-.1v-1.56a.33.33 0 01.05-.16s0-.08.09-.1l1.23-.87a.32.32 0 00.1-.1.37.37 0 00.07-.16 8.41 8.41 0 01.32-1.05.25.25 0 000-.09.27.27 0 00-.08-.18l-.7-.6a.16.16 0 01-.06-.12.2.2 0 010-.13l.29-.49.34-.61.36-.62a.25.25 0 01.16-.1h.09l.86.3a.22.22 0 00.16 0 .26.26 0 00.11-.07 8.22 8.22 0 01.75-.8.42.42 0 00.11-.17.23.23 0 000-.11l.14-1.5a.24.24 0 010-.08.34.34 0 01.14-.17l.25-.15.54-.31.56-.32a.1.1 0 01.09 0s.05.05.06.09l.07.69.06.62a.14.14 0 00.18.13 3 3 0 01.65-.07.24.24 0 00.19-.06.16.16 0 00.07-.07l1-1.5a.17.17 0 01.23-.05z" fill="#263238"/><path d="M179.54 303.46a.24.24 0 000 .08l-.14 1.5a.23.23 0 010 .11l-2-1.15v-.05a.17.17 0 000-.05l.13-1.51a.41.41 0 010-.08z" opacity=".1"/><path d="M178.38 306.19a.22.22 0 01-.16 0l-.86-.3h-.09l-2-1.13h.06l.87.3a.26.26 0 00.15 0zM176.94 308.73l-2-1.14v-.1l-.05-.07-.7-.6a.23.23 0 01-.07-.13l2 1.15a.16.16 0 00.06.12l.7.6a.27.27 0 01.06.17zM176.93 313.29a.14.14 0 010 .07l-.8 1.61a.2.2 0 000 .17l-1.89-1.1a.18.18 0 01-.07-.23l.57-1.15.42.24a.09.09 0 00.1 0l.6-.27zM179.52 315.4a.14.14 0 000 .07l-1.54-.88.29-.43a.3.3 0 01.26-.13 2.94 2.94 0 00.65-.07.14.14 0 01.18.13z" opacity=".15"/><path d="M183.64 302.28a.17.17 0 00-.23.05l-1 1.5a.16.16 0 01-.07.07l-.56-.32-.52-.3-.07-.69s0-.08-.06-.09l-.4-.24.71-1.07a.22.22 0 01.11 0l.87.51z" opacity=".1"/><path d="M176.54 310a.32.32 0 01-.1.1l-1.23.87s-.06.06-.09.1l-2-1.15s.05-.08.09-.1l1.23-.86.09-.1z" opacity=".15"/><path d="M185.48 305.07l-1.2.54a.14.14 0 01-.2-.09 3 3 0 00-.27-.6.33.33 0 010-.29l.8-1.61a.19.19 0 00-.07-.24l-.87-.5a.18.18 0 00-.24.05l-1 1.5a.3.3 0 01-.26.13 3 3 0 00-.65.07.14.14 0 01-.18-.13l-.13-1.31a.1.1 0 00-.16-.08l-1.35.78a.33.33 0 00-.16.25l-.14 1.5a.47.47 0 01-.14.28 8.22 8.22 0 00-.75.8.27.27 0 01-.27.07l-.86-.3a.22.22 0 00-.25.09l-1 1.72a.21.21 0 000 .25l.7.6a.27.27 0 01.07.27 8.41 8.41 0 00-.32 1.05.41.41 0 01-.17.26l-1.23.87a.34.34 0 00-.14.26v1.56a.1.1 0 00.15.1l1.21-.54a.14.14 0 01.2.09 3.29 3.29 0 00.26.6.3.3 0 010 .29l-.8 1.61a.19.19 0 00.07.24l.87.5a.18.18 0 00.24 0l1-1.5a.3.3 0 01.26-.13 2.94 2.94 0 00.65-.07.14.14 0 01.18.13l.14 1.31c0 .09.07.13.16.08l1.35-.78a.38.38 0 00.16-.25l.13-1.5a.47.47 0 01.14-.28 7.16 7.16 0 00.75-.8.27.27 0 01.27-.07l.87.3a.21.21 0 00.24-.09l1-1.72a.2.2 0 000-.25l-.7-.6a.27.27 0 01-.07-.27 8.41 8.41 0 00.32-1.05.46.46 0 01.17-.26l1.23-.87a.34.34 0 00.14-.26v-1.56a.1.1 0 00-.15-.15zm-5.13 6.56c-1.26.73-2.28.14-2.28-1.32a5 5 0 012.28-3.95c1.26-.73 2.28-.14 2.28 1.32a5 5 0 01-2.28 3.95z" fill="#37474f"/><path d="M176.19 318.62h-.06l-.32-.18-.91-.53h-.2l-.85.08h-.08l-.46 1.23a.23.23 0 01-.07.1l-.11.08-.28.14-.88-.51a.16.16 0 00-.09 0l-.66.7-.27.28a.13.13 0 000 .06v.06a.11.11 0 000 .05l.26.88v.11a.42.42 0 010 .1 6.17 6.17 0 00-.43.74.24.24 0 01-.1.1.24.24 0 01-.1.05l-.8.2h-.06a.1.1 0 00-.05 0 .07.07 0 000 .06l-.3 1-.1.36v.1l.53.31h.07l.29.16v.36a.28.28 0 01-.07.21l-.81 1a.34.34 0 000 .11.12.12 0 000 .1l.38.84 1.61.94h.08v-.08l-.19-.41-.16-.36a.2.2 0 010-.11.14.14 0 01.05-.09l.81-1a.31.31 0 000-.1.3.3 0 000-.12 4.09 4.09 0 010-.7.12.12 0 00-.12-.12h-.79a.09.09 0 010-.09l.18-.61.2-.7v-.06a.26.26 0 01.15-.09l.8-.2a.16.16 0 00.1-.05.19.19 0 00.1-.1 7.89 7.89 0 01.43-.74.3.3 0 000-.1.22.22 0 000-.11l-.26-.88a.17.17 0 010-.1.17.17 0 01.06-.1l.63-.67.3-.32s.1-.06.13 0l.43.66h.18a4.26 4.26 0 01.53-.31.27.27 0 00.1-.06.26.26 0 00.08-.11l.46-1.24v-.06l.31-.08.68-.07h.07zm-3.6 9a.13.13 0 00-.08-.15 1.51 1.51 0 01-.37-.22.18.18 0 00-.2 0l-.86.79a.21.21 0 01-.1 0l.85.49.53.31a.09.09 0 010-.08zm3.8-8.92a.1.1 0 010 .09l-.27 1.21a.14.14 0 00.09.15 2 2 0 01.37.22h.19l.86-.8c.05 0 .1-.05.13 0zm-1.13 9l-.43-.66c0-.05-.11-.05-.18 0l-.26.16.89.52zm.69-5.51a.85.85 0 00-.67-.53h-.1a1.39 1.39 0 00-.6.13 1.69 1.69 0 010 .23 3.74 3.74 0 01-1.71 2.95l-.19.11a1.24 1.24 0 00.11.44.84.84 0 00.8.54h.33a2.42 2.42 0 001.1-.72 3.23 3.23 0 00.98-3.15zm1.34 0v.34a.12.12 0 00.13.12h.78z" fill="#263238"/><path d="M175.26 327.7l-.89-.52.26-.16c.07-.05.15-.05.18 0z" opacity=".15"/><path d="M172.32 328.88a.09.09 0 000 .08l-.53-.31-.85-.49a.21.21 0 00.1 0l.86-.79a.18.18 0 01.2 0 1.51 1.51 0 00.37.22.13.13 0 01.08.15zM171.46 326a.28.28 0 01-.06.09l-.82 1a.18.18 0 000 .1l-1.71-1a.51.51 0 010-.12l.81-1s0-.06.05-.08z" opacity=".1"/><path d="M171.47 325.17v.7a.26.26 0 010 .12l-1.72-1a.21.21 0 000-.13v-.36l.8.47h.79a.12.12 0 01.13.2z" opacity=".05"/><path d="M172 323.15a.19.19 0 01-.11 0l-.8.2a.23.23 0 00-.15.1l-1.71-1h.11l.8-.19a.27.27 0 00.1-.06zM172.59 322.09a.22.22 0 010 .11l-1.71-1a.24.24 0 000-.12l-.26-.88v-.05l1.72 1a.38.38 0 000 .1zM175.32 318.88v.06l-.45 1.23a.31.31 0 01-.09.12l-1.72-1 .07-.09.47-1.24z" opacity=".1"/><path d="M175.32 318.88a.27.27 0 01.14-.07h.17" fill="none"/><path d="M178.18 322.71h-.78a.12.12 0 01-.13-.12v-.34-.36a.34.34 0 01.08-.21l.82-1a.22.22 0 000-.2l-.38-.85h-.13l-.86.8c-.07.05-.15.07-.19 0a2 2 0 00-.37-.22.14.14 0 01-.09-.15l.27-1.21a.1.1 0 000-.09.11.11 0 00-.08 0l-.68.07h-.17a.27.27 0 00-.14.07v.06l-.46 1.24a.26.26 0 01-.08.11.27.27 0 01-.1.06 4.26 4.26 0 00-.53.31H174l-.43-.66h-.13l-.3.32-.63.67a.26.26 0 00-.07.1.17.17 0 000 .1l.26.88a.22.22 0 010 .11.3.3 0 010 .1 7.89 7.89 0 00-.43.74.19.19 0 01-.1.1.16.16 0 01-.1.05l-.8.2a.26.26 0 00-.15.09v.06l-.2.7-.18.61a.09.09 0 000 .09h.79a.12.12 0 01.12.12 4.09 4.09 0 000 .7.3.3 0 010 .12.31.31 0 010 .1l-.81 1a.23.23 0 00-.05.2l.16.36v.05l.05.11.07.14v.19a.21.21 0 00.1 0l.86-.79a.18.18 0 01.2 0 1.51 1.51 0 00.37.22.13.13 0 01.08.15l-.27 1.22a.09.09 0 000 .08.11.11 0 00.08 0l.85-.08a.27.27 0 00.19-.13l.46-1.23a.32.32 0 01.18-.18l.27-.15.26-.16c.07-.05.15-.05.18 0l.43.66a.12.12 0 00.14 0l.93-1a.21.21 0 00.07-.2l-.26-.88a.34.34 0 01.05-.21 7.89 7.89 0 00.43-.74.28.28 0 01.2-.15l.8-.19a.31.31 0 00.18-.15l.4-1.36a.08.08 0 00-.07-.05zm-4.25 3.3h-.33a.84.84 0 01-.8-.54 1.24 1.24 0 01-.11-.44 2.11 2.11 0 010-.25 3.83 3.83 0 011.05-2.41 2.75 2.75 0 01.65-.52l.21-.11a1.39 1.39 0 01.6-.13h.1a.85.85 0 01.67.53 3.23 3.23 0 01-.92 3.1 2.42 2.42 0 01-1.12.76z" fill="#37474f"/><path d="M175.34 341.7a6.41 6.41 0 00-3.62 3 5.94 5.94 0 00.19 5.64 6.5 6.5 0 00-1 3.49 7.74 7.74 0 005.1 6.89l.29.1.87-.5a8.29 8.29 0 01-4.68-4.3 5.85 5.85 0 01.15-4.59 7.35 7.35 0 001.66 1.57c1.74 1.14 5.13 2 6.72.17a2.84 2.84 0 00-.13-3.71 5.56 5.56 0 00-4-1.87 5.62 5.62 0 00-4.16 1.75 5.46 5.46 0 01-.41-2.58 4.92 4.92 0 013.52-4.13c1.44 2.24 4.62 4.28 7.07 2.37s-1.46-3.64-3.1-3.79a10.71 10.71 0 00-3.39.19 3.68 3.68 0 01-.22-2 4.39 4.39 0 011.67-2.6 5.6 5.6 0 016.6-.4.36.36 0 10.46-.56c-3.93-3.6-11.65.81-9.59 5.86zm-.62 7.42a4.17 4.17 0 013.69-.17c1 .45 2.2 1.4 2 2.66-.28 2.19-3.23 1.58-4.61 1a5.79 5.79 0 01-2.59-2.24 4.77 4.77 0 011.51-1.25zm3-6.91a7.28 7.28 0 013.08.22c.47.15 1.81.6 1.74 1.28 0 .42-.65.74-1 .88a2.54 2.54 0 01-1.61.08 5.49 5.49 0 01-2.78-2l-.23-.33a6.84 6.84 0 01.77-.13z" fill="currentColor"/><path d="M175.34 341.7a6.41 6.41 0 00-3.62 3 5.94 5.94 0 00.19 5.64 6.5 6.5 0 00-1 3.49 7.74 7.74 0 005.1 6.89l.29.1.87-.5a8.29 8.29 0 01-4.68-4.3 5.85 5.85 0 01.15-4.59 7.35 7.35 0 001.66 1.57c1.74 1.14 5.13 2 6.72.17a2.84 2.84 0 00-.13-3.71 5.56 5.56 0 00-4-1.87 5.62 5.62 0 00-4.16 1.75 5.46 5.46 0 01-.41-2.58 4.92 4.92 0 013.52-4.13c1.44 2.24 4.62 4.28 7.07 2.37s-1.46-3.64-3.1-3.79a10.71 10.71 0 00-3.39.19 3.68 3.68 0 01-.22-2 4.39 4.39 0 011.67-2.6 5.6 5.6 0 016.6-.4.36.36 0 10.46-.56c-3.93-3.6-11.65.81-9.59 5.86zm-.62 7.42a4.17 4.17 0 013.69-.17c1 .45 2.2 1.4 2 2.66-.28 2.19-3.23 1.58-4.61 1a5.79 5.79 0 01-2.59-2.24 4.77 4.77 0 011.51-1.25zm3-6.91a7.28 7.28 0 013.08.22c.47.15 1.81.6 1.74 1.28 0 .42-.65.74-1 .88a2.54 2.54 0 01-1.61.08 5.49 5.49 0 01-2.78-2l-.23-.33a6.84 6.84 0 01.77-.13z" fill="#fff" opacity=".7"/><path d="M172.27 352.4a5.43 5.43 0 01.35-1 3.86 3.86 0 01-.71-1.09 7 7 0 00-.54 1.06 8.6 8.6 0 00.9 1.03zM174.6 343.21a7.24 7.24 0 011.22-.59 5.7 5.7 0 01-.48-.92 7.31 7.31 0 00-1.36.63 6.94 6.94 0 00.62.88zM176.28 360.81l.87-.5a10.72 10.72 0 01-1.08-.52l-.93.53a7.2 7.2 0 00.85.39zM199.46 344.67a6.45 6.45 0 00-4.52-1.29 6 6 0 00-4.54 3.36 6.44 6.44 0 00-2.28.5 7.83 7.83 0 00-1.17.64 7.58 7.58 0 00-2.93 7.2c0 .31.09.61.15.91l.06.22.77-.44v-.24a7.81 7.81 0 011.08-5.11 5.7 5.7 0 012.07-1.86 6 6 0 011.79-.62 6.89 6.89 0 00-.33 2.28c0 2.08 1.26 5.36 3.67 5.63a2.84 2.84 0 003-2.22 5.47 5.47 0 00-.74-4.36 5.63 5.63 0 00-3.79-2.44 5.4 5.4 0 011.88-1.8 4.92 4.92 0 015.4.56c-1 2.46-.9 6.22 2.06 7.15s2.16-3.26 1.37-4.69a11.14 11.14 0 00-2.08-2.69 3.64 3.64 0 011.54-1.33 4.36 4.36 0 013.08-.1 5.62 5.62 0 014.08 5.21.36.36 0 10.72.06c.67-5.2-7.35-9.09-10.34-4.53zm-6.46 3.7a4.16 4.16 0 012.23 2.94c.21 1.1.1 2.61-1 3.19-2 1-3.14-1.77-3.45-3.24a5.87 5.87 0 01.38-3.4 4.84 4.84 0 011.84.51zm7.37-1.48a7.41 7.41 0 011.57 2.66c.14.47.54 1.84-.08 2.16-.36.2-1-.11-1.28-.31a2.47 2.47 0 01-1-1.28 5.44 5.44 0 01.08-3.43 3 3 0 01.13-.39c.21.2.41.39.58.59z" fill="currentColor"/><path d="M199.46 344.67a6.45 6.45 0 00-4.52-1.29 6 6 0 00-4.54 3.36 6.44 6.44 0 00-2.28.5 7.83 7.83 0 00-1.17.64 7.58 7.58 0 00-2.93 7.2c0 .31.09.61.15.91l.06.22.77-.44v-.24a7.81 7.81 0 011.08-5.11 5.7 5.7 0 012.07-1.86 6 6 0 011.79-.62 6.89 6.89 0 00-.33 2.28c0 2.08 1.26 5.36 3.67 5.63a2.84 2.84 0 003-2.22 5.47 5.47 0 00-.74-4.36 5.63 5.63 0 00-3.79-2.44 5.4 5.4 0 011.88-1.8 4.92 4.92 0 015.4.56c-1 2.46-.9 6.22 2.06 7.15s2.16-3.26 1.37-4.69a11.14 11.14 0 00-2.08-2.69 3.64 3.64 0 011.54-1.33 4.36 4.36 0 013.08-.1 5.62 5.62 0 014.08 5.21.36.36 0 10.72.06c.67-5.2-7.35-9.09-10.34-4.53zm-6.46 3.7a4.16 4.16 0 012.23 2.94c.21 1.1.1 2.61-1 3.19-2 1-3.14-1.77-3.45-3.24a5.87 5.87 0 01.38-3.4 4.84 4.84 0 011.84.51zm7.37-1.48a7.41 7.41 0 011.57 2.66c.14.47.54 1.84-.08 2.16-.36.2-1-.11-1.28-.31a2.47 2.47 0 01-1-1.28 5.44 5.44 0 01.08-3.43 3 3 0 01.13-.39c.21.2.41.39.58.59z" fill="#fff" opacity=".7"/><path d="M188.91 348.21a5.68 5.68 0 011-.27 4.22 4.22 0 01.49-1.2 6.85 6.85 0 00-1.18.17 8.27 8.27 0 00-.31 1.3zM197.79 344.92a6 6 0 011.18.67 6.92 6.92 0 01.49-.93 7.66 7.66 0 00-1.31-.73 5.86 5.86 0 00-.36.99zM184.23 356.21l-.06-.22c-.06-.3-.11-.6-.15-.91l.95.45v.24z" fill="currentColor"/><path d="M185.94 245l-54.38 31.4a4.84 4.84 0 00-2.18 3.79v18.66c0 1.4 1 2 2.19 1.27l54.37-31.39a4.87 4.87 0 002.19-3.79v-18.67c0-1.39-.98-1.96-2.19-1.27z" fill="#455a64"/><path d="M184 253.23a4.7 4.7 0 01-2.19 3.64l-46.16 26.65c-1.21.69-2.19.2-2.19-1.11a4.7 4.7 0 012.19-3.64l46.16-26.65c1.19-.69 2.19-.2 2.19 1.11z" fill="currentColor"/><path d="M184 262.72a4.7 4.7 0 01-2.19 3.64L135.67 293c-1.21.7-2.19.21-2.19-1.1a4.7 4.7 0 012.19-3.64l46.16-26.65c1.17-.7 2.17-.2 2.17 1.11z" fill="#263238"/><path d="M181.83 261.61l-19.59 11.31v4.74l19.59-11.3a4.7 4.7 0 002.19-3.64c-.02-1.31-1.02-1.81-2.19-1.11zM110.54 201.07c-2.27-1.31-4.11-.12-4.11 2.68v100.38a9.4 9.4 0 004.11 7.44c2.27 1.32 4.11.12 4.11-2.67V208.51a9.43 9.43 0 00-4.11-7.44z" fill="currentColor"/><path d="M110.54 201.07c-2.27-1.31-4.11-.12-4.11 2.68v100.38a9.4 9.4 0 004.11 7.44c2.27 1.32 4.11.12 4.11-2.67V208.51a9.43 9.43 0 00-4.11-7.44z" opacity=".5"/><path d="M110.54 309.17a4.7 4.7 0 01-2.05-3.71V204.77c0-1.4.92-2 2.05-1.35a4.69 4.69 0 012 3.72v100.69c.05 1.4-.87 2-2 1.34z" fill="#37474f"/><path d="M110.54 309.17a4.7 4.7 0 01-2.05-3.71v-49.2l4.1 2.37v49.2c0 1.4-.92 2-2.05 1.34zM98.22 194c-2.27-1.32-4.11-.12-4.11 2.67V297a9.43 9.43 0 004.11 7.44c2.26 1.31 4.1.11 4.1-2.68V201.39a9.41 9.41 0 00-4.1-7.39z" fill="currentColor"/><path d="M98.22 194c-2.27-1.32-4.11-.12-4.11 2.67V297a9.43 9.43 0 004.11 7.44c2.26 1.31 4.1.11 4.1-2.68V201.39a9.41 9.41 0 00-4.1-7.39z" opacity=".5"/><path d="M98.22 302.06a4.7 4.7 0 01-2.06-3.72V197.65c0-1.4.92-2 2.06-1.34a4.7 4.7 0 012 3.71v100.69c.05 1.4-.87 2-2 1.35zM85.89 186.84c-2.27-1.31-4.11-.12-4.11 2.68V289.9a9.4 9.4 0 004.11 7.44c2.27 1.32 4.11.12 4.11-2.67V194.28a9.43 9.43 0 00-4.11-7.44z" fill="currentColor"/><path d="M85.89 186.84c-2.27-1.31-4.11-.12-4.11 2.68V289.9a9.4 9.4 0 004.11 7.44c2.27 1.32 4.11.12 4.11-2.67V194.28a9.43 9.43 0 00-4.11-7.44z" opacity=".5"/><path d="M85.89 294.94a4.7 4.7 0 01-2-3.71V190.54c0-1.4.92-2 2-1.35a4.7 4.7 0 012.11 3.72V293.6c-.06 1.4-1 2-2.11 1.34z" fill="#37474f"/><path d="M85.89 294.94a4.7 4.7 0 01-2-3.71v-73.12l4.11 2.38v73.11c-.06 1.4-1 2-2.11 1.34zM73.57 179.73c-2.27-1.32-4.11-.12-4.11 2.67v100.39a9.43 9.43 0 004.11 7.44c2.26 1.31 4.1.11 4.1-2.68V187.16a9.39 9.39 0 00-4.1-7.43z" fill="currentColor"/><path d="M73.57 179.73c-2.27-1.32-4.11-.12-4.11 2.67v100.39a9.43 9.43 0 004.11 7.44c2.26 1.31 4.1.11 4.1-2.68V187.16a9.39 9.39 0 00-4.1-7.43z" opacity=".5"/><path d="M73.57 287.83a4.7 4.7 0 01-2.06-3.72V183.42c0-1.4.92-2 2.06-1.34a4.7 4.7 0 012.05 3.71v100.69c0 1.4-.92 2-2.05 1.35z" fill="#37474f"/><path d="M73.57 287.83a4.7 4.7 0 01-2.06-3.72v-18.36l4.11 2.37v18.36c0 1.4-.92 2-2.05 1.35zM61.24 172.61c-2.27-1.32-4.11-.12-4.11 2.68v100.38a9.4 9.4 0 004.11 7.44c2.27 1.32 4.11.12 4.11-2.67V180.05a9.43 9.43 0 00-4.11-7.44z" fill="currentColor"/><path d="M61.24 172.61c-2.27-1.32-4.11-.12-4.11 2.68v100.38a9.4 9.4 0 004.11 7.44c2.27 1.32 4.11.12 4.11-2.67V180.05a9.43 9.43 0 00-4.11-7.44z" opacity=".5"/><path d="M61.24 280.71a4.7 4.7 0 01-2.05-3.71V176.3c0-1.39.92-2 2.05-1.34a4.7 4.7 0 012.06 3.72v100.69c0 1.39-.92 2-2.06 1.34z" fill="#37474f"/><path d="M61.24 280.71a4.7 4.7 0 01-2.05-3.71v-53.95l4.11 2.38v53.94c0 1.39-.92 2-2.06 1.34z" fill="currentColor"/><path d="M185.94 169.32l-54.38 31.39a4.82 4.82 0 00-2.18 3.79V267c0 1.39 1 2 2.19 1.26l54.37-31.39a4.87 4.87 0 002.19-3.79v-62.5c0-1.4-.98-1.96-2.19-1.26z" fill="#37474f"/><path d="M130 202.43a4.29 4.29 0 00-.59 2.07V267c0 1.39 1 2 2.19 1.26l54.37-31.39a4.58 4.58 0 001.59-1.72z" fill="#263238"/><path d="M131.56 200.71a4.82 4.82 0 00-2.18 3.79V267l54.37-31.39a4.87 4.87 0 002.18-3.8v-62.49z" fill="#455a64"/><g fill="currentColor"><path d="M149.47 217.14a1.1 1.1 0 01-.78-.31l-7.23-7a1.12 1.12 0 111.56-1.62l7.23 6.95a1.13 1.13 0 01-.78 1.94z"/><path d="M142.24 221.31a1.05 1.05 0 01-.48-.11 1.13 1.13 0 01-.54-1.5l7.23-15.3a1.12 1.12 0 011.5-.53 1.13 1.13 0 01.54 1.5l-7.23 15.3a1.13 1.13 0 01-1.02.64zM173.07 203.51a1.12 1.12 0 01-.78-.31l-7.23-6.95a1.13 1.13 0 011.57-1.63l7.22 6.95a1.14 1.14 0 010 1.6 1.1 1.1 0 01-.78.34z"/><path d="M165.84 207.69a1.2 1.2 0 01-.48-.11 1.14 1.14 0 01-.54-1.5l7.23-15.3a1.13 1.13 0 012 1L166.86 207a1.13 1.13 0 01-1.02.69zM141.92 238.65a1.14 1.14 0 01-1-.57 1.13 1.13 0 01.42-1.54l31.47-18.17a1.13 1.13 0 011.54.41 1.14 1.14 0 01-.42 1.55l-31.47 18.16a1 1 0 01-.54.16z"/><path d="M163.85 239.16a3.11 3.11 0 01-1.58-.42 4.17 4.17 0 01-1.81-3.79v-8.79a1.14 1.14 0 011.13-1.13 1.14 1.14 0 011.13 1.13V235a2.07 2.07 0 00.68 1.83 1.65 1.65 0 001.56-.24 7.85 7.85 0 003.37-6.14v-8.78a1.13 1.13 0 112.25 0v8.78a10.09 10.09 0 01-4.49 8.09 4.46 4.46 0 01-2.24.62z"/><path d="M165.52 233.5a1.13 1.13 0 01-1.13-1.13v-8.48a1.13 1.13 0 012.26 0v8.48a1.12 1.12 0 01-1.13 1.13z"/></g><path d="M66.16 363.4a2.11 2.11 0 011 1.67c0 .62-.43.87-1 .56a2.16 2.16 0 01-1-1.67c.03-.62.47-.87 1-.56zM74.24 368.07a2.11 2.11 0 011 1.67c0 .61-.43.86-1 .56a2.13 2.13 0 01-1-1.68c.03-.62.46-.86 1-.55zM82.17 372.65a2.1 2.1 0 011 1.66c0 .62-.43.87-1 .56a2.13 2.13 0 01-1-1.67c.04-.61.47-.86 1-.55zM90.18 377.27a2.13 2.13 0 011 1.66c0 .61-.43.86-1 .56a2.13 2.13 0 01-1-1.66c.04-.62.47-.83 1-.56zM56.74 315.92l8.26 4.71a5.17 5.17 0 012.32 4v4.71c0 1.48-1 2.09-2.32 1.34L56.74 326a5.16 5.16 0 01-2.33-4v-4.71c0-1.51 1.05-2.11 2.33-1.37z" fill="#37474f"/><path d="M59 321.23l1.07-.62a1.41 1.41 0 011.42.14 4.48 4.48 0 012 3.51 1.4 1.4 0 01-.59 1.3l-1 .57-.18-.3a1.81 1.81 0 01-.58-.22 4.46 4.46 0 01-2-3.5 2.06 2.06 0 01.06-.52z" fill="currentColor"/><path d="M59 321.23l1.07-.62a1.41 1.41 0 011.42.14 4.48 4.48 0 012 3.51 1.4 1.4 0 01-.59 1.3l-1 .57-.18-.3a1.81 1.81 0 01-.58-.22 4.46 4.46 0 01-2-3.5 2.06 2.06 0 01.06-.52z" opacity=".2"/><path d="M60.42 321.34a4.49 4.49 0 012 3.51c0 1.28-.91 1.81-2 1.16a4.47 4.47 0 01-2-3.5c-.02-1.29.89-1.81 2-1.17z" fill="currentColor"/><path d="M56.74 293.25L65 298a5.14 5.14 0 012.32 4v4.7c0 1.49-1 2.09-2.32 1.35l-8.21-4.72a5.15 5.15 0 01-2.33-4v-4.71c-.05-1.51 1-2.11 2.28-1.37z" fill="#455a64"/><path d="M59 298.56l1.07-.62a1.42 1.42 0 011.42.15 4.45 4.45 0 012 3.5 1.43 1.43 0 01-.59 1.31l-1 .57-.18-.3a2.12 2.12 0 01-.58-.23 4.45 4.45 0 01-2-3.5 2.12 2.12 0 01.06-.52z" fill="currentColor"/><path d="M59 298.56l1.07-.62a1.42 1.42 0 011.42.15 4.45 4.45 0 012 3.5 1.43 1.43 0 01-.59 1.31l-1 .57-.18-.3a2.12 2.12 0 01-.58-.23 4.45 4.45 0 01-2-3.5 2.12 2.12 0 01.06-.52z" opacity=".2"/><path d="M60.42 298.68a4.46 4.46 0 012 3.5c0 1.29-.91 1.81-2 1.17a4.51 4.51 0 01-2-3.51c-.02-1.29.89-1.84 2-1.16z" fill="currentColor"/><path d="M185.57 276.07l-38 21.95a5.66 5.66 0 00-2.55 4.43v5.17c0 1.62 1.14 2.28 2.55 1.47l38-21.95a5.67 5.67 0 002.56-4.43v-5.16c0-1.63-1.13-2.29-2.56-1.48z" fill="#455a64"/><path d="M185.43 280.45V283a1.13 1.13 0 01-.51.89l-.57.33c-.29.16-.52 0-.52-.29v-2.51a1.13 1.13 0 01.52-.89l.57-.33c.28-.2.51-.08.51.25zM182.85 281.94v2.5a1.13 1.13 0 01-.51.89l-.58.33c-.28.16-.51 0-.51-.29v-2.51a1.15 1.15 0 01.51-.89l.58-.33c.28-.16.51-.03.51.3zM180.27 283.42v2.51a1.15 1.15 0 01-.51.89l-.58.33c-.28.16-.51 0-.51-.3v-2.5a1.13 1.13 0 01.51-.89l.58-.33c.24-.13.51-.03.51.29zM177.69 284.91v2.51a1.11 1.11 0 01-.51.88l-.58.34c-.28.16-.51 0-.51-.3v-2.51a1.13 1.13 0 01.51-.88l.58-.33c.28-.17.51-.03.51.29z" fill="currentColor"/><path d="M175.1 286.4v2.51a1.1 1.1 0 01-.51.88l-.57.33c-.28.17-.51 0-.51-.29v-2.51a1.13 1.13 0 01.51-.88l.57-.33c.29-.17.51-.03.51.29zM172.52 287.89v2.51a1.13 1.13 0 01-.51.88l-.57.33c-.29.17-.51 0-.51-.29v-2.51a1.1 1.1 0 01.51-.88l.57-.34c.28-.16.51-.03.51.3z" fill="#37474f"/><path d="M169.94 289.38v2.5a1.13 1.13 0 01-.51.89l-.58.33c-.28.16-.51 0-.51-.29v-2.51a1.15 1.15 0 01.51-.89l.58-.33c.28-.16.51-.03.51.3zM167.36 290.87v2.5a1.13 1.13 0 01-.51.89l-.58.33c-.28.16-.51 0-.51-.3v-2.5a1.15 1.15 0 01.51-.89l.58-.33c.28-.16.51-.03.51.3zM164.78 292.35v2.51a1.15 1.15 0 01-.51.89l-.58.33c-.28.16-.51 0-.51-.3v-2.5a1.13 1.13 0 01.51-.89l.58-.33c.28-.16.51-.06.51.29z" fill="currentColor"/><path d="M162.2 293.84v2.51a1.1 1.1 0 01-.52.88l-.57.34c-.28.16-.51 0-.51-.3v-2.51a1.13 1.13 0 01.51-.88l.57-.33c.32-.17.52-.03.52.29z" fill="#37474f"/><path d="M159.61 295.33v2.51a1.13 1.13 0 01-.51.88l-.57.33c-.28.17-.51 0-.51-.29v-2.51a1.13 1.13 0 01.51-.88l.57-.33c.28-.17.51-.04.51.29zM157 296.82v2.51a1.13 1.13 0 01-.51.88l-.57.33c-.29.17-.51 0-.51-.29v-2.51a1.1 1.1 0 01.51-.88l.57-.34c.31-.16.51-.03.51.3z" fill="currentColor"/><path d="M154.45 298.31v2.5a1.13 1.13 0 01-.51.89l-.58.33c-.28.16-.51 0-.51-.29v-2.51a1.15 1.15 0 01.51-.89l.58-.33c.28-.16.51-.01.51.3z" fill="#37474f"/><path d="M151.87 299.8v2.5a1.13 1.13 0 01-.51.89l-.58.33c-.28.16-.51 0-.51-.3v-2.5a1.15 1.15 0 01.51-.89l.58-.33c.28-.16.51-.03.51.3z" fill="currentColor"/><path d="M149.29 301.28v2.51a1.15 1.15 0 01-.51.89l-.58.33c-.28.16-.51 0-.51-.3v-2.5a1.13 1.13 0 01.51-.89l.58-.33c.28-.16.51.01.51.29z" fill="#37474f"/><path d="M141.15 306.31l-1.06-.62a1.41 1.41 0 00-1.42.14 4.49 4.49 0 00-2 3.51 1.42 1.42 0 00.59 1.3l1 .56.18-.3a2 2 0 00.58-.22 4.49 4.49 0 002-3.5 2.66 2.66 0 00-.06-.52z" fill="#455a64"/><path d="M139.68 306.42a4.51 4.51 0 00-2 3.51c0 1.29.91 1.81 2 1.16a4.45 4.45 0 002-3.5c.02-1.29-.88-1.81-2-1.17z" fill="currentColor"/><path d="M139.68 306.42a4.51 4.51 0 00-2 3.51c0 1.29.91 1.81 2 1.16a4.45 4.45 0 002-3.5c.02-1.29-.88-1.81-2-1.17z" fill="#fff" opacity=".8"/><path d="M132.38 311.37l-1.07-.61a1.44 1.44 0 00-1.42.15 4.45 4.45 0 00-2 3.5 1.41 1.41 0 00.59 1.31l1 .57.18-.3a1.94 1.94 0 00.58-.23 4.45 4.45 0 002-3.5 2 2 0 00-.06-.51z" fill="#455a64"/><path d="M130.9 311.49a4.47 4.47 0 00-2 3.5c0 1.29.91 1.81 2 1.17a4.47 4.47 0 002-3.5c.03-1.29-.9-1.82-2-1.17z" fill="currentColor"/><path d="M130.9 311.49a4.47 4.47 0 00-2 3.5c0 1.29.91 1.81 2 1.17a4.47 4.47 0 002-3.5c.03-1.29-.9-1.82-2-1.17z" fill="#fff" opacity=".8"/><path d="M73.87 301.3l39.79 23a2.85 2.85 0 011.29 2.23v11c0 .82-.58 1.15-1.29.74l-39.79-23a2.83 2.83 0 01-1.29-2.27v-11c0-.78.57-1.11 1.29-.7z" fill="#455a64"/><path d="M75 306.14a2.74 2.74 0 001.29 2.14l34.95 20.17c.71.41 1.29.11 1.29-.66a2.77 2.77 0 00-1.29-2.14l-34.95-20.16c-.72-.41-1.29-.12-1.29.65z" fill="currentColor"/><path d="M75 311.73a2.74 2.74 0 001.29 2.14L111.24 334c.71.41 1.29.12 1.29-.65a2.77 2.77 0 00-1.29-2.14l-34.95-20.13c-.72-.41-1.29-.08-1.29.65z" fill="#263238"/><path d="M76.29 311.08l19.31 11.13V325l-19.31-11.13a2.74 2.74 0 01-1.29-2.14c0-.73.57-1.06 1.29-.65z" fill="currentColor"/><path d="M56.74 293.25L65 298a5.14 5.14 0 012.32 4v4.7c0 1.49-1 2.09-2.32 1.35l-8.21-4.72a5.15 5.15 0 01-2.33-4v-4.71c-.05-1.51 1-2.11 2.28-1.37z" fill="#37474f"/><path d="M59 298.56l1.07-.62a1.42 1.42 0 011.42.15 4.45 4.45 0 012 3.5 1.43 1.43 0 01-.59 1.31l-1 .57-.18-.3a2.12 2.12 0 01-.58-.23 4.45 4.45 0 01-2-3.5 2.12 2.12 0 01.06-.52z" fill="currentColor"/><path d="M59 298.56l1.07-.62a1.42 1.42 0 011.42.15 4.45 4.45 0 012 3.5 1.43 1.43 0 01-.59 1.31l-1 .57-.18-.3a2.12 2.12 0 01-.58-.23 4.45 4.45 0 01-2-3.5 2.12 2.12 0 01.06-.52z" opacity=".2"/><path d="M60.42 298.68a4.46 4.46 0 012 3.5c0 1.29-.91 1.81-2 1.17a4.51 4.51 0 01-2-3.51c-.02-1.29.89-1.84 2-1.16z" fill="currentColor"/><path d="M73.87 301.3l39.79 23a2.85 2.85 0 011.29 2.23v11c0 .82-.58 1.15-1.29.74l-39.79-23a2.83 2.83 0 01-1.29-2.27v-11c0-.78.57-1.11 1.29-.7z" fill="#37474f"/><path d="M75 306.14a2.74 2.74 0 001.29 2.14l34.95 20.17c.71.41 1.29.11 1.29-.66a2.77 2.77 0 00-1.29-2.14l-34.95-20.16c-.72-.41-1.29-.12-1.29.65z" fill="currentColor"/><path d="M75 311.73a2.74 2.74 0 001.29 2.14L111.24 334c.71.41 1.29.12 1.29-.65a2.77 2.77 0 00-1.29-2.14l-34.95-20.13c-.72-.41-1.29-.08-1.29.65z" fill="#263238"/><path d="M76.29 311.08l19.31 11.13V325l-19.31-11.13a2.74 2.74 0 01-1.29-2.14c0-.73.57-1.06 1.29-.65z" fill="currentColor"/><path d="M73.87 324l39.79 23a2.89 2.89 0 011.29 2.24v11c0 .82-.58 1.15-1.29.74L73.87 338a2.84 2.84 0 01-1.29-2.24v-11c0-.76.57-1.14 1.29-.76z" fill="#37474f"/><path d="M75 328.87a2.74 2.74 0 001.29 2.13l34.95 20.16c.71.42 1.29.12 1.29-.65a2.77 2.77 0 00-1.29-2.14l-34.95-20.15c-.72-.41-1.29-.12-1.29.65z" fill="currentColor"/><path d="M75 334.46a2.74 2.74 0 001.29 2.14l34.95 20.16c.71.41 1.29.12 1.29-.65a2.77 2.77 0 00-1.29-2.14l-34.95-20.16c-.72-.41-1.29-.12-1.29.65z" fill="#263238"/><path d="M76.29 333.81l24.15 13.92v2.79L76.29 336.6a2.74 2.74 0 01-1.29-2.14c0-.77.57-1.06 1.29-.65z" fill="currentColor"/><path d="M56.74 338.72l8.26 4.71a5.15 5.15 0 012.32 4v4.71c0 1.48-1 2.08-2.32 1.34l-8.21-4.71a5.18 5.18 0 01-2.33-4v-4.71c-.05-1.48 1-2.06 2.28-1.34z" fill="#455a64"/><path d="M59 344l1.07-.62a1.41 1.41 0 011.42.14 4.46 4.46 0 012 3.5 1.41 1.41 0 01-.59 1.31l-1 .57-.18-.3a2.08 2.08 0 01-.58-.22 4.48 4.48 0 01-2-3.51 2 2 0 01.06-.51z" fill="currentColor"/><path d="M59 344l1.07-.62a1.41 1.41 0 011.42.14 4.46 4.46 0 012 3.5 1.41 1.41 0 01-.59 1.31l-1 .57-.18-.3a2.08 2.08 0 01-.58-.22 4.48 4.48 0 01-2-3.51 2 2 0 01.06-.51z" opacity=".2"/><path d="M60.42 344.14a4.46 4.46 0 012 3.5c0 1.29-.91 1.81-2 1.17a4.47 4.47 0 01-2-3.5c-.02-1.31.89-1.81 2-1.17z" fill="currentColor"/><path d="M56.74 338.72l8.26 4.71a5.15 5.15 0 012.32 4v4.71c0 1.48-1 2.08-2.32 1.34l-8.21-4.71a5.18 5.18 0 01-2.33-4v-4.71c-.05-1.48 1-2.06 2.28-1.34z" fill="#37474f"/><path d="M59 344l1.07-.62a1.41 1.41 0 011.42.14 4.46 4.46 0 012 3.5 1.41 1.41 0 01-.59 1.31l-1 .57-.18-.3a2.08 2.08 0 01-.58-.22 4.48 4.48 0 01-2-3.51 2 2 0 01.06-.51z" fill="currentColor"/><path d="M59 344l1.07-.62a1.41 1.41 0 011.42.14 4.46 4.46 0 012 3.5 1.41 1.41 0 01-.59 1.31l-1 .57-.18-.3a2.08 2.08 0 01-.58-.22 4.48 4.48 0 01-2-3.51 2 2 0 01.06-.51z" opacity=".2"/><path d="M60.42 344.14a4.46 4.46 0 012 3.5c0 1.29-.91 1.81-2 1.17a4.47 4.47 0 01-2-3.5c-.02-1.31.89-1.81 2-1.17z" fill="currentColor"/><path d="M73.87 346.77l39.79 23A2.85 2.85 0 01115 372v11c0 .83-.58 1.16-1.29.75l-39.79-23a2.83 2.83 0 01-1.29-2.23v-11c-.05-.83.52-1.17 1.24-.75z" fill="#37474f"/><path d="M75 351.61a2.74 2.74 0 001.29 2.14l34.95 20.16c.71.41 1.29.12 1.29-.65a2.77 2.77 0 00-1.29-2.14L76.29 351c-.72-.46-1.29-.16-1.29.61z" fill="currentColor"/><path d="M75 357.19a2.76 2.76 0 001.29 2.15l34.95 20.16c.71.41 1.29.12 1.29-.65a2.79 2.79 0 00-1.29-2.15l-34.95-20.16c-.72-.41-1.29-.12-1.29.65z" fill="#263238"/><path d="M76.29 356.54l19.31 11.13v2.8l-19.31-11.13a2.76 2.76 0 01-1.29-2.15c0-.77.57-1.06 1.29-.65z" fill="currentColor"/><path d="M177.29 158.41l-53.07 30.64a3.07 3.07 0 01-2.74 0l-53.07-30.64a.84.84 0 010-1.59l53.07-29.58a3.07 3.07 0 012.74 0l53.07 29.58a.84.84 0 010 1.59z" opacity=".1"/><path d="M124.16 187.37l50.78-29.32a2.9 2.9 0 001.32-2.27v-1.71a2.91 2.91 0 00-1.32-2.28l-50.78-29.32a2.88 2.88 0 00-2.62 0l-50.78 29.32a2.91 2.91 0 00-1.32 2.28v1.71a2.9 2.9 0 001.32 2.27l50.78 29.32a2.88 2.88 0 002.62 0z" fill="currentColor"/><path d="M124.16 187.37l50.78-29.32a2.9 2.9 0 001.32-2.27v-1.71a2.91 2.91 0 00-1.32-2.28l-50.78-29.32a2.88 2.88 0 00-2.62 0l-50.78 29.32a2.91 2.91 0 00-1.32 2.28v1.71a2.9 2.9 0 001.32 2.27l50.78 29.32a2.88 2.88 0 002.62 0z" fill="#fff" opacity=".5"/><path d="M124.16 187.37l50.78-29.32a2.9 2.9 0 001.32-2.27v-1.71a2.91 2.91 0 00-1.32-2.28l-50.78-29.32a2.88 2.88 0 00-2.62 0l-50.78 29.32a2.91 2.91 0 00-1.32 2.28v1.71a2.9 2.9 0 001.32 2.27l50.78 29.32a2.88 2.88 0 002.62 0z" opacity=".05"/><path d="M174.94 153.31l-50.78 29.31a2.88 2.88 0 01-2.62 0l-50.78-29.31a.8.8 0 010-1.52l50.78-28.3a2.88 2.88 0 012.62 0l50.78 28.3a.8.8 0 010 1.52z" fill="currentColor"/><path d="M174.94 153.31l-50.78 29.31a2.88 2.88 0 01-2.62 0l-50.78-29.31a.8.8 0 010-1.52l50.78-28.3a2.88 2.88 0 012.62 0l50.78 28.3a.8.8 0 010 1.52z" fill="#fff" opacity=".7"/><path d="M122.85 182.94v4.74a2.67 2.67 0 001.31-.31l50.78-29.32a2.91 2.91 0 001.32-2.28v-1.71a2.92 2.92 0 00-1.07-2.1c.47.41.39 1-.25 1.34l-50.78 29.32a2.57 2.57 0 01-1.31.32z" fill="currentColor"/><path d="M122.85 182.94v4.74a2.67 2.67 0 001.31-.31l50.78-29.32a2.91 2.91 0 001.32-2.28v-1.71a2.92 2.92 0 00-1.07-2.1c.47.41.39 1-.25 1.34l-50.78 29.32a2.57 2.57 0 01-1.31.32z" fill="#fff" opacity=".6"/><path d="M124.16 173.14l34.35-19.83a2.89 2.89 0 001.31-2.28v-1.71a2.88 2.88 0 00-1.31-2.27l-22-12.72a8.71 8.71 0 01-2.22-2l-10.52-14.17a1.74 1.74 0 00-2.21-.46l-34.37 19.86a2.89 2.89 0 00-1.31 2.27V151a2.92 2.92 0 001.31 2.28l34.35 19.83a2.88 2.88 0 002.62.03z" fill="#263238"/><path d="M121.54 168.39l-22-12.71a7.19 7.19 0 01-1.15-.85 7.87 7.87 0 01-1.07-1.13l-10.54-14.17a1.31 1.31 0 01.41-2l34.35-19.83a1.74 1.74 0 012.21.46l10.52 14.17a8.28 8.28 0 002 2l22.2 12.64a.79.79 0 010 1.51l-34.35 19.83a2.88 2.88 0 01-2.58.08z" fill="#455a64"/><path d="M87.19 137.56l34.35-19.83a1.74 1.74 0 012.21.46l10.52 14.17a8 8 0 001.08 1.12s-37 21.35-37 21.34a7.84 7.84 0 01-1.07-1.12l-10.5-14.17a1.31 1.31 0 01.41-1.97z" fill="#37474f"/><path d="M150.18 147.39a3.41 3.41 0 00-3.08 0c-.86.5-.86 1.29 0 1.78a3.41 3.41 0 003.08 0 .94.94 0 000-1.78zM144 151a3.41 3.41 0 00-3.08 0 .94.94 0 000 1.78 3.41 3.41 0 003.08 0 .94.94 0 000-1.78z" fill="currentColor"/><path d="M137.85 154.51a3.41 3.41 0 00-3.08 0 .94.94 0 000 1.78 3.41 3.41 0 003.08 0 .94.94 0 000-1.78zM131.69 158.07a3.41 3.41 0 00-3.08 0 .94.94 0 000 1.78 3.41 3.41 0 003.08 0 .94.94 0 000-1.78z" fill="#263238"/><path d="M145.56 144.73a3.37 3.37 0 00-3.09 0 .93.93 0 000 1.77 3.37 3.37 0 003.09 0 .93.93 0 000-1.77z" fill="currentColor"/><path d="M139.39 148.28a3.41 3.41 0 00-3.08 0 .94.94 0 000 1.78 3.41 3.41 0 003.08 0 .94.94 0 000-1.78z" fill="#263238"/><ellipse cx="131.69" cy="152.73" rx="2.18" ry="1.26" fill="currentColor"/><path d="M127.07 155.4a3.41 3.41 0 00-3.08 0 .94.94 0 000 1.78 3.41 3.41 0 003.08 0 .94.94 0 000-1.78zM140.93 142.06a3.41 3.41 0 00-3.08 0 .94.94 0 000 1.78 3.41 3.41 0 003.08 0 .94.94 0 000-1.78z" fill="#263238"/><path d="M134.77 145.62a3.35 3.35 0 00-3.08 0 .93.93 0 000 1.77 3.35 3.35 0 003.08 0 .93.93 0 000-1.77z" fill="currentColor"/><path d="M128.61 149.17a3.41 3.41 0 00-3.08 0 .94.94 0 000 1.78 3.41 3.41 0 003.08 0 .94.94 0 000-1.78z" fill="#263238"/><path d="M125.49 161.55a3.41 3.41 0 00-3.08 0 .94.94 0 000 1.78 3.41 3.41 0 003.08 0 .94.94 0 000-1.78z" fill="currentColor"/><ellipse cx="119.33" cy="159.77" rx="2.18" ry="1.26" fill="#263238"/><path d="M122.45 152.73a3.41 3.41 0 00-3.08 0 .94.94 0 000 1.78 3.41 3.41 0 003.08 0 .94.94 0 000-1.78z" fill="#263238"/><path d="M136.31 139.39a3.41 3.41 0 00-3.08 0 .94.94 0 000 1.78 3.41 3.41 0 003.08 0 .94.94 0 000-1.78z" fill="currentColor"/><path d="M130.15 143a3.41 3.41 0 00-3.08 0 .94.94 0 000 1.78 3.41 3.41 0 003.08 0 .94.94 0 000-1.78z" fill="#263238"/><path d="M124 146.51a3.41 3.41 0 00-3.08 0 .94.94 0 000 1.78 3.41 3.41 0 003.08 0 .94.94 0 000-1.78z" fill="currentColor"/><path d="M117.83 150.06a3.41 3.41 0 00-3.08 0c-.86.5-.86 1.29 0 1.78a3.41 3.41 0 003.08 0 .94.94 0 000-1.78z" fill="#263238"/><path d="M116.25 156.22a3.41 3.41 0 00-3.08 0 .94.94 0 000 1.78 3.41 3.41 0 003.08 0 .94.94 0 000-1.78z" fill="currentColor"/><path d="M111.63 153.55a3.41 3.41 0 00-3.08 0 .94.94 0 000 1.78 3.41 3.41 0 003.08 0 .94.94 0 000-1.78z" fill="#263238"/><path d="M122.78 168.71v4.73a2.72 2.72 0 001.38-.3l34.35-19.84a2.86 2.86 0 001.31-2.27v-1.71a2.89 2.89 0 00-1.07-2.1c.48.41.4 1-.24 1.34l-34.35 19.83a2.63 2.63 0 01-1.38.32z" fill="#37474f"/><path d="M129.73 131.76a1.17 1.17 0 00-1.48-.31l-29.92 17.22a.89.89 0 00-.27 1.32 1.18 1.18 0 001.48.31l29.88-17.26a.88.88 0 00.31-1.28z" fill="#263238"/><path d="M129.73 131.76a1.17 1.17 0 00-1.48-.31L106 144.24l1.24 1.67 22.21-12.83a.88.88 0 00.28-1.32z" fill="currentColor"/><path d="M127.26 128.45a1.16 1.16 0 00-1.48-.31l-29.92 17.22a.87.87 0 00-.27 1.31 1.16 1.16 0 001.48.31L127 129.77a.88.88 0 00.26-1.32z" fill="#263238"/><path d="M127.26 128.45a1.16 1.16 0 00-1.48-.31l-7.43 4.29 1.24 1.66 7.42-4.28a.88.88 0 00.25-1.36z" fill="currentColor"/><path d="M124.79 125.13a1.16 1.16 0 00-1.48-.31L93.39 142a.89.89 0 00-.27 1.32 1.16 1.16 0 001.48.3l29.88-17.25a.88.88 0 00.31-1.24z" fill="#263238"/><path d="M124.79 125.13a1.16 1.16 0 00-1.48-.31l-15.57 9 1.26 1.58 15.56-9a.88.88 0 00.23-1.27z" fill="currentColor"/><path d="M122.32 121.81a1.16 1.16 0 00-1.48-.3l-29.92 17.21a.88.88 0 00-.27 1.32 1.16 1.16 0 001.48.31L122 123.13a.88.88 0 00.32-1.32z" fill="#263238"/><path d="M122.32 121.81a1.16 1.16 0 00-1.48-.3l-27.16 15.62 1.24 1.66L122 123.13a.88.88 0 00.32-1.32z" fill="currentColor"/><g><path d="M132.4 412.71v7.54a.56.56 0 00.51.55l3.93.24v5.54a.33.33 0 00.19.28l4.15 2.39a1 1 0 00.52.11.83.83 0 00.39-.08l4.2-1.94a1.58 1.58 0 011-.06 24.6 24.6 0 003.26.78.78.78 0 01.61.59l.52 2.76a.69.69 0 00.23.37.62.62 0 00.39.14h6.09a.55.55 0 00.34-.13.19.19 0 00.08-.07.73.73 0 00.09-.08v-.06c0-.06.09-.1.1-.17l.53-2.76a.77.77 0 01.6-.59 24.23 24.23 0 003.26-.78 1.58 1.58 0 011 .06l4.2 1.94a.71.71 0 00.26 0h.15a1 1 0 00.4-.1l4.14-2.39a.41.41 0 00.15-.14.35.35 0 000-.11V421l3.86-.25h.07a.93.93 0 00.1-.05.53.53 0 00.26-.13.41.41 0 00.08-.19c0-.06.08-.11.08-.18v-10.11a.56.56 0 00-.52-.55l-3.93-.25v-5.53a.34.34 0 00-.19-.3l-4.14-2.39a1.14 1.14 0 00-.92 0l-4.2 1.94a1.5 1.5 0 01-1 .06 24.21 24.21 0 00-3.26-.77.79.79 0 01-.6-.59L159 399a.65.65 0 00-.61-.51h-6.09a.66.66 0 00-.62.51l-.52 2.77a.8.8 0 01-.61.59 24.58 24.58 0 00-3.26.77 1.51 1.51 0 01-1-.06l-4.2-1.94a1.11 1.11 0 00-.91 0l-4.14 2.39a.35.35 0 00-.2.3v5.52l-3.93.25a.56.56 0 00-.51.55v2.46a.41.41 0 000 .11zm15.91 2a15.48 15.48 0 0114 0q.44.25.81.51a8.14 8.14 0 01-.81.54 15.46 15.46 0 01-14 0 7.58 7.58 0 01-.81-.53 8.52 8.52 0 01.81-.56z" fill="currentColor"/><path d="M132.39 412.71v7.54a.55.55 0 00.51.54l3.93.25v5.54a.33.33 0 00.19.28l4.15 2.39a1 1 0 00.52.11.83.83 0 00.39-.08l4.2-1.94a1.46 1.46 0 01.4-.1 1.47 1.47 0 01.56 0 24.6 24.6 0 003.26.78.64.64 0 01.26.1.79.79 0 01.35.46l.52 2.76a.63.63 0 00.23.36.62.62 0 00.39.14h6.2a.69.69 0 00.4-.27v-.06c0-.06.09-.1.1-.17l.53-2.76a.7.7 0 01.24-.4.77.77 0 01.36-.18 24.23 24.23 0 003.26-.78 1.69 1.69 0 01.64 0 1.27 1.27 0 01.32.07l4.2 1.94a.71.71 0 00.26 0 1.07 1.07 0 00.65-.1l4.14-2.39.09-.06.07-.09a.27.27 0 000-.12v-5.54l.72-.05 3.14-.2h.07a.55.55 0 00.52-.54v-7a.55.55 0 01-.52.54l-5.52.35a1 1 0 00-.74.5 8.28 8.28 0 01-1.18 1.63.43.43 0 00.07.67l3.28 2.36a.31.31 0 010 .56l-4.14 2.39a1.1 1.1 0 01-.92 0l-4.2-1.94a1.57 1.57 0 00-1-.06 23.87 23.87 0 01-3.26.78.79.79 0 00-.6.59l-.53 2.76a.65.65 0 01-.61.51h-6.09a.66.66 0 01-.62-.51l-.52-2.76a.81.81 0 00-.61-.59 24.6 24.6 0 01-3.26-.78 1.58 1.58 0 00-1 .06l-4.2 1.94a1.07 1.07 0 01-.91 0l-4.08-2.31a.31.31 0 010-.56l3.28-2.36a.45.45 0 00.06-.68 7.89 7.89 0 01-1.17-1.62 1 1 0 00-.75-.5l-5.52-.34a.56.56 0 01-.51-.55v-.62a.43.43 0 000 .11zM136.85 403.82v5.52l1.59-.1a1 1 0 00.75-.5 8.17 8.17 0 011.17-1.62.45.45 0 00-.06-.68l-3.3-2.36a.37.37 0 01-.17-.26z" opacity=".3"/><path d="M147.51 415.19l.35-.25.41-.25a15.48 15.48 0 0114 0l.37.22c.15.1.3.19.44.3 3-2.25 2.76-5.49-.81-7.55a15.4 15.4 0 00-14 0c-3.53 2.04-3.8 5.34-.76 7.53z" opacity=".4"/><path d="M170.26 407.12a8.23 8.23 0 011.18 1.62 1 1 0 00.74.5l1.59.1v-5.53a.39.39 0 01-.17.27l-3.28 2.36a.44.44 0 00-.06.68z" opacity=".3"/><path d="M168.52 401.09l-4.2 1.94a1.5 1.5 0 01-1 .06 24.21 24.21 0 00-3.26-.77.79.79 0 01-.6-.59L159 399a.65.65 0 00-.61-.51h-6.09a.66.66 0 00-.62.51l-.52 2.77a.8.8 0 01-.61.59 24.58 24.58 0 00-3.26.77 1.51 1.51 0 01-1-.06l-4.2-1.94a1.11 1.11 0 00-.91 0l-4.14 2.39a.31.31 0 000 .56l3.28 2.36a.45.45 0 01.06.68 8.17 8.17 0 00-1.17 1.62 1 1 0 01-.75.5l-5.52.35a.56.56 0 00-.51.55v3.08a.56.56 0 00.51.55l5.52.34a1 1 0 01.75.5 8.22 8.22 0 001.17 1.63.44.44 0 01-.06.67l-3.32 2.36a.31.31 0 000 .56l4.14 2.39a1.07 1.07 0 00.91 0l4.2-1.94a1.58 1.58 0 011-.06 24.6 24.6 0 003.26.78.78.78 0 01.61.59l.52 2.76a.66.66 0 00.62.51h6.09a.65.65 0 00.61-.51l.53-2.76a.77.77 0 01.6-.59 24.23 24.23 0 003.26-.78 1.57 1.57 0 011 .06l4.2 1.94a1.1 1.1 0 00.92 0l4.14-2.39a.31.31 0 000-.56l-3.28-2.36a.42.42 0 01-.06-.67 8.22 8.22 0 001.17-1.63 1 1 0 01.74-.5l5.52-.34a.56.56 0 00.52-.55v-3.08a.56.56 0 00-.52-.55l-5.52-.35a1 1 0 01-.74-.5 8.17 8.17 0 00-1.17-1.62.43.43 0 01.06-.68l3.28-2.36a.31.31 0 000-.56l-4.14-2.39a1.14 1.14 0 00-.95-.04zm-6.21 6.55c3.87 2.23 3.87 5.85 0 8.08a15.46 15.46 0 01-14 0c-3.87-2.23-3.87-5.85 0-8.08a15.46 15.46 0 0114 0z" fill="currentColor"/><path d="M173.77 419.55a.35.35 0 00-.16-.28l-1.61-1.19v-3.91a.9.9 0 01.22-.06l5.52-.35a.55.55 0 00.52-.54v7a.55.55 0 01-.52.54h-.07l-3.14.2-.72.05s-.03-1.36-.04-1.46z" fill="currentColor"/><path d="M173.77 419.55a.35.35 0 00-.16-.28l-1.61-1.19v-3.91a.9.9 0 01.22-.06l5.52-.35a.55.55 0 00.52-.54v7a.55.55 0 01-.52.54h-.07l-3.14.2-.72.05s-.03-1.36-.04-1.46z" opacity=".2"/><path d="M164 420.23a1.26 1.26 0 01.31.09l4.2 1.94a1.06 1.06 0 00.54.07v7a.88.88 0 01-.28 0 .71.71 0 01-.26 0l-4.2-1.94a1.29 1.29 0 00-.31-.07z" fill="currentColor"/><path d="M164 420.23a1.26 1.26 0 01.31.09l4.2 1.94a1.06 1.06 0 00.54.07v7a.88.88 0 01-.28 0 .71.71 0 01-.26 0l-4.2-1.94a1.29 1.29 0 00-.31-.07z" opacity=".2"/><path d="M158.89 424.59a.5.5 0 00.08-.2l.53-2.76a.49.49 0 01.08-.21v7a.54.54 0 00-.08.21l-.53 2.76c0 .06-.05.09-.08.14z" fill="currentColor"/><path d="M158.89 424.59a.5.5 0 00.08-.2l.53-2.76a.49.49 0 01.08-.21v7a.54.54 0 00-.08.21l-.53 2.76c0 .06-.05.09-.08.14z" opacity=".2"/><path d="M151.05 421.42a.66.66 0 01.08.21l.52 2.76a1.19 1.19 0 00.08.2v7a1.19 1.19 0 01-.08-.2l-.52-2.76a.64.64 0 00-.08-.19zM141.56 422.33a1.06 1.06 0 00.54-.07l4.2-1.94a1.35 1.35 0 01.32-.09v7a1 1 0 00-.32.08l-4.2 1.94a.83.83 0 01-.39.08h-.15zM132.92 413.77l5.52.34a1 1 0 01.23.06v3.91l-1.67 1.19a.36.36 0 00-.17.28V421l-3.93-.25a.55.55 0 01-.51-.54v-7.54a.43.43 0 010-.11v.62a.56.56 0 00.53.59z" opacity=".15"/><path d="M213.17 391.05v-5.1a.4.4 0 00-.09-.24l-1.55-2.16a.71.71 0 00-.63-.3l-4.06.68a1.3 1.3 0 01-.77-.22 9.1 9.1 0 00-.8-.51V380c0-.13-.12-.25-.32-.3l-4.12-1a.79.79 0 00-.66.12l-2 2.07a.88.88 0 01-.64.2 21.77 21.77 0 00-2.68 0 1.1 1.1 0 01-.73-.32l-1.76-1.77a.79.79 0 00-.68-.25l-4.28 1a.27.27 0 00-.22.28v3.21a9.23 9.23 0 00-1 .61 1.12 1.12 0 01-.7.12l-3.93-.66a.69.69 0 00-.62.18l-1.7 2.37a.15.15 0 000 .11v6.16a.29.29 0 000 .1v5a.41.41 0 00.09.26l1.55 2.16a.74.74 0 00.63.3l4-.69a1.26 1.26 0 01.78.23c.25.17.52.34.8.5v3.21c0 .14.12.26.32.31l4.11 1a.77.77 0 00.67-.13l2-2.07a.88.88 0 01.64-.2 24 24 0 002.68 0 1 1 0 01.72.31l1.77 1.85a.82.82 0 00.68.26l4.28-1a.29.29 0 00.22-.23v-3.26a11.2 11.2 0 001-.6 1 1 0 01.7-.13l3.93.67a.67.67 0 00.62-.19l1.7-2.37a.17.17 0 000-.11v-6.17zm-22.89.13c.19-.13.39-.26.61-.39a11.8 11.8 0 0110.64 0c.21.13.41.25.59.38a5.89 5.89 0 01-.64.42 11.82 11.82 0 01-8.16.92 9.18 9.18 0 01-2.41-.92c-.22-.13-.44-.27-.63-.41z" fill="currentColor"/><path d="M213.17 391.05v-5.1a.4.4 0 00-.09-.24l-1.55-2.16a.71.71 0 00-.63-.3l-4.06.68a1.3 1.3 0 01-.77-.22 9.1 9.1 0 00-.8-.51V380c0-.13-.12-.25-.32-.3l-4.12-1a.79.79 0 00-.66.12l-2 2.07a.88.88 0 01-.64.2 21.77 21.77 0 00-2.68 0 1.1 1.1 0 01-.73-.32l-1.76-1.77a.79.79 0 00-.68-.25l-4.28 1a.27.27 0 00-.22.28v3.21a9.23 9.23 0 00-1 .61 1.12 1.12 0 01-.7.12l-3.93-.66a.69.69 0 00-.62.18l-1.7 2.37a.15.15 0 000 .11v6.16a.29.29 0 000 .1v5a.41.41 0 00.09.26l1.55 2.16a.74.74 0 00.63.3l4-.69a1.26 1.26 0 01.78.23c.25.17.52.34.8.5v3.21c0 .14.12.26.32.31l4.11 1a.77.77 0 00.67-.13l2-2.07a.88.88 0 01.64-.2 24 24 0 002.68 0 1 1 0 01.72.31l1.77 1.85a.82.82 0 00.68.26l4.28-1a.29.29 0 00.22-.23v-3.26a11.2 11.2 0 001-.6 1 1 0 01.7-.13l3.93.67a.67.67 0 00.62-.19l1.7-2.37a.17.17 0 000-.11v-6.17zm-22.89.13c.19-.13.39-.26.61-.39a11.8 11.8 0 0110.64 0c.21.13.41.25.59.38a5.89 5.89 0 01-.64.42 11.82 11.82 0 01-8.16.92 9.18 9.18 0 01-2.41-.92c-.22-.13-.44-.27-.63-.41z" opacity=".3"/><path d="M179.23 386z" fill="currentColor"/><path d="M188.12 382.74c-.33.15-.64.31-.94.48V380a.28.28 0 000 .17l1 2a.38.38 0 01-.06.57z" opacity=".3"/><path d="M183.41 387.81a4 4 0 000 1.34.42.42 0 01-.27.47l-3.7 1.17a.26.26 0 00-.18.24v1.2-.09V386c0 .12.12.23.3.28l3.49 1.11a.49.49 0 01.36.42zM185.72 393v6.18h-.15l-4 .68a.47.47 0 01-.2 0v-6.18a.5.5 0 00.21 0l4.05-.68z" opacity=".15"/><path d="M187.15 400c-.28-.16-.55-.33-.8-.5a1.51 1.51 0 00-.63-.23V393a1.42 1.42 0 01.64.23 12.15 12.15 0 001.64.94c.24.12.37.33.29.49l-1.11 2.2a.3.3 0 000 .1c-.02.16-.03 3.04-.03 3.04z" opacity=".25"/><path d="M194.47 395.94v6.18a.55.55 0 00-.25.14l-2 2.07a.54.54 0 01-.36.14v-6.18a.55.55 0 00.37-.14l2-2.07a.76.76 0 01.24-.14z" opacity=".15"/><path d="M197.8 395.92v6.18a.61.61 0 00-.26 0 24 24 0 01-2.68 0 1 1 0 00-.39.06v-6.18a1.08 1.08 0 01.4-.06 21.78 21.78 0 002.68 0 .59.59 0 01.25 0z" opacity=".25"/><path d="M200.42 398.27v6.18a.86.86 0 01-.39-.23l-1.76-1.85a1.06 1.06 0 00-.47-.27v-6.18a1.16 1.16 0 01.47.27L200 398a.83.83 0 00.42.27z" opacity=".15"/><path d="M205.21 397.05v6.21a.29.29 0 01-.22.23l-4.28 1a.49.49 0 01-.29 0v-6.18a.54.54 0 00.3 0l4.28-1a.25.25 0 00.21-.26z" fill="currentColor"/><path d="M205.21 397.05v6.21a.29.29 0 01-.22.23l-4.28 1a.49.49 0 01-.29 0v-6.18a.54.54 0 00.3 0l4.28-1a.25.25 0 00.21-.26z" opacity=".2"/><path d="M206.59 393.05v6.18a.91.91 0 00-.42.13 11.2 11.2 0 01-1 .6v-3a.41.41 0 00-.05-.17l-1-2a.36.36 0 01.12-.51 11.52 11.52 0 001.9-1.09.87.87 0 01.45-.14z" opacity=".15"/><path d="M213.17 391.06v6.17a.17.17 0 010 .11l-1.7 2.37a.52.52 0 01-.29.17v-6.17a.66.66 0 00.3-.17l1.7-2.38a.21.21 0 00-.01-.1z" fill="currentColor"/><path d="M213.17 391.06v6.17a.17.17 0 010 .11l-1.7 2.37a.52.52 0 01-.29.17v-6.17a.66.66 0 00.3-.17l1.7-2.38a.21.21 0 00-.01-.1z" fill="currentColor"/><path d="M213.17 391.06v6.17a.17.17 0 010 .11l-1.7 2.37a.52.52 0 01-.29.17v-6.17a.66.66 0 00.3-.17l1.7-2.38a.21.21 0 00-.01-.1z" opacity=".2"/><path d="M187.18 380a.37.37 0 000 .16l1 2a.37.37 0 01-.13.52c-.33.15-.64.31-.94.48a9.23 9.23 0 00-1 .61 1.12 1.12 0 01-.7.12l-3.93-.66a.69.69 0 00-.62.18l-1.7 2.37a.15.15 0 000 .11c0 .11.12.21.3.27l3.49 1.11a.49.49 0 01.39.46 4 4 0 000 1.34.42.42 0 01-.27.47l-3.7 1.17a.25.25 0 00-.17.24.49.49 0 00.08.24l1.55 2.16a.76.76 0 00.64.3l4.05-.68a1.2 1.2 0 01.78.22 12.15 12.15 0 001.64.94c.24.12.37.33.29.49l-1.11 2.2c-.08.16.06.33.3.4l4.11 1a.77.77 0 00.67-.13l2-2.07a1 1 0 01.64-.2 24 24 0 002.68 0 1 1 0 01.72.31L200 398a.82.82 0 00.68.26l4.28-1a.29.29 0 00.17-.45l-1-2a.35.35 0 01.13-.51 11.84 11.84 0 001.89-1.09 1 1 0 01.71-.12l3.92.66a.69.69 0 00.63-.19l1.7-2.37a.14.14 0 000-.1v-.1a.47.47 0 00-.27-.19l-3.5-1.1c-.24-.08-.41-.29-.38-.47a4.56 4.56 0 000-1.33.43.43 0 01.27-.48l3.7-1.17a.23.23 0 00.17-.22.4.4 0 00-.09-.24l-1.55-2.16a.71.71 0 00-.63-.3l-4.06.68a1.3 1.3 0 01-.77-.22 9.1 9.1 0 00-.8-.51c-.27-.15-.55-.3-.84-.44s-.38-.33-.3-.48l1.12-2.21a.29.29 0 000-.09c0-.13-.12-.25-.32-.3l-4.12-1a.79.79 0 00-.66.12l-2 2.07a.88.88 0 01-.64.2 21.77 21.77 0 00-2.68 0 1.1 1.1 0 01-.73-.32l-1.67-1.83a.79.79 0 00-.68-.25l-4.28 1a.27.27 0 00-.22.25zm15.55 6.35a1.14 1.14 0 01.11.11l.07.07.15.19c.06.07.11.15.16.22l.09.15v.06a2.65 2.65 0 01-.21 3 4.45 4.45 0 01-1 1 5.89 5.89 0 01-.64.42 11.82 11.82 0 01-8.16.92 9.18 9.18 0 01-2.41-.92c-.22-.13-.44-.27-.63-.41a4.26 4.26 0 01-1.28-1.43.2.2 0 010-.08.36.36 0 010-.09.36.36 0 010-.09 2.66 2.66 0 01.38-2.63c1.59-2.21 6-3.27 9.82-2.35a7.61 7.61 0 013.55 1.87z" fill="currentColor"/></g><g><path d="M236.85 372.18c-.85.49-2.44.47-2.94 1.05v2.08l9.68-1.41 3.66 2.14-1.39 2.96-9.78-.65v2.08a6.19 6.19 0 00.66.42 16.48 16.48 0 0014.92.07c2.09-1.19 3.14-2.76 3.14-4.33v-2.08l-.58.09-.06-.11 36.63-21.15a16.63 16.63 0 0011-1.38 6.13 6.13 0 002.94-3.13v-2.13l-9.68 3.49-3.66-2.14 1.39-2.91 9.78-1.43v-2.09s-11.43-.76-15.58 1.6a6.89 6.89 0 00-2.59 2.39l-.55-.2v2.07a4 4 0 00.64 2.17l-36.61 21.15a16.6 16.6 0 00-11.02 1.38z" fill="#37474f"/><path fill="#37474f" d="M290.79 353.29l.01-2.09-36.64 21.15v2.09l36.63-21.15z"/><path d="M284.51 347.57l-36.63 21.15a16.57 16.57 0 00-11 1.38 6.1 6.1 0 00-2.94 3.13l9.68-1.42 3.66 2.15-1.39 2.91-9.78 1.43c.21.14.42.28.66.42a16.48 16.48 0 0014.92.06c3-1.73 3.87-4.26 2.5-6.43l36.63-21.15a16.57 16.57 0 0011-1.38 6.12 6.12 0 002.94-3.12l-9.68 1.41-3.66-2.11 1.39-2.9 9.78-1.44-.66-.42a16.51 16.51 0 00-14.92-.06c-3.01 1.69-3.87 4.22-2.5 6.39z" fill="#455a64"/><path fill="#263238" d="M292.2 346.42l-.78-.46 1.39-2.9 9.78-1.44v2.09l-9.78 1.43-.61 1.28zM246.47 375.59l.78-1.63-3.66-2.15-9.68 1.42v2.08l9.68-1.41 2.88 1.69z"/></g><g><path d="M259.26 403l7.66 13.26 25.83-14.91c1.06-.53 1.73-1.77 1.73-3.58a12 12 0 00-5.42-9.38 3.82 3.82 0 00-3.84-.38z" fill="currentColor"/><path d="M257.72 405.71c-.11 2-3 2.45-3 2.45l5.41 9.38s1.81-2.22 3.62-1.34c2.67 1.16 4.74-.28 4.74-3.46a12 12 0 00-5.42-9.39c-2.74-1.6-5.01-.53-5.35 2.36z" fill="currentColor"/><path d="M257.72 405.71c-.11 2-3 2.45-3 2.45l5.41 9.38s1.81-2.22 3.62-1.34c2.67 1.16 4.74-.28 4.74-3.46a12 12 0 00-5.42-9.39c-2.74-1.6-5.01-.53-5.35 2.36z" opacity=".05"/><path d="M256 407.76a5.79 5.79 0 01-1.29.4l5.41 9.38a6 6 0 011-.91 12.1 12.1 0 00-5.12-8.87z" opacity=".05"/><path d="M249.11 408.82l.45.79a5.69 5.69 0 00-.23 1.68 12 12 0 005.42 9.38 5.36 5.36 0 001.57.64l.45.78 1.81-1a3.81 3.81 0 001.58-3.51 12 12 0 00-5.41-9.38 3.81 3.81 0 00-3.83-.38z" fill="currentColor"/><path d="M258.36 418.59a12 12 0 00-5.42-9.39c-3-1.73-5.42-.32-5.42 3.13a12 12 0 005.42 9.38c2.99 1.73 5.42.29 5.42-3.12z" fill="currentColor"/><path d="M258.36 418.59a12 12 0 00-5.42-9.39c-3-1.73-5.42-.32-5.42 3.13a12 12 0 005.42 9.38c2.99 1.73 5.42.29 5.42-3.12z" opacity=".15"/><path d="M250.83 420a10.68 10.68 0 001.34 1.2l1.27-3.61-1.53-1.13z" opacity=".15"/><path d="M290.07 394a1.49 1.49 0 01-.55 2l-18.45 10.65a1.49 1.49 0 01-2-.55 1.49 1.49 0 01.55-2L288 393.47a1.49 1.49 0 012.07.53zM286.74 390.05a.87.87 0 01-.07 1.53l-18.79 10.85a2.06 2.06 0 01-2.18-.23.88.88 0 01.07-1.54l18.8-10.85a2 2 0 012.17.24zM291.84 398.89a.87.87 0 00-1.36-.71L271.68 409a2.06 2.06 0 00-.88 2 .87.87 0 001.36.71L291 400.89a2.05 2.05 0 00.84-2z" opacity=".2"/><path d="M205.43 440.47v3.61l9-2.93s1.81-3.32 3.61-4.37L252.39 417l1.05-3-1.05-.61-34.32 19.81a3.61 3.61 0 01-3.61-.19z" fill="#455a64"/><path d="M206.49 441.08v3.61l9-2.93s1.81-3.32 3.61-4.36l34.31-19.81V414l-34.31 19.81a3.59 3.59 0 01-3.61-.19z" fill="#37474f"/><path fill="#263238" d="M206.49 444.69l-1.06-.61v-3.61l1.06.61v3.61z"/><path fill="#455a64" d="M205.43 440.47l1.06.61 9.03-7.49-1.06-.61-9.03 7.49z"/></g><g><path d="M357.56 210c5.84-6 16.41-19.63 16.41-19.63l6-20.71c.15.06-3.05.07-4 0-6.46.43-8.36 1-12.38 5.38-3.19 3.49-15.36 20.12-19.6 25.71l-11.23-14.31c-2.69-4.07-2.25-8.62-3.65-11.94s-3.65-4.79-5.46-7.8-2.24-5-3.72-3.43.23 5.68.45 6.62 2.48 3.75-1.3 2.29-9.62-8.37-11.13-9.79-2.3.78-2 2.51-1.28 5.63-.69 8.49c.62 3 1.07 4.43 4 7.38 2.72 2.75 9.4 6.11 12 9.72s8.18 14.81 11.59 21.56c4.32 8.58 8 11.41 12.88 8.52s9.66-8.34 11.83-10.57z" fill="#ffa8a7"/><path d="M378.05 169.46a21.46 21.46 0 00-9.74 1.33c-3.51 1.58-5.89 5-9.31 9.56S347 196 347 196a25.79 25.79 0 0110.42 14.65l20.9-23.1z" fill="#e0e0e0"/><path d="M344 200.76a13.6 13.6 0 014 7.54s1.26-4.15-3.11-8.82z" fill="#f28f8f"/><path d="M398.16 169.39c2.27.55 8.37 1.33 12.39 2.48 3 .85 6 4.53 6.58 7.25 2 8.71.22 14.19-.52 21.82s-.79 45.7-.79 45.7c-4.23 8.26-36.28 9.94-51.79-1.39 0 0 1.9-50.68 1.9-58.57s4.38-17.36 16.48-18.07z" fill="#f5f5f5"/><path d="M384.46 144.43a1.68 1.68 0 101.67-1.74 1.71 1.71 0 00-1.67 1.74zM386.13 138.77l3.46 1.91a2.07 2.07 0 00-.8-2.75 1.93 1.93 0 00-2.66.84z" fill="#263238"/><path d="M384.88 154.65L381 156.1a2 2 0 002.63 1.29 2.17 2.17 0 001.25-2.74z" fill="#f28f8f"/><path d="M371.1 140.16l3.15-2.43a1.91 1.91 0 00-2.74-.42 2.09 2.09 0 00-.41 2.85zM371.81 144.43a1.62 1.62 0 101.62-1.68 1.65 1.65 0 00-1.62 1.68z" fill="#263238"/><path fill="#f28f8f" d="M380.58 141.64l-.55 10.18-5.32-1.81 5.87-8.37z"/><path d="M384.48 142.09l23.81-1.76c4.61 3.49 13.17 10.83 13.16 12.86v1.41a.48.48 0 01-.05.18c-.84 1.6-3.88 2.59-8.61 2.67-5.61.09-14.32-.42-16.61-2.39-3.44-3-11.7-11.63-11.7-11.63l1.2-.09z" fill="currentColor"/><path d="M384.48 142.09l23.81-1.76c4.61 3.49 13.17 10.83 13.16 12.86v1.41a.48.48 0 01-.05.18c-.84 1.6-3.88 2.59-8.61 2.67-5.61.09-14.32-.42-16.61-2.39-3.44-3-11.7-11.63-11.7-11.63l1.2-.09z" opacity=".2"/><path d="M408.29 141.67c4.81 3.65 14 11.5 13.11 13.11s-3.88 2.59-8.61 2.67c-5.61.09-14.32-.42-16.61-2.39-3.44-3-11.7-11.63-11.7-11.63z" fill="currentColor"/><path d="M408.29 141.67c4.81 3.65 14 11.5 13.11 13.11s-3.88 2.59-8.61 2.67c-5.61.09-14.32-.42-16.61-2.39-3.44-3-11.7-11.63-11.7-11.63z" opacity=".4"/><path d="M408.29 141.67c.08.69-2.35 2.13-2.35 2.13l.68-4.18z" fill="currentColor"/><path d="M408.29 141.67c.08.69-2.35 2.13-2.35 2.13l.68-4.18z" opacity=".3"/><path d="M402 127.76s3.72.52 5.09 3.32c1.18 2.44.76 8.33-.83 14.75a59.07 59.07 0 01-4 12 4.9 4.9 0 01-2.84 2.28l.19-7.62.28-5.3s-3.41-4.65-3.78-8.46c-.49-4.91.55-6.91.55-6.91z" fill="#263238"/><path d="M396 135.13a14.22 14.22 0 01-14.26 14.17c-7.85 0-13.74-6.47-13.71-14.32s5.95-14.14 13.8-14.11A14.22 14.22 0 01396 135.13z" fill="#263238"/><path d="M399.71 146.39c1.28 1.11 2.32-1.76 3.4-2.88s4.59-2.64 6.32 1.05-1.53 9-4.23 10.07a3.84 3.84 0 01-4.58-1.4v16.87c-4 7.29-11.18 7.07-15 6.65s-4.65-4.37-1.86-7.57v-5.22a30.05 30.05 0 01-6.41.31c-3.49-.55-5.32-3.19-6.36-7-1.69-6.08-2.36-16.3 0-28.11 3.91-3 17.48-2.53 25.69 2.68-.59 10.5 1.76 13.44 3.03 14.55z" fill="#ffa8a7"/><path d="M372.46 124a16.75 16.75 0 015.77-4 14.62 14.62 0 015.55-1.18c2.48 0 5-.37 7.43-.29 4.3.14 9.5 1.89 11.44 6.07.89 1.92 1 3.94-.72 5.26a12.14 12.14 0 01-5.24 2c-3.19.55-6.35 1.25-9.56 1.68a28.57 28.57 0 01-10.35-.15 13.61 13.61 0 01-4.5-1.92 12 12 0 01-1.94-1.62c-.23-.23-.84-.71-.91-1s.34-1 .51-1.26a15.87 15.87 0 012.52-3.59z" fill="#263238"/><path d="M383.79 164s7.81-1.54 10.54-3a9 9 0 003.78-3.72 12.37 12.37 0 01-2.15 4.39c-2 2.54-12.18 4.39-12.18 4.39z" fill="#f28f8f"/><path d="M385.9 143.76a1.65 1.65 0 101.65-1.71 1.68 1.68 0 00-1.65 1.71z" fill="#263238"/><path d="M382.14 156.42a1.65 1.65 0 101.65-1.71 1.67 1.67 0 00-1.65 1.71z" fill="#f28f8f"/><path d="M388.15 137.39l3.17 2.48A2.12 2.12 0 00391 137a2 2 0 00-2.85.39zM371.31 139.92l3.06-2.66a2 2 0 00-2.82-.27 2.14 2.14 0 00-.24 2.93zM372.35 143.27a1.65 1.65 0 101.65-1.71 1.68 1.68 0 00-1.65 1.71z" fill="#263238"/><path fill="#f28f8f" d="M381.39 140.45l-.62 11.68-5.54-1.46 6.16-10.22z"/><path d="M409.31 135.88a20.63 20.63 0 01-1 5.91 7.23 7.23 0 00-1.46-1.65 35 35 0 00-10.72-6.14c-9-3.48-19.5-4-27.89-1.06a18.87 18.87 0 011.12-5c3.06-8 9.25-12.15 19.13-11.12 11.57 1.18 21.13 7.6 20.82 19.06z" fill="currentColor"/><path d="M388.1 128.83c-2.69-.91-9.55-1.44-11.55-.81a12.35 12.35 0 01-2.41-2.66c-.94-1.49-.62-3.36.26-3.75s.94.78 4.35 2.47a5.68 5.68 0 01-.28-3.45c.56-1.38 1.73 1.1 4.27 2.71s5.04 2.41 5.36 5.49z" fill="#263238"/><path d="M423.2 162.72c2.24-1.84 15.82 14.25 10.14 18.88s-12.62-7-11.68-12.74 1.54-6.14 1.54-6.14z" fill="#37474f"/><path d="M434.12 153.68c-3.4-4.17-12.43-14.19-14.43-16s-3.2-1.57-4.44-2a10.28 10.28 0 01-3.71-2.32 22.53 22.53 0 01-1.79-2.1A32.4 32.4 0 00403 125c-2.68-1.85-5.62-3.22-8.36-5-1.64-1.05-3.42-2.82-1.56-4.63a4.48 4.48 0 012-1.07c4.65-1.22 8.81.22 13.45 1.2a39.46 39.46 0 015.93 1.73 10.13 10.13 0 012.65 1.38 36.9 36.9 0 014.35 4.4c3.19 3.91 5.89 5.12 9 7.83 3.67 3.17 20.12 14.8 23.59 18.26 2.88 2.87 2 5.24 1.62 6.06-2.05 4.71-4.49 6.46-7.37 9.44-.95 1-1.91 2-2.87 3-3.74 3.79-7.5 7.36-11.4 11-4.16 3.88-5.86 5.74-9.57 9.48a29.41 29.41 0 00-5.6 8.27c-6.71 1.53-11.29-12.67-8.89-20.9a10.64 10.64 0 013.9-5.13c6.84-5.46 20.25-16.64 20.25-16.64z" fill="#ffa8a7"/><path d="M434.12 153.68a17.86 17.86 0 008.51 5.34s-4.27 1.28-10.4-3.77z" fill="#f28f8f"/><path d="M410.55 171.87c1.53-1.2 5.25-3.76 12.65-9.15 0 0-1 2.56 1.21 8.7s6.42 9.88 8.93 10.18c0 0-4.11 3.66-7.85 7.74s-6.85 7-8.88 11.6c0 0-5.77-1.12-7.62-10.66-1.31-6.7-1.24-14.65 1.56-18.41z" fill="#e0e0e0"/><path d="M397.62 415.78c-.36.38-.13 3.14.32 3.77s3 2.73 7.64 2.81c4.45.08 8.38-.73 10.9-2.53s3.67-3.68 3.78-6.22-.3-5 .8-7c1-1.85 2.4-3.68 2.74-4.68a12.73 12.73 0 000-5.43z" fill="#263238"/><path d="M408.42 394.36a11.7 11.7 0 01-.39 2.84 25.51 25.51 0 01-2.42 5.7 23.18 23.18 0 01-1.7 2.71c-1.26 1.67-2.86 3.07-4.19 4.67a9.08 9.08 0 00-2.45 5.59c0 3.49 3.84 4.47 6.77 4.83a21.34 21.34 0 009.42-1 8.69 8.69 0 006-7.27c.11-1 0-2 .06-2.94a13.73 13.73 0 012.37-6.23 18.23 18.23 0 001.9-3.42c.79-2.2-.06-4.59-.76-6.7-.6-1.83-1.08-4-1.72-3.82v1.19c-.2.42-.66.72-.77 1.19a8.22 8.22 0 01-.45 1.46 3.77 3.77 0 01-1.45 1.79c-.12-1.31-.23-2.62-.35-3.93a1.79 1.79 0 00-.36-1.14 1.81 1.81 0 00-1.14-.42 24.67 24.67 0 00-7.47-.22 1.35 1.35 0 00-1 .49 1.44 1.44 0 00-.11.9 36 36 0 01.21 3.73z" fill="currentColor"/><path d="M408.42 394.36a11.7 11.7 0 01-.39 2.84 25.51 25.51 0 01-2.42 5.7 23.18 23.18 0 01-1.7 2.71c-1.26 1.67-2.86 3.07-4.19 4.67a9.08 9.08 0 00-2.45 5.59c0 3.49 3.84 4.47 6.77 4.83a21.34 21.34 0 009.42-1 8.69 8.69 0 006-7.27c.11-1 0-2 .06-2.94a13.73 13.73 0 012.37-6.23 18.23 18.23 0 001.9-3.42c.79-2.2-.06-4.59-.76-6.7-.6-1.83-1.08-4-1.72-3.82v1.19c-.2.42-.66.72-.77 1.19a8.22 8.22 0 01-.45 1.46 3.77 3.77 0 01-1.45 1.79c-.12-1.31-.23-2.62-.35-3.93a1.79 1.79 0 00-.36-1.14 1.81 1.81 0 00-1.14-.42 24.67 24.67 0 00-7.47-.22 1.35 1.35 0 00-1 .49 1.44 1.44 0 00-.11.9 36 36 0 01.21 3.73z" opacity=".2"/><path d="M405.18 403.66c1.25-1 4.15-1.21 5.74-1.13a9.74 9.74 0 014.6 1.34 1 1 0 001.32-.18 1 1 0 00-.18-1.47 9.77 9.77 0 00-5.17-1.61c-3.92-.06-5 .67-5 .67s-1.75 1.24-1.31 2.38zM402.4 407.38c1.57-1.05 4.77-1.08 6.37-1a9.15 9.15 0 014.48 1.43 1 1 0 001.32-.17 1 1 0 00-.18-1.48 10.2 10.2 0 00-5.29-1.75c-3.92-.06-4.9.79-4.9.79a3.24 3.24 0 00-1.8 2.18zM412.84 396.79a9.65 9.65 0 00-4.88.68c-.67.42-1.07 1.53-.61 1.79a9 9 0 014.32-.84 13 13 0 014.28.94 11.77 11.77 0 011.11.49.93.93 0 001.26-.47.87.87 0 00-.4-1.1 12.54 12.54 0 00-5.08-1.49z" fill="#455a64"/><path d="M343.7 401.82a4.22 4.22 0 00.34 3.08c.48.88 5.36 3.3 11.71 2.52a26.56 26.56 0 0012.95-5.32c2.35-1.74 4.86-2.18 8-2.53s5.52-1.45 6.13-3-.32-4-.32-4z" fill="#263238"/><path d="M368.47 381.6a13.6 13.6 0 01-1.69-.48 1.42 1.42 0 00-.95-.06 1.4 1.4 0 00-.62 1.1 16.25 16.25 0 01-.55 2.81 6.92 6.92 0 01-1.69 2 28.79 28.79 0 01-4.93 3.57c-2 1.23-4 2.21-6.12 3.3s-5 1.86-6.68 3.11c-2.41 1.82-2.51 6.08.43 7.6 2.54 1.32 9.1 2.53 15.79.24 3.65-1.24 7.54-5.42 12.38-6.06 3.07-.41 7.17-.89 9-3.34.67-1.08.08-4.09-.47-7.66-.49-3.2-.94-8.2-2-7.87 0 0-.38 1.18-.45 1.31a9.65 9.65 0 01-.85 1.14 11.13 11.13 0 01-.87.82 12.79 12.79 0 01-1.09 1.12 3.11 3.11 0 01-1.78.74 1.71 1.71 0 01-.89-.19c-.53-.3-.6-1-1-1.42a5.07 5.07 0 00-1.72-1.12 9.48 9.48 0 00-2.79-.56z" fill="currentColor"/><path d="M368.47 381.6a13.6 13.6 0 01-1.69-.48 1.42 1.42 0 00-.95-.06 1.4 1.4 0 00-.62 1.1 16.25 16.25 0 01-.55 2.81 6.92 6.92 0 01-1.69 2 28.79 28.79 0 01-4.93 3.57c-2 1.23-4 2.21-6.12 3.3s-5 1.86-6.68 3.11c-2.41 1.82-2.51 6.08.43 7.6 2.54 1.32 9.1 2.53 15.79.24 3.65-1.24 7.54-5.42 12.38-6.06 3.07-.41 7.17-.89 9-3.34.67-1.08.08-4.09-.47-7.66-.49-3.2-.94-8.2-2-7.87 0 0-.38 1.18-.45 1.31a9.65 9.65 0 01-.85 1.14 11.13 11.13 0 01-.87.82 12.79 12.79 0 01-1.09 1.12 3.11 3.11 0 01-1.78.74 1.71 1.71 0 01-.89-.19c-.53-.3-.6-1-1-1.42a5.07 5.07 0 00-1.72-1.12 9.48 9.48 0 00-2.79-.56z" opacity=".2"/><path d="M360.83 388.68A2.87 2.87 0 01363 387c1.39-.34 3.93.56 5.54 1.75a1.15 1.15 0 01-.06 1.91 1.14 1.14 0 01-1.32-.07 8.79 8.79 0 00-6.33-1.91zM356.61 391.35a3.3 3.3 0 012.63-1.54s3.67-.09 6.06 1.9a1.13 1.13 0 01-.06 1.85 1.08 1.08 0 01-1.27-.08 8.9 8.9 0 00-7.36-2.13zM351.92 393.81a3.69 3.69 0 012.74-1.41 9.86 9.86 0 015.81 1.94 1.13 1.13 0 01-.06 1.85 1.12 1.12 0 01-1.27-.08 8.42 8.42 0 00-7.22-2.3zM362.17 243.55c-.17 14.61.77 63.89 1.09 71.24.28 6.44 1.4 69.82 1.4 69.82 7.38 2.29 17.48-.08 17.48-.08s5.14-39.53 5.47-46.53a119.81 119.81 0 00-1-19.28l3.78-40.33s4.13 30.2 6.12 43.42c2.28 15.15 10.81 73.17 10.81 73.17 6.79 2.64 16.3-1.11 16.3-1.11s-.49-45.14-1.17-60.48c-.48-10.59-3.43-15.74-3.75-18.68 0 0-1.47-55-1.63-68.94-.1-9.34-1.11-19.6-1.11-19.6s-10.2.82-11.1-2.15 0-31.52.38-37.07c0 0-21.44-4.77-40-1.25.01-.04-2.89 43.24-3.07 57.85z" fill="#455a64"/><path d="M405.31 232c-.11 9.71 1.6 15.74 4.18 17.84s7.66 1.94 7.66 1.94v-1.45s-4.8.71-6.95-1.54-4.11-5.49-4.89-16.79zM372.31 196s11.13 0 21.66.72c0 0 .07 8.13-.84 11.09s-7.92 7.39-10.83 7.38c-2.52 0-9.53-5-10.08-7.62s.09-11.57.09-11.57zM390.37 278.35l-1-6.24c-3-.45-10.73-5.25-15.29-9.45a36.22 36.22 0 0012.79 11.78l.32 39.8zM410.55 171.87c-2-.51-3.13-.09-4.14 2.44s-2.17 10.75-2.56 18.44c0 0-4.63.84-7.84-.52 0 0 .39-10.1 1.47-15.31a18.61 18.61 0 011.5-4.44 4.64 4.64 0 015-2.53l7.32 1.34z" fill="#37474f"/><path d="M401.79 189.35a1.82 1.82 0 11-1.82-1.82 1.82 1.82 0 011.82 1.82z" fill="currentColor"/><path d="M383.76 169.18a8.43 8.43 0 00-7.44 5.13c-1.51 3.84-1.52 12.36-1.61 16.59a10.1 10.1 0 01-7.19 0s0-13.41 2.29-17.85 6.7-4.71 9-4.88a41.71 41.71 0 014.93 0z" fill="#37474f"/><path d="M373.13 187.93a1.82 1.82 0 11-1.82-1.82 1.82 1.82 0 011.82 1.82z" fill="currentColor"/></g><g><path d="M220.56 123.12c.27.39.58.79.91 1.2a3.65 3.65 0 001.2 1 3.49 3.49 0 001.71.33 5.26 5.26 0 002.35-.81 10.8 10.8 0 002.34-1.86 13.47 13.47 0 002-2.64 14.18 14.18 0 001.38-3.24 13.43 13.43 0 00.5-3.72c0-2-.52-3.42-1.56-4.12s-2.46-.52-4.25.52a6.7 6.7 0 00-1.56 1.26c-.49.52-.94 1-1.35 1.54l-1.14 1.42a3.47 3.47 0 01-.89.87l-9.15 5.29a.91.91 0 01-1.18 0 1.85 1.85 0 01-.41-1.48l1.76-33.29a5.72 5.72 0 01.5-2 2.89 2.89 0 011.09-1.39l25.12-14.51a.86.86 0 011.12.08 1.94 1.94 0 01.47 1.45v9.58a4.71 4.71 0 01-.47 2 2.91 2.91 0 01-1.12 1.36l-17.08 9.84-.41 8.28a21.2 21.2 0 012.44-2.9 14.35 14.35 0 013-2.33 15.18 15.18 0 016.31-2.2 7.62 7.62 0 015 1.24 9.55 9.55 0 013.35 4.76 24.94 24.94 0 011.2 8.43 39.65 39.65 0 01-1.32 10.34 40.32 40.32 0 01-3.64 9.11 35.8 35.8 0 01-5.43 7.43 30.63 30.63 0 01-6.69 5.31 17.17 17.17 0 01-7.14 2.53 8.28 8.28 0 01-5.31-1.18 9 9 0 01-3.35-4.21 17.42 17.42 0 01-1.23-6.47 3.8 3.8 0 01.38-1.62 2.52 2.52 0 01.91-1.12l7.46-4.3c.62-.36 1.1-.46 1.44-.29a1.84 1.84 0 01.74.51zM266.23 51.38q4.41-2.54 7.57-2.38a7.59 7.59 0 015.26 2.3 13.3 13.3 0 013.11 6 38.92 38.92 0 011.2 8.66q.12 3.83.12 8.07t-.12 8a60.14 60.14 0 01-1.2 10.05 43.56 43.56 0 01-3.11 9.61 37.46 37.46 0 01-5.26 8.37 27.9 27.9 0 01-7.57 6.36c-2.93 1.69-5.46 2.49-7.57 2.38a7.51 7.51 0 01-5.25-2.3 13.25 13.25 0 01-3.12-6 40 40 0 01-1.2-8.66Q249 98.23 249 94t.12-8.21a62.05 62.05 0 011.2-10 43.67 43.67 0 013.12-9.62 37.06 37.06 0 015.25-8.37 28.05 28.05 0 017.54-6.42zm6.28 36.51q.24-7.81 0-15.19a27.71 27.71 0 00-.44-3.9 6.86 6.86 0 00-1-2.71 2.6 2.6 0 00-1.9-1.09 5.06 5.06 0 00-2.94.89 10 10 0 00-2.93 2.5 12.82 12.82 0 00-1.88 3.3 20.17 20.17 0 00-1.06 3.91A32.37 32.37 0 00260 80q-.3 7.67 0 15.18a25.69 25.69 0 00.38 3.94 6.45 6.45 0 001.06 2.68 2.66 2.66 0 001.91 1.12 5 5 0 002.93-.88 10.28 10.28 0 002.94-2.51 13.43 13.43 0 001.91-3.32 17.28 17.28 0 001.05-3.91 33.37 33.37 0 00.33-4.41zM306.62 28.07c2.93-1.7 5.46-2.49 7.57-2.39a7.66 7.66 0 015.26 2.3 13.55 13.55 0 013.11 6 39.51 39.51 0 011.2 8.66q.12 3.83.12 8.07c0 2.83 0 5.51-.12 8a61.2 61.2 0 01-1.2 10 44.64 44.64 0 01-3.11 9.61 37.36 37.36 0 01-5.26 8.37 27.87 27.87 0 01-7.57 6.36c-2.94 1.7-5.46 2.49-7.57 2.39a7.64 7.64 0 01-5.26-2.3 13.45 13.45 0 01-3.11-6 39.51 39.51 0 01-1.2-8.66q-.12-3.64-.12-7.89c0-2.83 0-5.57.12-8.2a61.2 61.2 0 011.2-10.05 44.35 44.35 0 013.11-9.62 37.17 37.17 0 015.26-8.36 27.55 27.55 0 017.57-6.29zm6.28 36.5q.24-7.81 0-15.19a29.28 29.28 0 00-.44-3.9 6.75 6.75 0 00-1-2.7 2.55 2.55 0 00-1.88-1.13 5 5 0 00-2.93.88 10.12 10.12 0 00-2.97 2.47 13.08 13.08 0 00-1.88 3.3 19.88 19.88 0 00-1.05 3.9 32.37 32.37 0 00-.41 4.4q-.3 7.67 0 15.18a24.49 24.49 0 00.38 3.94 6.36 6.36 0 001.06 2.69 2.68 2.68 0 001.9 1.11 5 5 0 002.94-.88 10.08 10.08 0 002.93-2.51 13.23 13.23 0 001.91-3.31 18 18 0 001.06-3.82 35.52 35.52 0 00.38-4.43z" fill="currentColor"/><path d="M243.26 179.32a.29.29 0 01.39 0 .68.68 0 01.17.51v3.4a1.64 1.64 0 01-.17.7 1.06 1.06 0 01-.39.49l-9.87 5.69a.29.29 0 01-.39 0 .68.68 0 01-.17-.51v-20.7a1.64 1.64 0 01.17-.7 1.06 1.06 0 01.39-.49l9.7-5.6a.32.32 0 01.4 0 .69.69 0 01.16.51v3.4a1.62 1.62 0 01-.16.7 1.14 1.14 0 01-.4.49l-6.41 3.7v3.46l5.95-3.44a.33.33 0 01.4 0 .7.7 0 01.16.52v3.39a1.66 1.66 0 01-.16.71 1 1 0 01-.4.48l-5.95 3.44v3.59zM252.41 156.73a7.56 7.56 0 012.46-1 2.66 2.66 0 011.84.29 2.87 2.87 0 011.17 1.61 9.39 9.39 0 01.4 3 13.87 13.87 0 01-.64 4.36 11.55 11.55 0 01-1.83 3.48l2.58 6.13a.91.91 0 01.06.32 1.33 1.33 0 01-.14.57.84.84 0 01-.32.4l-2.83 1.63c-.28.16-.47.18-.59.06a1.62 1.62 0 01-.28-.42l-2.29-5.47-1.92 1.11v6.85a1.54 1.54 0 01-.17.71 1.08 1.08 0 01-.39.48l-2.73 1.58a.31.31 0 01-.39 0 .71.71 0 01-.17-.52v-20.72a1.68 1.68 0 01.17-.71 1.08 1.08 0 01.39-.48zm-2.35 11.07l2.35-1.36a4.46 4.46 0 001.45-1.35 3.83 3.83 0 00.57-2.19c0-.89-.19-1.4-.57-1.52a1.81 1.81 0 00-1.45.32l-2.35 1.36zM266.88 148.38a7.43 7.43 0 012.45-1 2.65 2.65 0 011.84.29 2.87 2.87 0 011.17 1.61 9.36 9.36 0 01.41 3 13.86 13.86 0 01-.65 4.36 11.33 11.33 0 01-1.83 3.48l2.58 6.13a.91.91 0 01.06.32 1.31 1.31 0 01-.13.57.8.8 0 01-.33.4l-2.83 1.63c-.27.16-.47.18-.59.06a1.62 1.62 0 01-.28-.42l-2.31-5.52-1.92 1.11v6.85a1.66 1.66 0 01-.16.71 1 1 0 01-.4.48l-2.72 1.57a.31.31 0 01-.4 0 .71.71 0 01-.17-.52v-20.66a1.68 1.68 0 01.17-.71 1 1 0 01.4-.48zm-2.36 11.07l2.36-1.36a4.42 4.42 0 001.44-1.35 3.83 3.83 0 00.57-2.19c0-.89-.19-1.4-.57-1.52a1.79 1.79 0 00-1.44.32l-2.36 1.36zM274.66 152.25a17.82 17.82 0 01.51-3.67 16.31 16.31 0 011.27-3.49 14.33 14.33 0 012-3 10.27 10.27 0 012.71-2.26 5.43 5.43 0 012.71-.87 3 3 0 012 .69 4.47 4.47 0 011.28 2 11.08 11.08 0 01.5 3.08c0 .91.05 1.86.05 2.86s0 1.95-.05 2.85a18.61 18.61 0 01-.5 3.67 16.62 16.62 0 01-1.28 3.5 13.54 13.54 0 01-2 3 10.55 10.55 0 01-2.71 2.24 5.61 5.61 0 01-2.71.89 2.91 2.91 0 01-2-.7 4.6 4.6 0 01-1.27-2 10.78 10.78 0 01-.51-3.09v-2.79c0-1-.03-1.98 0-2.91zm9.14.27v-1.31-1.45-1.42-1.2a5.57 5.57 0 00-.23-1.35 2 2 0 00-.49-.88 1.16 1.16 0 00-.8-.33 2.41 2.41 0 00-1.13.36 4.41 4.41 0 00-1.12.94 5.43 5.43 0 00-.8 1.25 6.79 6.79 0 00-.5 1.46 9.21 9.21 0 00-.22 1.6c0 .38-.05.8-.05 1.26v2.87c0 .44 0 .88.05 1.25a3.51 3.51 0 00.72 2.25q.63.69 1.92-.06a4.6 4.6 0 001.92-2.16 9.15 9.15 0 00.73-3.08zM296.28 131.4a7.47 7.47 0 012.46-1 2.66 2.66 0 011.84.29 2.85 2.85 0 011.16 1.62 9 9 0 01.41 3 13.87 13.87 0 01-.64 4.36 11.35 11.35 0 01-1.84 3.48l2.58 6.14a.87.87 0 01.07.31 1.34 1.34 0 01-.14.58.86.86 0 01-.32.39l-2.86 1.68c-.28.16-.48.17-.6.05a1.53 1.53 0 01-.27-.41l-2.32-5.53-1.91 1.11v6.85a1.65 1.65 0 01-.17.71 1 1 0 01-.39.48l-2.73 1.58a.29.29 0 01-.39 0 .66.66 0 01-.17-.51v-20.7a1.48 1.48 0 01.17-.7 1.06 1.06 0 01.39-.49zm-2.35 11.07l2.35-1.36a4.25 4.25 0 001.45-1.35 3.82 3.82 0 00.57-2.18q0-1.35-.57-1.53a1.85 1.85 0 00-1.45.32l-2.35 1.36zM210.63 172a.17.17 0 01-.23 0 .4.4 0 01-.09-.29v-12a1 1 0 01.09-.4.7.7 0 01.23-.29l1.58-.9a.16.16 0 01.22 0 .38.38 0 01.1.3v12a.88.88 0 01-.1.41.6.6 0 01-.22.28zM220 166.6a.29.29 0 01-.33 0 .59.59 0 01-.16-.17l-2.75-4.74V168a1 1 0 01-.1.41.55.55 0 01-.23.28l-1.57.91a.18.18 0 01-.23 0 .39.39 0 01-.1-.3v-12a.85.85 0 01.1-.4.55.55 0 01.23-.28l1.25-.73a.31.31 0 01.33 0 .49.49 0 01.16.17l2.75 4.74v-6.26a.91.91 0 01.1-.41.6.6 0 01.23-.28l1.57-.91a.18.18 0 01.23 0 .38.38 0 01.1.3v11.95a.88.88 0 01-.1.41.6.6 0 01-.23.28zM229.72 148a.18.18 0 01.23 0 .41.41 0 01.09.3v2a1 1 0 01-.09.41.67.67 0 01-.23.28l-2.12 1.22v9.49a1 1 0 01-.09.41.67.67 0 01-.23.28l-1.58.91a.18.18 0 01-.23 0 .41.41 0 01-.09-.3v-9.49l-2.12 1.22a.17.17 0 01-.22 0 .39.39 0 01-.1-.3v-2a.88.88 0 01.1-.41.59.59 0 01.22-.28zM237.45 153.56a.17.17 0 01.23 0 .41.41 0 01.09.3v2a1 1 0 01-.09.41.67.67 0 01-.23.28l-5.7 3.29a.18.18 0 01-.23 0 .41.41 0 01-.09-.3v-12a1 1 0 01.09-.41.67.67 0 01.23-.28l5.6-3.23a.18.18 0 01.23 0 .38.38 0 01.1.3v2a.88.88 0 01-.1.41.6.6 0 01-.23.28l-3.7 2.14v2l3.44-2a.17.17 0 01.23 0 .4.4 0 01.09.29v2a1 1 0 01-.09.41.61.61 0 01-.23.28l-3.44 2v2.07zM243 140.34a4 4 0 011.42-.56 1.49 1.49 0 011.06.16 1.69 1.69 0 01.67.93 5.31 5.31 0 01.24 1.75 8 8 0 01-.38 2.52 6.47 6.47 0 01-1.05 2l1.49 3.55a.57.57 0 010 .18.78.78 0 01-.07.33.57.57 0 01-.19.23l-1.64.94c-.16.1-.27.11-.34 0a1 1 0 01-.16-.25l-1.26-3.12-1.11.63v4a.86.86 0 01-.1.41.6.6 0 01-.22.28l-1.58.91a.18.18 0 01-.23 0 .43.43 0 01-.09-.3v-12a1 1 0 01.09-.4.55.55 0 01.23-.28zm-1.36 6.39l1.36-.79a2.47 2.47 0 00.83-.78 2.18 2.18 0 00.33-1.26c0-.52-.11-.81-.33-.88a1.07 1.07 0 00-.83.18l-1.36.79zM253.58 147.2q-.21.12-.33 0a.41.41 0 01-.16-.17l-2.76-4.74v6.26a1 1 0 01-.09.41.63.63 0 01-.23.27l-1.58.91a.17.17 0 01-.22 0 .38.38 0 01-.1-.3v-12a.86.86 0 01.1-.41.6.6 0 01.22-.28l1.25-.72a.31.31 0 01.34 0 .78.78 0 01.16.17l2.75 4.74v-6.26a.85.85 0 01.1-.4.6.6 0 01.22-.28l1.58-.91a.18.18 0 01.23 0 .41.41 0 01.09.3v11.95a1 1 0 01-.09.41.61.61 0 01-.23.28zM261.59 129.63c.15-.1.28-.1.36 0a.75.75 0 01.18.31l2.62 10.14a1 1 0 010 .25.78.78 0 01-.07.33.57.57 0 01-.19.23l-1.52.88c-.16.09-.27.1-.34 0a.39.39 0 01-.12-.24l-.34-1.34-3.2 1.85-.33 1.73a1.56 1.56 0 01-.13.38.82.82 0 01-.34.35l-1.52.88a.14.14 0 01-.18 0 .29.29 0 01-.08-.24 1.13 1.13 0 01.05-.3l2.62-13.18a2.46 2.46 0 01.17-.5.85.85 0 01.37-.42zm-1.95 9.21l1.95-1.13-1-3.87zM272 133.63a.18.18 0 01.23 0 .4.4 0 01.09.29v2a1 1 0 01-.09.4.61.61 0 01-.23.28l-5.57 3.22a.18.18 0 01-.23 0 .41.41 0 01-.09-.3v-12a1 1 0 01.09-.41.67.67 0 01.23-.28l1.58-.91a.17.17 0 01.22 0 .37.37 0 01.1.29v9.5zM279.3 119.21a3.21 3.21 0 011.41-.47 2 2 0 011.11.24 1.81 1.81 0 01.74.76 2.34 2.34 0 01.27 1.08.78.78 0 01-.07.33c-.06.11-.11.19-.18.22l-1.57.91a.42.42 0 01-.27.08.41.41 0 01-.21-.1.66.66 0 01-.12-.12.64.64 0 00-.22-.14 1 1 0 00-.36 0 1.54 1.54 0 00-.53.2 4.27 4.27 0 00-.44.3 3.23 3.23 0 00-.37.37 1.39 1.39 0 00-.26.44 1.27 1.27 0 00-.11.52.52.52 0 00.12.39.54.54 0 00.38.13 3.41 3.41 0 00.72-.11l1.1-.29a3.66 3.66 0 011.16-.15 1.34 1.34 0 01.82.32 1.59 1.59 0 01.49.82 5 5 0 01.16 1.41 6.42 6.42 0 01-.27 1.85 7.33 7.33 0 01-.78 1.71 7.69 7.69 0 01-1.17 1.49 7.32 7.32 0 01-1.49 1.13 3.59 3.59 0 01-1.49.53 2 2 0 01-1.16-.21 1.82 1.82 0 01-.71-.85 2.65 2.65 0 01-.29-1.22.67.67 0 01.08-.33.45.45 0 01.17-.22l1.58-.91a.42.42 0 01.26-.09.52.52 0 01.19.08l.15.16a.76.76 0 00.26.19.72.72 0 00.41.07 1.43 1.43 0 00.6-.22 4.58 4.58 0 001.07-.82 1.49 1.49 0 00.42-1c0-.19-.05-.31-.16-.37a.69.69 0 00-.46-.07 3.75 3.75 0 00-.8.15l-1.15.3a1.74 1.74 0 01-1.81-.32 3.31 3.31 0 01-.57-2.22 6.55 6.55 0 01.23-1.65 8.25 8.25 0 01.68-1.67 7.93 7.93 0 011.08-1.5 5.89 5.89 0 011.36-1.13zM290.6 122.87a.17.17 0 01.23 0 .4.4 0 01.09.29v2a1 1 0 01-.09.41.67.67 0 01-.23.28l-5.7 3.29a.18.18 0 01-.23 0 .4.4 0 01-.09-.29v-12a1 1 0 01.09-.41.67.67 0 01.23-.28l5.6-3.23a.17.17 0 01.23 0 .37.37 0 01.1.29v2a.86.86 0 01-.1.41.55.55 0 01-.23.28l-3.7 2.09v2l3.44-2a.18.18 0 01.23 0 .41.41 0 01.09.3v2a1 1 0 01-.09.4.61.61 0 01-.23.28l-3.44 2v2.07zM296.19 109.65a4.24 4.24 0 011.42-.56 1.54 1.54 0 011.06.16 1.74 1.74 0 01.68.94 5.51 5.51 0 01.23 1.74 8 8 0 01-.38 2.52 6.42 6.42 0 01-1.05 2l1.49 3.54a.57.57 0 010 .18.86.86 0 01-.07.34.47.47 0 01-.19.22l-1.63 1c-.16.09-.28.1-.35 0a1 1 0 01-.16-.24l-1.33-3.19-1.11.64v4a.85.85 0 01-.1.4.6.6 0 01-.22.28l-1.58.91a.18.18 0 01-.23 0 .41.41 0 01-.09-.3v-12a1 1 0 01.09-.41.61.61 0 01.23-.28zm-1.36 6.35l1.36-.78a2.58 2.58 0 00.83-.78 2.16 2.16 0 00.34-1.27c0-.52-.11-.81-.34-.88a1 1 0 00-.83.19l-1.36.78zM303.53 118.36c-.31.18-.52.06-.63-.37l-2.46-10.15a.61.61 0 000-.15v-.07a.67.67 0 01.08-.33.49.49 0 01.18-.23l1.52-.88c.16-.09.27-.1.34 0a.47.47 0 01.13.24l1.67 7.18 1.67-9.11a1.37 1.37 0 01.12-.38.86.86 0 01.35-.36l1.51-.87a.15.15 0 01.19 0 .33.33 0 01.08.24v.08a1.05 1.05 0 010 .18l-2.45 13a1.55 1.55 0 01-.64 1.11zM315.67 108.39a.18.18 0 01.23 0 .37.37 0 01.1.29v2a.85.85 0 01-.1.4.55.55 0 01-.23.28l-5.67 3.28a.18.18 0 01-.23 0 .39.39 0 01-.1-.3v-12a.85.85 0 01.1-.4.55.55 0 01.23-.28l5.6-3.24a.18.18 0 01.23 0 .41.41 0 01.09.3v2a1 1 0 01-.09.4.61.61 0 01-.23.28l-3.7 2.14v2l3.43-2a.17.17 0 01.23 0 .38.38 0 01.1.3v2a.88.88 0 01-.1.41.6.6 0 01-.23.28l-3.43 2v2.07zM321.26 95.17a4.56 4.56 0 011.42-.56 1.57 1.57 0 011.07.16 1.73 1.73 0 01.67.94 5.31 5.31 0 01.23 1.74 7.94 7.94 0 01-.37 2.52 6.43 6.43 0 01-1.06 2l1.49 3.54a.41.41 0 010 .19.8.8 0 01-.08.33.49.49 0 01-.19.23l-1.63.94c-.16.09-.27.1-.34 0a.78.78 0 01-.16-.24l-1.31-3.15-1.1.64v4a1 1 0 01-.1.41.67.67 0 01-.23.28L318 110a.18.18 0 01-.23 0 .38.38 0 01-.1-.3v-12a.88.88 0 01.1-.41.6.6 0 01.23-.28zm-1.35 6.39l1.35-.78a2.51 2.51 0 00.84-.78 2.2 2.2 0 00.33-1.26c0-.52-.11-.82-.33-.89a1.11 1.11 0 00-.84.19l-1.35.78zM252.08 191.4a1.47 1.47 0 00-2.18.27c-.67.83-.73 3.39-1 5.12a20.89 20.89 0 01-1.69 5.34 27.8 27.8 0 01-5.71 7.86 36.13 36.13 0 01-10.93 7.29 31.77 31.77 0 01-4.24 1.48c-1.43.39-3.35.43-4.58 1.24a.42.42 0 000 .62c1.5.62 3.34.35 4.9.14a25.91 25.91 0 005.79-1.6 35.36 35.36 0 0010.44-6.35 30.94 30.94 0 007.44-9.28 21.71 21.71 0 002.06-6.06 20.93 20.93 0 00.44-3.34 3.22 3.22 0 00-.74-2.73z" fill="#455a64"/></g></svg>
