<svg xmlns="http://www.w3.org/2000/svg" viewBox="0 0 500 500"><ellipse cx="250" cy="384.61" rx="209.73" ry="94.79" fill="#f5f5f5"/><g fill="#e0e0e0"><ellipse cx="352.36" cy="395.73" rx="56.05" ry="32.36"/><path d="M91.71 412.52c-9.53 5.57-9.53 14.59 0 20.15s25 5.56 34.51 0 9.53-14.58 0-20.15-24.98-5.52-34.51 0z"/></g><path d="M318.5 180h-137c-8.28 0-15 6.72-15 15v120c0 8.28 6.72 15 15 15h137c8.28 0 15-6.72 15-15V195c0-8.28-6.72-15-15-15z" fill="#ff7043"/><path d="M318.5 175h-137c-11.03 0-20 8.97-20 20v120c0 11.03 8.97 20 20 20h137c11.03 0 20-8.97 20-20V195c0-11.03-8.97-20-20-20zm10 140c0 5.51-4.49 10-10 10h-137c-5.51 0-10-4.49-10-10V195c0-5.51 4.49-10 10-10h137c5.51 0 10 4.49 10 10v120z" fill="#d84315"/><circle cx="250" cy="245" r="25" fill="#fff"/><path d="M250 280c-20.95 0-38 12.08-38 27v13h76v-13c0-14.92-17.05-27-38-27z" fill="#fff"/><path d="M250 180v-35c0-24.85 20.15-45 45-45s45 20.15 45 45v25h20v-25c0-35.9-29.1-65-65-65s-65 29.1-65 65v35h20z" fill="#78909c"/><path d="M250 180v-5h-20v5h20zm45-80c-27.61 0-50 22.39-50 50v25h10v-25c0-22.09 17.91-40 40-40s40 17.91 40 40v25h10v-25c0-27.61-22.39-50-50-50v10c22.09 0 40 17.91 40 40v25h-10v-25c0-16.57-13.43-30-30-30s-30 13.43-30 30v35h-10v-35c0-22.09 17.91-40 40-40v-10z" fill="#546e7a"/><text x="250" y="380" text-anchor="middle" font-size="72" font-weight="bold" fill="#d84315" font-family="Arial, sans-serif">401</text></svg>
