<svg t="1657792062684" class="icon" viewBox="0 0 1024 1024" version="1.1" xmlns="http://www.w3.org/2000/svg"
  p-id="34419" width="200" height="200">
  <path
    d="M0 128a51.2 51.2 0 0 1 51.2-51.2h350.24a51.2 51.2 0 0 1 47.0592 31.0336L473.6 166.4h499.2a51.2 51.2 0 0 1 51.2 51.2v537.6a51.2 51.2 0 0 1-51.2 51.2H51.2a51.2 51.2 0 0 1-51.2-51.2V128z"
    fill="#FFA000" p-id="34420"></path>
  <path
    d="M89.6 249.6m51.2 0l742.4 0q51.2 0 51.2 51.2l0 460.8q0 51.2-51.2 51.2l-742.4 0q-51.2 0-51.2-51.2l0-460.8q0-51.2 51.2-51.2Z"
    fill="#FFFFFF" p-id="34421"></path>
  <path
    d="M0 332.8m51.2 0l921.6 0q51.2 0 51.2 51.2l0 512q0 51.2-51.2 51.2l-921.6 0q-51.2 0-51.2-51.2l0-512q0-51.2 51.2-51.2Z"
    fill="#FFCA28" p-id="34422"></path>
</svg>