<svg width="200" height="200" viewBox="0 0 200 200" fill="none" xmlns="http://www.w3.org/2000/svg">
<path fill-rule="evenodd" clip-rule="evenodd" d="M100 10C149.706 10 190 50.2944 190 100C190 108.029 188.949 115.812 186.976 123.219L136.254 39.4666H136.195C131.638 32.531 123.789 27.9518 114.87 27.9518C105.952 27.9518 98.1024 32.531 93.5456 39.4666H93.4853L92.8532 40.5821C92.731 40.7907 92.6117 41.0012 92.4953 41.2136L36.9057 139.312C34.7053 143.082 33.4445 147.467 33.4445 152.147C33.4445 156.134 34.3599 159.908 35.9919 163.269C19.9218 147.012 10 124.665 10 100C10 50.2944 50.2944 10 100 10ZM53.4722 177.056C55.2341 177.441 57.0641 177.644 58.9415 177.644C73.0231 177.644 84.4384 166.228 84.4384 152.147C84.4384 147.63 83.2642 143.388 81.2043 139.709L81.2172 139.704L68.7932 118.202C62.0989 106.608 66.0716 91.7816 77.6663 85.0874C89.261 78.3932 104.087 82.3658 110.781 93.9605L154.607 168.236L154.625 168.229C155.082 168.971 155.575 169.689 156.103 170.378C140.717 182.659 121.216 190 100 190C82.9725 190 67.0494 185.271 53.4722 177.056Z" fill="currentColor"/>
</svg>
