<svg xmlns="http://www.w3.org/2000/svg" width="32" height="32" viewBox="0 0 1024 1024"><path fill="currentColor" fill-rule="evenodd" d="M909.784 729.585a135.9 135.9 0 0 0-47.042 19.049a114.24 114.24 0 0 1-51.41 31.075c2.613-17.554 11.313-33.577 24.455-45.418a169.3 169.3 0 0 0 23.409-55.017c-.061-27.838 22.44-50.459 50.265-50.534c27.827-.076 50.45 22.423 50.539 50.26c.089 27.839-22.39 50.482-50.215 50.585zM817.568 608.83a168.8 168.8 0 0 0-54.808-23.68c-27.836 0-50.402-22.575-50.402-50.423s22.566-50.423 50.402-50.423s50.402 22.575 50.402 50.423a137.5 137.5 0 0 0 18.817 47.211a114.8 114.8 0 0 1 30.764 51.656a76.08 76.08 0 0 1-45.026-24.763h-.186zm-83.033-177.713C719.34 303.789 587.548 204.026 428.09 204.026c-169.874 0-308.088 113.097-308.088 252.19c2.72 78.1 43.941 149.778 110.063 191.385a311 311 0 0 0 33.602 21.588l-13.664 54.569c4.928 2.316 9.706 4.78 14.746 6.91l68.996-34.512c10.08 2.615 20.683 4.295 31.21 6.088c6.721 1.195 13.442 2.428 20.35 3.25a354.8 354.8 0 0 0 128.805-7.396a249 249 0 0 0 10.154 55.055a425.6 425.6 0 0 1-96.175 11.242a418 418 0 0 1-86.392-9.524l-125.186 62.526a27.62 27.62 0 0 1-29.98-3.137a28.02 28.02 0 0 1-9.67-28.611l22.401-90.239C117.176 643.186 66.463 553.506 64 456.216C64 285.973 227.004 148 428.09 148c190.93 0 347.29 124.527 362.521 282.818a245 245 0 0 0-26.47-2.614c-9.893.374-19.787 1.307-29.607 2.876zM618.237 629.934c16.764-3.362 32.706-9.786 47.042-19.049a114.24 114.24 0 0 1 51.447-31.001a76.47 76.47 0 0 1-24.491 45.344c-11.014 16.807-18.929 35.483-23.409 55.054c.041 27.833-22.468 50.435-50.29 50.497s-50.43-22.44-50.514-50.273c-.082-27.833 22.393-50.469 50.215-50.572m90.798 121.314c16.652 11.168 35.17 19.236 54.659 23.904c20.386 0 38.764 12.286 46.565 31.127s3.49 40.53-10.926 54.95a50.38 50.38 0 0 1-54.927 10.931c-18.834-7.804-31.114-26.19-31.114-46.585a136.7 136.7 0 0 0-18.668-47.285a114.7 114.7 0 0 1-30.54-51.805a76 76 0 0 1 44.951 25.062z"/></svg>