<?xml version="1.0" standalone="no"?><!DOCTYPE svg PUBLIC "-//W3C//DTD SVG 1.1//EN" "http://www.w3.org/Graphics/SVG/1.1/DTD/svg11.dtd"><svg t="1749452605456" class="icon" viewBox="0 0 1024 1024" version="1.1" xmlns="http://www.w3.org/2000/svg" p-id="2567" xmlns:xlink="http://www.w3.org/1999/xlink" width="200" height="200"><path d="M682.4 784.2c0.3 0.4 0.6 0.8 1 1.1 0.6 0.6 1.3 1.2 2 1.6 1.4 1.3 2.7 2.6 4.1 3.9 26.4 26.4 43 58.9 49.8 93 0.1 1.9 0.3 3.8 0.6 5.7 0.3 2.1 0.8 4.2 1.3 6.2 2.6 9.6 7.7 18.6 15.2 26.1 23 23 60.4 23 83.5 0 23-23 23-60.4 0-83.5-8.1-8.1-18-13.4-28.5-15.8-1.2-0.3-2.3-0.5-3.5-0.7-1.2-0.2-2.4-0.4-3.6-0.5C769.4 814.8 736 798 709 771c-1.9-1.9-3.8-3.9-5.7-5.9-5.5-5.5-14.4-5.5-20 0-5.1 5.5-5.4 13.6-0.9 19.1z" fill="#FB6500" p-id="2568"></path><path d="M869 829.6c0.4-0.3 0.8-0.6 1.1-1 0.6-0.6 1.2-1.3 1.6-2 1.3-1.4 2.6-2.7 3.9-4.1 26.4-26.4 58.9-43 93-49.8 1.9-0.1 3.8-0.3 5.7-0.6 2.1-0.3 4.2-0.8 6.2-1.3 9.6-2.6 18.6-7.7 26.1-15.2 23-23 23-60.4 0-83.5-23-23-60.4-23-83.5 0-8.1 8.1-13.4 18-15.8 28.5-0.3 1.2-0.5 2.3-0.7 3.5-0.2 1.2-0.4 2.4-0.5 3.6-6.5 34.9-23.3 68.3-50.3 95.3-1.9 1.9-3.9 3.8-5.9 5.7-5.5 5.5-5.5 14.4 0 20 5.4 5 13.5 5.4 19.1 0.9z" fill="#0082EF" p-id="2569"></path><path d="M914.3 643c-0.3-0.4-0.6-0.8-1-1.1-0.6-0.6-1.3-1.2-2-1.6-1.4-1.3-2.7-2.6-4.1-3.9-26.4-26.4-43-58.9-49.8-93-0.1-1.9-0.3-3.8-0.6-5.7-0.3-2.1-0.8-4.2-1.3-6.2-2.6-9.6-7.7-18.6-15.2-26.1-23-23-60.4-23-83.5 0s-23 60.4 0 83.5c8.1 8.1 18 13.4 28.5 15.8 1.2 0.3 2.3 0.5 3.5 0.7 1.2 0.2 2.4 0.4 3.6 0.5 34.9 6.5 68.3 23.3 95.3 50.3 1.9 1.9 3.8 3.9 5.7 5.9 5.5 5.5 14.4 5.5 20 0 5.1-5.4 5.4-13.5 0.9-19.1z" fill="#2DBC00" p-id="2570"></path><path d="M727.7 597.7c-0.4 0.3-0.8 0.6-1.1 1-0.6 0.6-1.2 1.3-1.6 2-1.3 1.4-2.6 2.7-3.9 4.1-26.4 26.4-58.9 43-93 49.8-1.9 0.1-3.8 0.3-5.7 0.6-2.1 0.3-4.2 0.8-6.2 1.3-9.6 2.6-18.6 7.7-26.1 15.2-23 23-23 60.4 0 83.5s60.4 23 83.5 0c8.1-8.1 13.4-18 15.8-28.5 0.3-1.2 0.5-2.3 0.7-3.5 0.2-1.2 0.4-2.4 0.5-3.6 6.5-34.9 23.3-68.3 50.3-95.3 1.9-1.9 3.9-3.8 5.9-5.7 5.5-5.5 5.5-14.4 0-20-5.4-5.1-13.5-5.4-19.1-0.9z" fill="#FFCC00" p-id="2571"></path><path d="M815.5 309.3c-16.4-33.7-38.5-65-65.5-93C681.5 145.5 585.7 99.9 480.2 88c-18.9-2.2-37.7-3.2-55.8-3.2-17.2 0-35.2 1-53.4 3-106 11.5-202.3 56.9-271.2 127.7-27.2 28-49.4 59.2-65.9 92.8C11.4 353.8 0 402.3 0 452.2c0 64.3 19.6 127.6 56.6 183.2 20.9 31.5 56.7 72.1 87.3 97l-17 70.1-4.9 19.8c-0.9 1.9-1.5 4-2 6.1-0.3 1.3-0.4 2.6-0.5 4-0.1 1-0.3 2-0.3 3.1 0 18 14.6 32.7 32.7 32.7 5.9 0 11.4-1.7 16.1-4.4 0.2-0.1 0.3-0.2 0.5-0.2l2.1-1.2 121.1-60.8c26.1 7.5 51.9 12.3 79.2 15.3 17.7 2 35.7 2.9 53.5 2.9 18.1 0 36.9-1.1 55.8-3.2 37.2-4.2 73-12.8 106.9-25-3.7-1.2-7.3-2.8-10.8-4.8-20.8-11.9-31.5-34.5-29.4-56.9-24.3 7.7-49.6 13.2-75.8 16.2-15.9 1.8-31.6 2.7-46.8 2.7-14.9 0-29.9-0.8-44.8-2.5-3.1-0.3-6.2-0.8-9.3-1.2-20.4-2.7-40.5-6.9-60-12.6-4-1.3-8.2-1.9-12.5-1.9-6.7 0-13.2 1.8-19.8 5.2-0.9 0.4-1.7 0.8-2.6 1.3l-77.7 45.8h-0.1c-1.6 0.9-2.5 1.3-3.4 1.3-2.7 0-4.9-2.3-4.9-5.1l2.9-11.6c0.8-3.1 1.9-7.4 3.3-12.6 3.4-12.9 8-30.6 11.5-43.8 0.8-2.7 1.5-5.9 1.5-9.5 0-10-4.8-19.5-12.8-25.3-4.1-3-8.1-6.1-12.4-9.6-6.5-5.3-12.8-10.8-18.8-16.5-16.9-16-31.7-33.5-44.1-52.2-29.3-44-44.8-94-44.8-144.5 0-39.2 9-77.3 26.6-113.3 13.2-26.9 31-51.9 52.9-74.4 56.7-58.2 136.3-95.5 224.4-105.1 15.3-1.7 30.4-2.5 44.8-2.5 15.1 0 30.8 0.9 46.8 2.7 87.6 10 166.8 47.5 223.1 105.6 21.8 22.5 39.5 47.6 52.6 74.6 17.4 35.8 26.2 73.6 26.2 112.4 0 4-0.3 8.1-0.5 12.1 22.7-13.9 52.8-11.2 72.4 8.5 1 1 1.8 2.1 2.7 3.1 0.6-8.3 1-16.6 1-24.9 0.2-49.5-11-97.6-33-143z" fill="#0079DE" p-id="2572"></path></svg>