<svg xmlns="http://www.w3.org/2000/svg" viewBox="0 0 500 500"><ellipse cx="250.11" cy="316.94" rx="236.67" ry="136.64" fill="#f5f5f5"/><g fill="#e6e6e6"><ellipse cx="428.84" cy="396.29" rx="47.07" ry="27.17"/><path d="M129.09 343.48l119.83 69.19a9.49 9.49 0 008.56 0l156.35-90c2.36-1.36 2.36-3.56 0-4.92l-120.39-69.33a9.49 9.49 0 00-8.56 0l-155.79 90.12c-2.36 1.37-2.36 3.58 0 4.94zM103.61 326.57l-60.4-34.87c-2.39-1.38-2.39-3.63 0-5 15-8.73 64.11-37.21 64.74-37.36s49.86 28.63 64.9 37.43c2.38 1.4 2.37 3.64 0 5l-60.55 34.79a9.57 9.57 0 01-8.69.01zM311.3 219.16c13.35-7.7 35-7.7 48.33 0 11.31 6.53 13 16.5 5.16 24.08a5.74 5.74 0 011.27.52l42.16 24.34c1.79 1 1.79 2.71 0 3.74l-2.64 1.52a6.62 6.62 0 01-6.37-.18L360 247.49a2.37 2.37 0 01-.45-.36c-13.36 7.63-34.9 7.61-48.2-.07s-13.35-20.19-.05-27.9z"/></g><path d="M305.55 224.18v8.3c0 4.5 3 9 8.93 12.45 11.91 6.87 31.22 6.87 43.13 0 5.95-3.44 8.93-8 8.93-12.45v-8.3c0-4.51-3-9-8.93-12.45-11.91-6.88-31.22-6.88-43.13 0-6 3.43-8.93 7.94-8.93 12.45zm58 0c0 3.6-2.65 7.12-7.45 9.89-5.32 3.07-12.46 4.76-20.09 4.76s-14.78-1.69-20.09-4.76c-4.81-2.77-7.46-6.29-7.46-9.89s2.65-7.12 7.46-9.9c5.31-3.07 12.45-4.76 20.09-4.76s14.77 1.69 20.09 4.76c4.84 2.78 7.49 6.29 7.49 9.9z" fill="currentColor"/><path d="M337 241.77v8.29c-8.13.15-16.35-1.55-22.56-5.13-6-3.44-8.93-8-8.93-12.45v-8.3a8.06 8.06 0 010-.85c-.39 4.78 2.57 9.64 8.9 13.3s14.5 5.29 22.59 5.14z" opacity=".05"/><path d="M357.61 211.73c-11.91-6.88-31.22-6.88-43.13 0s-11.91 18 0 24.9 31.22 6.87 43.13 0 11.91-18.03 0-24.9zm-1.47 22.34c-5.32 3.07-12.46 4.76-20.09 4.76s-14.77-1.69-20.09-4.76c-4.81-2.77-7.46-6.29-7.46-9.89s2.65-7.12 7.46-9.9c5.32-3.07 12.45-4.76 20.09-4.76s14.77 1.69 20.09 4.76c4.81 2.78 7.45 6.29 7.45 9.9s-2.59 7.12-7.45 9.89z" fill="#fff" opacity=".6"/><path d="M363.6 224.18a8.16 8.16 0 01-1.2 4.15 16.47 16.47 0 00-6.27-5.75c-5.31-3.07-12.45-4.76-20.09-4.76s-14.76 1.69-20.08 4.76a16.74 16.74 0 00-6.28 5.75 8.33 8.33 0 01-1.18-4.15c0-3.61 2.65-7.12 7.46-9.9 5.32-3.07 12.45-4.76 20.08-4.76s14.78 1.69 20.09 4.76c4.87 2.78 7.47 6.29 7.47 9.9z" fill="currentColor"/><path d="M356.14 218c-5.32-3.07-12.46-4.76-20.09-4.76S321.28 215 316 218c-4 2.29-6.46 5.08-7.21 8 .75 2.93 3.24 5.72 7.21 8 5.32 3.07 12.45 4.76 20.09 4.76s14.77-1.69 20.09-4.76c4-2.29 6.46-5.08 7.21-8-.79-2.88-3.28-5.67-7.25-8z" fill="#fff" opacity=".5"/><path d="M356.7 241.91a4.77 4.77 0 012.12-3.71 1.51 1.51 0 011.51-.16l10.26 5.85a1.53 1.53 0 01.63 1.38 4.75 4.75 0 01-2.13 3.71 1.51 1.51 0 01-1.51.15l-10.26-5.86a1.51 1.51 0 01-.62-1.36z" fill="#37474f"/><path d="M357.34 243.29a1.51 1.51 0 01-.64-1.38 4.13 4.13 0 01.37-1.6l13.23 7.57a4.07 4.07 0 01-1.19 1.12 1.51 1.51 0 01-1.51.15l-10.26-5.86z" fill="#263238"/><path d="M368.31 246l-.22.35z"/><path d="M403.69 266.47L368.32 246a5.37 5.37 0 011.82-1.9 2 2 0 011.93-.22l34 18.18z" fill="currentColor"/><path d="M403.69 266.47L368.32 246a5.37 5.37 0 011.82-1.9 2 2 0 011.93-.22l34 18.18z" fill="#fff" opacity=".6"/><path d="M403.69 266.47l-2.61 4.62-32.87-20.32a2 2 0 01-.83-1.8 5.17 5.17 0 01.27-1.56c0-.09.08-.2.11-.29.11-.25.22-.49.34-.73l.21-.35z" fill="currentColor"/><path d="M403.69 266.47l-2.61 4.62-32.87-20.32a2 2 0 01-.83-1.8 5.17 5.17 0 01.27-1.56c0-.09.08-.2.11-.29.11-.25.22-.49.34-.73l.21-.35z" opacity=".05"/><path d="M403.64 270.83a8.06 8.06 0 003.62-6.34c0-2.32-1.64-3.26-3.65-2.09a8.06 8.06 0 00-3.62 6.33c.01 2.33 1.64 3.27 3.65 2.1z" fill="currentColor"/><path d="M403.64 270.83a8.06 8.06 0 003.62-6.34c0-2.32-1.64-3.26-3.65-2.09a8.06 8.06 0 00-3.62 6.33c.01 2.33 1.64 3.27 3.65 2.1z" opacity=".3"/><g><g fill="currentColor"><path d="M172.93 385.59a5.81 5.81 0 01-2.85-.69l-92.29-53.29a2.07 2.07 0 010-3.86l21.76-12.57.5.87-21.76 12.56a1.37 1.37 0 00-.83 1.07 1.4 1.4 0 00.83 1.07L170.58 384a5.25 5.25 0 004.7 0L193 373.8l.5.87-17.72 10.23a5.84 5.84 0 01-2.85.69z"/><path d="M172.93 395a5.81 5.81 0 01-2.85-.69l-108.54-62.7a2.07 2.07 0 010-3.86l29.9-17.27.5.87L62 328.61a1.1 1.1 0 000 2.14l108.54 62.66a5.25 5.25 0 004.7 0l25.83-14.91.5.86-25.83 14.92a5.84 5.84 0 01-2.81.72z"/><path d="M172.93 404.35a5.81 5.81 0 01-2.85-.69L45.29 331.61a2.29 2.29 0 01-1.29-1.93 2.32 2.32 0 011.32-1.94l38-21.95.5.87-38 21.95a1.1 1.1 0 000 2.13l124.79 72.05a5.25 5.25 0 004.7 0l34-19.6.5.86-34 19.61a5.84 5.84 0 01-2.88.69z"/></g></g><g><path fill="#263238" d="M42.94 268.7l65 37.53 64.99-37.53-64.99-37.52-65 37.52z"/><path d="M107.93 306.22v17.3a8.84 8.84 0 01-4.32-1l-28.17-16.29L45.54 289a5.73 5.73 0 01-2.6-4.5v-15.8l63.2 36.49z" fill="#455a64"/><path d="M172.93 268.7v15.76a5.76 5.76 0 01-2.6 4.5l-25.84 14.92-32.23 18.61a8.86 8.86 0 01-4.33 1v-17.3l2-1.16z" fill="#37474f"/><path d="M47 276.24v2.12a1 1 0 00.43.75l.49.28c.23.14.43 0 .43-.25V277a1 1 0 00-.43-.75l-.49-.28c-.23-.12-.43.03-.43.27zM49.19 277.5v2.12a.94.94 0 00.44.75l.48.28c.24.14.44 0 .44-.25v-2.12a1 1 0 00-.44-.75l-.48-.28c-.24-.14-.44-.03-.44.25zM51.38 278.76v2.13a1 1 0 00.43.75l.49.28c.24.13.44 0 .44-.25v-2.13a1 1 0 00-.44-.75l-.49-.28c-.23-.14-.43-.03-.43.25zM53.57 280v2.13a1 1 0 00.43.75l.49.28c.24.14.43 0 .43-.25v-2.11a1 1 0 00-.43-.75l-.49-.28c-.24-.14-.43-.02-.43.23z" fill="currentColor"/><path d="M55.76 281.28v2.13a1 1 0 00.43.75l.49.28c.24.14.43 0 .43-.25v-2.13a1 1 0 00-.43-.75l-.49-.28c-.19-.13-.43-.03-.43.25z" fill="#263238"/><path d="M58 282.54v2.13a1 1 0 00.43.75l.49.28c.24.14.43 0 .43-.25v-2.12a.93.93 0 00-.43-.75l-.49-.29c-.29-.13-.43-.02-.43.25z" fill="currentColor"/><path d="M60.14 283.81v2.12a1 1 0 00.43.75l.49.28c.23.14.43 0 .43-.25v-2.12a1 1 0 00-.43-.75l-.49-.28c-.24-.14-.43-.03-.43.25zM62.32 285.07v2.12a1 1 0 00.44.75l.48.28c.24.14.44 0 .44-.25v-2.12a1 1 0 00-.44-.75l-.48-.28c-.24-.14-.44-.03-.44.25zM64.51 286.33v2.12a1 1 0 00.43.75l.49.29c.24.13.44 0 .44-.25v-2.13a1 1 0 00-.44-.75l-.49-.28c-.23-.14-.43-.03-.43.25z" fill="#263238"/><path d="M66.7 287.59v2.13a1 1 0 00.43.75l.49.28c.24.14.43 0 .43-.25v-2.13a1 1 0 00-.43-.75l-.49-.28c-.24-.14-.43-.03-.43.25zM68.89 288.85V291a1 1 0 00.43.75l.49.28c.24.14.43 0 .43-.25v-2.13a1 1 0 00-.43-.75l-.49-.28c-.24-.16-.43-.04-.43.23z" fill="currentColor"/><path d="M71.08 290.11v2.13a1 1 0 00.43.75l.49.28c.24.14.43 0 .43-.25v-2.12a.93.93 0 00-.43-.75l-.49-.29c-.24-.13-.43-.02-.43.25zM73.27 291.38v2.12a1 1 0 00.43.75l.49.28c.23.14.43 0 .43-.25v-2.12a1 1 0 00-.43-.75l-.49-.28c-.24-.13-.43-.03-.43.25z" fill="#263238"/><path d="M75.45 292.64v2.12a1 1 0 00.44.75l.48.28c.24.14.44 0 .44-.25v-2.12a1 1 0 00-.44-.75l-.48-.28c-.24-.14-.44-.03-.44.25zM77.64 293.9v2.1a.94.94 0 00.44.75l.48.28c.24.14.44 0 .44-.25v-2.12a1 1 0 00-.44-.75l-.48-.28c-.24-.12-.44-.01-.44.27zM79.83 295.16v2.13a1 1 0 00.43.75l.49.28c.24.13.43 0 .43-.25v-2.13a1 1 0 00-.43-.75l-.49-.28c-.26-.14-.43-.03-.43.25zM82 296.42v2.13a1 1 0 00.43.75l.49.28c.24.14.43 0 .43-.25v-2.13a1 1 0 00-.43-.75l-.49-.28c-.22-.17-.43-.02-.43.25zM47 282.54v2.13a1 1 0 00.43.75l.49.28c.23.14.43 0 .43-.25v-2.12a1 1 0 00-.43-.75l-.49-.29c-.23-.13-.43-.02-.43.25z" fill="currentColor"/><path d="M49.19 283.81v2.12a1 1 0 00.44.75l.48.28c.24.14.44 0 .44-.25v-2.12a1 1 0 00-.44-.75l-.48-.28c-.24-.14-.44-.03-.44.25z" fill="#263238"/><path d="M51.38 285.07v2.12a1 1 0 00.43.75l.49.28c.24.14.44 0 .44-.25v-2.12a1 1 0 00-.44-.75l-.49-.28c-.23-.14-.43-.03-.43.25z" fill="currentColor"/><path d="M53.57 286.33v2.12a.93.93 0 00.43.75l.49.29c.24.13.43 0 .43-.25v-2.13a1 1 0 00-.43-.75l-.49-.28c-.24-.14-.43-.03-.43.25zM55.76 287.59v2.13a1 1 0 00.43.75l.49.28c.24.14.43 0 .43-.25v-2.13a1 1 0 00-.43-.75l-.49-.28c-.19-.14-.43-.03-.43.25z" fill="#263238"/><path d="M58 288.85V291a1 1 0 00.43.75l.49.28c.24.14.43 0 .43-.25v-2.13a1 1 0 00-.43-.75l-.49-.28c-.29-.16-.43-.04-.43.23zM60.14 290.11v2.13a1 1 0 00.43.75l.49.28c.23.14.43 0 .43-.25v-2.12a1 1 0 00-.43-.75l-.49-.29c-.24-.13-.43-.02-.43.25zM62.32 291.38v2.12a1 1 0 00.44.75l.48.28c.24.14.44 0 .44-.25v-2.12a.94.94 0 00-.44-.75l-.48-.28c-.24-.13-.44-.03-.44.25zM64.51 292.64v2.12a1 1 0 00.43.75l.49.28c.24.14.44 0 .44-.25v-2.12a1 1 0 00-.44-.75l-.49-.28c-.23-.14-.43-.03-.43.25z" fill="currentColor"/><path d="M66.7 293.9v2.1a.93.93 0 00.43.75l.49.28c.24.14.43 0 .43-.25v-2.12a1 1 0 00-.43-.75l-.49-.28c-.24-.12-.43-.01-.43.27zM68.89 295.16v2.13a1 1 0 00.43.75l.49.28c.24.13.43 0 .43-.25v-2.13a1 1 0 00-.43-.75l-.49-.28c-.24-.14-.43-.03-.43.25z" fill="#263238"/><path d="M71.08 296.42v2.13a1 1 0 00.43.75l.49.28c.24.14.43 0 .43-.25v-2.13a1 1 0 00-.43-.75l-.49-.28c-.24-.17-.43-.02-.43.25zM73.27 297.68v2.13a1 1 0 00.43.75l.49.28c.23.14.43 0 .43-.25v-2.13a1 1 0 00-.43-.75l-.49-.28c-.24-.13-.43-.02-.43.25z" fill="currentColor"/><path d="M75.45 298.94v2.13a1 1 0 00.44.75l.48.28c.24.14.44 0 .44-.25v-2.12a.94.94 0 00-.44-.75l-.48-.29c-.24-.13-.44-.02-.44.25zM77.64 300.21v2.12a1 1 0 00.44.75l.48.28c.24.14.44 0 .44-.25V301a1 1 0 00-.44-.75l-.48-.28c-.24-.15-.44-.04-.44.24zM79.83 301.47v2.12a1 1 0 00.43.75l.49.28c.24.14.43 0 .43-.25v-2.12a1 1 0 00-.43-.75l-.49-.28c-.26-.14-.43-.03-.43.25zM82 302.73v2.12a.93.93 0 00.43.75l.49.29c.24.13.43 0 .43-.25v-2.13a1 1 0 00-.43-.75l-.49-.28c-.22-.14-.43-.03-.43.25z" fill="#263238"/><path d="M89.33 303.62l1-.57a1.32 1.32 0 011.32.14 4.16 4.16 0 011.88 3.26 1.3 1.3 0 01-.55 1.21l-.92.53-.17-.27a2.3 2.3 0 01-.54-.21 4.16 4.16 0 01-1.88-3.26 1.75 1.75 0 01.06-.48z" fill="currentColor"/><path d="M89.33 303.62l1-.57a1.32 1.32 0 011.32.14 4.16 4.16 0 011.88 3.26 1.3 1.3 0 01-.55 1.21l-.92.53-.17-.27a2.3 2.3 0 01-.54-.21 4.16 4.16 0 01-1.88-3.26 1.75 1.75 0 01.06-.48z" opacity=".2"/><path d="M90.7 303.73a4.14 4.14 0 011.88 3.27c0 1.2-.84 1.68-1.88 1.08a4.16 4.16 0 01-1.88-3.26c0-1.21.84-1.69 1.88-1.09zM97.5 308.33l1-.57a1.29 1.29 0 011.32.13 4.16 4.16 0 011.88 3.26 1.33 1.33 0 01-.55 1.22l-.92.53-.17-.28a1.93 1.93 0 01-.54-.21 4.16 4.16 0 01-1.88-3.26 1.8 1.8 0 01.06-.48z" fill="currentColor"/><path d="M97.5 308.33l1-.57a1.29 1.29 0 011.32.13 4.16 4.16 0 011.88 3.26 1.33 1.33 0 01-.55 1.22l-.92.53-.17-.28a1.93 1.93 0 01-.54-.21 4.16 4.16 0 01-1.88-3.26 1.8 1.8 0 01.06-.48z" opacity=".2"/><path d="M98.87 308.44a4.16 4.16 0 011.88 3.26c0 1.2-.84 1.69-1.88 1.09a4.17 4.17 0 01-1.87-3.26c0-1.2.83-1.69 1.87-1.09z" fill="currentColor"/><path fill="#263238" d="M42.94 240.56l65 37.52 64.99-37.52-64.99-37.52-65 37.52z"/><path fill="#455a64" d="M42.94 259.32l65 37.53v-18.77l-65-37.52v18.76z"/><path fill="#37474f" d="M107.94 296.85l64.99-37.53v-18.76l-64.99 37.52v18.77z"/><path fill="currentColor" d="M51.07 268.7v-4.69l56.87 32.84v4.69L51.07 268.7zM168.87 261.67v4.69l-60.93 35.18v-4.69l60.93-35.18z"/><path opacity=".2" d="M168.87 261.67v4.69l-60.93 35.18v-4.69l60.93-35.18z"/><path d="M47 248.1v2.12a1 1 0 00.43.75l.49.28c.23.14.43 0 .43-.25v-2.12a1 1 0 00-.43-.75l-.49-.28c-.23-.14-.43-.03-.43.25z" fill="#263238"/><path d="M49.19 249.36v2.12a1 1 0 00.44.75l.48.28c.24.14.44 0 .44-.25v-2.12a1 1 0 00-.44-.75l-.48-.28c-.24-.11-.44-.03-.44.25zM51.38 250.62v2.12a1 1 0 00.43.75l.49.28c.24.14.44 0 .44-.25v-2.12a1 1 0 00-.44-.75l-.49-.28c-.23-.14-.43-.03-.43.25z" fill="currentColor"/><path d="M53.57 251.88V254a1 1 0 00.43.75l.49.28c.24.13.43 0 .43-.25v-2.13a1 1 0 00-.43-.75l-.49-.28c-.24-.13-.43-.02-.43.26zM55.76 253.14v2.13a1 1 0 00.43.75l.49.28c.24.14.43 0 .43-.25v-2.13a1 1 0 00-.43-.75l-.49-.28c-.19-.14-.43-.02-.43.25z" fill="#263238"/><path d="M58 254.4v2.13a1 1 0 00.43.75l.49.28c.24.14.43 0 .43-.25v-2.13a1 1 0 00-.43-.75l-.49-.28c-.29-.15-.43-.02-.43.25zM60.14 255.66v2.13a1 1 0 00.43.75l.49.28c.23.14.43 0 .43-.25v-2.12a1 1 0 00-.43-.75l-.49-.29c-.24-.13-.43-.02-.43.25zM62.32 256.93v2.12a1 1 0 00.44.75l.48.28c.24.14.44 0 .44-.25v-2.12a1 1 0 00-.44-.75l-.48-.28c-.24-.14-.44-.03-.44.25zM64.51 258.19v2.12a1 1 0 00.43.75l.49.28c.24.14.44 0 .44-.25V259a1 1 0 00-.44-.75l-.49-.28c-.23-.17-.43-.06-.43.22z" fill="currentColor"/><path d="M66.7 259.45v2.12a.93.93 0 00.43.75l.49.29c.24.13.43 0 .43-.25v-2.13a1 1 0 00-.43-.75l-.49-.28c-.24-.14-.43-.03-.43.25zM68.89 260.71v2.13a1 1 0 00.43.75l.49.28c.24.14.43 0 .43-.25v-2.13a1 1 0 00-.43-.75l-.49-.28c-.24-.14-.43-.03-.43.25zM71.08 262v2.13a1 1 0 00.43.75l.49.28c.24.14.43 0 .43-.25v-2.13A1 1 0 0072 262l-.49-.28c-.24-.14-.43-.02-.43.28z" fill="#263238"/><path d="M73.27 263.23v2.13a1 1 0 00.43.75l.49.28c.23.14.43 0 .43-.25V264a1 1 0 00-.43-.75l-.49-.25c-.24-.15-.43 0-.43.23zM75.45 264.5v2.12a1 1 0 00.44.75l.48.28c.24.14.44 0 .44-.25v-2.12a.94.94 0 00-.44-.75l-.48-.28c-.24-.14-.44-.03-.44.25zM77.64 265.76v2.12a1 1 0 00.44.75l.48.28c.24.14.44 0 .44-.25v-2.12a1 1 0 00-.44-.75l-.48-.28c-.24-.14-.44-.03-.44.25z" fill="currentColor"/><path d="M79.83 267v2.12a.93.93 0 00.43.75l.49.28c.24.14.43 0 .43-.25v-2.1a1 1 0 00-.43-.75l-.49-.28c-.26-.14-.43-.03-.43.23z" fill="#263238"/><path d="M82 268.28v2.12a.93.93 0 00.43.75l.49.29c.24.13.43 0 .43-.25v-2.13a1 1 0 00-.43-.75l-.49-.28c-.22-.14-.43-.03-.43.25zM47 254.4v2.13a1 1 0 00.43.75l.49.28c.23.14.43 0 .43-.25v-2.13a1 1 0 00-.43-.75l-.49-.28c-.23-.15-.43-.02-.43.25zM49.19 255.66v2.13a1 1 0 00.44.75l.48.28c.24.14.44 0 .44-.25v-2.12a.94.94 0 00-.44-.75l-.48-.29c-.24-.13-.44-.02-.44.25zM51.38 256.93v2.12a1 1 0 00.43.75l.49.28c.24.14.44 0 .44-.25v-2.12a1 1 0 00-.44-.75l-.49-.28c-.23-.14-.43-.03-.43.25zM53.57 258.19v2.12a1 1 0 00.43.75l.49.28c.24.14.43 0 .43-.25V259a1 1 0 00-.43-.75l-.49-.28c-.24-.17-.43-.06-.43.22z" fill="currentColor"/><path d="M55.76 259.45v2.12a.93.93 0 00.43.75l.49.29c.24.13.43 0 .43-.25v-2.13a1 1 0 00-.43-.75l-.49-.28c-.19-.14-.43-.03-.43.25zM58 260.71v2.13a1 1 0 00.43.75l.49.28c.24.14.43 0 .43-.25v-2.13a1 1 0 00-.43-.75l-.49-.28c-.29-.14-.43-.03-.43.25z" fill="#263238"/><path d="M60.14 262v2.13a1 1 0 00.43.75l.49.28c.23.14.43 0 .43-.25v-2.13a1 1 0 00-.43-.75l-.49-.28c-.24-.17-.43-.05-.43.25zM62.32 263.23v2.13a1 1 0 00.44.75l.48.28c.24.14.44 0 .44-.25V264a.94.94 0 00-.44-.75l-.48-.29c-.24-.11-.44.04-.44.27zM64.51 264.5v2.12a1 1 0 00.43.75l.49.28c.24.14.44 0 .44-.25v-2.12a.94.94 0 00-.44-.75l-.49-.28c-.23-.14-.43-.03-.43.25zM66.7 265.76v2.12a1 1 0 00.43.75l.49.28c.24.14.43 0 .43-.25v-2.12a1 1 0 00-.43-.75l-.49-.28c-.24-.14-.43-.03-.43.25zM68.89 267v2.12a.93.93 0 00.43.75l.49.28c.24.14.43 0 .43-.25v-2.1a1 1 0 00-.43-.75l-.49-.28c-.24-.14-.43-.03-.43.23z" fill="currentColor"/><path d="M71.08 268.28v2.12a.93.93 0 00.43.75l.49.29c.24.13.43 0 .43-.25v-2.13a1 1 0 00-.43-.75l-.49-.28c-.24-.14-.43-.03-.43.25z" fill="#263238"/><path d="M73.27 269.54v2.13a1 1 0 00.43.75l.49.28c.23.14.43 0 .43-.25v-2.13a1 1 0 00-.43-.75l-.49-.28c-.24-.14-.43-.02-.43.25zM75.45 270.8v2.13a1 1 0 00.44.75l.48.28c.24.14.44 0 .44-.25v-2.13a1 1 0 00-.44-.75l-.48-.28a.27.27 0 00-.44.25zM77.64 272.06v2.13a1 1 0 00.44.75l.48.28c.24.14.44 0 .44-.25v-2.12a.94.94 0 00-.44-.75l-.48-.29c-.24-.13-.44-.02-.44.25zM79.83 273.33v2.12a1 1 0 00.43.75l.49.28c.24.14.43 0 .43-.25v-2.12a1 1 0 00-.43-.75l-.49-.28c-.26-.14-.43-.03-.43.25zM82 274.59v2.12a1 1 0 00.43.75l.49.28c.24.14.43 0 .43-.25v-2.12a1 1 0 00-.43-.75l-.49-.28c-.22-.14-.43-.03-.43.25zM89.33 275.48l1-.58a1.32 1.32 0 011.32.14 4.14 4.14 0 011.88 3.25 1.33 1.33 0 01-.55 1.22l-.92.53-.17-.28a1.93 1.93 0 01-.54-.21 4.16 4.16 0 01-1.88-3.26 1.86 1.86 0 01.06-.48z" fill="currentColor"/><path d="M89.33 275.48l1-.58a1.32 1.32 0 011.32.14 4.14 4.14 0 011.88 3.25 1.33 1.33 0 01-.55 1.22l-.92.53-.17-.28a1.93 1.93 0 01-.54-.21 4.16 4.16 0 01-1.88-3.26 1.86 1.86 0 01.06-.48z" opacity=".2"/><path d="M90.7 275.58a4.16 4.16 0 011.88 3.26c0 1.2-.84 1.69-1.88 1.09a4.16 4.16 0 01-1.88-3.26c0-1.2.84-1.67 1.88-1.09zM97.5 280.19l1-.57a1.29 1.29 0 011.32.13 4.16 4.16 0 011.88 3.25 1.33 1.33 0 01-.55 1.22l-.92.53-.17-.28a1.93 1.93 0 01-.54-.21 4.16 4.16 0 01-1.88-3.26 1.75 1.75 0 01.06-.48z" fill="currentColor"/><path d="M97.5 280.19l1-.57a1.29 1.29 0 011.32.13 4.16 4.16 0 011.88 3.25 1.33 1.33 0 01-.55 1.22l-.92.53-.17-.28a1.93 1.93 0 01-.54-.21 4.16 4.16 0 01-1.88-3.26 1.75 1.75 0 01.06-.48z" opacity=".2"/><path d="M98.87 280.3a4.16 4.16 0 011.88 3.26c0 1.2-.84 1.68-1.88 1.08a4.15 4.15 0 01-1.87-3.25c0-1.21.83-1.69 1.87-1.09z" fill="currentColor"/><path fill="#263238" d="M42.94 212.42l65 37.52 64.99-37.52-64.99-37.53-65 37.53z"/><path fill="#455a64" d="M42.94 231.18l65 37.52v-18.76l-65-37.52v18.76z"/><path fill="#37474f" d="M107.94 268.7l64.99-37.52v-18.76l-64.99 37.52v18.76z"/><path fill="currentColor" d="M51.07 240.56v-4.69l56.87 32.83v4.69l-56.87-32.83zM168.87 233.52v4.69l-60.93 35.18v-4.69l60.93-35.18z"/><path opacity=".2" d="M168.87 233.52v4.69l-60.93 35.18v-4.69l60.93-35.18z"/><path d="M47 220v2.13a1 1 0 00.43.75l.49.28c.23.14.43 0 .43-.25v-2.13a1 1 0 00-.43-.75l-.49-.28c-.23-.19-.43-.07-.43.25zM49.19 221.21v2.13a1 1 0 00.44.75l.48.28c.24.14.44 0 .44-.25V222a.94.94 0 00-.44-.75l-.48-.29c-.24-.13-.44-.02-.44.25zM51.38 222.48v2.12a1 1 0 00.43.75l.49.28c.24.14.44 0 .44-.25v-2.12a1 1 0 00-.44-.75l-.49-.28c-.23-.14-.43-.03-.43.25z" fill="currentColor"/><path d="M53.57 223.74v2.12a1 1 0 00.43.75l.49.28c.24.14.43 0 .43-.25v-2.12a1 1 0 00-.43-.75l-.49-.28c-.24-.14-.43-.03-.43.25zM55.76 225v2.12a.93.93 0 00.43.75l.49.29c.24.13.43 0 .43-.25v-2.13a1 1 0 00-.43-.75l-.49-.28c-.19-.14-.43-.03-.43.25z" fill="#263238"/><path d="M58 226.26v2.13a1 1 0 00.43.75l.49.28c.24.13.43 0 .43-.25V227a1 1 0 00-.43-.75l-.49-.28c-.29-.1-.43.03-.43.29zM60.14 227.52v2.13a1 1 0 00.43.75l.49.28c.23.14.43 0 .43-.25v-2.13a1 1 0 00-.43-.75l-.49-.28c-.24-.14-.43-.02-.43.25zM62.32 228.78v2.13a1 1 0 00.44.75l.48.28c.24.14.44 0 .44-.25v-2.13a1 1 0 00-.44-.75l-.48-.28c-.24-.13-.44-.02-.44.25zM64.51 230.05v2.12a1 1 0 00.43.75l.49.28c.24.14.44 0 .44-.25v-2.12a.94.94 0 00-.44-.75l-.49-.28c-.23-.14-.43-.03-.43.25zM66.7 231.31v2.12a1 1 0 00.43.75l.49.28c.24.14.43 0 .43-.25v-2.12a1 1 0 00-.43-.75l-.49-.28c-.24-.14-.43-.06-.43.25zM68.89 232.57v2.12a.93.93 0 00.43.75l.49.28c.24.14.43 0 .43-.25v-2.12a1 1 0 00-.43-.75l-.49-.28c-.24-.14-.43-.03-.43.25zM71.08 233.83V236a.93.93 0 00.43.75l.49.25c.24.13.43 0 .43-.25v-2.13a1 1 0 00-.43-.75l-.49-.28c-.24-.15-.43-.04-.43.24z" fill="currentColor"/><path d="M73.27 235.09v2.13a1 1 0 00.43.75l.49.28c.23.14.43 0 .43-.25v-2.13a1 1 0 00-.43-.75l-.49-.28c-.24-.14-.43-.03-.43.25z" fill="#263238"/><path d="M75.45 236.35v2.13a1 1 0 00.44.75l.48.28c.24.14.44 0 .44-.25v-2.13a1 1 0 00-.44-.75l-.48-.28a.27.27 0 00-.44.25zM77.64 237.61v2.13a1 1 0 00.44.75l.48.28c.24.14.44 0 .44-.25v-2.12a.94.94 0 00-.44-.75l-.48-.29c-.24-.13-.44-.02-.44.25zM79.83 238.88V241a1 1 0 00.43.75l.49.28c.24.14.43 0 .43-.25v-2.12a1 1 0 00-.43-.75l-.49-.28c-.26-.14-.43-.03-.43.25zM82 240.14v2.12a1 1 0 00.43.75l.49.28c.24.14.43 0 .43-.25v-2.12a1 1 0 00-.43-.75l-.49-.28c-.22-.14-.43-.03-.43.25zM47 226.26v2.13a1 1 0 00.43.75l.49.28a.27.27 0 00.43-.25V227a1 1 0 00-.43-.75l-.49-.28c-.23-.1-.43.03-.43.29z" fill="currentColor"/><path d="M49.19 227.52v2.13a1 1 0 00.44.75l.48.28a.27.27 0 00.44-.25v-2.13a1 1 0 00-.44-.75l-.48-.28a.27.27 0 00-.44.25zM51.38 228.78v2.13a1 1 0 00.43.75l.49.28c.24.14.44 0 .44-.25v-2.13a1 1 0 00-.44-.75l-.49-.28a.27.27 0 00-.43.25z" fill="#263238"/><path d="M53.57 230.05v2.12a1 1 0 00.43.75l.49.28c.24.14.43 0 .43-.25v-2.12a.93.93 0 00-.43-.75l-.49-.28c-.24-.14-.43-.03-.43.25zM55.76 231.31v2.12a1 1 0 00.43.75l.49.28c.24.14.43 0 .43-.25v-2.12a1 1 0 00-.43-.75l-.49-.28c-.19-.14-.43-.06-.43.25z" fill="currentColor"/><path d="M58 232.57v2.12a.93.93 0 00.43.75l.49.28c.24.14.43 0 .43-.25v-2.12a1 1 0 00-.43-.75l-.49-.28c-.29-.14-.43-.03-.43.25z" fill="#263238"/><path d="M60.14 233.83V236a.93.93 0 00.43.75l.49.29a.27.27 0 00.43-.25v-2.13a1 1 0 00-.43-.75l-.49-.28c-.24-.19-.43-.08-.43.2zM62.32 235.09v2.13a1 1 0 00.44.75l.48.28a.27.27 0 00.44-.25v-2.13a1 1 0 00-.44-.75l-.48-.28c-.24-.14-.44-.03-.44.25zM64.51 236.35v2.13a1 1 0 00.43.75l.49.28c.24.14.44 0 .44-.25v-2.13a1 1 0 00-.44-.75l-.49-.28c-.23-.1-.43-.02-.43.25zM66.7 237.61v2.13a1 1 0 00.43.75l.49.28c.24.14.43 0 .43-.25v-2.12a.93.93 0 00-.43-.75l-.49-.29c-.24-.13-.43-.02-.43.25z" fill="currentColor"/><path d="M68.89 238.88V241a1 1 0 00.43.75l.49.28c.24.14.43 0 .43-.25v-2.12a1 1 0 00-.43-.75l-.49-.28c-.24-.14-.43-.03-.43.25zM71.08 240.14v2.12a1 1 0 00.43.75l.49.28c.24.14.43 0 .43-.25v-2.12a1 1 0 00-.43-.75l-.49-.28c-.24-.14-.43-.03-.43.25z" fill="#263238"/><path d="M73.27 241.4v2.12a.93.93 0 00.43.75l.49.29a.27.27 0 00.43-.25v-2.13a1 1 0 00-.43-.75l-.49-.28c-.24-.15-.43-.03-.43.25zM75.45 242.66v2.13a1 1 0 00.44.75l.48.28c.24.13.44 0 .44-.25v-2.13a1 1 0 00-.44-.75l-.48-.28c-.24-.14-.44-.03-.44.25zM77.64 243.92v2.13a1 1 0 00.44.75l.48.28a.27.27 0 00.44-.25v-2.13a1 1 0 00-.44-.75l-.48-.28a.27.27 0 00-.44.25z" fill="currentColor"/><path d="M79.83 245.18v2.13a1 1 0 00.43.75l.49.28c.24.14.43 0 .43-.25V246a1 1 0 00-.43-.75l-.49-.28c-.26-.17-.43-.06-.43.21z" fill="#263238"/><path d="M82 246.44v2.13a1 1 0 00.43.75l.49.28c.24.14.43 0 .43-.25v-2.12a.93.93 0 00-.43-.75l-.49-.29c-.22-.13-.43-.02-.43.25zM89.33 247.33l1-.57a1.32 1.32 0 011.32.13 4.16 4.16 0 011.88 3.26 1.33 1.33 0 01-.55 1.22l-.92.53-.17-.28a1.93 1.93 0 01-.54-.21 4.16 4.16 0 01-1.88-3.26 1.8 1.8 0 01.06-.48z" fill="currentColor"/><path d="M89.33 247.33l1-.57a1.32 1.32 0 011.32.13 4.16 4.16 0 011.88 3.26 1.33 1.33 0 01-.55 1.22l-.92.53-.17-.28a1.93 1.93 0 01-.54-.21 4.16 4.16 0 01-1.88-3.26 1.8 1.8 0 01.06-.48z" opacity=".2"/><path d="M90.7 247.44a4.16 4.16 0 011.88 3.26c0 1.2-.84 1.69-1.88 1.09a4.16 4.16 0 01-1.88-3.26c0-1.2.84-1.69 1.88-1.09zM97.5 252.05l1-.57a1.32 1.32 0 011.32.14 4.16 4.16 0 011.88 3.26 1.3 1.3 0 01-.55 1.21l-.92.52-.17-.27a2.3 2.3 0 01-.54-.21 4.16 4.16 0 01-1.88-3.26 1.75 1.75 0 01.06-.48z" fill="currentColor"/><path d="M97.5 252.05l1-.57a1.32 1.32 0 011.32.14 4.16 4.16 0 011.88 3.26 1.3 1.3 0 01-.55 1.21l-.92.52-.17-.27a2.3 2.3 0 01-.54-.21 4.16 4.16 0 01-1.88-3.26 1.75 1.75 0 01.06-.48z" opacity=".2"/><path d="M98.87 252.16a4.16 4.16 0 011.88 3.26c0 1.2-.84 1.68-1.88 1.08a4.17 4.17 0 01-1.87-3.26c0-1.24.83-1.68 1.87-1.08z" fill="currentColor"/><path fill="#263238" d="M42.94 184.27l65 37.53 64.99-37.53-64.99-37.52-65 37.52z"/><path fill="#455a64" d="M42.94 203.04l65 37.52V221.8l-65-37.53v18.77z"/><path fill="#37474f" d="M107.94 240.56l64.99-37.52v-18.77l-64.99 37.53v18.76z"/><path fill="currentColor" d="M51.07 212.42v-4.7l56.87 32.84v4.69l-56.87-32.83zM168.87 205.38v4.69l-60.93 35.18v-4.69l60.93-35.18z"/><path opacity=".2" d="M168.87 205.38v4.69l-60.93 35.18v-4.69l60.93-35.18z"/><path d="M47 191.81v2.13a1 1 0 00.43.75l.49.28a.27.27 0 00.43-.25v-2.13a1 1 0 00-.43-.75l-.49-.28c-.23-.14-.43-.03-.43.25z" fill="currentColor"/><path d="M49.19 193.07v2.13a1 1 0 00.44.75l.48.28a.27.27 0 00.44-.25v-2.13a1 1 0 00-.44-.75l-.48-.28a.27.27 0 00-.44.25z" fill="#263238"/><path d="M51.38 194.33v2.13a1 1 0 00.43.75l.49.28c.24.14.44 0 .44-.25v-2.13a1 1 0 00-.44-.75l-.49-.28a.27.27 0 00-.43.25z" fill="currentColor"/><path d="M53.57 195.59v2.13a1 1 0 00.43.75l.49.28c.24.14.43 0 .43-.25v-2.12a.93.93 0 00-.43-.75l-.49-.29c-.24-.13-.43-.02-.43.25zM55.76 196.86V199a1 1 0 00.43.75l.49.28c.24.14.43 0 .43-.25v-2.12a1 1 0 00-.43-.75l-.49-.28c-.19-.16-.43-.05-.43.23zM58 198.12v2.12a1 1 0 00.43.75l.49.28c.24.14.43 0 .43-.25v-2.12a1 1 0 00-.43-.75l-.49-.28c-.29-.14-.43-.03-.43.25zM60.14 199.38v2.12a.93.93 0 00.43.75l.49.29a.27.27 0 00.43-.25v-2.13a1 1 0 00-.43-.75l-.49-.28c-.24-.13-.43-.03-.43.25z" fill="#263238"/><path d="M62.32 200.64v2.13a1 1 0 00.44.75l.48.28a.27.27 0 00.44-.25v-2.13a1 1 0 00-.44-.75l-.48-.28c-.24-.14-.44-.03-.44.25zM64.51 201.9v2.1a1 1 0 00.43.75l.49.28a.27.27 0 00.44-.25v-2.13a1 1 0 00-.44-.75l-.49-.28c-.23-.11-.43.01-.43.28zM66.7 203.16v2.13a1 1 0 00.43.75l.49.28c.24.14.43 0 .43-.25V204a.93.93 0 00-.43-.75l-.49-.29c-.24-.18-.43-.07-.43.2zM68.89 204.43v2.12a1 1 0 00.43.75l.49.28c.24.14.43 0 .43-.25v-2.12a.93.93 0 00-.43-.75l-.49-.28c-.24-.18-.43-.03-.43.25z" fill="currentColor"/><path d="M71.08 205.69v2.12a1 1 0 00.43.75l.49.28c.24.14.43 0 .43-.25v-2.12a1 1 0 00-.43-.75l-.49-.28c-.24-.14-.43-.03-.43.25zM73.27 207v2.12a.93.93 0 00.43.75l.49.28c.23.14.43 0 .43-.25v-2.12a1 1 0 00-.43-.75l-.49-.28c-.24-.19-.43-.08-.43.25zM75.45 208.21v2.13a1 1 0 00.44.75l.48.28c.24.13.44 0 .44-.25V209a1 1 0 00-.44-.75l-.48-.28c-.24-.15-.44-.04-.44.24z" fill="#263238"/><path d="M77.64 209.47v2.13a1 1 0 00.44.75l.48.28a.27.27 0 00.44-.25v-2.13a1 1 0 00-.44-.75l-.48-.28a.27.27 0 00-.44.25z" fill="currentColor"/><path d="M79.83 210.73v2.13a1 1 0 00.43.75l.49.28c.24.14.43 0 .43-.25v-2.13a1 1 0 00-.43-.75l-.49-.28c-.26-.14-.43-.02-.43.25zM82 212v2.13a1 1 0 00.43.75l.49.28c.24.14.43 0 .43-.25v-2.12a.93.93 0 00-.43-.75l-.49-.29c-.22-.14-.43-.03-.43.25zM47 198.12v2.12a1 1 0 00.43.75l.49.28c.23.14.43 0 .43-.25v-2.12a1 1 0 00-.43-.75l-.49-.28c-.23-.14-.43-.03-.43.25zM49.19 199.38v2.12a.94.94 0 00.44.75l.48.29c.24.13.44 0 .44-.25v-2.13a1 1 0 00-.44-.75l-.48-.28c-.24-.13-.44-.03-.44.25z" fill="#263238"/><path d="M51.38 200.64v2.13a1 1 0 00.43.75l.49.28a.27.27 0 00.44-.25v-2.13a1 1 0 00-.44-.75l-.49-.28c-.23-.14-.43-.03-.43.25z" fill="currentColor"/><path d="M53.57 201.9v2.1a1 1 0 00.43.75l.49.28c.24.14.43 0 .43-.25v-2.13a1 1 0 00-.43-.75l-.49-.28c-.24-.11-.43.01-.43.28zM55.76 203.16v2.13a1 1 0 00.43.75l.49.28c.24.14.43 0 .43-.25V204a.93.93 0 00-.43-.75l-.49-.29c-.19-.18-.43-.07-.43.2zM58 204.43v2.12a1 1 0 00.43.75l.49.28c.24.14.43 0 .43-.25v-2.12a.93.93 0 00-.43-.75l-.49-.28c-.29-.18-.43-.03-.43.25zM60.14 205.69v2.12a1 1 0 00.43.75l.49.28c.23.14.43 0 .43-.25v-2.12a1 1 0 00-.43-.75l-.49-.28c-.24-.14-.43-.03-.43.25z" fill="#263238"/><path d="M62.32 207v2.12a.94.94 0 00.44.75l.48.28c.24.14.44 0 .44-.25v-2.12a1 1 0 00-.44-.75l-.48-.28c-.24-.19-.44-.08-.44.25z" fill="currentColor"/><path d="M64.51 208.21v2.13a1 1 0 00.43.75l.49.28c.24.13.44 0 .44-.25V209a1 1 0 00-.44-.75l-.49-.28c-.23-.15-.43-.04-.43.24zM66.7 209.47v2.13a1 1 0 00.43.75l.49.28c.24.14.43 0 .43-.25v-2.13a1 1 0 00-.43-.75l-.49-.28c-.24-.14-.43-.02-.43.25zM68.89 210.73v2.13a1 1 0 00.43.75l.49.28c.24.14.43 0 .43-.25v-2.13a1 1 0 00-.43-.75l-.49-.28c-.24-.14-.43-.02-.43.25z" fill="#263238"/><path d="M71.08 212v2.13a1 1 0 00.43.75l.49.28c.24.14.43 0 .43-.25v-2.12A.93.93 0 0072 212l-.49-.29c-.24-.1-.43.01-.43.29zM73.27 213.26v2.12a1 1 0 00.43.75l.49.28c.23.14.43 0 .43-.25V214a1 1 0 00-.43-.75l-.49-.25c-.24-.13-.43 0-.43.26z" fill="currentColor"/><path d="M75.45 214.52v2.12a1 1 0 00.44.75l.48.28c.24.14.44 0 .44-.25v-2.12a1 1 0 00-.44-.75l-.48-.28c-.24-.14-.44-.03-.44.25zM77.64 215.78v2.12a.94.94 0 00.44.75l.48.29c.24.13.44 0 .44-.25v-2.13a1 1 0 00-.44-.75l-.48-.28c-.24-.14-.44-.03-.44.25zM79.83 217v2.13a1 1 0 00.43.75l.49.28c.24.14.43 0 .43-.25v-2.13a1 1 0 00-.43-.75l-.49-.28c-.26-.1-.43.01-.43.25zM82 218.3v2.13a1 1 0 00.43.75l.49.28c.24.14.43 0 .43-.25v-2.13a1 1 0 00-.43-.75l-.49-.28c-.22-.14-.43-.05-.43.25z" fill="#263238"/><path d="M89.33 219.19l1-.57a1.29 1.29 0 011.32.13 4.16 4.16 0 011.88 3.25 1.33 1.33 0 01-.55 1.22l-.92.53-.17-.28a1.93 1.93 0 01-.54-.21 4.16 4.16 0 01-1.88-3.26 1.75 1.75 0 01.06-.48z" fill="currentColor"/><path d="M89.33 219.19l1-.57a1.29 1.29 0 011.32.13 4.16 4.16 0 011.88 3.25 1.33 1.33 0 01-.55 1.22l-.92.53-.17-.28a1.93 1.93 0 01-.54-.21 4.16 4.16 0 01-1.88-3.26 1.75 1.75 0 01.06-.48z" opacity=".2"/><path d="M90.7 219.3a4.16 4.16 0 011.88 3.26c0 1.2-.84 1.68-1.88 1.08a4.14 4.14 0 01-1.88-3.25c0-1.2.84-1.69 1.88-1.09zM97.5 223.91l1-.58a1.34 1.34 0 011.32.13 4.16 4.16 0 011.88 3.26 1.33 1.33 0 01-.55 1.22l-.92.53-.17-.28a1.93 1.93 0 01-.54-.21 4.16 4.16 0 01-1.88-3.26 1.86 1.86 0 01.06-.48z" fill="currentColor"/><path d="M97.5 223.91l1-.58a1.34 1.34 0 011.32.13 4.16 4.16 0 011.88 3.26 1.33 1.33 0 01-.55 1.22l-.92.53-.17-.28a1.93 1.93 0 01-.54-.21 4.16 4.16 0 01-1.88-3.26 1.86 1.86 0 01.06-.48z" opacity=".2"/><path d="M98.87 224a4.16 4.16 0 011.88 3.26c0 1.2-.84 1.69-1.88 1.09A4.17 4.17 0 0197 225.1c0-1.2.83-1.69 1.87-1.1z" fill="currentColor"/><path fill="#263238" d="M42.94 156.13l65 37.53 64.99-37.53-64.99-37.52-65 37.52z"/><path fill="#455a64" d="M42.94 174.89l65 37.53v-18.76l-65-37.53v18.76z"/><path fill="#37474f" d="M107.94 212.42l64.99-37.53v-18.76l-64.99 37.53v18.76z"/><path fill="currentColor" d="M51.07 184.27v-4.69l56.87 32.84v4.69l-56.87-32.84zM168.87 177.24v4.69l-60.93 35.18v-4.69l60.93-35.18z"/><path opacity=".2" d="M168.87 177.24v4.69l-60.93 35.18v-4.69l60.93-35.18z"/><path d="M47 163.67v2.12a1 1 0 00.43.75l.49.28c.23.14.43 0 .43-.25v-2.12a1 1 0 00-.43-.75l-.49-.28c-.23-.14-.43-.03-.43.25zM49.19 164.93v2.12a.94.94 0 00.44.75l.48.29c.24.13.44 0 .44-.25v-2.13a1 1 0 00-.44-.75l-.48-.28c-.24-.14-.44-.03-.44.25z" fill="currentColor"/><path d="M51.38 166.19v2.13a1 1 0 00.43.75l.49.28c.24.13.44 0 .44-.25V167a1 1 0 00-.44-.75l-.49-.28c-.23-.17-.43-.06-.43.22z" fill="#263238"/><path d="M53.57 167.45v2.13a1 1 0 00.43.75l.49.28c.24.14.43 0 .43-.25v-2.13a1 1 0 00-.43-.75l-.49-.28c-.24-.14-.43-.02-.43.25zM55.76 168.71v2.13a1 1 0 00.43.75l.49.28c.24.14.43 0 .43-.25v-2.13a1 1 0 00-.43-.75l-.49-.28c-.19-.13-.43-.02-.43.25z" fill="currentColor"/><path d="M58 170v2.12a1 1 0 00.43.75l.49.28c.24.14.43 0 .43-.25v-2.12a.93.93 0 00-.43-.75l-.49-.28c-.29-.16-.43-.05-.43.25zM60.14 171.24v2.12a1 1 0 00.43.75l.49.28c.23.14.43 0 .43-.25V172a1 1 0 00-.43-.75l-.49-.28c-.24-.12-.43.03-.43.27z" fill="#263238"/><path d="M62.32 172.5v2.12a.94.94 0 00.44.75l.48.28c.24.14.44 0 .44-.25v-2.12a1 1 0 00-.44-.75l-.48-.28c-.24-.14-.44-.03-.44.25z" fill="currentColor"/><path d="M64.51 173.76v2.12a1 1 0 00.43.75l.49.29c.24.13.44 0 .44-.25v-2.13a1 1 0 00-.44-.75l-.49-.28c-.23-.14-.43-.03-.43.25z" fill="#263238"/><path d="M66.7 175v2.13a1 1 0 00.43.75l.49.28c.24.14.43 0 .43-.25v-2.11a1 1 0 00-.43-.75l-.49-.28c-.24-.14-.43-.02-.43.23zM68.89 176.28v2.13a1 1 0 00.43.75l.49.28c.24.14.43 0 .43-.25v-2.13a1 1 0 00-.43-.75l-.49-.28c-.24-.14-.43-.03-.43.25zM71.08 177.54v2.13a1 1 0 00.43.75l.49.28c.24.14.43 0 .43-.25v-2.12a.93.93 0 00-.43-.75l-.49-.29c-.24-.13-.43-.02-.43.25zM73.27 178.81v2.12a1 1 0 00.43.75l.49.28c.23.14.43 0 .43-.25v-2.12a1 1 0 00-.43-.75l-.49-.28c-.24-.14-.43-.03-.43.25z" fill="currentColor"/><path d="M75.45 180.07v2.12a1 1 0 00.44.75l.48.28c.24.14.44 0 .44-.25v-2.12a1 1 0 00-.44-.75l-.48-.28c-.24-.14-.44-.03-.44.25zM77.64 181.33v2.12a.94.94 0 00.44.75l.48.29c.24.13.44 0 .44-.25v-2.13a1 1 0 00-.44-.75l-.48-.28c-.24-.14-.44-.03-.44.25zM79.83 182.59v2.13a1 1 0 00.43.75l.49.28c.24.13.43 0 .43-.25v-2.13a1 1 0 00-.43-.75l-.49-.28c-.26-.14-.43-.03-.43.25z" fill="#263238"/><path d="M82 183.85V186a1 1 0 00.43.75l.49.28c.24.14.43 0 .43-.25v-2.13a1 1 0 00-.43-.75l-.49-.28c-.22-.16-.43-.04-.43.23zM47 170v2.12a1 1 0 00.43.75l.49.28c.23.14.43 0 .43-.25v-2.12a1 1 0 00-.43-.75l-.49-.28c-.23-.16-.43-.05-.43.25zM49.19 171.24v2.12a1 1 0 00.44.75l.48.28c.24.14.44 0 .44-.25V172a1 1 0 00-.44-.75l-.48-.28c-.24-.12-.44.03-.44.27zM51.38 172.5v2.12a1 1 0 00.43.75l.49.28c.24.14.44 0 .44-.25v-2.12a1 1 0 00-.44-.75l-.49-.28c-.23-.14-.43-.03-.43.25z" fill="currentColor"/><path d="M53.57 173.76v2.12a.93.93 0 00.43.75l.49.29c.24.13.43 0 .43-.25v-2.13a1 1 0 00-.43-.75l-.49-.28c-.24-.14-.43-.03-.43.25zM55.76 175v2.13a1 1 0 00.43.75l.49.28c.24.14.43 0 .43-.25v-2.11a1 1 0 00-.43-.75l-.49-.28c-.19-.14-.43-.02-.43.23z" fill="#263238"/><path d="M58 176.28v2.13a1 1 0 00.43.75l.49.28c.24.14.43 0 .43-.25v-2.13a1 1 0 00-.43-.75l-.49-.28c-.29-.14-.43-.03-.43.25zM60.14 177.54v2.13a1 1 0 00.43.75l.49.28c.23.14.43 0 .43-.25v-2.12a1 1 0 00-.43-.75l-.49-.29c-.24-.13-.43-.02-.43.25zM62.32 178.81v2.12a1 1 0 00.44.75l.48.28c.24.14.44 0 .44-.25v-2.12a1 1 0 00-.44-.75l-.48-.28c-.24-.14-.44-.03-.44.25z" fill="currentColor"/><path d="M64.51 180.07v2.12a1 1 0 00.43.75l.49.28c.24.14.44 0 .44-.25v-2.12a1 1 0 00-.44-.75l-.49-.28c-.23-.14-.43-.03-.43.25zM66.7 181.33v2.12a.93.93 0 00.43.75l.49.29c.24.13.43 0 .43-.25v-2.13a1 1 0 00-.43-.75l-.49-.28c-.24-.14-.43-.03-.43.25zM68.89 182.59v2.13a1 1 0 00.43.75l.49.28c.24.13.43 0 .43-.25v-2.13a1 1 0 00-.43-.75l-.49-.28c-.24-.14-.43-.03-.43.25zM71.08 183.85V186a1 1 0 00.43.75l.49.25c.24.14.43 0 .43-.25v-2.13a1 1 0 00-.43-.75l-.49-.28c-.24-.13-.43-.01-.43.26z" fill="#263238"/><path d="M73.27 185.11v2.13a1 1 0 00.43.75l.49.28c.23.14.43 0 .43-.25v-2.13a1 1 0 00-.43-.75l-.49-.28c-.24-.13-.43-.02-.43.25zM75.45 186.37v2.13a1 1 0 00.44.75l.48.28c.24.14.44 0 .44-.25v-2.12a.94.94 0 00-.44-.75l-.48-.29c-.24-.12-.44-.02-.44.25zM77.64 187.64v2.12a1 1 0 00.44.75l.48.28c.24.14.44 0 .44-.25v-2.12a1 1 0 00-.44-.75l-.48-.28c-.24-.14-.44-.03-.44.25zM79.83 188.9v2.1a.93.93 0 00.43.75l.49.28c.24.14.43 0 .43-.25v-2.12a1 1 0 00-.43-.75l-.49-.28c-.26-.12-.43-.01-.43.27zM82 190.16v2.12a.93.93 0 00.43.75l.49.29c.24.13.43 0 .43-.25v-2.13a1 1 0 00-.43-.75l-.49-.28c-.22-.14-.43-.03-.43.25zM89.33 191.05l1-.57a1.32 1.32 0 011.32.14 4.16 4.16 0 011.88 3.26 1.3 1.3 0 01-.55 1.21l-.92.52-.17-.27a2.3 2.3 0 01-.54-.21 4.16 4.16 0 01-1.88-3.26 1.75 1.75 0 01.06-.48z" fill="currentColor"/><path d="M89.33 191.05l1-.57a1.32 1.32 0 011.32.14 4.16 4.16 0 011.88 3.26 1.3 1.3 0 01-.55 1.21l-.92.52-.17-.27a2.3 2.3 0 01-.54-.21 4.16 4.16 0 01-1.88-3.26 1.75 1.75 0 01.06-.48z" opacity=".2"/><path d="M90.7 191.16a4.16 4.16 0 011.88 3.26c0 1.2-.84 1.68-1.88 1.08a4.16 4.16 0 01-1.88-3.26c0-1.24.84-1.68 1.88-1.08zM97.5 195.76l1-.57a1.32 1.32 0 011.32.13 4.16 4.16 0 011.88 3.26 1.33 1.33 0 01-.55 1.22l-.92.53-.17-.28a1.93 1.93 0 01-.54-.21 4.16 4.16 0 01-1.88-3.26 1.8 1.8 0 01.06-.48z" fill="currentColor"/><path d="M97.5 195.76l1-.57a1.32 1.32 0 011.32.13 4.16 4.16 0 011.88 3.26 1.33 1.33 0 01-.55 1.22l-.92.53-.17-.28a1.93 1.93 0 01-.54-.21 4.16 4.16 0 01-1.88-3.26 1.8 1.8 0 01.06-.48z" opacity=".2"/><path d="M98.87 195.87a4.16 4.16 0 011.88 3.26c0 1.2-.84 1.69-1.88 1.09A4.17 4.17 0 0197 197c0-1.24.83-1.73 1.87-1.13z" fill="currentColor"/><path d="M170.33 126.49L110.5 92a5.8 5.8 0 00-5.2 0l-59.76 34.49a5.76 5.76 0 00-2.6 4.5v15.76l65 37.52 65-37.52V131a5.76 5.76 0 00-2.61-4.51z" fill="#37474f"/><path d="M108 164.63v19.64l-65-37.52V131a5.81 5.81 0 012.13-4.17c-1 .83-.79 1.94.47 2.67l59.78 34.5a5.31 5.31 0 002.62.63z" fill="#455a64"/><path d="M45.54 129.49L105.38 164a5.72 5.72 0 005.19 0l59.76-34.52c1.44-.83 1.44-2.17 0-3L110.5 92a5.8 5.8 0 00-5.2 0l-59.76 34.49c-1.44.83-1.44 2.17 0 3z" fill="#263238"/><path fill="currentColor" d="M51.07 156.13v-4.69l56.87 32.83v4.69l-56.87-32.83zM168.87 149.09v4.69l-60.93 35.18v-4.69l60.93-35.18z"/><path opacity=".2" d="M168.87 149.09v4.69l-60.93 35.18v-4.69l60.93-35.18z"/><path d="M47 135.52v2.13a1 1 0 00.43.75l.49.28c.23.14.43 0 .43-.25v-2.12a1 1 0 00-.43-.75l-.49-.29c-.23-.13-.43-.02-.43.25zM49.19 136.79v2.12a1 1 0 00.44.75l.48.28c.24.14.44 0 .44-.25v-2.12a1 1 0 00-.44-.75l-.48-.28c-.24-.14-.44-.03-.44.25zM51.38 138.05v2.12a1 1 0 00.43.75l.49.28c.24.14.44 0 .44-.25v-2.12a1 1 0 00-.44-.75l-.49-.28c-.23-.14-.43-.03-.43.25z" fill="#263238"/><path d="M53.57 139.31v2.12a.93.93 0 00.43.75l.49.29c.24.13.43 0 .43-.25v-2.13a1 1 0 00-.43-.75l-.49-.28c-.24-.14-.43-.06-.43.25zM55.76 140.57v2.13a1 1 0 00.43.75l.49.28c.24.14.43 0 .43-.25v-2.13a1 1 0 00-.43-.75l-.49-.28c-.19-.14-.43-.03-.43.25z" fill="currentColor"/><path d="M58 141.83V144a1 1 0 00.43.75l.49.28c.24.14.43 0 .43-.25v-2.13a1 1 0 00-.43-.75l-.49-.28c-.29-.18-.43-.06-.43.21zM60.14 143.09v2.13a1 1 0 00.43.75l.49.28c.23.14.43 0 .43-.25v-2.12a1 1 0 00-.43-.75l-.49-.29c-.24-.13-.43-.02-.43.25zM62.32 144.36v2.12a1 1 0 00.44.75l.48.28c.24.14.44 0 .44-.25v-2.12a.94.94 0 00-.44-.75l-.48-.28c-.24-.11-.44-.03-.44.25zM64.51 145.62v2.12a1 1 0 00.43.75l.49.28c.24.14.44 0 .44-.25v-2.12a1 1 0 00-.44-.75l-.49-.28c-.23-.14-.43-.03-.43.25zM66.7 146.88V149a.93.93 0 00.43.75l.49.28c.24.14.43 0 .43-.25v-2.12a1 1 0 00-.43-.75l-.49-.28c-.24-.14-.43-.03-.43.25z" fill="#263238"/><path d="M68.89 148.14v2.13a1 1 0 00.43.75l.49.28c.24.13.43 0 .43-.25v-2.13a1 1 0 00-.43-.75l-.49-.28c-.24-.14-.43-.03-.43.25zM71.08 149.4v2.13a1 1 0 00.43.75l.49.28c.24.14.43 0 .43-.25v-2.13a1 1 0 00-.43-.75l-.49-.28c-.24-.15-.43-.02-.43.25z" fill="currentColor"/><path d="M73.27 150.66v2.13a1 1 0 00.43.75l.49.28c.23.14.43 0 .43-.25v-2.13a1 1 0 00-.43-.75l-.49-.28c-.24-.13-.43-.02-.43.25z" fill="#263238"/><path d="M75.45 151.92v2.13a1 1 0 00.44.75l.48.28c.24.14.44 0 .44-.25v-2.12a.94.94 0 00-.44-.75l-.48-.29c-.24-.13-.44-.02-.44.25z" fill="currentColor"/><path d="M77.64 153.19v2.12a1 1 0 00.44.75l.48.28c.24.14.44 0 .44-.25V154a1 1 0 00-.44-.75l-.48-.28c-.24-.17-.44-.06-.44.22zM79.83 154.45v2.12a1 1 0 00.43.75l.49.28c.24.14.43 0 .43-.25v-2.12a1 1 0 00-.43-.75l-.49-.28c-.26-.14-.43-.03-.43.25zM82 155.71v2.12a.93.93 0 00.43.75l.49.29c.24.13.43 0 .43-.25v-2.13a1 1 0 00-.43-.75l-.49-.28c-.22-.14-.43-.03-.43.25z" fill="#263238"/><path d="M47 141.83V144a1 1 0 00.43.75l.49.28c.23.14.43 0 .43-.25v-2.13a1 1 0 00-.43-.75l-.49-.28c-.23-.18-.43-.06-.43.21z" fill="currentColor"/><path d="M49.19 143.09v2.13a1 1 0 00.44.75l.48.28c.24.14.44 0 .44-.25v-2.12a.94.94 0 00-.44-.75l-.48-.29c-.24-.13-.44-.02-.44.25zM51.38 144.36v2.12a1 1 0 00.43.75l.49.28c.24.14.44 0 .44-.25v-2.12a.94.94 0 00-.44-.75l-.49-.28c-.23-.11-.43-.03-.43.25zM53.57 145.62v2.12a1 1 0 00.43.75l.49.28c.24.14.43 0 .43-.25v-2.12a1 1 0 00-.43-.75l-.49-.28c-.24-.14-.43-.03-.43.25zM55.76 146.88V149a.93.93 0 00.43.75l.49.28c.24.14.43 0 .43-.25v-2.12a1 1 0 00-.43-.75l-.49-.28c-.19-.14-.43-.03-.43.25z" fill="#263238"/><path d="M58 148.14v2.13a1 1 0 00.43.75l.49.28c.24.13.43 0 .43-.25v-2.13a1 1 0 00-.43-.75l-.49-.28c-.29-.14-.43-.03-.43.25z" fill="currentColor"/><path d="M60.14 149.4v2.13a1 1 0 00.43.75l.49.28c.23.14.43 0 .43-.25v-2.13a1 1 0 00-.43-.75l-.49-.28c-.24-.15-.43-.02-.43.25z" fill="#263238"/><path d="M62.32 150.66v2.13a1 1 0 00.44.75l.48.28c.24.14.44 0 .44-.25v-2.13a1 1 0 00-.44-.75l-.48-.28c-.24-.13-.44-.02-.44.25z" fill="currentColor"/><path d="M64.51 151.92v2.13a1 1 0 00.43.75l.49.28c.24.14.44 0 .44-.25v-2.12a.94.94 0 00-.44-.75l-.49-.29a.27.27 0 00-.43.25z" fill="#263238"/><path d="M66.7 153.19v2.12a1 1 0 00.43.75l.49.28c.24.14.43 0 .43-.25V154a1 1 0 00-.43-.75l-.49-.28c-.24-.17-.43-.06-.43.22z" fill="currentColor"/><path d="M68.89 154.45v2.12a1 1 0 00.43.75l.49.28c.24.14.43 0 .43-.25v-2.12a1 1 0 00-.43-.75l-.49-.28c-.24-.14-.43-.03-.43.25zM71.08 155.71v2.12a.93.93 0 00.43.75l.49.29c.24.13.43 0 .43-.25v-2.13a1 1 0 00-.43-.75l-.49-.28c-.24-.14-.43-.03-.43.25zM73.27 157v2.13a1 1 0 00.43.75l.49.28c.23.14.43 0 .43-.25v-2.13a1 1 0 00-.43-.75l-.49-.28c-.24-.17-.43-.06-.43.25zM75.45 158.23v2.13a1 1 0 00.44.75l.48.28a.27.27 0 00.44-.25V159a1 1 0 00-.44-.75l-.48-.28a.27.27 0 00-.44.26zM77.64 159.49v2.13a1 1 0 00.44.75l.48.28c.24.14.44 0 .44-.25v-2.12a.94.94 0 00-.44-.75l-.48-.29c-.24-.13-.44-.02-.44.25z" fill="#263238"/><path d="M79.83 160.76v2.12a1 1 0 00.43.75l.49.28c.24.14.43 0 .43-.25v-2.12a.93.93 0 00-.43-.75l-.49-.28c-.26-.14-.43-.03-.43.25z" fill="currentColor"/><path d="M82 162v2.12a1 1 0 00.43.75l.49.28c.24.14.43 0 .43-.25v-2.1a1 1 0 00-.43-.75l-.49-.28c-.22-.14-.43-.03-.43.23z" fill="#263238"/><path d="M89.33 162.91l1-.58a1.34 1.34 0 011.32.13 4.16 4.16 0 011.88 3.26 1.33 1.33 0 01-.55 1.22l-.92.53-.17-.28a1.93 1.93 0 01-.54-.21 4.16 4.16 0 01-1.88-3.26 1.86 1.86 0 01.06-.48z" fill="currentColor"/><path d="M89.33 162.91l1-.58a1.34 1.34 0 011.32.13 4.16 4.16 0 011.88 3.26 1.33 1.33 0 01-.55 1.22l-.92.53-.17-.28a1.93 1.93 0 01-.54-.21 4.16 4.16 0 01-1.88-3.26 1.86 1.86 0 01.06-.48z" opacity=".2"/><path d="M90.7 163a4.16 4.16 0 011.88 3.26c0 1.2-.84 1.69-1.88 1.09a4.16 4.16 0 01-1.88-3.26c0-1.19.84-1.68 1.88-1.09zM97.5 167.62l1-.57a1.32 1.32 0 011.32.14 4.16 4.16 0 011.88 3.26 1.33 1.33 0 01-.55 1.22l-.92.53-.17-.28a1.93 1.93 0 01-.54-.21 4.16 4.16 0 01-1.88-3.26 1.75 1.75 0 01.06-.48z" fill="currentColor"/><path d="M97.5 167.62l1-.57a1.32 1.32 0 011.32.14 4.16 4.16 0 011.88 3.26 1.33 1.33 0 01-.55 1.22l-.92.53-.17-.28a1.93 1.93 0 01-.54-.21 4.16 4.16 0 01-1.88-3.26 1.75 1.75 0 01.06-.48z" opacity=".2"/><path d="M98.87 167.73a4.16 4.16 0 011.88 3.26c0 1.2-.84 1.68-1.88 1.08a4.17 4.17 0 01-1.87-3.26c0-1.2.83-1.68 1.87-1.08z" fill="currentColor"/></g><g><path d="M134.91 338.6a8.43 8.43 0 003.94 6.54l110.29 63.68a8.75 8.75 0 007.88 0l150.91-87.13a7.4 7.4 0 000-13.08l-110.3-63.67a8.67 8.67 0 00-7.87 0l-150.91 87.13a8.42 8.42 0 00-3.94 6.53z" fill="currentColor"/><path d="M253.08 401.24v8.52a8 8 0 01-3.94-.94l-110.29-63.68a7.37 7.37 0 01-.4-12.82c-1.77 1.26-1.63 3.12.4 4.29l110.29 63.68a8 8 0 003.94.95z" fill="#fff" opacity=".2"/><path d="M131.22 332.21a8.45 8.45 0 01-3.69-6.68V193.91a8.72 8.72 0 013.93-6.82L282.38 100a7.4 7.4 0 0111.32 6.54v131.58a8.7 8.7 0 01-3.94 6.82l-150.91 87.13a8.48 8.48 0 01-7.63.14z" fill="currentColor"/><path d="M138.38 332.3a7.37 7.37 0 01-10.85-6.77V193.91a8 8 0 011.15-3.88l7.39 4.26a8 8 0 00-1.16 3.87v131.63c0 2.33 1.52 3.38 3.47 2.51z" fill="#fff" opacity=".2"/><path d="M134.91 198.17v131.62c0 2.51 1.76 3.53 3.94 2.28l150.91-87.13a8.7 8.7 0 003.94-6.82V106.5c0-2.51-1.76-3.53-3.94-2.27l-150.91 87.12a8.7 8.7 0 00-3.94 6.82z" fill="#fff" opacity=".4"/><path d="M138.85 336.61l110.29 63.68a8.75 8.75 0 007.88 0l150.91-87.13c2.17-1.26 2.17-3.29 0-4.55l-110.3-63.67a8.67 8.67 0 00-7.87 0l-150.91 87.13c-2.18 1.25-2.18 3.29 0 4.54z" fill="currentColor"/><path d="M138.85 336.61l110.29 63.68a8.75 8.75 0 007.88 0l150.91-87.13c2.17-1.26 2.17-3.29 0-4.55l-110.3-63.67a8.67 8.67 0 00-7.87 0l-150.91 87.13c-2.18 1.25-2.18 3.29 0 4.54z" fill="#fff" opacity=".6"/><path d="M141 198.66l145.5-84c1.3-.76 2.36-.15 2.36 1.36V230a5.23 5.23 0 01-2.36 4.09l-145.5 84c-1.31.75-2.37.14-2.37-1.36V202.75a5.2 5.2 0 012.37-4.09z" fill="#455a64"/><path d="M151.65 333.2l140.08-80.87a4.34 4.34 0 013.94 0l7.16 4.13a1.2 1.2 0 010 2.28l-140.1 80.86a4.34 4.34 0 01-3.94 0l-7.14-4.13a1.2 1.2 0 010-2.27z" fill="currentColor"/><path d="M151.65 333.2l140.08-80.87a4.34 4.34 0 013.94 0l7.16 4.13a1.2 1.2 0 010 2.28l-140.1 80.86a4.34 4.34 0 01-3.94 0l-7.14-4.13a1.2 1.2 0 010-2.27z" fill="#fff" opacity=".4"/><path d="M170.12 343.86L310.19 263a4.34 4.34 0 013.94 0l44.07 25.44a1.2 1.2 0 010 2.27l-139.92 80.76a4.37 4.37 0 01-3.94 0l-44.22-25.34a1.2 1.2 0 010-2.27z" fill="currentColor"/><path d="M170.12 343.86L310.19 263a4.34 4.34 0 013.94 0l44.07 25.44a1.2 1.2 0 010 2.27l-139.92 80.76a4.37 4.37 0 01-3.94 0l-44.22-25.34a1.2 1.2 0 010-2.27z" fill="#fff" opacity=".4"/><path d="M295.68 299.37l4.39-2.53c.19-.11.17-.29 0-.4l-5.07-2.93a.79.79 0 00-.7 0l-4.41 2.49c-.19.1-.18.29 0 .4l5.07 2.93a.78.78 0 00.72.04zM287 289.31l-4.39 2.53c-.18.11-.17.29 0 .41l5.07 2.93a.78.78 0 00.7 0l4.38-2.53c.19-.11.18-.29 0-.41l-5.07-2.92a.76.76 0 00-.69-.01zm-14.17 8.18l-7.42 4.29c-.19.11-.18.29 0 .4l5.07 2.93a.75.75 0 00.7 0l7.42-4.28c.19-.11.18-.29 0-.4l-5.07-2.93a.79.79 0 00-.67-.01zm7.76-4.48l-4.39 2.54c-.18.1-.17.28 0 .4l5.07 2.93a.78.78 0 00.7 0l4.38-2.53c.19-.11.18-.29 0-.4l-5.03-2.95a.79.79 0 00-.7 0zM263.41 303l-4.41 2.48c-.19.11-.18.29 0 .4l5.07 2.93a.79.79 0 00.7 0l4.39-2.54c.18-.1.17-.29 0-.4l-5.05-2.87a.78.78 0 00-.7 0zm-6.41 3.7l-4.38 2.53c-.19.11-.18.29 0 .4l5.07 2.93a.79.79 0 00.7 0l4.41-2.56c.18-.1.17-.28 0-.4l-5.07-2.93a.78.78 0 00-.73-.02zm20 11.85l4.39-2.53c.18-.11.17-.29 0-.4l-5.07-2.93a.75.75 0 00-.7 0l-4.39 2.53c-.18.11-.17.29 0 .4l5.07 2.93a.75.75 0 00.7 0zm-6.41 3.71l4.39-2.54c.18-.1.17-.29 0-.4l-5.07-2.93a.78.78 0 00-.7 0l-4.39 2.53c-.18.11-.17.29 0 .4l5.07 2.93a.79.79 0 00.65.01zm-6.41 3.7l4.39-2.54c.18-.1.17-.28 0-.4l-5.07-2.93a.78.78 0 00-.7 0l-4.39 2.53c-.18.11-.17.29 0 .4l5.07 2.93a.79.79 0 00.65.05zm-6.41 3.7l4.39-2.53c.18-.11.17-.29 0-.41l-5.16-2.93a.78.78 0 00-.7 0l-4.39 2.53c-.18.11-.17.29 0 .41l5.07 2.92a.75.75 0 00.74.01zm31.55-26.59l4.39-2.53c.19-.11.17-.29 0-.4l-5.07-2.93a.75.75 0 00-.7 0l-4.38 2.53c-.19.11-.18.29 0 .4l5.07 2.93a.75.75 0 00.64 0zm-5.91 11.78l9.78-5.65c.19-.1.18-.28 0-.4l-12.32-7.11a.75.75 0 00-.7 0L275 304.6c-.18.11-.17.29 0 .4l6.52 3.77c.2.11.21.29 0 .4l-4.05 2.34c-.18.1-.17.29 0 .4l5.07 2.93a.78.78 0 00.82.01zm-32.77-4.5l-4.38 2.53c-.19.11-.18.29 0 .4l5.07 2.93a.79.79 0 00.7 0l4.39-2.53c.18-.11.17-.29 0-.41l-5.07-2.93a.78.78 0 00-.76.01zm-6.41 3.7l-4.38 2.53c-.19.11-.18.29 0 .41l5.07 2.92a.76.76 0 00.7 0l4.38-2.51c.18-.11.17-.29 0-.41l-5.07-2.93a.78.78 0 00-.75-.01zm-32 41.5a.78.78 0 00.7 0l4.38-2.53c.19-.11.18-.29 0-.4l-5.07-2.93a.75.75 0 00-.7 0l-4.39 2.53c-.18.1-.17.29 0 .4zm-19.33-11.89l-4.39 2.53c-.18.11-.17.29 0 .4l5.07 2.93a.79.79 0 00.7 0l4.42-2.52c.18-.1.17-.29 0-.4l-5.07-2.93a.78.78 0 00-.73-.01zm10.32 8.68a.75.75 0 00.7 0l4.38-2.53c.19-.11.18-.29 0-.4l-5.07-2.93a.75.75 0 00-.7 0l-4.41 2.52c-.19.11-.17.29 0 .4zm20.25 5.46l4.38-2.53c.19-.11.18-.29 0-.41l-5.07-2.93a.78.78 0 00-.7 0l-4.39 2.53c-.18.11-.17.29 0 .41l5.07 2.92a.75.75 0 00.71.01zm-7.11 3.69a.78.78 0 00.7 0l4.38-2.53c.19-.11.18-.29 0-.41l-5.07-2.92a.76.76 0 00-.7 0l-4.39 2.53c-.18.11-.17.29 0 .41zM199.31 340l-4.39 2.53c-.18.11-.17.29 0 .4l5.07 2.93a.75.75 0 00.7 0l4.39-2.53c.18-.11.17-.29 0-.4L200 340a.75.75 0 00-.69 0zm32.05-18.51L227 324c-.19.11-.18.29 0 .41l5.07 2.93a.78.78 0 00.7 0l4.39-2.53c.18-.11.17-.29 0-.41l-5.07-2.92a.75.75 0 00-.73-.03zm-25.64 14.81l-4.39 2.53c-.18.1-.17.29 0 .4l5.07 2.93a.78.78 0 00.7 0l4.39-2.53c.18-.11.17-.29 0-.4l-5.07-2.93a.75.75 0 00-.7-.04zm32.05-18.51l-4.38 2.53c-.19.11-.18.29 0 .41l5.07 2.92a.75.75 0 00.7 0l4.39-2.53c.18-.11.17-.29 0-.41l-5.07-2.93a.78.78 0 00-.71-.03zM225 325.15l-4.38 2.53c-.19.11-.18.29 0 .41l5.07 2.93a.78.78 0 00.7 0l4.39-2.53c.18-.11.17-.29 0-.41l-5.07-2.92a.75.75 0 00-.71-.01zm-6.41 3.7l-4.38 2.54c-.19.1-.18.28 0 .4l5.07 2.93a.78.78 0 00.7 0l4.39-2.53c.18-.11.17-.29 0-.4l-5.07-2.93a.79.79 0 00-.76-.01zm-6.41 3.7l-4.38 2.54c-.19.1-.18.28 0 .4l5.07 2.93a.78.78 0 00.7 0l4.39-2.53c.18-.11.17-.29 0-.4l-5.07-2.93a.79.79 0 00-.76-.01zm32.77 4.51l4.39-2.53c.18-.11.17-.29 0-.41l-5.07-2.93a.78.78 0 00-.7 0l-4.39 2.53c-.18.11-.17.29 0 .41l5.02 2.87a.75.75 0 00.7.06zm56.3-55.93l-4.39 2.53c-.18.11-.17.29 0 .41l5.07 2.92a.75.75 0 00.7 0l4.38-2.53c.19-.11.18-.29 0-.41l-5.07-2.92a.76.76 0 00-.74 0zm-7.76 4.48l-4.39 2.53c-.18.11-.17.29 0 .41l5.07 2.93a.78.78 0 00.7 0l4.38-2.53c.19-.11.18-.29 0-.41l-5.07-2.92a.76.76 0 00-.74-.01zm14.17-8.18l-4.44 2.57c-.18.11-.17.29 0 .41l5.07 2.92a.75.75 0 00.7 0l4.38-2.53c.19-.11.18-.29 0-.41l-5.07-2.93a.78.78 0 00-.69-.03zm-33.18 34.21l4.38-2.53c.19-.11.18-.29 0-.4l-5.07-2.93a.75.75 0 00-.7 0l-4.39 2.53c-.18.11-.17.29 0 .4l5.07 2.93a.75.75 0 00.66 0zm40.29-37.9a.78.78 0 00-.7 0l-4.39 2.53c-.18.11-.17.29 0 .41l5.07 2.92a.75.75 0 00.7 0l4.38-2.53c.19-.11.18-.29 0-.41zm-63.41 59.62l4.39-2.53c.18-.11.17-.29 0-.41l-5.07-2.93a.78.78 0 00-.7 0l-4.47 2.51c-.18.11-.17.29 0 .41l5.07 2.92a.75.75 0 00.73.03zM329.92 288l4.38-2.53c.19-.11.18-.29 0-.4l-5.07-2.93a.75.75 0 00-.7 0l-4.39 2.53c-.18.1-.17.29 0 .4l5.07 2.93a.78.78 0 00.71 0zm-13.66-.48l4.39-2.53c.19-.11.17-.29 0-.4l-5.07-2.93a.79.79 0 00-.7 0l-4.38 2.53c-.19.11-.18.29 0 .41l5.07 2.93a.78.78 0 00.69-.04zm5.7-9.56a.75.75 0 00-.7 0l-4.38 2.53c-.19.11-.18.29 0 .41l5.07 2.93a.78.78 0 00.7 0l4.39-2.53c.19-.11.17-.29 0-.41zm1.35-.78l12.32 7.11a.78.78 0 00.7 0l4.38-2.53c.19-.11.18-.29 0-.4l-12.32-7.11a.75.75 0 00-.7 0l-4.38 2.53c-.21.07-.2.22 0 .37zm-14.87 8.16l-4.38 2.54c-.19.1-.18.28 0 .4l5.07 2.93a.78.78 0 00.7 0l4.39-2.53c.19-.11.17-.29 0-.4l-5.07-2.93a.79.79 0 00-.71-.04zm-48.24 27.83l-4.39 2.53c-.18.11-.17.29 0 .4l5.07 2.93a.79.79 0 00.7 0l4.38-2.54c.19-.1.18-.28 0-.4l-5.07-2.93a.78.78 0 00-.69.01zm62.61-21.51a.75.75 0 00.7 0l4.38-2.53c.19-.11.18-.29 0-.4l-5.07-2.93a.75.75 0 00-.7 0l-4.39 2.53c-.18.11-.17.29 0 .4zm-56.2 17.81l-4.39 2.53c-.18.11-.17.29 0 .4l5.07 2.93a.79.79 0 00.7 0l4.38-2.54c.19-.1.18-.29 0-.4l-5.07-2.93a.78.78 0 00-.69.01zm-48.05 42.38a.78.78 0 00.7 0l4.39-2.53c.18-.11.17-.29 0-.4l-5.1-2.92a.79.79 0 00-.7 0l-4.39 2.54c-.18.1-.17.28 0 .4zm-9.64-9.07l-4.39 2.53c-.19.1-.17.29 0 .4l5.07 2.93a.78.78 0 00.7 0l4.38-2.53c.19-.11.18-.29 0-.4l-5.07-2.93a.75.75 0 00-.69 0zm16.75 5.38l4.38-2.53c.19-.11.18-.29 0-.4L225 342.3a.79.79 0 00-.7 0l-4.39 2.54c-.18.1-.17.28 0 .4l5.07 2.93a.78.78 0 00.69-.01zm6.41-3.7l4.39-2.53c.18-.11.17-.29 0-.41l-5.07-2.92a.75.75 0 00-.7 0l-4.39 2.53c-.18.11-.17.29 0 .41l5.07 2.93a.78.78 0 00.7-.01zm6.41-3.7l4.39-2.53c.18-.11.17-.29 0-.41l-5.07-2.92a.75.75 0 00-.7 0l-4.39 2.53c-.18.11-.17.29 0 .41l5.07 2.93a.78.78 0 00.7-.01zm-23.16-1.69l-4.39 2.54c-.19.1-.17.28 0 .4l5.07 2.93a.78.78 0 00.7 0l4.38-2.53c.19-.11.18-.29 0-.4l-5.09-2.92a.79.79 0 00-.67-.02zm6.41-3.7l-4.39 2.54c-.18.1-.17.28 0 .4l5.07 2.93a.78.78 0 00.7 0l4.38-2.53c.19-.11.18-.29 0-.4l-5.07-2.93a.79.79 0 00-.69-.01zm25.64-14.8L243 323.1c-.18.11-.17.29 0 .41l5.07 2.92a.75.75 0 00.7 0l4.38-2.53c.19-.11.18-.29 0-.41l-5.07-2.93a.78.78 0 00-.7.01zm-6.41 3.7l-4.39 2.53c-.18.11-.17.29 0 .41l5.07 2.92a.75.75 0 00.7 0l4.38-2.53c.19-.11.18-.29 0-.41l-5.07-2.93a.78.78 0 00-.66.01zm12.82-7.4l-4.39 2.53c-.18.11-.17.29 0 .4l5.07 2.93a.79.79 0 00.7 0l4.38-2.54c.19-.1.18-.28 0-.4l-5.07-2.93a.78.78 0 00-.69.01zm-25.64 14.8l-4.39 2.53c-.18.11-.17.29 0 .41l5.07 2.93a.78.78 0 00.7 0l4.38-2.53c.19-.11.18-.29 0-.41l-5.07-2.92a.76.76 0 00-.69-.01zm6.41-3.7l-4.39 2.53c-.18.11-.17.29 0 .41l5.07 2.93a.78.78 0 00.7 0l4.38-2.53c.19-.11.18-.29 0-.41l-5.06-2.9a.76.76 0 00-.7 0zm-4.68 26.13l4.38-2.53c.19-.11.18-.29 0-.41l-5.07-2.93a.78.78 0 00-.7 0l-4.39 2.53c-.18.11-.17.29 0 .41l5.07 2.92a.75.75 0 00.71.01zm-37.62-3.8l-5.07-2.93a.78.78 0 00-.7 0l-4.39 2.53c-.18.11-.17.29 0 .4l5.07 2.93a.79.79 0 00.7 0l4.39-2.54c.21-.09.2-.27 0-.39zm9.61 2.82l-5.07-2.93a.78.78 0 00-.7 0l-6.75 3.89c-.19.11-.18.29 0 .41l5.08 2.92a.75.75 0 00.7 0l6.74-3.9c.21-.09.2-.28 0-.39zm-17.39-8.48l-5.07-2.93a.78.78 0 00-.7 0l-5.4 3.11c-.18.11-.17.29 0 .41l5.07 2.93a.78.78 0 00.7 0l5.4-3.12c.21-.1.2-.29 0-.4zm4.14-2.39a.75.75 0 00.7 0l4.38-2.53c.19-.11.18-.29 0-.4l-5.07-2.93a.75.75 0 00-.7 0l-4.39 2.53c-.18.11-.17.29 0 .4zm22.18 14.08l-5.07-2.93a.75.75 0 00-.7 0l-8.44 4.87c-.18.1-.17.28 0 .4l5.07 2.93a.78.78 0 00.7 0l8.43-4.87c.21-.11.21-.29.01-.4zm4.21 5.93l-5.07-2.92a.76.76 0 00-.7 0l-5.4 3.12c-.19.11-.18.29 0 .4l5.08 2.93a.75.75 0 00.7 0l5.39-3.11c.21-.12.2-.3-.01-.42zm21.27-47.53a.75.75 0 00.7 0l4.38-2.53c.19-.11.18-.29 0-.41l-5.07-2.93a.78.78 0 00-.7 0l-4.39 2.53c-.18.11-.17.29 0 .41zm-12.82 7.41a.78.78 0 00.7 0l4.38-2.53c.19-.11.18-.29 0-.41l-5.07-2.92a.76.76 0 00-.7 0l-4.39 2.53c-.18.11-.17.29 0 .41zM195 338.55a.78.78 0 00.7 0l4.38-2.53c.19-.11.18-.29 0-.4L195 332.7a.79.79 0 00-.7 0l-4.39 2.54c-.18.1-.17.29 0 .4zm34.84-20.12a.75.75 0 00.7 0l4.38-2.53c.19-.11.18-.29 0-.41l-5.07-2.93a.78.78 0 00-.7 0l-4.39 2.53c-.18.11-.17.29 0 .41zm-12.82 7.41a.78.78 0 00.7 0l4.38-2.53c.19-.11.18-.29 0-.41L217 320a.76.76 0 00-.7 0l-4.3 2.5c-.18.11-.17.29 0 .41zm1.48 36.9a.75.75 0 00-.7 0l-6.75 3.89c-.18.11-.17.29 0 .41l5.07 2.92a.75.75 0 00.7 0l6.75-3.9c.18-.11.17-.29 0-.4zm-10.68-31.59a.78.78 0 00.7 0l4.38-2.53c.19-.11.18-.29 0-.4l-5.07-2.93a.79.79 0 00-.7 0l-4.39 2.54c-.18.1-.17.28 0 .4zm-6.41 3.7a.78.78 0 00.7 0l4.38-2.53c.19-.11.18-.29 0-.4l-5.06-2.92a.79.79 0 00-.7 0l-4.39 2.54c-.18.1-.17.28 0 .4zm135.85-40.67a.76.76 0 00-.7 0l-10.8 6.23c-.18.11-.17.29 0 .41l5.07 2.93a.78.78 0 00.7 0l10.79-6.23c.19-.11.18-.29 0-.41zm-14.17 8.18a.76.76 0 00-.7 0l-4.39 2.51c-.18.11-.17.29 0 .41l5.07 2.93a.78.78 0 00.7 0l4.38-2.53c.19-.11.18-.29 0-.41zm-86.83 48l4.38-2.54c.19-.1.18-.28 0-.4l-5.07-2.93a.78.78 0 00-.7 0l-4.39 2.53c-.18.11-.17.29 0 .4l5.07 2.93a.79.79 0 00.74.05zm74-40.64a.79.79 0 00-.7 0l-4.39 2.54c-.18.1-.17.28 0 .4l5.07 2.93a.78.78 0 00.7 0l4.38-2.53c.19-.11.18-.29 0-.4zm33.4-19.28a.76.76 0 00-.7 0l-4.35 2.56c-.18.11-.17.29 0 .41l5.07 2.92a.75.75 0 00.7 0l4.38-2.53c.19-.11.18-.29 0-.41zm11.48-.78l-12.32-7.11a.78.78 0 00-.7 0l-4.38 2.53c-.19.11-.18.29 0 .4l12.32 7.11a.75.75 0 00.7 0l4.38-2.53c.25-.06.24-.24.04-.36zm-68.84 33.89a.79.79 0 00-.7 0l-5.39 3.12c-.19.11-.18.29 0 .4l5.07 2.93a.79.79 0 00.7 0l5.4-3.12c.19-.11.18-.29 0-.4zm16.2-9.35a.79.79 0 00-.7 0l-6.75 3.9c-.19.11-.17.29 0 .4l5.07 2.93a.79.79 0 00.7 0l6.74-3.9c.19-.11.18-.29 0-.4zm-31 17.92a.79.79 0 00-.7 0L234.7 353c-.19.1-.17.28 0 .4l5.07 2.93a.78.78 0 00.7 0l36.1-20.84c.18-.11.17-.29 0-.4zm-38.12 22a.79.79 0 00-.7 0l-5.4 3.12c-.19.11-.18.29 0 .41l5.07 2.92a.76.76 0 00.7 0l5.4-3.12c.19-.11.18-.29 0-.4zm45.54-26.3a.78.78 0 00-.7 0l-5.4 3.12c-.18.1-.17.28 0 .4l5.07 2.93a.78.78 0 00.7 0l5.4-3.11c.18-.11.17-.29 0-.41zm-53 30.58a.78.78 0 00-.7 0l-5.39 3.12c-.19.1-.18.29 0 .4l5.07 2.93a.78.78 0 00.7 0l5.4-3.11c.19-.11.18-.29 0-.41zm67.82-39.15a.78.78 0 00-.7 0l-5.4 3.12c-.19.1-.18.28 0 .4l5.08 2.93a.76.76 0 00.69 0l5.4-3.11c.19-.11.18-.29 0-.41zm22.94-13.24a.79.79 0 00-.7 0l-4.39 2.54c-.18.1-.17.28 0 .4l5.07 2.93a.78.78 0 00.7 0l4.38-2.53c.19-.11.18-.29 0-.4zm14-10.2l4.39-2.54c.19-.1.17-.28 0-.4L330 290a.78.78 0 00-.7 0l-4.3 2.51c-.19.11-.18.29 0 .4l5.07 2.93a.79.79 0 00.68.02zm-28.66-.19l4.39-2.53c.19-.11.17-.29 0-.4l-5.07-2.93a.79.79 0 00-.7 0l-4.38 2.54c-.19.1-.18.28 0 .4l5.07 2.93a.78.78 0 00.76.04zm-14.52 25.12l12.82-7.4c.19-.11.17-.29 0-.41l-5.07-2.92a.75.75 0 00-.7 0l-12.82 7.4c-.18.11-.17.29 0 .41l5.07 2.93a.78.78 0 00.77.04zm36.07-21.25a.76.76 0 00.7 0l4.39-2.53c.19-.11.17-.29 0-.41l-5.07-2.93a.78.78 0 00-.7 0l-4.38 2.53c-.19.11-.18.29 0 .41zm-6.54-4.16l4.38-2.54c.19-.1.18-.29 0-.4l-5.07-2.93a.78.78 0 00-.7 0L311.3 292c-.18.11-.17.29 0 .4l5.07 2.93a.79.79 0 00.73.05zm-35.94 29.11l4.38-2.53c.19-.11.18-.29 0-.41l-5.07-2.92a.75.75 0 00-.7 0l-4.39 2.53c-.18.11-.17.29 0 .41l5.07 2.93a.78.78 0 00.78.04zm28.31-16.77a.76.76 0 00.7 0l4.39-2.53c.19-.11.17-.29 0-.41l-5.07-2.92a.75.75 0 00-.7 0l-4.38 2.53c-.19.11-.18.29 0 .41zM249.11 343l4.38-2.54c.19-.1.18-.29 0-.4l-5.07-2.93a.78.78 0 00-.7 0l-4.39 2.53c-.18.11-.17.29 0 .4l5.07 2.93a.79.79 0 00.71.01zm6.41-3.71l4.38-2.53c.19-.11.18-.29 0-.4l-5.07-2.93a.75.75 0 00-.7 0l-4.41 2.57c-.18.11-.17.29 0 .4l5.07 2.93a.75.75 0 00.73-.04zm-12.82 7.41l4.38-2.54c.19-.1.18-.28 0-.4l-5.08-2.93a.78.78 0 00-.7 0l-4.39 2.53c-.18.11-.17.29 0 .4l5.07 2.93a.79.79 0 00.72.01zm25.64-14.81l4.38-2.53c.19-.11.18-.29 0-.4l-5.09-2.96a.79.79 0 00-.7 0l-4.39 2.54c-.18.1-.17.28 0 .4l5.07 2.93a.78.78 0 00.73.02zm-6.41 3.7l4.38-2.53c.19-.11.18-.29 0-.4l-5.07-2.93a.79.79 0 00-.7 0l-4.39 2.54c-.18.1-.17.29 0 .4l5.07 2.93a.78.78 0 00.71-.01zm12.82-7.4l4.38-2.53c.19-.11.18-.29 0-.4l-5.13-2.93a.76.76 0 00-.7 0l-4.3 2.52c-.18.1-.17.28 0 .4l5.07 2.93a.78.78 0 00.68.01zm29.33-54.75a.76.76 0 00.69 0l4.39-2.54c.19-.1.18-.28 0-.4l-1.35-.78a.78.78 0 00-.7 0l-4.39 2.53c-.19.11-.17.29 0 .4zm-31.54 20.36a.75.75 0 00.7 0l4.38-2.53c.19-.1.18-.29 0-.4l-5.09-2.87a.75.75 0 00-.7 0l-4.39 2.53c-.19.11-.18.29 0 .4zm12.82-7.4a.78.78 0 00.7 0l4.38-2.53c.19-.11.18-.29 0-.4l-5.07-2.93a.79.79 0 00-.7 0l-4.39 2.54c-.19.1-.18.29 0 .4zm-20.65 11.92a.78.78 0 00.7 0l4.38-2.53c.19-.11.18-.29 0-.4l-5.07-2.93a.75.75 0 00-.7 0l-4.41 2.54c-.18.1-.17.29 0 .4zM279 290.1a.75.75 0 00.7 0l4.38-2.53c.19-.11.18-.29 0-.4l-5.08-2.93a.73.73 0 00-.69 0l-4.39 2.53c-.19.11-.18.29 0 .4zm-27.06 15.62a.79.79 0 00.7 0l4.36-2.52c.19-.1.18-.29 0-.4l-5.07-2.93a.78.78 0 00-.7 0l-4.39 2.53c-.18.11-.17.29 0 .4zm6.41-3.7a.75.75 0 00.7 0l4.38-2.53c.19-.11.18-.29 0-.4l-5.07-2.93a.75.75 0 00-.7 0l-4.39 2.53c-.18.11-.17.29 0 .4zm32.95-21.18a.76.76 0 00.7 0l4.39-2.53c.19-.11.18-.29 0-.41l-1.35-.78a.78.78 0 00-.7 0l-4.39 2.53c-.19.11-.18.29 0 .4zm19.24-11.1a.79.79 0 00.7 0l4.38-2.54c.19-.1.18-.28 0-.4l-1.42-.8a.75.75 0 00-.7 0l-4.39 2.53c-.19.11-.17.29 0 .4zm10.65 6.15a.79.79 0 00.7 0l4.38-2.54c.19-.1.18-.28 0-.4l-5.14-2.95a.78.78 0 00-.7 0l-4.43 2.56c-.18.11-.17.29 0 .4zm16 16.27l4.39-2.54c.19-.1.18-.28 0-.4l-5.07-2.93a.78.78 0 00-.7 0l-4.38 2.53c-.19.11-.18.29 0 .4l5.07 2.93a.79.79 0 00.66.01zm-39.49-15a.74.74 0 00.69 0l4.39-2.53c.19-.11.18-.29 0-.41l-1.35-.78a.78.78 0 00-.7 0l-4.44 2.56c-.19.11-.18.29 0 .4zm-52.19 32.28a.79.79 0 00.7 0l4.38-2.54c.19-.1.18-.28 0-.4l-5.07-2.93a.78.78 0 00-.7 0l-4.39 2.53c-.18.11-.17.29 0 .4z" fill="currentColor"/><path d="M295.68 299.37l4.39-2.53c.19-.11.17-.29 0-.4l-5.07-2.93a.79.79 0 00-.7 0l-4.41 2.49c-.19.1-.18.29 0 .4l5.07 2.93a.78.78 0 00.72.04zM287 289.31l-4.39 2.53c-.18.11-.17.29 0 .41l5.07 2.93a.78.78 0 00.7 0l4.38-2.53c.19-.11.18-.29 0-.41l-5.07-2.92a.76.76 0 00-.69-.01zm-14.17 8.18l-7.42 4.29c-.19.11-.18.29 0 .4l5.07 2.93a.75.75 0 00.7 0l7.42-4.28c.19-.11.18-.29 0-.4l-5.07-2.93a.79.79 0 00-.67-.01zm7.76-4.48l-4.39 2.54c-.18.1-.17.28 0 .4l5.07 2.93a.78.78 0 00.7 0l4.38-2.53c.19-.11.18-.29 0-.4l-5.03-2.95a.79.79 0 00-.7 0zM263.41 303l-4.41 2.48c-.19.11-.18.29 0 .4l5.07 2.93a.79.79 0 00.7 0l4.39-2.54c.18-.1.17-.29 0-.4l-5.05-2.87a.78.78 0 00-.7 0zm-6.41 3.7l-4.38 2.53c-.19.11-.18.29 0 .4l5.07 2.93a.79.79 0 00.7 0l4.41-2.56c.18-.1.17-.28 0-.4l-5.07-2.93a.78.78 0 00-.73-.02zm20 11.85l4.39-2.53c.18-.11.17-.29 0-.4l-5.07-2.93a.75.75 0 00-.7 0l-4.39 2.53c-.18.11-.17.29 0 .4l5.07 2.93a.75.75 0 00.7 0zm-6.41 3.71l4.39-2.54c.18-.1.17-.29 0-.4l-5.07-2.93a.78.78 0 00-.7 0l-4.39 2.53c-.18.11-.17.29 0 .4l5.07 2.93a.79.79 0 00.65.01zm-6.41 3.7l4.39-2.54c.18-.1.17-.28 0-.4l-5.07-2.93a.78.78 0 00-.7 0l-4.39 2.53c-.18.11-.17.29 0 .4l5.07 2.93a.79.79 0 00.65.05zm-6.41 3.7l4.39-2.53c.18-.11.17-.29 0-.41l-5.16-2.93a.78.78 0 00-.7 0l-4.39 2.53c-.18.11-.17.29 0 .41l5.07 2.92a.75.75 0 00.74.01zm31.55-26.59l4.39-2.53c.19-.11.17-.29 0-.4l-5.07-2.93a.75.75 0 00-.7 0l-4.38 2.53c-.19.11-.18.29 0 .4l5.07 2.93a.75.75 0 00.64 0zm-5.91 11.78l9.78-5.65c.19-.1.18-.28 0-.4l-12.32-7.11a.75.75 0 00-.7 0L275 304.6c-.18.11-.17.29 0 .4l6.52 3.77c.2.11.21.29 0 .4l-4.05 2.34c-.18.1-.17.29 0 .4l5.07 2.93a.78.78 0 00.82.01zm-32.77-4.5l-4.38 2.53c-.19.11-.18.29 0 .4l5.07 2.93a.79.79 0 00.7 0l4.39-2.53c.18-.11.17-.29 0-.41l-5.07-2.93a.78.78 0 00-.76.01zm-6.41 3.7l-4.38 2.53c-.19.11-.18.29 0 .41l5.07 2.92a.76.76 0 00.7 0l4.38-2.51c.18-.11.17-.29 0-.41l-5.07-2.93a.78.78 0 00-.75-.01zm-32 41.5a.78.78 0 00.7 0l4.38-2.53c.19-.11.18-.29 0-.4l-5.07-2.93a.75.75 0 00-.7 0l-4.39 2.53c-.18.1-.17.29 0 .4zm-19.33-11.89l-4.39 2.53c-.18.11-.17.29 0 .4l5.07 2.93a.79.79 0 00.7 0l4.42-2.52c.18-.1.17-.29 0-.4l-5.07-2.93a.78.78 0 00-.73-.01zm10.32 8.68a.75.75 0 00.7 0l4.38-2.53c.19-.11.18-.29 0-.4l-5.07-2.93a.75.75 0 00-.7 0l-4.41 2.52c-.19.11-.17.29 0 .4zm20.25 5.46l4.38-2.53c.19-.11.18-.29 0-.41l-5.07-2.93a.78.78 0 00-.7 0l-4.39 2.53c-.18.11-.17.29 0 .41l5.07 2.92a.75.75 0 00.71.01zm-7.11 3.69a.78.78 0 00.7 0l4.38-2.53c.19-.11.18-.29 0-.41l-5.07-2.92a.76.76 0 00-.7 0l-4.39 2.53c-.18.11-.17.29 0 .41zM199.31 340l-4.39 2.53c-.18.11-.17.29 0 .4l5.07 2.93a.75.75 0 00.7 0l4.39-2.53c.18-.11.17-.29 0-.4L200 340a.75.75 0 00-.69 0zm32.05-18.51L227 324c-.19.11-.18.29 0 .41l5.07 2.93a.78.78 0 00.7 0l4.39-2.53c.18-.11.17-.29 0-.41l-5.07-2.92a.75.75 0 00-.73-.03zm-25.64 14.81l-4.39 2.53c-.18.1-.17.29 0 .4l5.07 2.93a.78.78 0 00.7 0l4.39-2.53c.18-.11.17-.29 0-.4l-5.07-2.93a.75.75 0 00-.7-.04zm32.05-18.51l-4.38 2.53c-.19.11-.18.29 0 .41l5.07 2.92a.75.75 0 00.7 0l4.39-2.53c.18-.11.17-.29 0-.41l-5.07-2.93a.78.78 0 00-.71-.03zM225 325.15l-4.38 2.53c-.19.11-.18.29 0 .41l5.07 2.93a.78.78 0 00.7 0l4.39-2.53c.18-.11.17-.29 0-.41l-5.07-2.92a.75.75 0 00-.71-.01zm-6.41 3.7l-4.38 2.54c-.19.1-.18.28 0 .4l5.07 2.93a.78.78 0 00.7 0l4.39-2.53c.18-.11.17-.29 0-.4l-5.07-2.93a.79.79 0 00-.76-.01zm-6.41 3.7l-4.38 2.54c-.19.1-.18.28 0 .4l5.07 2.93a.78.78 0 00.7 0l4.39-2.53c.18-.11.17-.29 0-.4l-5.07-2.93a.79.79 0 00-.76-.01zm32.77 4.51l4.39-2.53c.18-.11.17-.29 0-.41l-5.07-2.93a.78.78 0 00-.7 0l-4.39 2.53c-.18.11-.17.29 0 .41l5.02 2.87a.75.75 0 00.7.06zm56.3-55.93l-4.39 2.53c-.18.11-.17.29 0 .41l5.07 2.92a.75.75 0 00.7 0l4.38-2.53c.19-.11.18-.29 0-.41l-5.07-2.92a.76.76 0 00-.74 0zm-7.76 4.48l-4.39 2.53c-.18.11-.17.29 0 .41l5.07 2.93a.78.78 0 00.7 0l4.38-2.53c.19-.11.18-.29 0-.41l-5.07-2.92a.76.76 0 00-.74-.01zm14.17-8.18l-4.44 2.57c-.18.11-.17.29 0 .41l5.07 2.92a.75.75 0 00.7 0l4.38-2.53c.19-.11.18-.29 0-.41l-5.07-2.93a.78.78 0 00-.69-.03zm-33.18 34.21l4.38-2.53c.19-.11.18-.29 0-.4l-5.07-2.93a.75.75 0 00-.7 0l-4.39 2.53c-.18.11-.17.29 0 .4l5.07 2.93a.75.75 0 00.66 0zm40.29-37.9a.78.78 0 00-.7 0l-4.39 2.53c-.18.11-.17.29 0 .41l5.07 2.92a.75.75 0 00.7 0l4.38-2.53c.19-.11.18-.29 0-.41zm-63.41 59.62l4.39-2.53c.18-.11.17-.29 0-.41l-5.07-2.93a.78.78 0 00-.7 0l-4.47 2.51c-.18.11-.17.29 0 .41l5.07 2.92a.75.75 0 00.73.03zM329.92 288l4.38-2.53c.19-.11.18-.29 0-.4l-5.07-2.93a.75.75 0 00-.7 0l-4.39 2.53c-.18.1-.17.29 0 .4l5.07 2.93a.78.78 0 00.71 0zm-13.66-.48l4.39-2.53c.19-.11.17-.29 0-.4l-5.07-2.93a.79.79 0 00-.7 0l-4.38 2.53c-.19.11-.18.29 0 .41l5.07 2.93a.78.78 0 00.69-.04zm5.7-9.56a.75.75 0 00-.7 0l-4.38 2.53c-.19.11-.18.29 0 .41l5.07 2.93a.78.78 0 00.7 0l4.39-2.53c.19-.11.17-.29 0-.41zm1.35-.78l12.32 7.11a.78.78 0 00.7 0l4.38-2.53c.19-.11.18-.29 0-.4l-12.32-7.11a.75.75 0 00-.7 0l-4.38 2.53c-.21.07-.2.22 0 .37zm-14.87 8.16l-4.38 2.54c-.19.1-.18.28 0 .4l5.07 2.93a.78.78 0 00.7 0l4.39-2.53c.19-.11.17-.29 0-.4l-5.07-2.93a.79.79 0 00-.71-.04zm-48.24 27.83l-4.39 2.53c-.18.11-.17.29 0 .4l5.07 2.93a.79.79 0 00.7 0l4.38-2.54c.19-.1.18-.28 0-.4l-5.07-2.93a.78.78 0 00-.69.01zm62.61-21.51a.75.75 0 00.7 0l4.38-2.53c.19-.11.18-.29 0-.4l-5.07-2.93a.75.75 0 00-.7 0l-4.39 2.53c-.18.11-.17.29 0 .4zm-56.2 17.81l-4.39 2.53c-.18.11-.17.29 0 .4l5.07 2.93a.79.79 0 00.7 0l4.38-2.54c.19-.1.18-.29 0-.4l-5.07-2.93a.78.78 0 00-.69.01zm-48.05 42.38a.78.78 0 00.7 0l4.39-2.53c.18-.11.17-.29 0-.4l-5.1-2.92a.79.79 0 00-.7 0l-4.39 2.54c-.18.1-.17.28 0 .4zm-9.64-9.07l-4.39 2.53c-.19.1-.17.29 0 .4l5.07 2.93a.78.78 0 00.7 0l4.38-2.53c.19-.11.18-.29 0-.4l-5.07-2.93a.75.75 0 00-.69 0zm16.75 5.38l4.38-2.53c.19-.11.18-.29 0-.4L225 342.3a.79.79 0 00-.7 0l-4.39 2.54c-.18.1-.17.28 0 .4l5.07 2.93a.78.78 0 00.69-.01zm6.41-3.7l4.39-2.53c.18-.11.17-.29 0-.41l-5.07-2.92a.75.75 0 00-.7 0l-4.39 2.53c-.18.11-.17.29 0 .41l5.07 2.93a.78.78 0 00.7-.01zm6.41-3.7l4.39-2.53c.18-.11.17-.29 0-.41l-5.07-2.92a.75.75 0 00-.7 0l-4.39 2.53c-.18.11-.17.29 0 .41l5.07 2.93a.78.78 0 00.7-.01zm-23.16-1.69l-4.39 2.54c-.19.1-.17.28 0 .4l5.07 2.93a.78.78 0 00.7 0l4.38-2.53c.19-.11.18-.29 0-.4l-5.09-2.92a.79.79 0 00-.67-.02zm6.41-3.7l-4.39 2.54c-.18.1-.17.28 0 .4l5.07 2.93a.78.78 0 00.7 0l4.38-2.53c.19-.11.18-.29 0-.4l-5.07-2.93a.79.79 0 00-.69-.01zm25.64-14.8L243 323.1c-.18.11-.17.29 0 .41l5.07 2.92a.75.75 0 00.7 0l4.38-2.53c.19-.11.18-.29 0-.41l-5.07-2.93a.78.78 0 00-.7.01zm-6.41 3.7l-4.39 2.53c-.18.11-.17.29 0 .41l5.07 2.92a.75.75 0 00.7 0l4.38-2.53c.19-.11.18-.29 0-.41l-5.07-2.93a.78.78 0 00-.66.01zm12.82-7.4l-4.39 2.53c-.18.11-.17.29 0 .4l5.07 2.93a.79.79 0 00.7 0l4.38-2.54c.19-.1.18-.28 0-.4l-5.07-2.93a.78.78 0 00-.69.01zm-25.64 14.8l-4.39 2.53c-.18.11-.17.29 0 .41l5.07 2.93a.78.78 0 00.7 0l4.38-2.53c.19-.11.18-.29 0-.41l-5.07-2.92a.76.76 0 00-.69-.01zm6.41-3.7l-4.39 2.53c-.18.11-.17.29 0 .41l5.07 2.93a.78.78 0 00.7 0l4.38-2.53c.19-.11.18-.29 0-.41l-5.06-2.9a.76.76 0 00-.7 0zm-4.68 26.13l4.38-2.53c.19-.11.18-.29 0-.41l-5.07-2.93a.78.78 0 00-.7 0l-4.39 2.53c-.18.11-.17.29 0 .41l5.07 2.92a.75.75 0 00.71.01zm-37.62-3.8l-5.07-2.93a.78.78 0 00-.7 0l-4.39 2.53c-.18.11-.17.29 0 .4l5.07 2.93a.79.79 0 00.7 0l4.39-2.54c.21-.09.2-.27 0-.39zm9.61 2.82l-5.07-2.93a.78.78 0 00-.7 0l-6.75 3.89c-.19.11-.18.29 0 .41l5.08 2.92a.75.75 0 00.7 0l6.74-3.9c.21-.09.2-.28 0-.39zm-17.39-8.48l-5.07-2.93a.78.78 0 00-.7 0l-5.4 3.11c-.18.11-.17.29 0 .41l5.07 2.93a.78.78 0 00.7 0l5.4-3.12c.21-.1.2-.29 0-.4zm4.14-2.39a.75.75 0 00.7 0l4.38-2.53c.19-.11.18-.29 0-.4l-5.07-2.93a.75.75 0 00-.7 0l-4.39 2.53c-.18.11-.17.29 0 .4zm22.18 14.08l-5.07-2.93a.75.75 0 00-.7 0l-8.44 4.87c-.18.1-.17.28 0 .4l5.07 2.93a.78.78 0 00.7 0l8.43-4.87c.21-.11.21-.29.01-.4zm4.21 5.93l-5.07-2.92a.76.76 0 00-.7 0l-5.4 3.12c-.19.11-.18.29 0 .4l5.08 2.93a.75.75 0 00.7 0l5.39-3.11c.21-.12.2-.3-.01-.42zm21.27-47.53a.75.75 0 00.7 0l4.38-2.53c.19-.11.18-.29 0-.41l-5.07-2.93a.78.78 0 00-.7 0l-4.39 2.53c-.18.11-.17.29 0 .41zm-12.82 7.41a.78.78 0 00.7 0l4.38-2.53c.19-.11.18-.29 0-.41l-5.07-2.92a.76.76 0 00-.7 0l-4.39 2.53c-.18.11-.17.29 0 .41zM195 338.55a.78.78 0 00.7 0l4.38-2.53c.19-.11.18-.29 0-.4L195 332.7a.79.79 0 00-.7 0l-4.39 2.54c-.18.1-.17.29 0 .4zm34.84-20.12a.75.75 0 00.7 0l4.38-2.53c.19-.11.18-.29 0-.41l-5.07-2.93a.78.78 0 00-.7 0l-4.39 2.53c-.18.11-.17.29 0 .41zm-12.82 7.41a.78.78 0 00.7 0l4.38-2.53c.19-.11.18-.29 0-.41L217 320a.76.76 0 00-.7 0l-4.3 2.5c-.18.11-.17.29 0 .41zm1.48 36.9a.75.75 0 00-.7 0l-6.75 3.89c-.18.11-.17.29 0 .41l5.07 2.92a.75.75 0 00.7 0l6.75-3.9c.18-.11.17-.29 0-.4zm-10.68-31.59a.78.78 0 00.7 0l4.38-2.53c.19-.11.18-.29 0-.4l-5.07-2.93a.79.79 0 00-.7 0l-4.39 2.54c-.18.1-.17.28 0 .4zm-6.41 3.7a.78.78 0 00.7 0l4.38-2.53c.19-.11.18-.29 0-.4l-5.06-2.92a.79.79 0 00-.7 0l-4.39 2.54c-.18.1-.17.28 0 .4zm135.85-40.67a.76.76 0 00-.7 0l-10.8 6.23c-.18.11-.17.29 0 .41l5.07 2.93a.78.78 0 00.7 0l10.79-6.23c.19-.11.18-.29 0-.41zm-14.17 8.18a.76.76 0 00-.7 0l-4.39 2.51c-.18.11-.17.29 0 .41l5.07 2.93a.78.78 0 00.7 0l4.38-2.53c.19-.11.18-.29 0-.41zm-86.83 48l4.38-2.54c.19-.1.18-.28 0-.4l-5.07-2.93a.78.78 0 00-.7 0l-4.39 2.53c-.18.11-.17.29 0 .4l5.07 2.93a.79.79 0 00.74.05zm74-40.64a.79.79 0 00-.7 0l-4.39 2.54c-.18.1-.17.28 0 .4l5.07 2.93a.78.78 0 00.7 0l4.38-2.53c.19-.11.18-.29 0-.4zm33.4-19.28a.76.76 0 00-.7 0l-4.35 2.56c-.18.11-.17.29 0 .41l5.07 2.92a.75.75 0 00.7 0l4.38-2.53c.19-.11.18-.29 0-.41zm11.48-.78l-12.32-7.11a.78.78 0 00-.7 0l-4.38 2.53c-.19.11-.18.29 0 .4l12.32 7.11a.75.75 0 00.7 0l4.38-2.53c.25-.06.24-.24.04-.36zm-68.84 33.89a.79.79 0 00-.7 0l-5.39 3.12c-.19.11-.18.29 0 .4l5.07 2.93a.79.79 0 00.7 0l5.4-3.12c.19-.11.18-.29 0-.4zm16.2-9.35a.79.79 0 00-.7 0l-6.75 3.9c-.19.11-.17.29 0 .4l5.07 2.93a.79.79 0 00.7 0l6.74-3.9c.19-.11.18-.29 0-.4zm-31 17.92a.79.79 0 00-.7 0L234.7 353c-.19.1-.17.28 0 .4l5.07 2.93a.78.78 0 00.7 0l36.1-20.84c.18-.11.17-.29 0-.4zm-38.12 22a.79.79 0 00-.7 0l-5.4 3.12c-.19.11-.18.29 0 .41l5.07 2.92a.76.76 0 00.7 0l5.4-3.12c.19-.11.18-.29 0-.4zm45.54-26.3a.78.78 0 00-.7 0l-5.4 3.12c-.18.1-.17.28 0 .4l5.07 2.93a.78.78 0 00.7 0l5.4-3.11c.18-.11.17-.29 0-.41zm-53 30.58a.78.78 0 00-.7 0l-5.39 3.12c-.19.1-.18.29 0 .4l5.07 2.93a.78.78 0 00.7 0l5.4-3.11c.19-.11.18-.29 0-.41zm67.82-39.15a.78.78 0 00-.7 0l-5.4 3.12c-.19.1-.18.28 0 .4l5.08 2.93a.76.76 0 00.69 0l5.4-3.11c.19-.11.18-.29 0-.41zm22.94-13.24a.79.79 0 00-.7 0l-4.39 2.54c-.18.1-.17.28 0 .4l5.07 2.93a.78.78 0 00.7 0l4.38-2.53c.19-.11.18-.29 0-.4zm14-10.2l4.39-2.54c.19-.1.17-.28 0-.4L330 290a.78.78 0 00-.7 0l-4.3 2.51c-.19.11-.18.29 0 .4l5.07 2.93a.79.79 0 00.68.02zm-28.66-.19l4.39-2.53c.19-.11.17-.29 0-.4l-5.07-2.93a.79.79 0 00-.7 0l-4.38 2.54c-.19.1-.18.28 0 .4l5.07 2.93a.78.78 0 00.76.04zm-14.52 25.12l12.82-7.4c.19-.11.17-.29 0-.41l-5.07-2.92a.75.75 0 00-.7 0l-12.82 7.4c-.18.11-.17.29 0 .41l5.07 2.93a.78.78 0 00.77.04zm36.07-21.25a.76.76 0 00.7 0l4.39-2.53c.19-.11.17-.29 0-.41l-5.07-2.93a.78.78 0 00-.7 0l-4.38 2.53c-.19.11-.18.29 0 .41zm-6.54-4.16l4.38-2.54c.19-.1.18-.29 0-.4l-5.07-2.93a.78.78 0 00-.7 0L311.3 292c-.18.11-.17.29 0 .4l5.07 2.93a.79.79 0 00.73.05zm-35.94 29.11l4.38-2.53c.19-.11.18-.29 0-.41l-5.07-2.92a.75.75 0 00-.7 0l-4.39 2.53c-.18.11-.17.29 0 .41l5.07 2.93a.78.78 0 00.78.04zm28.31-16.77a.76.76 0 00.7 0l4.39-2.53c.19-.11.17-.29 0-.41l-5.07-2.92a.75.75 0 00-.7 0l-4.38 2.53c-.19.11-.18.29 0 .41zM249.11 343l4.38-2.54c.19-.1.18-.29 0-.4l-5.07-2.93a.78.78 0 00-.7 0l-4.39 2.53c-.18.11-.17.29 0 .4l5.07 2.93a.79.79 0 00.71.01zm6.41-3.71l4.38-2.53c.19-.11.18-.29 0-.4l-5.07-2.93a.75.75 0 00-.7 0l-4.41 2.57c-.18.11-.17.29 0 .4l5.07 2.93a.75.75 0 00.73-.04zm-12.82 7.41l4.38-2.54c.19-.1.18-.28 0-.4l-5.08-2.93a.78.78 0 00-.7 0l-4.39 2.53c-.18.11-.17.29 0 .4l5.07 2.93a.79.79 0 00.72.01zm25.64-14.81l4.38-2.53c.19-.11.18-.29 0-.4l-5.09-2.96a.79.79 0 00-.7 0l-4.39 2.54c-.18.1-.17.28 0 .4l5.07 2.93a.78.78 0 00.73.02zm-6.41 3.7l4.38-2.53c.19-.11.18-.29 0-.4l-5.07-2.93a.79.79 0 00-.7 0l-4.39 2.54c-.18.1-.17.29 0 .4l5.07 2.93a.78.78 0 00.71-.01zm12.82-7.4l4.38-2.53c.19-.11.18-.29 0-.4l-5.13-2.93a.76.76 0 00-.7 0l-4.3 2.52c-.18.1-.17.28 0 .4l5.07 2.93a.78.78 0 00.68.01zm29.33-54.75a.76.76 0 00.69 0l4.39-2.54c.19-.1.18-.28 0-.4l-1.35-.78a.78.78 0 00-.7 0l-4.39 2.53c-.19.11-.17.29 0 .4zm-31.54 20.36a.75.75 0 00.7 0l4.38-2.53c.19-.1.18-.29 0-.4l-5.09-2.87a.75.75 0 00-.7 0l-4.39 2.53c-.19.11-.18.29 0 .4zm12.82-7.4a.78.78 0 00.7 0l4.38-2.53c.19-.11.18-.29 0-.4l-5.07-2.93a.79.79 0 00-.7 0l-4.39 2.54c-.19.1-.18.29 0 .4zm-20.65 11.92a.78.78 0 00.7 0l4.38-2.53c.19-.11.18-.29 0-.4l-5.07-2.93a.75.75 0 00-.7 0l-4.41 2.54c-.18.1-.17.29 0 .4zM279 290.1a.75.75 0 00.7 0l4.38-2.53c.19-.11.18-.29 0-.4l-5.08-2.93a.73.73 0 00-.69 0l-4.39 2.53c-.19.11-.18.29 0 .4zm-27.06 15.62a.79.79 0 00.7 0l4.36-2.52c.19-.1.18-.29 0-.4l-5.07-2.93a.78.78 0 00-.7 0l-4.39 2.53c-.18.11-.17.29 0 .4zm6.41-3.7a.75.75 0 00.7 0l4.38-2.53c.19-.11.18-.29 0-.4l-5.07-2.93a.75.75 0 00-.7 0l-4.39 2.53c-.18.11-.17.29 0 .4zm32.95-21.18a.76.76 0 00.7 0l4.39-2.53c.19-.11.18-.29 0-.41l-1.35-.78a.78.78 0 00-.7 0l-4.39 2.53c-.19.11-.18.29 0 .4zm19.24-11.1a.79.79 0 00.7 0l4.38-2.54c.19-.1.18-.28 0-.4l-1.42-.8a.75.75 0 00-.7 0l-4.39 2.53c-.19.11-.17.29 0 .4zm10.65 6.15a.79.79 0 00.7 0l4.38-2.54c.19-.1.18-.28 0-.4l-5.14-2.95a.78.78 0 00-.7 0l-4.43 2.56c-.18.11-.17.29 0 .4zm16 16.27l4.39-2.54c.19-.1.18-.28 0-.4l-5.07-2.93a.78.78 0 00-.7 0l-4.38 2.53c-.19.11-.18.29 0 .4l5.07 2.93a.79.79 0 00.66.01zm-39.49-15a.74.74 0 00.69 0l4.39-2.53c.19-.11.18-.29 0-.41l-1.35-.78a.78.78 0 00-.7 0l-4.44 2.56c-.19.11-.18.29 0 .4zm-52.19 32.28a.79.79 0 00.7 0l4.38-2.54c.19-.1.18-.28 0-.4l-5.07-2.93a.78.78 0 00-.7 0l-4.39 2.53c-.18.11-.17.29 0 .4z" fill="#fff" opacity=".8"/><path d="M273.9 347.9l43.29-25a5.23 5.23 0 014.72 0l24.82 14.33c1.3.75 1.3 2 0 2.73l-43.28 25a5.19 5.19 0 01-4.73 0l-24.82-14.33c-1.3-.76-1.3-1.98 0-2.73z" fill="currentColor"/><path d="M273.9 347.9l43.29-25a5.23 5.23 0 014.72 0l24.82 14.33c1.3.75 1.3 2 0 2.73l-43.28 25a5.19 5.19 0 01-4.73 0l-24.82-14.33c-1.3-.76-1.3-1.98 0-2.73z" fill="#fff" opacity=".4"/><path d="M131.22 332.2a6 6 0 001.21.52 5.5 5.5 0 01-1.21-.51 2.4 2.4 0 01-.37-.25 3.37 3.37 0 00.37.24z" fill="currentColor"/><path d="M293.66 105.86c-.28-2-1.92-2.78-3.9-1.64l-150.91 87.14a7.93 7.93 0 00-2.79 2.92l-7.38-4.28a8 8 0 012.78-2.94L282.38 100a7.36 7.36 0 0111.28 5.9z" fill="#fff" opacity=".6"/><path d="M138.11 332.57l.06-.05z" fill="currentColor"/><path d="M411.87 315.15a8.45 8.45 0 01-3.94 6.54L257 408.82a8.13 8.13 0 01-3.94.92v-8.51a8 8 0 003.94-.94l150.91-87.13c2-1.18 2.16-3 .4-4.29a8.52 8.52 0 013.56 6.28z" fill="#fff" opacity=".8"/><g><path d="M144.37 303.34c0 1.86 1.31 2.61 2.92 1.68L280.78 228a6.45 6.45 0 002.92-5v-90l-139.33 80.47z" fill="#37474f"/><path d="M195.13 194.51v4.32c0 .88.63 1.24 1.39.8l27.72-16.09V176l-27.72 16.1a3.1 3.1 0 00-1.39 2.41z" fill="#fafafa"/><path d="M231.55 171.79c.77-.44 1.39-.08 1.39.8v4.32a3.06 3.06 0 01-1.39 2.41l-7.31 4.22V176z" fill="currentColor"/><path d="M231 177.72l-.82-.26a4.14 4.14 0 00.13-1.05 1.92 1.92 0 00-.74-1.74 1.16 1.16 0 00-1.19.06 4.17 4.17 0 00-1.63 3.39 1.92 1.92 0 00.75 1.74 1 1 0 00.51.14 1.33 1.33 0 00.67-.2A3.41 3.41 0 00230 178l.82.25h.09a.32.32 0 00.29-.22.29.29 0 00-.2-.31zm-2.62 1.56a.54.54 0 01-.58.05 1.4 1.4 0 01-.44-1.21 3.67 3.67 0 011.32-2.87.85.85 0 01.37-.11.54.54 0 01.22.05 1.44 1.44 0 01.44 1.22 3.65 3.65 0 01-1.32 2.87z" fill="#fafafa"/><path d="M144.37 207.37a6.45 6.45 0 012.92-5l133.49-77.08c1.61-.93 2.92-.17 2.92 1.68V133l-139.33 80.47z" fill="#263238"/><path d="M267.31 136.18a3 3 0 00-1.37 2.37c0 .87.61 1.22 1.37.79a3 3 0 001.36-2.37c0-.87-.61-1.22-1.36-.79zM272.09 133.43a3 3 0 00-1.37 2.36c0 .88.61 1.23 1.37.79a3 3 0 001.36-2.36c0-.87-.61-1.22-1.36-.79zM276.87 130.68a3 3 0 00-1.37 2.32c0 .87.61 1.23 1.37.79a3 3 0 001.36-2.37c0-.83-.61-1.18-1.36-.74z" fill="currentColor"/><path d="M147.29 305l133.49-77a6.45 6.45 0 002.92-5v-65.15l-139.33 80.43v65.06c0 1.86 1.31 2.66 2.92 1.66z" fill="#fafafa"/><path d="M198.83 193l20.36-11.75c.78-.45 1.41-.14 1.41.71a3 3 0 01-1.41 2.35l-20.33 11.67c-.79.45-1.43.15-1.43-.67a3 3 0 011.4-2.31z" fill="#455a64" opacity=".4"/><path d="M195.26 244.81c-.13.07-.23.08-.3 0l-.16-.17-3.3-5.64v7.49a.85.85 0 01-.1.4.56.56 0 01-.22.27l-1 .56a.17.17 0 01-.22 0 .4.4 0 01-.09-.29v-11.76a.93.93 0 01.09-.4.6.6 0 01.22-.28l.83-.47c.13-.08.24-.09.31 0l.15.17 3.31 5.65v-7.49a1 1 0 01.09-.4.62.62 0 01.22-.27l1-.55a.17.17 0 01.22 0 .37.37 0 01.1.29v11.74a.82.82 0 01-.1.4.54.54 0 01-.22.28zM198 235.26a12 12 0 01.25-2.06 8.77 8.77 0 01.65-1.93 7.27 7.27 0 011.06-1.67 5.4 5.4 0 011.51-1.26 2.89 2.89 0 011.5-.49 1.51 1.51 0 011.06.44 2.82 2.82 0 01.65 1.19 7 7 0 01.26 1.78v3.25a12 12 0 01-.25 2.06 8.85 8.85 0 01-.65 1.94 7 7 0 01-1.07 1.66 5.81 5.81 0 01-1.5 1.25 3 3 0 01-1.51.49 1.48 1.48 0 01-1.06-.43 2.6 2.6 0 01-.65-1.19 7.7 7.7 0 01-.25-1.77v-.75-.86-.87-.78zm5.35-3a2.39 2.39 0 00-.55-1.71c-.34-.29-.78-.27-1.33.05a3.45 3.45 0 00-1.33 1.48 5.73 5.73 0 00-.55 2.35V237.5a2.32 2.32 0 00.55 1.7c.34.28.78.26 1.33-.06a3.45 3.45 0 001.33-1.48 5.75 5.75 0 00.55-2.33v-1.55c0-.55-.02-1.06-.03-1.51zM212.39 222.19a3.43 3.43 0 011.52-.52 1.47 1.47 0 011.08.39 2.73 2.73 0 01.66 1.2 8.35 8.35 0 01.27 1.91v2.69a13.08 13.08 0 01-.27 2.23 9.6 9.6 0 01-.66 2 6.57 6.57 0 01-1.06 1.62 5.81 5.81 0 01-1.48 1.21l-3 1.72a.18.18 0 01-.23 0 .39.39 0 01-.09-.29v-11.8a1 1 0 01.09-.4.63.63 0 01.23-.27zm1.94 3.9a4.13 4.13 0 00-.15-1 1.49 1.49 0 00-.36-.66.87.87 0 00-.61-.23 1.88 1.88 0 00-.87.3l-1.59.91v8.18l1.64-1a2.82 2.82 0 00.84-.69 3.84 3.84 0 00.59-.91 4.9 4.9 0 00.36-1.08 6.68 6.68 0 00.15-1.18c.03-.86.03-1.73 0-2.64zM221.18 217.12c.12-.07.22-.07.28 0a1 1 0 01.17.37l2.89 9.82a.41.41 0 010 .12 1 1 0 01-.09.4.63.63 0 01-.23.27l-.85.49c-.16.09-.27.11-.33 0a.56.56 0 01-.13-.22l-.51-1.73-3.73 2.15-.5 2.32a1.94 1.94 0 01-.14.37.79.79 0 01-.33.35l-.85.49a.17.17 0 01-.22 0 .4.4 0 01-.09-.29.53.53 0 010-.13l2.89-13.16a3.26 3.26 0 01.16-.56.7.7 0 01.29-.32zm.65 7.61l-1.3-4.43-1.3 5.93zM230.27 211.87a.17.17 0 01.22 0 .4.4 0 01.1.29v1.29a1 1 0 01-.1.4.65.65 0 01-.22.28l-2.13 1.22v10a.93.93 0 01-.09.4.61.61 0 01-.23.28l-.95.55a.18.18 0 01-.23 0 .39.39 0 01-.09-.29v-10l-2.13 1.23a.17.17 0 01-.22 0 .39.39 0 01-.1-.29v-1.29a1 1 0 01.1-.4.62.62 0 01.22-.27zM234.81 209.25c.13-.07.22-.08.28 0a.85.85 0 01.17.37l2.89 9.82a.37.37 0 010 .12 1 1 0 01-.1.4.62.62 0 01-.22.27l-.85.49c-.16.09-.27.1-.33 0a.45.45 0 01-.13-.23l-.52-1.69-3.7 2.2-.51 2.31a1.9 1.9 0 01-.13.38.72.72 0 01-.33.34l-.85.49a.17.17 0 01-.22 0 .37.37 0 01-.1-.29.61.61 0 010-.14l2.89-13.15a2.92 2.92 0 01.17-.56.68.68 0 01.28-.32zm.65 7.6l-1.3-4.43-1.3 5.93z" fill="currentColor"/></g></g><g><path d="M458.41 276.92c1.42-28.8-.73-35.76-8.29-41.21l-3.34 16.63s3.05 19.75 2.52 26.3c-.45 5.75-1.18 12.94-2.64 17.56a3.55 3.55 0 01-1.57 1.94c-2 1.18-2.8 2.41-4.31 3.92-1.18 1.18-2.16 1.46-2 1.85a1.9 1.9 0 002.41.91 13.08 13.08 0 002.8-1.44 17.63 17.63 0 01-2.94 4.81c-2.82 3.3-3 5.36 2.54 5.53 3.47.11 6.28-2 9.06-9.54a61.67 61.67 0 002.63-8.52c1.47-7.53 2.9-14.11 3.13-18.74z" fill="#a35b5a"/><path d="M443.72 233.38c3.67-.45 8.63.43 11.72 6.25s3.65 15.73 3.79 25.58c0 0-6.5 5.19-14.11 2.39z" fill="currentColor"/><path d="M443.72 233.38c3.67-.45 8.63.43 11.72 6.25s3.65 15.73 3.79 25.58c0 0-6.5 5.19-14.11 2.39z" opacity=".5"/><path d="M450.79 384.23c.54.22.66 1.28.7 3.37 0 1.59.3 4.36-1.57 4.87s-4.58.17-5.73-1.35a73.53 73.53 0 00-4.48-5.88c-1.79-2-3.74-3.9-4.42-6.69-.61-2.51 0-3.58 1.69-4.27 2.37-.95 6 2.4 7.81 3 1.57.43 5.45 6.72 6 6.95z" fill="#263238"/><path d="M450.83 382.29l-.06 2.57a6.31 6.31 0 01-6.5 0c-.1-.25-.59-3.69-.59-3.69z" fill="#a35b5a"/><path d="M429.64 398.57s.68 2.25 1 4.22c.28 1.56.67 4.17.1 5.32s-2.71 1.87-6 1.77c-2.13-.07-5.48 1.31-7.79 2.52s-7.27 1.67-9.75 1.33c-2.92-.41-5.92-2.18-6.36-3.4s.21-2.47 7.18-5.26c.06 0 9.66-2.91 13.08-6.52z" fill="#263238"/><path d="M429.7 395.79s-.05 1.91-.07 3-1.34 2.69-4.67 2.49c-2.34-.13-4-.8-3.82-2.73l.06-2.77z" fill="#a35b5a"/><path d="M453.27 348.22a70.32 70.32 0 00-2.73-13.46s1.17-11.53 1.86-22.47c.74-11.82.58-26.7.87-29.64 0 0-38-8.58-39 5.07s.41 48.52.73 54.54 1.23 11.35 2.25 21.11 3.93 32.41 3.93 32.41a9 9 0 008.5 0s3.3-27.28 3.18-34.21a59.54 59.54 0 00-2.29-15.19s1-11.26 1.83-21.05 1.65-14.49 1.89-18.75l.83-.39s.46 16.94.77 22.95 1.15 11.8 2.63 23c1.29 9.71 5.32 30.29 5.32 30.29 4.31 2.46 7-.15 7-.15s3.42-25.64 2.43-34.06z" fill="currentColor"/><path d="M453.27 348.22a70.32 70.32 0 00-2.73-13.46s1.17-11.53 1.86-22.47c.74-11.82.58-26.7.87-29.64 0 0-38-8.58-39 5.07s.41 48.52.73 54.54 1.23 11.35 2.25 21.11 3.93 32.41 3.93 32.41a9 9 0 008.5 0s3.3-27.28 3.18-34.21a59.54 59.54 0 00-2.29-15.19s1-11.26 1.83-21.05 1.65-14.49 1.89-18.75l.83-.39s.46 16.94.77 22.95 1.15 11.8 2.63 23c1.29 9.71 5.32 30.29 5.32 30.29 4.31 2.46 7-.15 7-.15s3.42-25.64 2.43-34.06z" opacity=".7"/><path d="M434.31 306.59s9.36-4.36 14.09-8.37c0 0-4.44 6-10.15 8.53 0 0-2.48 21-2.46 20.56l-.69-20.74z" opacity=".4"/><path fill="#a35b5a" d="M427.82 228.64l1.98 12.48 11.25-.57-1.31-14.6-11.92 2.69z"/><path d="M452.93 239.91c-1-3.4-5.24-7.18-9.55-6.48-1 .16-2 .33-2.93.5-.51 2.1-5.89 3.72-11.4 2.43-1.66.43-3.19.88-4.57 1.34-4 1.31-7.61 4.63-8.23 17.54 0 0-2 30.1-2.15 35.92 9.78 4.13 20 4.24 25.74 3.13 11.86-2.31 13.4-7.18 13.4-7.18s.64-21.66.49-31c-.12-7.98-.09-13.86-.8-16.2z" fill="#263238"/><path d="M419.5 213.32s-2.95 4.48-2.61 4.92 2.5.83 2.5.83z" fill="#8c3f3e"/><path d="M420.88 216.2a3.52 3.52 0 113.51-3.52 3.52 3.52 0 01-3.51 3.52zm0-6.25a2.74 2.74 0 102.73 2.73 2.73 2.73 0 00-2.73-2.68z" fill="#263238"/><path d="M427.69 200.94c-6 1.26-7.69 3.88-8.25 13.37-.59 9.9.42 13 1.72 14.35.88.9 5.76 1.06 8.23.39 3.08-.85 10.05-3.32 13.31-8.31 3.84-5.86 4.85-13.81.74-17.07-5.79-4.58-13.32-3.24-15.75-2.73z" fill="#a35b5a"/><path d="M422.27 229.15a17.81 17.81 0 005.71.16 4.74 4.74 0 001.92-2.19s-1.13 1.58-7.63 2.03z" fill="#8c3f3e"/><path fill="#263238" d="M417.69 211.95l10.62 1.37-.43.75-10.19-1.32v-.8z"/><path d="M416.64 205.61a9 9 0 003.39 3.25c1.49.78 3 .82 4.64 2.42a7.42 7.42 0 011.46 2.09c.07.17 1.33 1.87 1.4 1.61 0 0 .94-3.66 4-3.2s3.53 4.42 1.57 6.83-3.79 1.48-3.79 1.48.1 5.24 2.42 8.2c0 0 2.64.86 7.49-.18 3-.64 7.21-4.37 9-8.31 3.75-8.36 4-15.88-1.32-18.13-.58-3.85-3.61-5.58-7.06-6.37a17.06 17.06 0 00-5.57-.07 15.48 15.48 0 01-6.2-.58 8.83 8.83 0 00-3.32-.7c-1.13.11-2.29 1.06-2.13 2.18a5.32 5.32 0 00-6 .12c-2.12 1.58-2.16 3.95-1.38 6.31a14.3 14.3 0 001.4 3.05z" fill="#263238"/><path d="M447 203l3.58-2.11A2.08 2.08 0 00447 203zM427.47 217.07l.11-4.15a2.08 2.08 0 10-.11 4.15z" fill="#263238"/><path d="M423.88 240.14c-7.53-5.08-22.38-16-24.18-17.14-2.5-1.53-6.33-1.88-8.68-.63-2.18 1.17-.95 4.09 3.27 9.07 4.09 4.82 21.86 23 21.86 23z" fill="#a35b5a"/><path d="M424.29 238.36c-5.24-3.32-16-10-16-10s-7.42 5.33-5.7 14.28c0 0 10.78 10.33 14 13 2.18 1.76 8.47-1 9.36-7.32 1.17-7.81-1.66-9.96-1.66-9.96z" fill="currentColor"/><path d="M424.29 238.36c-5.24-3.32-16-10-16-10s-7.42 5.33-5.7 14.28c0 0 10.78 10.33 14 13 2.18 1.76 8.47-1 9.36-7.32 1.17-7.81-1.66-9.96-1.66-9.96z" opacity=".5"/><path d="M390.12 224.05c.57-4.13 13.26-12.87 17.6-15.56a32.39 32.39 0 005.45-4.17c.66-.64 1.24-1.35 1.89-2s1.21-1.54 2-2.22a13.68 13.68 0 013.16-2.3 10.76 10.76 0 017-.5c.54.12 1.08.27 1.64.34 1.17.15 2.5 0 3.41.72a.82.82 0 01.36.6c0 .38-.37.62-.71.79-2.67 1.3-5.82 1.74-8.05 3.71-.17.15-1.21 1.52-.64 1.67s2.51-.65 4.61-.59c2.53.07.86 1.53 0 2a15.3 15.3 0 01-4.38 1.69c-2.36.57-4.42.83-6 1.88s-15.64 15.27-15.64 15.27z" fill="#a35b5a"/></g></svg>
