<svg viewBox="0 0 158.88 158.88"><path d="M0 158.86V1.1C0 .2.2 0 1.1 0h156.68c.9 0 1.1.2 1.1 1.1v156.68c0 .9-.2 1.1-1.1 1.1Q78.9 158.83 0 158.86z" fill="#ffffff00"/><path d="M81.28 55.9c-.1-11.67-2.93-22.55-9.37-32.38-1-1.5-2.14-2.86-2.5-4.71a8.1 8.1 0 014-8.61 7.89 7.89 0 019.3 1.23 36 36 0 015.9 8.83 75.18 75.18 0 018.44 28.58 83.21 83.21 0 01-5.23 36.74 103 103 0 01-3 7.28 1.2 1.2 0 000 1.41c9.58 13.3 21.76 23 37.85 27.24a54.35 54.35 0 0019.68 1.57 7.72 7.72 0 018.36 6.9 7.9 7.9 0 01-6.7 9 64.74 64.74 0 01-23-1.33 77.68 77.68 0 01-36.93-19.88 93.64 93.64 0 01-11.91-13.71 2.18 2.18 0 00-2.3-1.06 72.75 72.75 0 00-27.38 7.55c-11.6 6-20.67 14.58-26.4 26.45a10.13 10.13 0 01-3.7 4.7 8 8 0 01-9.19-.7 7.86 7.86 0 01-2.36-9.28 60.32 60.32 0 018.72-14.52c12.2-15.43 28.21-24.59 47.32-28.57A85.08 85.08 0 0173.07 87a1.22 1.22 0 001.18-.8 76.06 76.06 0 006.53-22.3 57.87 57.87 0 00.5-8z" fill="currentColor"/><path d="M136.26 108.34a44.72 44.72 0 01-11.13-2.87 46.11 46.11 0 01-19.66-13.76 8 8 0 015.72-13.22 7.93 7.93 0 016.54 2.93 33.27 33.27 0 0018.87 10.75 14.76 14.76 0 014.48 1.18 8.08 8.08 0 013.84 9.21c-.92 3.52-4.13 5.81-8.66 5.78zM55.66 33.32a7.61 7.61 0 016.64 5 49.14 49.14 0 013.64 17 46.33 46.33 0 01-2.46 17.28c-2 5.77-8.24 7.79-12.89 4.15a8.1 8.1 0 01-2.39-9 31.68 31.68 0 001.68-12.36 35.77 35.77 0 00-2.43-11c-2.1-5.45 1.75-11.07 8.21-11.07zM77.92 126.57a8 8 0 01-6.68 7.86 32.88 32.88 0 00-19.7 12.19 8.13 8.13 0 01-11.21 1.62 8 8 0 01-1.41-11.58A51.05 51.05 0 0154 123.81a45.85 45.85 0 0114-5.1c5.35-1.04 9.91 2.56 9.92 7.86z" fill="currentColor"/></svg>
