<svg viewBox="0 0 158.88 158.88"><path d="M158.86.3v157.48c0 .9-.2 1.1-1.1 1.1H.24a2.61 2.61 0 01-.11-1.3V1.67C.14 0 0 .18 1.61.18h156a2.62 2.62 0 011.25.12z" fill="currentColor"/><path d="M158.86.3H2C0 .31.27 0 .27 2v156.85c-.07-.05-.25.12-.24-.12s0-.64 0-1Q0 79.46 0 1.14C0 .24.2 0 1.1 0h156.68c.35.08.81-.2 1.08.3z" fill="#fff"/><path d="M93.65 51.52a68.65 68.65 0 01-6.47 28.81 1.72 1.72 0 00.19 2c6.08 8.28 13.58 14.79 23.19 18.69a46.22 46.22 0 0017.15 3.39 28.87 28.87 0 003.34-.25 6.2 6.2 0 017 5.12 6.07 6.07 0 01-5.15 7.14 50.39 50.39 0 01-18.06-1c-15.85-3.66-28-12.75-37.44-25.7a2.15 2.15 0 00-2.23-1.09c-14 1.37-26.17 6.43-35.5 17.21a38.47 38.47 0 00-6.23 9.74 6.21 6.21 0 01-8.17 3.42 6.14 6.14 0 01-3.27-8.2 49.31 49.31 0 019.63-14.62c10.56-11.44 23.8-17.54 39.09-19.54a13.93 13.93 0 012.84-.34c1.61.14 2.18-.73 2.73-2A54.38 54.38 0 0081.12 51a44 44 0 00-8-25 6.11 6.11 0 01-.65-6.46A6 6 0 0177.75 16a6.34 6.34 0 015.66 3 53.61 53.61 0 017.17 14.28 59.33 59.33 0 013.07 18.24z" fill="#fff"/><path d="M46.92 118.63a6 6 0 011.35-3.88 37.89 37.89 0 0122.5-14 6.08 6.08 0 016.65 2.47 6.18 6.18 0 01-3.84 9.63 26.09 26.09 0 00-15.71 9.77 6.2 6.2 0 01-10.95-4zM124.3 92.8a34.66 34.66 0 01-9.82-2.48 35.46 35.46 0 01-14.65-10.45 6.19 6.19 0 012.84-9.93 5.79 5.79 0 016.44 1.73 26.79 26.79 0 0016.51 8.85 6 6 0 015 5.54 6.21 6.21 0 01-4.29 6.46 6.55 6.55 0 01-2.03.28zM69.32 53.27a33.46 33.46 0 01-2.27 12.52 6.21 6.21 0 01-10.94 1 6.09 6.09 0 01-.65-5.4 26 26 0 00-.53-18.25 6.21 6.21 0 0111.49-4.72 40.24 40.24 0 012.9 14.85z" fill="#fff"/></svg>
