<svg xmlns="http://www.w3.org/2000/svg" viewBox="0 0 500 500"><ellipse cx="250" cy="384.61" rx="209.73" ry="94.79" fill="#f5f5f5"/><g fill="#e0e0e0"><ellipse cx="352.36" cy="395.73" rx="56.05" ry="32.36"/><path d="M91.71 412.52c-9.53 5.57-9.53 14.59 0 20.15s25 5.56 34.51 0 9.53-14.58 0-20.15-24.98-5.52-34.51 0z"/></g><g fill="#e0e0e0"><path d="M103.87 225.91v3.46c0 1.09.77 1.53 1.71 1l3.34-1.92V221l-3.34 2a3.78 3.78 0 00-1.71 2.91zM93.28 223v3.45c0 1.09.77 1.53 1.71 1l13.93-8V212L95 220a3.78 3.78 0 00-1.72 3zM100.82 262.05L85 271.18a3.8 3.8 0 00-1.71 3v3.46c0 1.09.77 1.53 1.71 1l15.82-9.13a3.78 3.78 0 001.71-3V263c0-1.06-.77-1.5-1.71-.95zM108.92 302.88l-13.93 8a3.78 3.78 0 00-1.71 3v3.46c0 1.09.77 1.53 1.71 1l13.93-8zM93.28 186.59V190c0 1.09.77 1.53 1.71 1l13.93-8v-7.4l-13.93 8a3.78 3.78 0 00-1.71 2.99zM77.44 295.91v3.46c0 1.09.76 1.53 1.71 1L95 291.23a3.77 3.77 0 001.71-3v-3.46c0-1.09-.76-1.53-1.71-1L79.15 293a3.77 3.77 0 00-1.71 2.91zM93.28 259.32v3.46c0 1.09.77 1.53 1.71 1l13.93-8v-7.41l-13.92 8a3.78 3.78 0 00-1.72 2.95zM91.94 318.09v-3.45c0-1.09-.76-1.54-1.71-1l-15.82 9.13a3.8 3.8 0 00-1.71 3v3.46c0 1.09.77 1.53 1.71 1l15.82-9.14a3.75 3.75 0 001.71-3zM92 176.33l-15.8 9.13a3.8 3.8 0 00-1.71 3v3.46c0 1.09.77 1.53 1.71 1l15.8-9.18a3.8 3.8 0 001.71-3v-3.46c.02-1.05-.71-1.49-1.71-.95zM100.82 189.31L85 198.44a3.8 3.8 0 00-1.71 3v3.46c0 1.09.77 1.53 1.71 1l15.82-9.14a3.78 3.78 0 001.71-3v-3.46c0-1.1-.77-1.54-1.71-.99zM100.82 225.68L85 234.81a3.8 3.8 0 00-1.71 3v3.46c0 1.09.77 1.53 1.71 1l15.82-9.13a3.78 3.78 0 001.71-3v-3.46c0-1.11-.77-1.55-1.71-1zM85 333.14l15.82-9.14a3.8 3.8 0 001.71-3v-3.46c0-1.09-.77-1.53-1.71-1L85 325.73a3.8 3.8 0 00-1.71 3v3.46c0 1.05.77 1.49 1.71.95zM235.65 161.92v3.46a3.77 3.77 0 01-1.7 3l-3.34 1.93v-7.41l3.34-1.92c.94-.59 1.7-.15 1.7.94zM230.61 281.09l13.93-8c.94-.55 1.7-.1 1.7 1v3.45a3.77 3.77 0 01-1.7 3l-13.93 8zM246.24 146.74v3.46a3.79 3.79 0 01-1.7 3l-13.93 8v-7.4l13.93-8c.94-.59 1.7-.15 1.7.94zM238.71 194.54l15.82-9.14c.94-.54 1.71-.1 1.71 1v3.46a3.8 3.8 0 01-1.71 3l-15.82 9.13c-1 .55-1.71.1-1.71-1v-3.49a3.75 3.75 0 011.71-2.96zM230.61 244.72l13.93-8c.94-.54 1.7-.1 1.7 1v3.45a3.77 3.77 0 01-1.7 3l-13.93 8zM246.24 110.37v3.46a3.77 3.77 0 01-1.7 3l-13.93 8v-7.4l13.93-8c.94-.59 1.7-.15 1.7.94zM262.09 201.4v3.46a3.77 3.77 0 01-1.71 3L244.56 217c-.94.55-1.7.11-1.7-1v-3.46a3.77 3.77 0 011.7-3l15.82-9.13c.95-.54 1.71-.1 1.71.99zM246.24 183.11v3.46a3.79 3.79 0 01-1.7 3l-13.93 8v-7.4l13.93-8c.94-.59 1.7-.17 1.7.94zM247.59 240.33v-3.46a3.77 3.77 0 011.71-3l15.82-9.13c.94-.55 1.71-.11 1.71 1v3.46a3.78 3.78 0 01-1.71 3l-15.82 9.14c-.95.52-1.71.08-1.71-1.01zM238.71 121.8l15.82-9.14c.94-.54 1.71-.1 1.71 1v3.46a3.8 3.8 0 01-1.71 3l-15.82 9.13c-1 .55-1.71.1-1.71-1v-3.46a3.75 3.75 0 011.71-2.99zM238.71 158.17l15.82-9.17c.94-.54 1.71-.1 1.71 1v3.46a3.8 3.8 0 01-1.71 3l-15.82 9.13c-1 .55-1.71.1-1.71-1v-3.45a3.75 3.75 0 011.71-2.97zM254.53 247.36l-15.82 9.14c-1 .54-1.71.1-1.71-1v-3.46a3.77 3.77 0 011.71-3l15.82-9.04c.94-.55 1.71-.1 1.71 1v3.46a3.78 3.78 0 01-1.71 2.9zM230.61 299.27l13.93-8c.94-.54 1.7-.1 1.7 1v3.46a3.79 3.79 0 01-1.7 3l-13.93 8z"/></g><path d="M108.92 413V165.44a12 12 0 015.42-9.38l107.12-61.85a3.83 3.83 0 013.83-.38L229 96a3.79 3.79 0 011.6 3.51v247.55l-7.81 4.51-6.34-3.67-96 55.42v7.33l-7.81 4.51z" fill="#37474f"/><path d="M134.28 395.32l-13.85 8v7.33l-7.81 4.51-3.7-2.14V165.44a11 11 0 011.6-5.35l23.58 13.62z" fill="#263238"/><path d="M112.62 167.59v247.55l7.81-4.5v-7.32l96-55.42 6.34 3.66 7.81-4.5V99.48c0-3.47-2.43-4.85-5.4-3.13L118 158.21a12 12 0 00-5.38 9.38z" fill="#455a64"/><path fill="currentColor" d="M120.43 168.9v237.48l98.67-56.96V111.95l-98.67 56.95z"/><path fill="#fff" opacity=".7" d="M120.43 168.9v237.48l98.67-56.96V111.95l-98.67 56.95z"/><g opacity=".43"><path d="M137.25 377.26V178.61l65-37.54v198.64zM140 180.19v192.34l59.59-34.4V145.8z" fill="currentColor"/><path d="M137.25 178.61v198.65l65-37.55V141.07zm62.31 159.52L140 372.53V180.19l59.59-34.39z" opacity=".1"/></g><path fill="#263238" d="M219.1 349.42V111.95l3.65-2.12.01 241.74-3.66-2.15z"/><path fill="#e0e0e0" d="M120.43 410.64l102.33-59.07-3.66-2.15-98.67 56.96v4.26z"/><g><path fill="#e0e0e0" d="M122.34 258.22l1.97 1.14.01 32.73-1.98-1.14v-32.73z"/><path fill="#fafafa" d="M124.31 259.36l10.63-6.14.01 32.73-10.63 6.14-.01-32.73z"/><path d="M135 262.23l-4.66 2.68v5.32a.64.64 0 001 .55l3.7-2.13z" opacity=".05"/><path fill="#ebebeb" d="M134.94 253.22l-1.97-1.14-10.63 6.14 1.97 1.14 10.63-6.14z"/><path d="M128.39 263.82l4.88 2.81 1.95-3.38-4.88-2.81a.94.94 0 00-1 .09 3 3 0 00-1.38 2.39 1 1 0 00.43.9z" fill="#e0e0e0"/><path opacity=".1" d="M130.29 264.91l1.77 1.03v-2.33l1.89-1.09-1.77-1.02-1.89 1.08v2.33z"/><path fill="#fafafa" d="M132.65 263.98v5.11l19.5-11.25v-5.11l-19.5 11.25z"/><path fill="#e0e0e0" d="M132.65 263.98l-1.77-1.03v5.12l1.77 1.02v-5.11z"/><path fill="#ebebeb" d="M152.15 252.73l-1.77-1.03-19.5 11.25 1.77 1.03 19.5-11.25z"/><path d="M127.84 278.23a4 4 0 011.79-3.1c1-.57 1.79-.11 1.79 1a3.92 3.92 0 01-1.08 2.52V282a1.35 1.35 0 01-.61 1.05l-.2.12c-.34.19-.61 0-.61-.35v-3.34c-.64.08-1.08-.4-1.08-1.25z" fill="#455a64"/></g><g><path d="M155.5 200.16l30.07-17.36c1.79-1 3.25-.2 3.25 1.87v20.65a7.21 7.21 0 01-3.25 5.63l-30.07 17.36c-1.79 1-3.25.19-3.25-1.88v-20.65a7.17 7.17 0 013.25-5.62z" opacity=".15"/><path d="M156.65 201l30.07-17.36c1.79-1 3.25-.2 3.25 1.87v20.65a7.21 7.21 0 01-3.25 5.63l-30.07 17.36c-1.8 1-3.25.19-3.25-1.88v-20.61a7.15 7.15 0 013.25-5.66z" fill="#455a64"/><path d="M165.59 198h-.08a.37.37 0 01-.29-.45l6.1-26.68a.36.36 0 01.35-.29.37.37 0 01.36.26l6.1 19.65a.38.38 0 11-.72.22l-5.68-18.31-5.73 25.34a.38.38 0 01-.41.26z" fill="#263238"/><path d="M157.66 220.88a.72.72 0 01-.09-.44v-10.81a1.37 1.37 0 01.09-.55.58.58 0 01.29-.31l3.27-1.89c.11-.06.18 0 .23.05a1.51 1.51 0 01.06.52v.45a2.41 2.41 0 01-.06.6.5.5 0 01-.23.31l-2.16 1.25v3L161 212c.1-.06.18 0 .22.05a1.3 1.3 0 01.07.53v.42a1.89 1.89 0 01-.07.6.55.55 0 01-.22.32l-1.94 1.08v3.28l2.17-1.26a.15.15 0 01.22 0 1.54 1.54 0 01.06.53v.45a2.34 2.34 0 01-.06.61.54.54 0 01-.22.3l-3.28 1.9c-.14.12-.24.13-.29.07zM162.78 217.6v-11a1.19 1.19 0 01.1-.53.72.72 0 01.29-.33l1.81-1q2.25-1.31 2.25 2a5.9 5.9 0 01-1 3.53v.07c.3.08.55.56.76 1.44l.68 2.95a.44.44 0 000 .1.34.34 0 010 .1c0 .27-.2.52-.61.75l-.32.19c-.35.2-.55.18-.58-.06l-.62-3a1.21 1.21 0 00-.31-.64c-.12-.08-.29-.05-.53.09l-.42.24v4.26a1 1 0 01-.59.85l-.31.17c-.38.22-.6.15-.6-.18zm2.28-7.69a1.4 1.4 0 00.51-.76 3.86 3.86 0 00.22-1.37 2 2 0 00-.21-1.1q-.21-.27-.57-.06l-.76.44v3.32zM168.65 214.21v-11a1.38 1.38 0 01.09-.54.8.8 0 01.3-.33l1.81-1q2.25-1.31 2.25 2a5.94 5.94 0 01-1 3.53v.06c.3.09.55.57.76 1.45l.67 2.94V211.53c0 .26-.2.51-.61.74l-.32.19c-.36.2-.55.18-.59-.06l-.61-3a1.19 1.19 0 00-.31-.63c-.12-.08-.3-.06-.54.08l-.41.24v4.27a1 1 0 01-.6.84l-.3.18c-.4.22-.59.17-.59-.17zm2.28-7.69a1.36 1.36 0 00.51-.76 4.07 4.07 0 00.21-1.37 1.92 1.92 0 00-.2-1.09.39.39 0 00-.57-.07l-.76.44V207zM174.29 205.36q0-6.15 2.89-7.82t2.89 4.48q0 6.18-2.89 7.85t-2.89-4.51zm3.93 1a13.59 13.59 0 00.33-3.46 9.2 9.2 0 00-.33-3.07q-.33-.77-1-.36a2.49 2.49 0 00-1 1.56 13.45 13.45 0 00-.33 3.45 9.36 9.36 0 00.33 3.08c.23.52.57.64 1 .37a2.55 2.55 0 001-1.57zM181.35 206.88v-11a1.38 1.38 0 01.09-.54.68.68 0 01.3-.33l1.8-1q2.27-1.31 2.26 2a5.94 5.94 0 01-1.05 3.53v.06c.29.09.55.57.76 1.45l.67 2.94a.3.3 0 010 .1.41.41 0 010 .11c0 .26-.2.51-.6.74l-.33.19c-.35.2-.54.18-.58-.06l-.62-3a1.13 1.13 0 00-.31-.63c-.11-.09-.29-.06-.53.08l-.41.24V206a1 1 0 01-.6.84l-.3.17c-.36.26-.55.2-.55-.13zm2.27-7.69a1.32 1.32 0 00.52-.76 4.11 4.11 0 00.21-1.37 2 2 0 00-.21-1.1.39.39 0 00-.56-.06l-.76.44v3.32z" fill="#fafafa"/></g><g><path opacity=".2" d="M112.53 369.86l-3.7-2.11.01 12.45 3.69 2.11v-12.45z"/><path fill="currentColor" d="M112.53 366.54l-4.18-2.44.01 12.45 4.17 2.44v-12.45z"/><path opacity=".2" d="M112.53 366.54l-4.18-2.44.01 12.45 4.17 2.44v-12.45z"/><path opacity=".25" d="M230.53 215.01l-118 154.85.01 12.45 117.99-154.84v-12.46z"/><path fill="currentColor" d="M230.53 211.7l-118 154.84.01 12.45 117.99-154.84V211.7z"/><path fill="#455a64" d="M230.53 224.13v-5.65l-5.85.9-4.87 6.39 10.72-1.64zM215.94 243.32l-10.76 1.65-4.88 6.4 10.77-1.66 4.87-6.39zM225.69 230.52l-10.76 1.65-4.88 6.4 10.77-1.65 4.87-6.4zM206.19 256.11l-10.76 1.66-4.88 6.39 10.77-1.65 4.87-6.4zM196.44 268.91l-10.77 1.65-4.87 6.4 10.76-1.65 4.88-6.4zM186.69 281.71l-10.77 1.65-4.87 6.4 10.76-1.65 4.88-6.4zM176.94 294.5l-10.77 1.66-4.88 6.39 10.77-1.65 4.88-6.4zM167.18 307.3l-10.76 1.65-4.88 6.4 10.77-1.65 4.87-6.4zM157.43 320.1l-10.76 1.65-4.88 6.4 10.77-1.65 4.87-6.4zM147.68 332.89l-10.77 1.66-4.87 6.39 10.77-1.65 4.87-6.4zM137.93 345.69l-10.77 1.65-4.87 6.4 10.76-1.65 4.88-6.4zM128.18 358.49l-10.77 1.65-4.88 6.4 10.77-1.66 4.88-6.39zM118.41 371.29l-5.88.9v6.8l1-1.31 4.88-6.39z"/><path opacity=".25" d="M112.53 283.52l118 15.41v12.45l-118-15.4v-12.46z"/><path fill="currentColor" d="M112.53 281.42l118 15.4v12.45l-118-15.4v-12.45z"/><path opacity=".2" d="M112.53 283.52l-3.7-2.17.01 12.46 3.69 2.16v-12.45z"/><path fill="currentColor" d="M112.53 281.42l-4.18-2.45.01 12.46 4.17 2.44v-12.45z"/><path opacity=".2" d="M112.53 281.42l-4.18-2.45.01 12.46 4.17 2.44v-12.45z"/><path d="M117.8 284.78s.06 0 .07.09a.54.54 0 010 .22l-.17 1.15a.52.52 0 01-.06.2c0 .06-.07.08-.1.08l-1.34-.17-.22 1.48 1.25.16s.06 0 .08.1a.74.74 0 010 .21l-.17 1.16a.66.66 0 01-.06.2s-.07.08-.1.07l-1.25-.16-.34 2.35a.77.77 0 01-.07.2c0 .06-.07.09-.1.08l-.59-.07-.07-.1a.49.49 0 010-.21l1-7a.59.59 0 01.06-.2s.07-.08.1-.08zM118.2 287.72a7.33 7.33 0 01.27-1.14 4.74 4.74 0 01.41-.9 1.83 1.83 0 01.53-.57.8.8 0 01.59-.11.81.81 0 01.55.31 1.82 1.82 0 01.35.68 4.55 4.55 0 01.13 1 7.67 7.67 0 010 1.16c0 .32-.09.64-.14 1s-.1.66-.15 1a7.47 7.47 0 01-.27 1.13 4.85 4.85 0 01-.41.91 2 2 0 01-.53.57.86.86 0 01-.61.16.84.84 0 01-.56-.31 1.88 1.88 0 01-.34-.68 4 4 0 01-.13-1 7.78 7.78 0 010-1.16c0-.3.08-.62.13-1s.12-.77.18-1.05zm1.69 2.13c0-.13 0-.28.07-.43s.06-.33.08-.49 0-.33.07-.49 0-.29 0-.42a2.9 2.9 0 000-.5 1.58 1.58 0 00-.05-.41.71.71 0 00-.13-.29.34.34 0 00-.48-.06.74.74 0 00-.22.24 2.29 2.29 0 00-.16.38 3.33 3.33 0 00-.12.5 3.86 3.86 0 00-.07.41c0 .16 0 .32-.08.49s0 .33-.07.49 0 .3 0 .43a2.79 2.79 0 000 .93c0 .25.17.39.36.41a.47.47 0 00.46-.31 2.93 2.93 0 00.34-.88zM123.63 285.52a1 1 0 01.5.22 1.3 1.3 0 01.34.51 2.92 2.92 0 01.13.81 5.59 5.59 0 01-.07 1.11 5.42 5.42 0 01-.34 1.34 1.91 1.91 0 01-.51.77l.18 2.66v.12a.38.38 0 01-.06.16s0 .07-.08.07l-.61-.08a.13.13 0 01-.11-.12.69.69 0 010-.2l-.16-2.39-.42-.05-.34 2.32a.52.52 0 01-.06.2c0 .06-.07.09-.1.08l-.59-.07-.07-.1a.49.49 0 010-.21l1-7a.59.59 0 01.06-.2c0-.05.07-.08.1-.08zm-1 3.23l.51.07a.37.37 0 00.33-.14 1.11 1.11 0 00.22-.61 1.27 1.27 0 000-.65.35.35 0 00-.29-.21l-.51-.07zM124.75 293.42a.12.12 0 01-.07-.1.48.48 0 010-.21l1-7a.93.93 0 01.07-.2c0-.05.07-.08.1-.07l1.44.18a.69.69 0 01.48.27 1.37 1.37 0 01.25.56 2.93 2.93 0 01.08.75 7.35 7.35 0 01-.07.82 3.19 3.19 0 01-.11.54 4 4 0 01-.12.4c0 .11-.09.19-.13.26l-.09.15a2 2 0 01.15.71 7.05 7.05 0 01-.07.94 6.25 6.25 0 01-.18.86 3.27 3.27 0 01-.29.73 1.32 1.32 0 01-.4.49.63.63 0 01-.51.14zm1-1.6l.74.1c.09 0 .17-.05.24-.17a1.24 1.24 0 00.15-.46 1.26 1.26 0 000-.48c0-.14-.1-.21-.19-.22l-.74-.09zm1.49-3.49a1.17 1.17 0 000-.46c0-.12-.09-.19-.18-.2l-.7-.09-.18 1.24.7.09c.09 0 .16 0 .23-.14a1.44 1.44 0 00.09-.44zM128.27 293.87s-.05 0-.07-.1a.49.49 0 010-.21l1-7a.59.59 0 01.06-.2c0-.05.07-.08.1-.07l.59.07a.12.12 0 01.07.1.48.48 0 010 .21l-1 7a.86.86 0 01-.07.21c0 .05-.07.08-.1.07zM132.37 286.64a.83.83 0 01.53.29 1.72 1.72 0 01.35.69 3.94 3.94 0 01.16 1 8.93 8.93 0 01-.06 1.24q0 .24-.06.42v.37c0 .12 0 .23-.06.36a3.55 3.55 0 01-.06.4 7.41 7.41 0 01-.29 1.21 4.66 4.66 0 01-.43.92 1.94 1.94 0 01-.52.57.81.81 0 01-.59.15l-1.22-.15-.07-.1a.7.7 0 010-.21l1-7a.59.59 0 01.06-.2c0-.05.07-.08.1-.07zm.15 3.06c.11-.83 0-1.28-.42-1.32l-.46-.06-.6 4.13.48.06c.37.05.63-.34.77-1.18l.06-.42.06-.4.06-.38c.02-.13.03-.27.05-.43zM136 287.1a.79.79 0 01.53.29 1.75 1.75 0 01.35.68 4.1 4.1 0 01.16 1 8.93 8.93 0 01-.06 1.24c0 .16 0 .29-.06.42s0 .25 0 .37 0 .23-.05.35 0 .26-.07.41a7.67 7.67 0 01-.29 1.21 4.66 4.66 0 01-.43.92 1.94 1.94 0 01-.52.57.81.81 0 01-.59.15l-1.22-.15-.07-.1a.49.49 0 010-.21l1-7a.59.59 0 01.06-.2s.07-.08.1-.07zm.15 3.06c.11-.83 0-1.28-.42-1.33l-.46-.05-.6 4.13.48.06c.37 0 .63-.34.77-1.18l.06-.43.02-.36.06-.38c.02-.16.03-.3.05-.46zM139.62 293.55l.07.09a.49.49 0 010 .21l-.16 1.16a.93.93 0 01-.07.2.14.14 0 01-.1.08l-2.13-.28-.07-.1a.67.67 0 010-.2l1-7a.52.52 0 01.06-.2c0-.06.07-.08.1-.08l2.09.27s.06 0 .08.1a.74.74 0 010 .21l-.17 1.15a.52.52 0 01-.06.2c0 .06-.07.08-.1.08l-1.38-.18-.17 1.18 1.28.16a.12.12 0 01.07.1.48.48 0 010 .21l-.17 1.15a.65.65 0 01-.06.21c0 .05-.07.08-.1.07l-1.28-.16-.18 1.21zM142.39 295.67s-.08 0-.1-.11a.41.41 0 010-.16l-.49-3.85-.53 3.67a.77.77 0 01-.07.2c0 .06-.07.09-.1.08l-.59-.07s-.05 0-.07-.1a.7.7 0 010-.21l1-7a.59.59 0 01.06-.2c0-.05.07-.08.1-.07l.47.06s.09 0 .11.11 0 .12 0 .16l.48 3.85.54-3.68a.59.59 0 01.06-.2c0-.05.07-.08.1-.07l.59.07s.06 0 .07.1a.48.48 0 010 .21l-1 7a.65.65 0 01-.06.21s-.07.08-.1.07zM146.72 296.22s-.06 0-.08-.09a.74.74 0 010-.21l.16-1.11-1.41-.18s-.06 0-.08-.1a.74.74 0 010-.21l.17-1.15a1.4 1.4 0 01.12-.47l1.94-3.92a.42.42 0 01.1-.15.14.14 0 01.09 0l.68.09s.06 0 .07.1a.48.48 0 010 .21l-.61 4.17.39.05a.12.12 0 01.07.1.48.48 0 010 .21l-.17 1.15a.48.48 0 01-.07.21c0 .05-.06.08-.09.07h-.39l-.16 1.11a.52.52 0 01-.07.2c0 .06-.06.08-.1.08zm.35-3.15l.3-2-1 1.92zM151.09 288.92a.79.79 0 01.54.31 1.88 1.88 0 01.31.7 4.59 4.59 0 01.1 1A11.23 11.23 0 01152 292c0 .32-.09.64-.14 1s-.1.66-.14 1a11.3 11.3 0 01-.26 1.11 4.09 4.09 0 01-.38.91 1.84 1.84 0 01-.49.59.81.81 0 01-.61.17.79.79 0 01-.55-.31 1.81 1.81 0 01-.31-.7 4.59 4.59 0 01-.1-1 11.23 11.23 0 01.07-1.13c0-.3.08-.62.13-1s.1-.67.16-1a9 9 0 01.25-1.11 4.09 4.09 0 01.38-.91 1.84 1.84 0 01.49-.59.82.82 0 01.59-.11zm-.23 4.89c.1-.62.19-1.22.27-1.83v-.5a2.55 2.55 0 000-.41.71.71 0 00-.11-.28.27.27 0 00-.21-.13.3.3 0 00-.24.07.7.7 0 00-.18.25 2.35 2.35 0 00-.14.38c0 .15-.07.32-.1.5q-.15.9-.27 1.83a4.77 4.77 0 000 .5 1.76 1.76 0 000 .41.66.66 0 00.11.28.27.27 0 00.21.13.3.3 0 00.24-.07.7.7 0 00.18-.25 1.68 1.68 0 00.14-.38c.04-.15.07-.31.1-.5zM155.51 289.6s.06 0 .07.09a.49.49 0 010 .21l-.17 1.16a.65.65 0 01-.06.21l-.09.16-.73 1.25a1.59 1.59 0 01.46.81 3.34 3.34 0 010 1.39 3.93 3.93 0 01-.62 1.81 1.09 1.09 0 01-1.06.49.92.92 0 01-.55-.26 1.49 1.49 0 01-.35-.54 2.71 2.71 0 01-.16-.72 3.56 3.56 0 010-.8.69.69 0 010-.17s.05-.06.08-.06l.57.07a.17.17 0 01.13.12 2.17 2.17 0 00.07.24.7.7 0 00.13.24.32.32 0 00.26.14.43.43 0 00.38-.13.84.84 0 00.22-.53.86.86 0 00-.06-.58.47.47 0 00-.33-.22h-.37a.12.12 0 01-.07-.1.48.48 0 010-.21l.14-.94a.65.65 0 01.06-.21l.09-.17.64-1.1-1.17-.15s-.06 0-.07-.1a.48.48 0 010-.21l.17-1.15a.4.4 0 01.07-.2c0-.06.06-.08.09-.08zM160.1 290.18s.06 0 .08.1a.74.74 0 010 .21l-.17 1.15a.58.58 0 01-.06.21s-.07.08-.1.07l-1.34-.17-.22 1.49 1.25.16s.06 0 .08.1a.74.74 0 010 .21l-.17 1.15a.65.65 0 01-.06.21c0 .05-.07.08-.1.07L158 295l-.34 2.35a.52.52 0 01-.07.2c0 .06-.06.08-.1.08l-.59-.08s-.05 0-.07-.09a.54.54 0 010-.22l1-7a.52.52 0 01.06-.2c0-.06.07-.08.1-.08zM160.47 293.12a8.91 8.91 0 01.27-1.13 4.74 4.74 0 01.41-.9 2.15 2.15 0 01.53-.58.91.91 0 01.62-.16.86.86 0 01.55.31 2 2 0 01.34.69 3.93 3.93 0 01.13 1 6.63 6.63 0 010 1.16c0 .31-.09.64-.14 1s-.1.66-.14 1a8.64 8.64 0 01-.28 1.14 4.19 4.19 0 01-.41.9 1.88 1.88 0 01-.53.58.84.84 0 01-.61.15.89.89 0 01-.56-.3 1.93 1.93 0 01-.33-.69 3.9 3.9 0 01-.14-1 7.71 7.71 0 01.06-1.16c0-.3.08-.62.13-1s.05-.7.1-1.01zm1.69 2.13c0-.13.05-.27.08-.43s0-.32.07-.49.05-.33.07-.48 0-.3.05-.42a4.77 4.77 0 000-.51 2.42 2.42 0 00-.05-.41.78.78 0 00-.14-.29.34.34 0 00-.23-.13.32.32 0 00-.25.07.83.83 0 00-.21.24 1.76 1.76 0 00-.17.39 3.19 3.19 0 00-.12.49c0 .12 0 .26-.07.42s-.05.31-.08.48l-.06.49c0 .16 0 .31-.06.44a2.73 2.73 0 000 .92c0 .25.17.39.36.41s.34-.08.47-.3a3 3 0 00.34-.89zM165.89 290.92a1 1 0 01.51.22 1.19 1.19 0 01.33.51 2.64 2.64 0 01.13.81 5.59 5.59 0 01-.07 1.11 6 6 0 01-.33 1.34 2 2 0 01-.52.77l.18 2.66a.48.48 0 010 .12.43.43 0 01-.06.17.1.1 0 01-.07.06l-.62-.08a.14.14 0 01-.11-.11.76.76 0 010-.21l-.16-2.39h-.41l-.34 2.33a.59.59 0 01-.07.2c0 .05-.06.08-.1.07l-.58-.07s-.06 0-.08-.1a.74.74 0 010-.21l1-7a.48.48 0 01.07-.21s.06-.08.09-.07zm-1 3.23l.51.07a.39.39 0 00.34-.14 1.12 1.12 0 00.21-.61 1.08 1.08 0 000-.65.35.35 0 00-.29-.21l-.5-.07zM167 298.82s-.06 0-.07-.1a.48.48 0 010-.21l1-7a.65.65 0 01.07-.21s.06-.08.1-.07l1.44.18a.73.73 0 01.48.27 1.37 1.37 0 01.25.56 3 3 0 01.07.75 5.55 5.55 0 01-.06.82 5.33 5.33 0 01-.11.55 2.54 2.54 0 01-.13.39 1.29 1.29 0 01-.12.26l-.09.15a1.8 1.8 0 01.14.71 5.5 5.5 0 01-.06.94c-.05.3-.11.58-.18.86a3.83 3.83 0 01-.29.73 1.47 1.47 0 01-.4.5.67.67 0 01-.51.14zm.95-1.6l.74.1c.09 0 .17 0 .25-.16a1.37 1.37 0 00.15-.47 1.25 1.25 0 000-.48c0-.13-.09-.21-.18-.22l-.74-.09zm1.5-3.49a1.4 1.4 0 000-.46c0-.12-.09-.19-.18-.2l-.7-.09-.18 1.24.7.09a.22.22 0 00.22-.14 1.14 1.14 0 00.16-.44zM170.55 299.27s-.06 0-.07-.1a.48.48 0 010-.21l1-7a.52.52 0 01.07-.2c0-.06.06-.08.1-.08l.58.08s.06 0 .08.09a.74.74 0 010 .21l-1 7a.4.4 0 01-.07.2c0 .06-.06.08-.09.08zM174.66 292a.82.82 0 01.53.3 1.75 1.75 0 01.35.68 4.1 4.1 0 01.16 1 9 9 0 01-.06 1.24q0 .23-.06.42c0 .13 0 .25-.05.36s0 .24-.05.36 0 .26-.07.4a7.54 7.54 0 01-.29 1.22 4.94 4.94 0 01-.43.92 1.94 1.94 0 01-.52.57.86.86 0 01-.59.15l-1.22-.16s-.05 0-.07-.09a.5.5 0 010-.21l1-7a.52.52 0 01.06-.2c0-.06.07-.08.1-.08zm.15 3.07c.11-.84 0-1.28-.42-1.33l-.46-.06-.6 4.13.48.07c.37 0 .63-.35.77-1.18l.06-.43.06-.39.06-.39c.02-.09.03-.23.05-.38zM178.25 292.5a.87.87 0 01.53.3 1.75 1.75 0 01.35.68 3.63 3.63 0 01.15 1 6.71 6.71 0 01-.06 1.24c0 .15 0 .29-.05.42s0 .25 0 .36l-.06.36c0 .12 0 .26-.06.4a6.81 6.81 0 01-.3 1.22 4.38 4.38 0 01-.42.92 1.94 1.94 0 01-.52.57.93.93 0 01-.6.15L176 300s-.06 0-.07-.1a.48.48 0 010-.21l1-7a.77.77 0 01.07-.2c0-.06.07-.08.1-.08zm.15 3.07c.1-.84 0-1.28-.43-1.33l-.46-.06-.6 4.13.48.06c.38.05.64-.34.77-1.17 0-.15.05-.3.07-.43l.06-.39c0-.13 0-.26.05-.39s.04-.27.06-.42zM181.91 299s.05 0 .07.1a.49.49 0 010 .21l-.16 1.15a.77.77 0 01-.07.2c0 .06-.07.09-.1.08l-2.12-.27s-.06 0-.08-.1a.74.74 0 010-.21l1-7a.48.48 0 01.07-.21c0-.05.06-.08.09-.07l2.09.27s.06 0 .08.09a.8.8 0 010 .22l-.17 1.15a.59.59 0 01-.06.2.14.14 0 01-.1.08l-1.38-.18-.17 1.17 1.28.17s.06 0 .07.1a.48.48 0 010 .21l-.17 1.15a.52.52 0 01-.06.2c0 .06-.07.08-.1.08l-1.29-.17-.17 1.22zM184.67 301.08a.15.15 0 01-.11-.12.73.73 0 010-.16L184 297l-.53 3.68a.4.4 0 01-.07.2c0 .06-.06.08-.09.08l-.59-.08s-.06 0-.07-.1a.48.48 0 010-.21l1-7a.52.52 0 01.07-.2c0-.06.06-.08.1-.08l.46.06a.14.14 0 01.11.11.9.9 0 010 .16l.49 3.85.53-3.67a.4.4 0 01.07-.2c0-.06.06-.08.09-.08l.59.07s.06 0 .08.1a.74.74 0 010 .21l-1 7a.4.4 0 01-.07.2c0 .06-.06.08-.09.08zM189 301.63a.12.12 0 01-.07-.1.48.48 0 010-.21l.16-1.11-1.41-.18s-.06 0-.07-.1a.48.48 0 010-.21l.17-1.15a1.61 1.61 0 01.12-.46l1.94-3.93a.42.42 0 01.1-.15.11.11 0 01.1 0l.67.08s.06 0 .08.1a.74.74 0 010 .21l-.6 4.18.38.05s.06 0 .07.09a.53.53 0 010 .22l-.17 1.15a.52.52 0 01-.06.2s-.07.08-.1.08l-.39-.05-.16 1.11a.43.43 0 01-.07.2c0 .05-.06.08-.09.07zm.36-3.16l.29-2-.95 1.92zM193.37 294.33a.76.76 0 01.54.31 1.83 1.83 0 01.31.69 4.07 4.07 0 01.1 1 8.94 8.94 0 01-.07 1.14c0 .31-.08.64-.13 1s-.1.66-.15.95a8.77 8.77 0 01-.26 1.12 4.53 4.53 0 01-.37.91 2 2 0 01-.5.59.79.79 0 01-.61.16.76.76 0 01-.55-.31 1.83 1.83 0 01-.3-.69 4.63 4.63 0 01-.11-1 9 9 0 01.08-1.14c0-.3.08-.62.13-1s.1-.66.15-1a9 9 0 01.25-1.11 4.53 4.53 0 01.38-.91 2 2 0 01.49-.59.82.82 0 01.62-.12zm-.23 4.88c.11-.61.19-1.22.27-1.82v-.51a1.67 1.67 0 000-.4.7.7 0 00-.11-.29.28.28 0 00-.21-.12.26.26 0 00-.23.06.86.86 0 00-.19.25 2.49 2.49 0 00-.14.39 4.9 4.9 0 00-.1.5c-.1.59-.19 1.2-.27 1.82v.5a1.73 1.73 0 000 .41.7.7 0 00.11.29.28.28 0 00.21.12.29.29 0 00.24-.06.7.7 0 00.18-.25 1.77 1.77 0 00.14-.39 3.15 3.15 0 00.1-.5zM197.78 295s.05 0 .07.1a.7.7 0 010 .21l-.17 1.15a.65.65 0 01-.07.21.79.79 0 01-.08.16l-.73 1.26a1.52 1.52 0 01.46.8 3.57 3.57 0 010 1.4 3.84 3.84 0 01-.62 1.8 1.13 1.13 0 01-1.07.5 1 1 0 01-.54-.26 1.48 1.48 0 01-.35-.55 2.54 2.54 0 01-.16-.72 3.07 3.07 0 010-.8.42.42 0 01.05-.17s0-.06.08-.06l.57.08q.09 0 .12.12c0 .07.05.15.08.23a.85.85 0 00.13.25.34.34 0 00.26.13.45.45 0 00.38-.12.94.94 0 00.22-.54.84.84 0 00-.06-.57.44.44 0 00-.33-.22l-.37-.05s-.06 0-.08-.1a.74.74 0 010-.21l.13-.93a.81.81 0 01.07-.22l.09-.16.64-1.11-1.17-.14a.12.12 0 01-.07-.1.48.48 0 010-.21l.17-1.16a.59.59 0 01.06-.2c0-.05.07-.08.1-.07zM202.36 295.59s.06 0 .08.09a.81.81 0 010 .22l-.17 1.15a.59.59 0 01-.06.2c0 .05-.07.08-.1.08l-1.34-.18-.22 1.49 1.25.16s.06 0 .08.1a.74.74 0 010 .21l-.17 1.16a.59.59 0 01-.06.2s-.07.08-.1.07l-1.25-.16-.34 2.35a.77.77 0 01-.07.2c0 .06-.06.08-.1.08l-.59-.08-.07-.09a.49.49 0 010-.21l1-7a.59.59 0 01.06-.2c0-.06.07-.08.1-.08zM202.76 298.53a7.18 7.18 0 01.28-1.13 3.78 3.78 0 01.41-.9 2 2 0 01.52-.58.87.87 0 01.62-.16.84.84 0 01.55.31 1.89 1.89 0 01.34.68 4.06 4.06 0 01.14 1 7.85 7.85 0 01-.06 1.16c0 .31-.08.63-.13 1s-.1.66-.15.95A7.6 7.6 0 01205 302a3.94 3.94 0 01-.41.9 1.85 1.85 0 01-.52.58.88.88 0 01-1.17-.15 1.86 1.86 0 01-.34-.69 4.52 4.52 0 01-.14-1 7.91 7.91 0 01.06-1.17c0-.29.08-.61.13-.95s.1-.68.15-.99zm1.7 2.13c0-.13 0-.27.07-.43s.05-.32.08-.49l.06-.49c0-.15 0-.29.05-.42a3 3 0 000-.5 1.64 1.64 0 00-.05-.41.71.71 0 00-.13-.29.32.32 0 00-.23-.13.36.36 0 00-.26.07.63.63 0 00-.21.24 2.7 2.7 0 00-.17.38c0 .15-.08.32-.11.5s-.05.26-.08.42 0 .31-.07.48-.05.33-.07.49 0 .3-.05.44a3 3 0 000 .92c.06.25.18.39.37.41a.47.47 0 00.46-.31 2.83 2.83 0 00.34-.88zM208.17 296.33a.91.91 0 01.5.22 1.13 1.13 0 01.33.5 2.62 2.62 0 01.14.81 6.52 6.52 0 01-.07 1.12 5.54 5.54 0 01-.34 1.34 2 2 0 01-.51.77l.18 2.65v.12a.43.43 0 01-.06.17c0 .05-.05.06-.08.06l-.61-.08c-.06 0-.1 0-.11-.11a.75.75 0 010-.2l-.16-2.39-.42-.06-.34 2.33a.52.52 0 01-.06.2c0 .06-.07.08-.1.08l-.59-.08s-.05 0-.07-.09a.79.79 0 010-.22l1-7a.52.52 0 01.06-.2c0-.06.07-.08.1-.08zm-1 3.23l.51.06a.37.37 0 00.33-.13 1.68 1.68 0 00.19-1.26.38.38 0 00-.29-.22l-.51-.06zM209.29 304.22s-.06 0-.07-.09a.48.48 0 010-.21l1-7a.77.77 0 01.07-.2c0-.06.06-.08.1-.08l1.44.19a.68.68 0 01.48.26 1.41 1.41 0 01.25.57 2.52 2.52 0 01.07.75 5.55 5.55 0 01-.06.82 4.63 4.63 0 01-.11.54 2.35 2.35 0 01-.13.4 2.17 2.17 0 01-.12.26l-.09.14a1.85 1.85 0 01.14.72 5.39 5.39 0 01-.06.93 6.09 6.09 0 01-.18.87 3.27 3.27 0 01-.29.73 1.53 1.53 0 01-.4.49.67.67 0 01-.51.14zm1-1.59l.75.09c.08 0 .16 0 .24-.16a1.31 1.31 0 00.15-.46 1.5 1.5 0 000-.48c0-.14-.1-.21-.19-.22l-.74-.1zm1.5-3.5a1.17 1.17 0 000-.46c0-.12-.09-.18-.18-.19l-.7-.09-.18 1.24.7.09c.09 0 .16 0 .23-.14a1.43 1.43 0 00.08-.45zM212.83 304.68s-.06 0-.08-.1a.74.74 0 010-.21l1-7a.43.43 0 01.07-.2c0-.05.06-.08.09-.07l.59.07s.06 0 .07.1a.48.48 0 010 .21l-1 7a.52.52 0 01-.07.2c0 .06-.06.09-.1.08zM216.92 297.45a.81.81 0 01.53.29 1.89 1.89 0 01.35.68 4.13 4.13 0 01.15 1 6.68 6.68 0 01-.06 1.24v.42l-.06.37c0 .11 0 .23-.05.35s0 .26-.06.41a7.64 7.64 0 01-.3 1.21 4.15 4.15 0 01-.42.92 2 2 0 01-.53.57.8.8 0 01-.59.15l-1.21-.15a.12.12 0 01-.07-.1.48.48 0 010-.21l1-7a.59.59 0 01.07-.2c0-.05.06-.08.1-.07zm.15 3.06c.1-.83 0-1.28-.43-1.33l-.46-.06-.6 4.14.48.06c.38.05.64-.35.77-1.18 0-.15 0-.29.07-.43l.06-.39v-.38c0-.13.09-.28.11-.43zM220.51 297.91a.81.81 0 01.54.29 2.06 2.06 0 01.35.68 4.69 4.69 0 01.15 1 6.68 6.68 0 01-.06 1.24l-.06.42c0 .13 0 .25-.05.36s0 .24 0 .36l-.06.4a8.71 8.71 0 01-.3 1.22 4.15 4.15 0 01-.42.92 2 2 0 01-.53.57.81.81 0 01-.59.15l-1.21-.16s-.06 0-.08-.09a.74.74 0 010-.21l1-7a.4.4 0 01.07-.2c0-.06.06-.08.1-.08zm.16 3.06c.1-.83 0-1.28-.43-1.33l-.46-.06-.6 4.14.48.06c.38 0 .63-.35.77-1.18 0-.15 0-.29.07-.43s0-.26.05-.39l.06-.38c.02-.13.04-.28.06-.4zM224.18 304.36l.07.09a.49.49 0 010 .21l-.16 1.16a.93.93 0 01-.07.2c0 .05-.06.08-.1.07l-2.13-.27-.07-.09a.74.74 0 010-.21l1-7a.4.4 0 01.07-.2c0-.06.06-.08.09-.08l2.09.27s.06 0 .08.1a.74.74 0 010 .21l-.17 1.15a.52.52 0 01-.06.2c0 .06-.07.08-.1.08l-1.38-.18-.17 1.18 1.28.16a.12.12 0 01.07.1.48.48 0 010 .21l-.17 1.15a.52.52 0 01-.06.2c0 .06-.07.08-.1.08l-1.29-.16-.17 1.21zM226.94 306.48c-.05 0-.08 0-.11-.11a.69.69 0 010-.16l-.49-3.85-.54 3.67a.52.52 0 01-.06.2c0 .06-.07.08-.1.08l-.59-.08s-.06 0-.07-.09a.48.48 0 010-.21l1-7a.52.52 0 01.06-.2c0-.06.07-.08.1-.08l.47.06c.05 0 .08.05.1.12a.41.41 0 010 .16l.49 3.85.53-3.68a.77.77 0 01.07-.2.14.14 0 01.1-.08l.59.08.07.1a.48.48 0 010 .21l-1 7a.52.52 0 01-.06.2c0 .06-.07.08-.1.08z" fill="#37474f"/></g><g><path d="M142.21 105.27a1.09 1.09 0 00-.17-.13l-5.26-3V77.19a1.71 1.71 0 00-.41-1.27.64.64 0 00-.17-.13l-5.62-3.24a.75.75 0 00-.82 0L122 77.11a3.55 3.55 0 00-1.07.89 7.56 7.56 0 00-.85 1.65l-15.52 38.95a10.66 10.66 0 00-.67 3.81v8.45a1.67 1.67 0 00.42 1.27.7.7 0 00.17.13l5.62 3.25a.75.75 0 00.81-.06l10.67-6.16v1.63a1.69 1.69 0 00.42 1.27l.16.13 5.63 3.25a.79.79 0 00.82-.06l6.77-3.91a2.64 2.64 0 001-1.21 4.14 4.14 0 00.41-1.75v-8.12l4.45-2.57a2.63 2.63 0 001-1.21 4 4 0 00.41-1.75v-8.44a1.7 1.7 0 00-.44-1.28z" fill="currentColor"/><path d="M126.47 81.24v.1a7.51 7.51 0 00-.79 1.55l-15.47 39a9.49 9.49 0 00-.46 1.6l-5.66-3.27a10.25 10.25 0 01.45-1.58L120 79.65a7.74 7.74 0 01.86-1.65z" opacity=".15"/><path d="M110 135.47c-.63-.37-5.32-3.08-5.55-3.2l-.17-.14a1.7 1.7 0 01-.42-1.28v-8.43a11.37 11.37 0 01.22-2.22l5.62 3.25a11.3 11.3 0 00-.21 2.22v8.44a1.73 1.73 0 00.41 1.27zM127.47 98.5v14.65l-4.74-2.73 4.74-11.92z" opacity=".3"/><path opacity=".4" d="M127.47 113.15l-7.55 4.36 2.81-7.09 4.74 2.73z"/><path d="M127.62 135.44l.1.08-5.55-3.2a.43.43 0 01-.17-.13 1.67 1.67 0 01-.42-1.27v-1.63l5.63-3.25v8.12a1.74 1.74 0 00.41 1.28z" opacity=".3"/><path d="M142 105.11a.78.78 0 00-.74.09l-4.45 2.57v-5.66z" opacity=".15"/><path d="M136.16 75.77a.79.79 0 00-.78.07l-7.81 4.51a3.76 3.76 0 00-1 .89L120.89 78a3.72 3.72 0 011-.88l7.82-4.51a.75.75 0 01.82 0z" fill="#fff" opacity=".4"/><path d="M128.61 135.51a.77.77 0 01-1-.07 1.74 1.74 0 01-.41-1.28V126l-16.3 9.41a.74.74 0 01-1-.07 1.74 1.74 0 01-.41-1.28v-8.44a10.45 10.45 0 01.67-3.81l15.47-39a7.24 7.24 0 01.85-1.64 3.51 3.51 0 011.06-.89l7.81-4.51a.75.75 0 011 .07 1.71 1.71 0 01.41 1.27v30.58l4.45-2.57a.76.76 0 011 .07 1.7 1.7 0 01.41 1.28V115a4 4 0 01-.41 1.75 2.63 2.63 0 01-1 1.21l-4.45 2.57v8.12a4.14 4.14 0 01-.41 1.75 2.64 2.64 0 01-1 1.21zm-1.14-22.36V98.5l-7.55 19zM181.49 70a34.85 34.85 0 00-1.06-7.63 11.8 11.8 0 00-2.74-5.31 6.76 6.76 0 00-1.41-1.06l-5.64-3.25a6.94 6.94 0 00-3.21-.91 12.68 12.68 0 00-6.67 2.1 24.42 24.42 0 00-6.67 5.6 32.84 32.84 0 00-4.63 7.38 38.69 38.69 0 00-2.75 8.47 55.19 55.19 0 00-1.06 8.85q-.1 3.5-.1 7.23c0 2.5 0 4.81.1 7a35.47 35.47 0 001.06 7.63 11.81 11.81 0 002.75 5.31 6.12 6.12 0 001.4 1.1c.94.56 5.18 3 5.72 3.31a7.11 7.11 0 003.13.86 12.68 12.68 0 006.67-2.1 24.46 24.46 0 006.68-5.6 33.57 33.57 0 004.63-7.38 38.67 38.67 0 002.74-8.47 54.08 54.08 0 001.06-8.85q.1-3.33.1-7.07t-.1-7.21zm-20.44 28.3a22.2 22.2 0 01-.2-2.6q-.25-6.63 0-13.38a26.75 26.75 0 01.36-3.88 17.86 17.86 0 01.93-3.44 11.62 11.62 0 011.66-2.91 8.47 8.47 0 012.25-2q.16 1.17.24 2.58.21 6.48 0 13.38a29.35 29.35 0 01-.33 3.85 15.61 15.61 0 01-.93 3.45 11.91 11.91 0 01-1.69 2.92 8.75 8.75 0 01-2.29 2.05z" fill="currentColor"/><path d="M156.43 115.65c-.93-.53-4.7-2.7-5.57-3.22a6.65 6.65 0 01-1.4-1.1 11.81 11.81 0 01-2.75-5.31 35.47 35.47 0 01-1.06-7.63c-.06-2.14-.1-4.45-.1-7s0-4.91.1-7.23a55.06 55.06 0 011.06-8.85 38.81 38.81 0 011.75-6.06l5.62 3.25a39 39 0 00-1.74 6 53.12 53.12 0 00-1.06 8.86q-.1 3.48-.11 7.23c0 2.5 0 4.81.11 7a34.34 34.34 0 001.06 7.63 11.71 11.71 0 002.74 5.3 6.54 6.54 0 001.35 1.13z" opacity=".15"/><path d="M176.06 55.85a7.13 7.13 0 00-3-.79q-2.79-.14-6.68 2.1a24.57 24.57 0 00-6.67 5.61 33.21 33.21 0 00-4.63 7.36c-.19.41-.36.81-.53 1.23l-.47 1.19-5.62-3.25c.13-.36.27-.71.41-1.06s.38-.9.59-1.35a33.3 33.3 0 014.62-7.38 24.76 24.76 0 016.68-5.6 12.59 12.59 0 016.67-2.1 6.9 6.9 0 013.21.91z" fill="#fff" opacity=".4"/><path d="M171.92 89.32a29.32 29.32 0 01-.34 3.86 15.52 15.52 0 01-.92 3.44A12 12 0 01170 98l-5.62-3.25a12.61 12.61 0 00.63-1.34 15.77 15.77 0 00.94-3.45 29.35 29.35 0 00.33-3.85q.21-6.89 0-13.38c0-.94-.13-1.8-.24-2.59l.33-.21a4.35 4.35 0 012.59-.78 2.34 2.34 0 011.66 1 6.11 6.11 0 01.9 2.38 26.61 26.61 0 01.39 3.45q.21 6.45.01 13.34z" opacity=".3"/><path d="M170 98a10.51 10.51 0 01-1 1.58 8.86 8.86 0 01-2.59 2.21 4.38 4.38 0 01-2.58.77 2.33 2.33 0 01-1.68-1 5.76 5.76 0 01-.93-2.37c-.06-.28-.1-.57-.14-.87a8.6 8.6 0 002.29-2 11.4 11.4 0 001-1.58z" opacity=".4"/><path d="M166.38 57.16q3.88-2.25 6.68-2.1a6.71 6.71 0 014.63 2 11.8 11.8 0 012.74 5.31 34.85 34.85 0 011.06 7.63q.1 3.36.1 7.11t-.1 7.07a54.08 54.08 0 01-1.06 8.85 38.67 38.67 0 01-2.74 8.47 33.57 33.57 0 01-4.63 7.38 24.46 24.46 0 01-6.68 5.6 12.68 12.68 0 01-6.67 2.1 6.68 6.68 0 01-4.63-2 11.71 11.71 0 01-2.74-5.3 34.94 34.94 0 01-1.06-7.63c-.07-2.14-.1-4.45-.1-7s0-4.9.1-7.23a54 54 0 011.06-8.85 38.93 38.93 0 012.74-8.48 33.5 33.5 0 014.63-7.37 24.57 24.57 0 016.67-5.56zm5.54 32.16q.21-6.88 0-13.38a26.64 26.64 0 00-.39-3.44 6.17 6.17 0 00-.9-2.38 2.31 2.31 0 00-1.66-1 4.44 4.44 0 00-2.59.78 9 9 0 00-2.58 2.21 11.62 11.62 0 00-1.66 2.89 17.86 17.86 0 00-.93 3.44 26.75 26.75 0 00-.36 3.88q-.25 6.75 0 13.38a21.32 21.32 0 00.34 3.46 5.52 5.52 0 00.93 2.37 2.31 2.31 0 001.68 1 4.38 4.38 0 002.58-.77 9 9 0 002.62-2.21 11.88 11.88 0 001.68-2.92 15.76 15.76 0 00.93-3.45 31.14 31.14 0 00.31-3.86zM219.68 56a6.27 6.27 0 00-1.16-.85 6.56 6.56 0 00-.76-.35 6 6 0 01.58.25l-4.27-2.48 5.3-11.28c.21-.44.43-1 .66-1.57a4.82 4.82 0 00.36-1.77v-8.36a1.68 1.68 0 00-.41-1.26.91.91 0 00-.24-.16L214.25 25a.81.81 0 00-.79.07L189 39.14a2.31 2.31 0 00-.83 1 1.49 1.49 0 00-.14.24 4.17 4.17 0 00-.41 1.74v8.28a1.66 1.66 0 00.41 1.25 1.46 1.46 0 00.21.16c.19.09 4.54 2.62 5.41 3.12 0 0-.05 0-.06-.06a.75.75 0 001 .07l3.61-2.09-1.2 2.72a17.85 17.85 0 00-.71 1.67 3.17 3.17 0 00-.14.4c0 .13-.08.26-.11.4a.11.11 0 010 .05 1.9 1.9 0 000 .25v.08a3.1 3.1 0 00-.05.6v6.76a1.73 1.73 0 00.4 1.26 1.43 1.43 0 00.22.15l5.39 3.15-.08-.06a.75.75 0 00.94 0l4.23-2.45a7.94 7.94 0 01-1.52 3.72 12.92 12.92 0 01-4.06 3.6 5.83 5.83 0 01-3.13 1.07 5.76 5.76 0 01-.66-.1l-2.44-1.41a1 1 0 00-.34-.11 2 2 0 00-1.23.36l-6.44 3.72a2.18 2.18 0 00-.79 1 .49.49 0 000 .11 4.15 4.15 0 00-.22.65 2.88 2.88 0 00-.07.65 12.08 12.08 0 001.09 5.06 7.11 7.11 0 003 3.28c.82.46 4.08 2.38 5.34 3.09-.18-.11-.34-.24-.5-.36a6 6 0 00.72.48 7.9 7.9 0 004.77.78 17.12 17.12 0 006.45-2.42 29.39 29.39 0 0015.12-26.58c0-4.1-.83-6.9-2.5-8.42z" fill="currentColor"/><path d="M188.18 40.22a.64.64 0 000-.07l-.13.25a4 4 0 00-.41 1.74v8.32a1.63 1.63 0 00.41 1.26.7.7 0 00.2.15l5.43 3.13a.12.12 0 00-.06-.06 1.65 1.65 0 01-.41-1.26v-8.34a3.87 3.87 0 01.41-1.72 3 3 0 01.28-.46c-.06.09-.13.17-.19.28zM201.46 62.06l-5.56-3.21v6.93a1.73 1.73 0 00.4 1.26 1.43 1.43 0 00.22.15c.21.11 4.83 2.78 5.46 3.15l-.07-.07a1.65 1.65 0 01-.41-1.24v-6.8s-.04-.11-.04-.17z" opacity=".15"/><path d="M201.8 60.45c.24-.61.48-1.16.72-1.67l5.41-11.54-9.72 5.62-1.21 2.71c-.24.5-.48 1-.71 1.67a3 3 0 00-.14.39c0 .14-.08.26-.11.4v.06a2 2 0 010 .24.19.19 0 010 .08 2.25 2.25 0 000 .44l5.56 3.21a5.05 5.05 0 01.2-1.61z" opacity=".3"/><path d="M186.45 79.66v.11a3.41 3.41 0 00-.22.66 3 3 0 00-.08.64 12.13 12.13 0 001.1 5.07 7 7 0 003 3.27l5.33 3.1a.45.45 0 01-.1-.09 7.07 7.07 0 01-2.66-3.06 12 12 0 01-1.1-5.07 3.33 3.33 0 01.33-1.41 3 3 0 01.27-.44l-5.57-3.2a2.77 2.77 0 00-.3.42z" opacity=".15"/><path d="M197.71 76.16l-2.44-1.42a1.13 1.13 0 00-.34-.1 2.08 2.08 0 00-1.23.35l-6.44 3.73a1.76 1.76 0 00-.52.53l5.57 3.2a1.9 1.9 0 01.53-.53l6.43-3.71c.71-.41 1.26-.48 1.63-.19l-3.17-1.85z" opacity=".3"/><path d="M203.92 79.47a5.75 5.75 0 003.15-1.07 12.88 12.88 0 004.05-3.6 8.13 8.13 0 001.62-4.94c0-1.82-.55-2.86-1.62-3.08a6 6 0 00-4.05 1.1 7.85 7.85 0 01-1.52 3.71 12.88 12.88 0 01-4.05 3.6 5.71 5.71 0 01-3.14 1.06 4.25 4.25 0 01-.65-.09l3.17 1.84 1.26.89a3.75 3.75 0 001.78.58z" opacity=".4"/><path d="M214.07 52.55s3.08 1.8 4.27 2.48a.46.46 0 00-.14-.05.34.34 0 00-.15-.07 7.72 7.72 0 00-4.86-.48zM216.76 26.52l-2.52-1.47a.81.81 0 00-.79.07L189 39.21a2.36 2.36 0 00-.84.94.64.64 0 010 .07l5.55 3.22c.06-.11.13-.19.19-.28a3 3 0 01.19-.3 1.79 1.79 0 01.49-.43L219 28.34a.82.82 0 01.71-.11z" fill="#fff" opacity=".4"/><path d="M219 28.26a.75.75 0 011 .07 1.68 1.68 0 01.41 1.26v8.34a4.82 4.82 0 01-.41 1.77c-.23.61-.45 1.13-.66 1.57l-5.3 11.28-.88 1.88a7.58 7.58 0 015.33.71 6.63 6.63 0 011.16.85c1.67 1.53 2.5 4.33 2.5 8.42A29.39 29.39 0 01207.06 91a17.12 17.12 0 01-6.51 2.42 7.9 7.9 0 01-4.77-.78 7.12 7.12 0 01-3-3.27 12.2 12.2 0 01-1.1-5.07 3.3 3.3 0 01.33-1.41 2.07 2.07 0 01.8-1l6.43-3.72c.72-.41 1.26-.48 1.64-.2s.79.58 1.25.89a3.68 3.68 0 001.78.58 5.86 5.86 0 003.14-1.06 13.09 13.09 0 004.06-3.61 8 8 0 001.61-4.93c0-1.84-.53-2.86-1.61-3.08a6.09 6.09 0 00-4.06 1.08l-4.23 2.45a.75.75 0 01-1-.07 1.69 1.69 0 01-.4-1.26v-6.73a5 5 0 01.35-1.78c.24-.61.48-1.16.72-1.67l5.41-11.54-13.33 7.7a.75.75 0 01-1-.07 1.69 1.69 0 01-.41-1.26v-8.33a4.06 4.06 0 01.41-1.73 2.61 2.61 0 011-1.19z" fill="currentColor"/></g><g><path d="M414.41 218.19l7.08-.31 4.58 8.68s-2.85 1.48-13.05 1.6z" fill="#f28f8f"/><path d="M369.6 197.3c2.7 1.27 4.17 2.74 7.07 5.1 3.58 2.92 15.93 11.31 18.58 12a170.44 170.44 0 0021.36 3.44s-1.15 7 .34 10.45c-6.34.28-22.5.82-28.14-.51-6-1.42-12.66-4.8-17.78-7.77s-3.98-20.19-1.43-22.71z" fill="currentColor"/><path d="M369.6 197.3c2.7 1.27 4.17 2.74 7.07 5.1 3.58 2.92 15.93 11.31 18.58 12a170.44 170.44 0 0021.36 3.44s-1.15 7 .34 10.45c-6.34.28-22.5.82-28.14-.51-6-1.42-12.66-4.8-17.78-7.77s-3.98-20.19-1.43-22.71z" fill="#fff" opacity=".7"/><path d="M371 220.06c5.12 3 11.74 6.35 17.78 7.77 4.08 1 13.68.95 21.08.76a118.81 118.81 0 01-19-3.06 73.51 73.51 0 01-11.77-6.2c-3.33-2.37-3.53-6.62-5.23-12.77-2.26-8.16-4.25-9.26-4.25-9.26-2.56 2.52-3.69 19.79 1.39 22.76z" opacity=".1"/><path d="M409.89 228.59a14.48 14.48 0 01.31-8.69s-2.06 2-1.62 8.72z" fill="currentColor"/><path d="M409.89 228.59a14.48 14.48 0 01.31-8.69s-2.06 2-1.62 8.72z" opacity=".1"/><path d="M424.39 226.71c6-.21 8.23-3.25 9.07-8.52s.69-12.16.76-14-.47-2.46-1.2-2.56c-.27 0-1.43.25-1.56 2.2-.24 3.56-.33 5.75-1 5.72s-.57-2.66-.51-6.25c0-2.42 0-4.46-1.4-4.46s-1.79 1.44-1.86 4.71 0 5.7-.86 5.77c-.7 0-.56-3.43-.72-5.67s-.15-3.58-1.55-3.55-1.61 1.83-1.56 4a86.09 86.09 0 01-.23 9c-.39 1.29-1.73-1.89-2.71-3.2-1.61-2.15-3.58-1.17-2.78.79a38.83 38.83 0 012.18 7.4c.42 2.49 1.43 8.64 5.93 8.62z" fill="#ffa8a7"/><path d="M424.36 215.82s3.62 3.77 2.32 7.8a5.35 5.35 0 00.65-5.4 4.09 4.09 0 00-2.97-2.4z" fill="#f28f8f"/><path d="M345.39 404.83c-.13 1.14-.28 4.34-6.07 5.13s-9.44-1.12-11-3.9-1.19-5.06-1.44-7.64-2.37-3.95-3-5.28c-.9-1.95.42-5 .42-5zM387.63 395.77a3.49 3.49 0 01-.38 2.8 12.16 12.16 0 01-9.28 2.48 22.39 22.39 0 01-9.81-3.85 12.92 12.92 0 00-7.58-2.18c-2.79-.1-4.82-.72-5-1.45-.37-1.28-.37-2.1.23-2.06z" fill="#263238"/><path d="M345 402.2a31.89 31.89 0 00-2.66-3.17 28.64 28.64 0 01-6-15.36c0-.31-.06-.91-.37-1.1s-.63.08-1 .22a6 6 0 01-1.79.47 33.38 33.38 0 01-4.83-.19c-.4.05-.52 1.29-.49 2.62-.73-.46-1-1.38-1.62-1.91-.36-.29-.51-.3-.51-.77v-.9c-.52-.15-1 1.87-1.4 3.41-.5 1.78-1.12 3.79-.42 5.6a15.72 15.72 0 001.63 2.8 11.62 11.62 0 012.1 5.12c.08.81 0 1.64.13 2.45a7.16 7.16 0 005.06 5.87c3.52 1.11 8.82.93 11.93-1.53 1.09-.83.72-2.68.24-3.63zM385.29 392c-.77-.24-1.53-.52-2.28-.82a41.85 41.85 0 01-6.07-3c-.85-.52-1.69-1.06-2.51-1.63s-1.65-1.27-2.47-1.93a8.81 8.81 0 01-1.18-1.26 13 13 0 01-1.74-2.82 1 1 0 00-.43-.57.84.84 0 00-.82.17 4 4 0 01-.64.43l-.68.28a7.85 7.85 0 01-2.28.56c-2.94.26-3-.33-3.16.62a7.93 7.93 0 000 1.06c-1.55-.25-2.77-.76-2.84-1.34l-.18-1.88c-2.31-.32-2.08 2.38-2.36 5.34-.23 2.54-.82 4.73-.12 6.58 2.33 2 6.46 1.54 8.81 1.93 3.32.55 4.88 3 9.5 4.61 7.44 2.58 12.15-.4 13.54-1.69.9-1.64 1.08-3.59-2.09-4.64z" fill="#455a64"/><path d="M329.2 250.14c-.93 9-1.91 22.55-2.29 33.12-.7 19.86-.43 44.69-.43 44.69a68.59 68.59 0 00-2.14 12.73c-.47 12.69-.38 44.1-.38 44.1s5.26 5.3 13.13 1.14c0 0 7-42.87 8.92-55.38 1.87-11.93 5.5-38 5.5-38l1.64 36.05a52.37 52.37 0 00-1.23 16.26c.42 5.81 3.74 37.44 3.74 37.44 3 2.84 11.84 1.3 13.77-1 0 0 3.09-45.34 3.43-51.47.74-13.26 1-63.83 0-71.5s-43.66-8.18-43.66-8.18z" fill="#263238"/><path d="M351.51 292.56l2.31-15.29a30.68 30.68 0 0011-4.64s-1.8 4.08-8.82 7l-2.28 14.23-.55 34.75z"/><path d="M340 155.33s-.21 0-.54.11a2.48 2.48 0 00-1.33-2.8 2.67 2.67 0 00-3.45 1.41l3.76 1.73a5.24 5.24 0 00-2.86 2.44c-1 2.12.33 6.64 1.7 12.22a79 79 0 003 10.34c.63 1.63 1.77 1.68 1.77 1.68v-5.57l-.24-4.61s3-4.05 3.29-7.37c.41-4.26-.48-6-.48-6z" fill="#263238"/><path d="M342 171.54c-1.11 1-2-1.53-2.95-2.51s-4-2.3-5.5.91 1.39 7.71 3.68 8.77c3.34 1.55 4.84-1.82 4.84-1.82v13.93c3.52 6.35 11.29 6.14 14.89 7a12.33 12.33 0 00-.14-6.25v-4.54a16.7 16.7 0 004.6.25c3-.48 4.67-3 5.58-6.28 1.47-5.29 1.77-14.18-.27-24.45-3.4-2.63-14.92-2.21-22.06 2.32.52 9.13-1.53 11.7-2.67 12.67z" fill="#ffa8a7"/><path d="M356.82 187.06s-6.79-1.34-9.17-2.6a7.88 7.88 0 01-3.29-3.23 10.64 10.64 0 001.88 3.82c1.74 2.21 10.59 3.82 10.59 3.82z" fill="#f28f8f"/><path d="M353.73 169.64a1.45 1.45 0 11-1.45-1.45 1.45 1.45 0 011.45 1.45zM365.24 168.58a1.45 1.45 0 11-1.45-1.45 1.45 1.45 0 011.45 1.45zM351.77 165.78l-3 1.59a1.79 1.79 0 01.75-2.37 1.67 1.67 0 012.25.78z" fill="#263238"/><path d="M354.48 178.6l5.09 1.32a2.57 2.57 0 01-3.15 2 2.75 2.75 0 01-1.94-3.32z" fill="#b16668"/><path d="M355 179.67a3.05 3.05 0 00-.52.05 2.73 2.73 0 002 2.17 2.41 2.41 0 001.28 0 2.77 2.77 0 00-2.76-2.22z" fill="#f28f8f"/><path d="M366.44 166.06l-3.12-1.48a1.66 1.66 0 012.25-.86 1.82 1.82 0 01.87 2.34z" fill="#263238"/><path fill="#f28f8f" d="M358.23 167.93l.91 9.31 4.65-2.09-5.56-7.22z"/><path d="M336.08 190.82c-6.18 2.21-10.77 4.37-15.06 8.05 0 0 4.44 19.27 7.22 29.88 2.52 9.67.16 29.37.16 29.37s3.89 5.88 26 5.24C366.9 263 373 259 373 259s1.06-21.73.58-39.9c-.38-14.62-1.44-18.15-3.93-21.81-1.8-1.22-11.75-4.9-11.75-4.9a26.09 26.09 0 00-.86 5.45c-3.68-5.66-20.96-7.02-20.96-7.02z" fill="currentColor"/><path d="M336.08 190.82c-6.18 2.21-10.77 4.37-15.06 8.05 0 0 4.44 19.27 7.22 29.88 2.52 9.67.16 29.37.16 29.37s3.89 5.88 26 5.24C366.9 263 373 259 373 259s1.06-21.73.58-39.9c-.38-14.62-1.44-18.15-3.93-21.81-1.8-1.22-11.75-4.9-11.75-4.9a26.09 26.09 0 00-.86 5.45c-3.68-5.66-20.96-7.02-20.96-7.02z" fill="#fff" opacity=".3"/><path d="M333.15 240.67c-.26-6.51-1.67-18.85-1.57-28.2l-4.41-6.69-2.57 8.31c1.23 5.1 2.56 10.54 3.64 14.66 2.52 9.67.16 29.37.16 29.37s3.89 5.88 26 5.24h.4a37.07 37.07 0 01-11.87-3.36c-6.87-3.4-9.52-12.81-9.78-19.33z" opacity=".1"/><path d="M342.1 184.93V186c.2 1 2.25 3.45 7.41 5.77a17.37 17.37 0 017.48 6.06s-1.76-2.71-3.93-1.28-4.37 5-5.49 5-4.86-3.57-7.79-6.63c-2.45-2.58-3.7-4.13-3.7-4.13s4.01-5.79 6.02-5.86zM357 197.85c1.57-3.76 4.4-.55 4.58-.53.82.05-1.79-6.86-4.73-8.76v3z" fill="currentColor"/><path d="M342.1 184.93V186c.2 1 2.25 3.45 7.41 5.77a17.37 17.37 0 017.48 6.06s-1.76-2.71-3.93-1.28-4.37 5-5.49 5-4.86-3.57-7.79-6.63c-2.45-2.58-3.7-4.13-3.7-4.13s4.01-5.79 6.02-5.86zM357 197.85c1.57-3.76 4.4-.55 4.58-.53.82.05-1.79-6.86-4.73-8.76v3z" fill="#fff" opacity=".65"/><path d="M361.11 262.77c.26-13.86.62-49.46-4.12-64.92 0 0 4.47 32.91 2.05 65.19q1.08-.12 2.07-.27z" fill="currentColor"/><path d="M361.11 262.77c.26-13.86.62-49.46-4.12-64.92 0 0 4.47 32.91 2.05 65.19q1.08-.12 2.07-.27z" opacity=".1"/><path d="M338.56 214.48a38.54 38.54 0 0014.09-1.7l.22 2.72a35 35 0 01-14 1.46z" fill="currentColor"/><path d="M338.56 214.48a38.54 38.54 0 0014.09-1.7l.22 2.72a35 35 0 01-14 1.46z" opacity=".1"/><path d="M373.17 208.11a.2.2 0 00-.07-.2c-.05 0-.38-.23-.43-.26-.05 0-.12 0-.22.06a3.15 3.15 0 01-3.12.34 2.24 2.24 0 01-.35-.34.32.32 0 00-.09-.08l-.44-.27c-.1-.05-.2 0-.27.14-.93 2.11-2.84 4.22-4.08 4.72a.7.7 0 00-.25.17.53.53 0 00-.15.35c-.09 2.75 1.27 7.19 4.07 8.76a5.58 5.58 0 00.52.32c4.03-3.97 4.77-10.45 4.88-13.71z" fill="#ebebeb"/><path d="M367.74 221.45c-2.8-1.57-4.16-6-4.07-8.76a.55.55 0 01.06-.22l.43.28a.46.46 0 00-.05.21c-.11 2.6 1.12 6.72 3.63 8.49z" fill="#e0e0e0"/><path d="M373.17 208.11c-.11 3.26-.85 9.74-4.91 13.66-2.86-1.53-4.24-6-4.15-8.81a.53.53 0 01.15-.35.74.74 0 01.25-.17c1.24-.5 3.15-2.61 4.08-4.72.07-.15.16-.19.26-.14a.32.32 0 01.09.08 3 3 0 003.91.28.25.25 0 01.22-.07.2.2 0 01.1.24z" fill="#fafafa"/><path d="M368.85 207.58c-.1-.05-.19 0-.26.14-.93 2.11-2.84 4.22-4.08 4.72a.74.74 0 00-.25.17.53.53 0 00-.15.35c-.09 2.77 1.29 7.28 4.15 8.81a30.26 30.26 0 00.59-14.19z" fill="#f0f0f0"/><path d="M346.57 160.89s9.32 4.54 19.32.61c10.27-4.05 1.27-6.92 1.27-6.92z" fill="#263238"/><path d="M367.42 141c-7.75-1.72-16.22-2.63-26.39 1.54s-12.73 10.4-12.73 10.4 9.86 3.38 18.19 1.55S367.42 141 367.42 141z" fill="#455a64"/><path d="M334.13 158.62s-5.45-4.43-5.83-5.73a34.25 34.25 0 0011.82-1.45c6.68-2 13.93-8.7 21.41-10.25s10.4 2 10.4 2a35.42 35.42 0 01-4.74 8.65s-2.61 5.09-11.41 6.75-21.65.03-21.65.03z" fill="#37474f"/><path d="M334.13 158.62a14.94 14.94 0 00.42 1.74 8.37 8.37 0 00.81 1.47c3.12.61 10.62 1.1 20.51-1.26 6.2-1.49 9.06-3.21 10.24-4.45a3.36 3.36 0 001.2-2.9l-.12-1.37s-2.06 2.73-12.2 5.26a70.36 70.36 0 01-20.86 1.51z" fill="currentColor"/><path d="M334.13 158.62a14.94 14.94 0 00.42 1.74 8.37 8.37 0 00.81 1.47c3.12.61 10.62 1.1 20.51-1.26 6.2-1.49 9.06-3.21 10.24-4.45a3.36 3.36 0 001.2-2.9l-.12-1.37s-2.06 2.73-12.2 5.26a70.36 70.36 0 01-20.86 1.51z" opacity=".05"/><path d="M339.53 295.16c-1-1.46-3.31-2.78-4.17-3.64-1.52-1.54-3.74-4.79-3.41-5.39s1.26.18 3.2.17c3 0 3.82-1.18 3.79-2.28 0-.86-1.83-.7-4-1.18-1.91-.61-4.2-2.76-5.45-4.45s-2.26-6.1-2.26-6.1-6.49.09-11 3.16c0 0 1.29 6.7 2.77 11.45 1.65 5.33 5.39 11.21 11.08 12.53a13.83 13.83 0 007.16-.36 5.29 5.29 0 001.9-.94 2 2 0 00.39-2.97z" fill="#ffa8a7"/><path d="M321 198.87s-1-.2-2.68 3.66a61.94 61.94 0 00-3.27 11.53c-.67 3.22-3.87 20.13-3.87 27.4s2.17 21.88 5 34.33c3.48.35 9.46-.55 11.46-2.83-1.31-12.42-2.41-18.81-2.11-28.58 2-14.5 7.87-29.69 8.12-31.38.53-3.71-5.33-15.37-12.65-14.13z" fill="currentColor"/><path d="M321 198.87s-1-.2-2.68 3.66a61.94 61.94 0 00-3.27 11.53c-.67 3.22-3.87 20.13-3.87 27.4s2.17 21.88 5 34.33c3.48.35 9.46-.55 11.46-2.83-1.31-12.42-2.41-18.81-2.11-28.58 2-14.5 7.87-29.69 8.12-31.38.53-3.71-5.33-15.37-12.65-14.13z" fill="#fff" opacity=".65"/><path d="M316.27 260c-1.74-8.5-4.59-25.14-2.64-38.23-1.12 6.43-2.43 15-2.43 19.69 0 7.27 2.17 21.88 5 34.33a20.33 20.33 0 004.16-.08c-1.25-4.11-3.02-10.47-4.09-15.71z" opacity=".1"/><path d="M314.94 269.69c2.84.18 7.89-.62 10-2 0 0-3.68 1.63-10.19.7z" fill="currentColor"/><path d="M314.94 269.69c2.84.18 7.89-.62 10-2 0 0-3.68 1.63-10.19.7z" opacity=".1"/><g><path d="M364.79 145.63v-.15l-.32-.2h-.17a2.37 2.37 0 01-2.33.25 1.6 1.6 0 01-.26-.26.19.19 0 00-.07-.06l-.32-.2c-.07 0-.14 0-.19.11a7.61 7.61 0 01-3.05 3.52.5.5 0 00-.19.13.41.41 0 00-.11.26c-.07 2 .95 5.37 3 6.54a3 3 0 00.38.24c3-2.91 3.55-7.74 3.63-10.18z" fill="#ebebeb"/><path d="M360.74 155.59c-2.1-1.17-3.11-4.49-3-6.54a.42.42 0 010-.16l.33.2a.29.29 0 000 .16c-.07 1.94.79 5.02 2.67 6.34z" fill="#e0e0e0"/><path d="M364.79 145.63c-.08 2.44-.63 7.27-3.67 10.2-2.13-1.14-3.16-4.51-3.09-6.58a.36.36 0 01.11-.26.59.59 0 01.18-.13 7.5 7.5 0 003.05-3.52c.05-.11.13-.15.2-.11a.19.19 0 01.07.06 2.19 2.19 0 002.92.21c.07-.05.12-.06.16 0s.08.05.07.13z" fill="#fafafa"/><path d="M361.57 145.23c-.07 0-.15 0-.2.11a7.5 7.5 0 01-3.05 3.52.59.59 0 00-.18.13.36.36 0 00-.11.26c-.07 2.07 1 5.44 3.09 6.58a22.54 22.54 0 00.45-10.6z" fill="#f0f0f0"/></g></g><g><path d="M349.86 130l-5.46-12.44 4.39-12.67v-7.81l-13.44 7.76v7.76l5.78 12.18a.87.87 0 00.39.35z" fill="currentColor"/><path d="M349.86 130l-5.46-12.44 4.39-12.67v-7.81l-13.44 7.76v7.76l5.78 12.18a.87.87 0 00.39.35z" opacity=".2"/><path d="M390.07 55.14a8.93 8.93 0 00-4-7l-3.28-1.89a8.88 8.88 0 00-8.06 0l-77.12 44.61a8.9 8.9 0 00-4 7v30.74a8.93 8.93 0 004 7l3.28 1.89a8.88 8.88 0 008.06 0l34.84-20 5.77 12.17a.86.86 0 001.55-.15l6.1-19.77L386 92.88a8.91 8.91 0 004-7z" fill="currentColor"/><path d="M293.58 128.6a8.93 8.93 0 004 7l3.28 1.89a9 9 0 007.37.33c-1.89.71-3.34-.36-3.34-2.65v-30.79a8.2 8.2 0 011.18-4l-11.34-6.55a8.26 8.26 0 00-1.18 4z" opacity=".2"/><path d="M389.94 54c-.47-1.71-2-2.25-3.89-1.18L309 97.41a7.84 7.84 0 00-2.84 3l-11.33-6.54a8 8 0 012.83-3l77.08-44.6a9 9 0 018.07 0l3.29 1.9a8.93 8.93 0 013.84 5.83z" fill="#fff" opacity=".5"/><path d="M310.48 123.13v-16.25a2.14 2.14 0 01.15-.88 1.11 1.11 0 01.47-.51l4.61-2.67c.17-.09.29-.06.37.1a2.33 2.33 0 01.12.91v.8a3.6 3.6 0 01-.12 1.05.84.84 0 01-.37.52l-2.61 1.51v3.77l2.46-1.42c.17-.1.29-.07.37.09a2.44 2.44 0 01.11.92v.8a3.74 3.74 0 01-.11 1 .87.87 0 01-.37.52l-2.46 1.42v6.76a1.64 1.64 0 01-1 1.39l-.67.38c-.62.43-.95.34-.95-.21zM317.25 111q0-9.22 4.39-11.77 2.14-1.23 3.26.37c.74 1.06 1.12 3.18 1.12 6.34a21.71 21.71 0 01-1.12 7.64 7.75 7.75 0 01-3.26 4.13q-4.38 2.5-4.39-6.71zm5.38 2.24a6.69 6.69 0 00.55-2.11 27.55 27.55 0 00.19-3.66 22.45 22.45 0 00-.19-3.41 2.52 2.52 0 00-.55-1.48c-.25-.2-.57-.18-1 0a2.53 2.53 0 00-1 1.08 7 7 0 00-.57 2.12 27.42 27.42 0 00-.19 3.64 22.69 22.69 0 00.19 3.42 2.51 2.51 0 00.57 1.48.83.83 0 001 0 2.63 2.63 0 001-1.12zM327.56 113.27V97a2 2 0 01.16-.88 1.11 1.11 0 01.51-.54L331 94a2.29 2.29 0 012.48-.26c.63.43.94 1.55.94 3.37a9 9 0 01-1.59 5.28v.11a1.13 1.13 0 01.67.64 4.44 4.44 0 01.45 1.29l1 4.38.05.28c0 .46-.34.89-1 1.29l-.58.34c-.59.34-.93.31-1-.11l-.89-4.39a1.08 1.08 0 00-.34-.6c-.13-.08-.33 0-.61.12l-.4.23v5.83a1.67 1.67 0 01-1 1.41l-.57.33c-.72.36-1.05.28-1.05-.27zm3.52-11.63a1.69 1.69 0 00.62-.93 5.19 5.19 0 00.26-1.8 2.64 2.64 0 00-.26-1.44.47.47 0 00-.68-.11l-.88.51v4.31zM336.35 108.72a1.09 1.09 0 01-.15-.7V92a2.09 2.09 0 01.15-.85 1.11 1.11 0 01.47-.51l3-1.73c2.35-1.36 3.52-.58 3.52 2.32a8.92 8.92 0 01-1.51 5.13v.09a1.28 1.28 0 011.34.73 5 5 0 01.49 2.48 9.46 9.46 0 01-1 4.24 7 7 0 01-2.84 3l-3.05 1.77c-.16.15-.32.15-.42.05zm3.49-12.47a1.85 1.85 0 00.79-1 5.05 5.05 0 00.26-1.82 2.79 2.79 0 00-.24-1.44q-.24-.34-.78 0l-1.19.69v4.25zm.12 7.51a2.12 2.12 0 00.91-1.06 5.23 5.23 0 00.29-2 2.65 2.65 0 00-.28-1.52c-.19-.23-.5-.22-.92 0l-1.28.73v4.52zM345.15 103.11V86.6a1.62 1.62 0 011-1.41l.71-.41c.63-.37.95-.26.95.3v16.51a1.63 1.63 0 01-.95 1.41l-.71.4c-.68.38-1 .28-1-.29zM349.78 101a1 1 0 01-.16-.7v-16a2 2 0 01.16-.88 1 1 0 01.46-.51l3.19-1.84q2.18-1.26 3.21.39c.68 1.1 1 3.17 1 6.19a22.19 22.19 0 01-1 7.38 7.47 7.47 0 01-3.21 4.1l-3.19 1.83c-.24.11-.37.12-.46.04zm3.56-5.19a3.08 3.08 0 001.28-2 20.41 20.41 0 00.38-4.59 14.66 14.66 0 00-.38-4.15c-.26-.7-.68-.89-1.28-.54l-1.07.61V96.4zM359.44 95.39a1.11 1.11 0 01-.15-.7v-16a2.14 2.14 0 01.15-.88 1.11 1.11 0 01.47-.51l3.19-1.84q2.17-1.26 3.2.39t1 6.19a22 22 0 01-1 7.38 7.41 7.41 0 01-3.2 4.1l-3.19 1.83c-.21.13-.37.14-.47.04zm3.57-5.2a3.07 3.07 0 001.28-2 20.48 20.48 0 00.38-4.59 14.66 14.66 0 00-.38-4.15c-.26-.71-.69-.89-1.28-.55l-1.07.62v11.3zM369.11 89.81a1.11 1.11 0 01-.15-.7v-16a2.12 2.12 0 01.15-.87 1.18 1.18 0 01.47-.52l4.94-2.85a.23.23 0 01.37.09 2.39 2.39 0 01.12.92v.8a3.64 3.64 0 01-.12 1 .87.87 0 01-.37.52l-2.95 1.8v3.74l2.62-1.51c.17-.09.29-.06.37.1a2.3 2.3 0 01.12.91V78a3.6 3.6 0 01-.12 1.05.84.84 0 01-.37.52l-2.62 1.51v4.18l3-1.71c.17-.1.29-.07.36.1a2.63 2.63 0 01.11.92v.8a4 4 0 01-.11 1 .82.82 0 01-.36.52l-5 2.86c-.2.15-.36.16-.46.06zM376.53 85V68.48a1.61 1.61 0 011-1.38l.43-.26a1 1 0 01.54-.16c.13 0 .24.14.33.38l3 6.67a13.89 13.89 0 01.57 1.69l.07-.1c-.09-.84-.14-1.49-.14-2v-8.19a1.62 1.62 0 011-1.38l.41-.23c.64-.38 1-.29 1 .26v16.51a1.64 1.64 0 01-1 1.39l-.32.18a1.06 1.06 0 01-.56.18c-.14 0-.26-.14-.35-.38l-3.2-6.92a10.16 10.16 0 01-.45-1.39l-.08.12a14.88 14.88 0 01.13 1.68v8.49a1.62 1.62 0 01-1 1.39l-.4.23c-.65.37-.98.28-.98-.26z" fill="#455a64"/></g><g><path d="M124.7 425.24c8.41-8.69 13.36-44 5.15-50.91H88.08c-8.2 6.88-3.27 42.21 5.15 50.9l.23.24.29.28a8.57 8.57 0 00.76.69l.2.16.63.48a10 10 0 001.09.7c6.92 4.05 18.15 4.05 25.07 0a10 10 0 001.09-.7c.21-.15.4-.3.6-.46l.24-.19c.27-.22.51-.44.74-.66l.33-.33z" fill="#455a64"/><path d="M91.71 371.55c-9.53 5.57-9.53 14.59 0 20.15s25 5.56 34.51 0 9.53-14.58 0-20.15-24.98-5.55-34.51 0z" fill="#455a64"/><path d="M91.71 371.55c-9.53 5.57-9.53 14.59 0 20.15s25 5.56 34.51 0 9.53-14.58 0-20.15-24.98-5.55-34.51 0z" fill="#fff" opacity=".1"/><path d="M96.29 374.23c-7 4.08-7 10.71 0 14.79s18.35 4.09 25.35 0 7-10.71 0-14.79-18.35-4.09-25.35 0z" fill="#263238"/><path d="M121.63 381.25c-7-4.09-18.34-4.09-25.34 0a11.69 11.69 0 00-4.19 3.89 11.76 11.76 0 004.19 3.86c7 4.09 18.35 4.09 25.34 0a11.72 11.72 0 004.2-3.88 11.65 11.65 0 00-4.2-3.87z" fill="#f5f5f5"/><g><path d="M85.81 305.77l16.7 11.42-15.79-6a28.78 28.78 0 003.12 12.14s10.43 5.06 16.1 10.4l-13.89-4.37a15.32 15.32 0 00.43 7.26c.09.32.19.65.29 1 .74 2.22 1.79 6.43 3.56 11.4a73.25 73.25 0 005.74 12.56 51.3 51.3 0 003.82 5.64l.26.34q3.87-2.58 8-5.05c1.6-4.1 3.37-14.06 3.69-22.14 1.21-30.93-23.23-46.89-42.31-51.47.06.01 7.04 7.6 10.28 16.87z" fill="currentColor"/><path d="M85.81 305.77l16.7 11.42-15.79-6a28.78 28.78 0 003.12 12.14s10.43 5.06 16.1 10.4l-13.89-4.37a15.32 15.32 0 00.43 7.26c.09.32.19.65.29 1 .74 2.22 1.79 6.43 3.56 11.4a73.25 73.25 0 005.74 12.56 51.3 51.3 0 003.82 5.64l.26.34q3.87-2.58 8-5.05c1.6-4.1 3.37-14.06 3.69-22.14 1.21-30.93-23.23-46.89-42.31-51.47.06.01 7.04 7.6 10.28 16.87z" opacity=".3"/><path d="M99.13 306.12a22.94 22.94 0 014.34 5.23 48.28 48.28 0 013.06 6.1 62.65 62.65 0 013.74 13.08 57.68 57.68 0 01-1.47 26.89.44.44 0 00.85.26 58.35 58.35 0 001.06-27.23 62.82 62.82 0 00-4-13.09 47.87 47.87 0 00-3.16-6.07 23.37 23.37 0 00-4.42-5.17z" fill="#fafafa"/><path d="M157.52 321.57c-.38.49-6.29 5.64-15.36 21.07l-18.39 4.62 15 1.35-6.88 12-15.7 3.88 12.44 1.54s-3 12.18-11.61 17.55c-4.78 3-7.15 3.48-8.67 2.15-1.06-.94-1.52-6.71-2.58-11.84s-1.45-13.52 3-23.83a31.46 31.46 0 014.78-7.64c11.17-13.42 33.03-20.59 43.97-20.85z" fill="currentColor"/><path d="M157.52 321.57c-.38.49-6.29 5.64-15.36 21.07l-18.39 4.62 15 1.35-6.88 12-15.7 3.88 12.44 1.54s-3 12.18-11.61 17.55c-4.78 3-7.15 3.48-8.67 2.15-1.06-.94-1.52-6.71-2.58-11.84s-1.45-13.52 3-23.83a31.46 31.46 0 014.78-7.64c11.17-13.42 33.03-20.59 43.97-20.85z" opacity=".15"/><path d="M112.17 355.34a48.67 48.67 0 00-3.17 13.47 145.8 145.8 0 00.22 17.45 2.92 2.92 0 01-.91-.51c-1.06-.94-1.52-6.71-2.58-11.84s-1.45-13.52 3-23.83a31.46 31.46 0 014.78-7.64c11.2-13.49 33.06-20.63 44-20.89-16.68 3.39-34.29 15.26-42.7 28.59a34.19 34.19 0 00-2.64 5.2z" opacity=".1"/><path d="M140.91 327.48c-8.17 4-15.85 9.28-21.77 16.31a43.5 43.5 0 00-7.21 11.67 41.81 41.81 0 00-3 13.34h.09a53.43 53.43 0 013.72-13 50.07 50.07 0 016.94-11.55 57.58 57.58 0 019.76-9.41 75.9 75.9 0 0111.5-7.28v-.08z" fill="#fafafa"/><path d="M60.05 333.25a33.68 33.68 0 014 0 64.21 64.21 0 0115.67 2.9c1.89.59 3.78 1.26 5.66 2 .93.39 1.86.8 2.78 1.23a45 45 0 0112.34 8.3 28.44 28.44 0 014.39 5.5c.16.26.33.52.48.78.39.68.73 1.36 1.07 2a38.81 38.81 0 014.56 18.87c.09 4.62-1.19 10-2 10.89a2.23 2.23 0 01-.38.32c-1.27.91-3.39.54-7.42-1.43-8.07-3.94-11.76-14.86-11.76-14.86l10.78-2.45-14.12-2-6.17-8.54 10.34-2.47L76 352.87a209.33 209.33 0 00-15.88-19.6z" fill="currentColor"/><path d="M64.1 333.22a64.21 64.21 0 0115.67 2.9c1.89.59 3.78 1.26 5.66 2 .93.39 1.86.8 2.78 1.23a45 45 0 0112.34 8.3 28.44 28.44 0 014.39 5.5c.16.26.33.52.48.78.39.68.73 1.36 1.07 2a38.81 38.81 0 014.51 18.9c.09 4.62-1.19 10-2 10.89a2.23 2.23 0 01-.38.32 2.42 2.42 0 01-.85.37c.57-7.2-4-25.13-9.68-32.29-6-7.45-19.73-18-38-20.85a33 33 0 014.01-.05z" opacity=".05"/><path d="M107.81 386.41a61.14 61.14 0 00-1.91-15.75A50.94 50.94 0 0099.83 356a36 36 0 00-5.13-6.15 52.73 52.73 0 00-6.14-5.12 59.51 59.51 0 00-14.07-7.4h-.06a.06.06 0 000 .06 78.8 78.8 0 0113.58 8 66.22 66.22 0 016 5 35.22 35.22 0 015.15 5.9 50.3 50.3 0 016.23 14.42 61.24 61.24 0 012.25 15.64l.17.06z" fill="#fafafa"/></g></g></svg>
